<svg id="组_24794" data-name="组 24794" xmlns="http://www.w3.org/2000/svg" xmlns:xlink="http://www.w3.org/1999/xlink" width="75" height="75" viewBox="0 0 75 75">
  <defs>
    <linearGradient id="linear-gradient" x1="0.5" x2="0.5" y2="1" gradientUnits="objectBoundingBox">
      <stop offset="0" stop-color="#e8f1fa"/>
      <stop offset="1" stop-color="#f5f8fa"/>
    </linearGradient>
    <clipPath id="clip-path">
      <circle id="椭圆_162" data-name="椭圆 162" cx="37.5" cy="37.5" r="37.5" fill="none"/>
    </clipPath>
  </defs>
  <g id="组_24792" data-name="组 24792">
    <circle id="椭圆_163" data-name="椭圆 163" cx="37.5" cy="37.5" r="37.5" fill="url(#linear-gradient)"/>
    <path id="矩形_4114" data-name="矩形 4114" d="M14.68,16.461h45.6a1.65,1.65,0,0,1,1.65,1.649h0a1.65,1.65,0,0,1-1.65,1.65H14.68a1.65,1.65,0,0,1-1.65-1.65h0A1.65,1.65,0,0,1,14.68,16.461Z" fill="#c5d2eb"/>
    <g id="组_24772" data-name="组 24772">
      <path id="联合_15" data-name="联合 15" d="M7.851,62.983h31.69a7.279,7.279,0,0,0,2.733,5.552c1.837,1.514,2.043,2.328,4.423,2.3H7.85A7.852,7.852,0,0,1,0,62.984H7.851Z" fill="#dde6f0"/>
      <path id="联合_18" data-name="联合 18" d="M60.4,18.11a5.65,5.65,0,0,0-4.416,2.3,8.911,8.911,0,0,0-1.831,5.55h0V62.983h0a7.974,7.974,0,0,1-2.2,5.551,7.3,7.3,0,0,1-10.319.315q-.162-.153-.315-.315a7.979,7.979,0,0,1-2.2-5.551H14.866V25.961h0a7.979,7.979,0,0,1,2.2-5.551,7.313,7.313,0,0,1,5.317-2.3Z" fill="#fff"/>
    </g>
    <path id="矩形_4123" data-name="矩形 4123" d="M22.49,27.158H46.409a1.032,1.032,0,0,1,1.031,1.031h0a1.032,1.032,0,0,1-1.031,1.031H22.49a1.032,1.032,0,0,1-1.031-1.031h0A1.032,1.032,0,0,1,22.49,27.158Z" fill="#b6c3dd"/>
    <path id="矩形_4124" data-name="矩形 4124" d="M22.49,33.345h10.1a1.032,1.032,0,0,1,1.031,1.031h0a1.032,1.032,0,0,1-1.031,1.031H22.49a1.032,1.032,0,0,1-1.031-1.031h0A1.032,1.032,0,0,1,22.49,33.345Z" fill="#b6c3dd"/>
    <path id="矩形_4128" data-name="矩形 4128" d="M22.49,39.531h5.361a1.032,1.032,0,0,1,1.031,1.031h0a1.032,1.032,0,0,1-1.031,1.031H22.49a1.032,1.032,0,0,1-1.031-1.031h0A1.032,1.032,0,0,1,22.49,39.531Z" fill="#b6c3dd"/>
    <g id="组_24791" data-name="组 24791">
      <g id="组_24790" data-name="组 24790" clip-path="url(#clip-path)">
        <g id="蒙版组_1088" data-name="蒙版组 1088">
          <g id="组_24773" data-name="组 24773">
            <path id="矩形_4125" data-name="矩形 4125" d="M55.037,55.358h0a1.065,1.065,0,0,1,1.508,0l3.015,3.015a1.066,1.066,0,0,1,0,1.507h0a1.067,1.067,0,0,1-1.508,0l-3.015-3.015A1.066,1.066,0,0,1,55.037,55.358Z" fill="#b6c3dd"/>
            <path id="矩形_4126" data-name="矩形 4126" d="M58.052,58.372h0a2.131,2.131,0,0,1,3.015,0L67.1,64.4a2.132,2.132,0,0,1,0,3.016h0a2.133,2.133,0,0,1-3.015,0l-6.029-6.03A2.131,2.131,0,0,1,58.052,58.372Z" fill="#b6c3dd"/>
            <path id="路径_20091" data-name="路径 20091" d="M36.945,37.27a13.853,13.853,0,1,1,0,19.592,13.855,13.855,0,0,1,0-19.592Z" fill="#edf3f9"/>
            <path id="路径_20091_-_轮廓" data-name="路径 20091 - 轮廓" d="M38.717,39.042a11.119,11.119,0,1,0,3.755-2.491,11.351,11.351,0,0,0-3.755,2.491m-1.772-1.772a13.853,13.853,0,1,1,0,19.591h0a13.854,13.854,0,0,1,0-19.592h0Z" fill="#b6c3dd"/>
          </g>
        </g>
      </g>
    </g>
  </g>
</svg>
