<svg xmlns="http://www.w3.org/2000/svg" xmlns:xlink="http://www.w3.org/1999/xlink" width="400" height="320" viewBox="0 0 400 320">
  <defs>
    <clipPath id="clip-path">
      <rect id="矩形_47" data-name="矩形 47" width="400" height="320.333" fill="none"/>
    </clipPath>
    <clipPath id="clip-path-3">
      <rect id="矩形_41" data-name="矩形 41" width="26.371" height="16.578" transform="translate(335.075 121.842)" fill="none"/>
    </clipPath>
    <clipPath id="clip-path-4">
      <rect id="矩形_40" data-name="矩形 40" width="3.459" height="5.562" transform="translate(346.037 123.193)" fill="none"/>
    </clipPath>
    <clipPath id="clip-path-5">
      <rect id="矩形_42" data-name="矩形 42" width="3.661" height="3.661" transform="translate(348.9 73.074)" fill="none"/>
    </clipPath>
    <clipPath id="clip-path-6">
      <rect id="矩形_43" data-name="矩形 43" width="3.661" height="3.661" transform="translate(330 73.173)" fill="none"/>
    </clipPath>
    <clipPath id="clip-无数据提示-空白面板-按需添加文字内容">
      <rect width="400" height="320"/>
    </clipPath>
  </defs>
  <g id="无数据提示-空白面板-按需添加文字内容" clip-path="url(#clip-无数据提示-空白面板-按需添加文字内容)">
    <rect width="400" height="320" fill="#fff"/>
    <g id="组_52" data-name="组 52">
      <g id="组_51" data-name="组 51" clip-path="url(#clip-path)">
        <rect id="矩形_33" data-name="矩形 33" width="400" height="4" transform="translate(0 316.333)" fill="#ddd"/>
        <rect id="矩形_34" data-name="矩形 34" width="4" height="19.931" transform="translate(63.449 264.43)" fill="#00942c"/>
        <rect id="矩形_35" data-name="矩形 35" width="2" height="19.931" transform="translate(63.449 264.43)" fill="#00c43c"/>
        <path id="路径_125" data-name="路径 125" d="M77.449,316.333h-24l-4-31.889h32Z" fill="#e2e2e0"/>
        <path id="路径_126" data-name="路径 126" d="M80.023,295.605h-29.2l-.874-7.972h31Z" fill="#aeb0af"/>
        <rect id="矩形_36" data-name="矩形 36" width="40" height="7.972" transform="translate(45.449 284.444)" fill="#e2e2e0"/>
        <path id="路径_127" data-name="路径 127" d="M65.449,284.444v31.889h12l4-31.889Z" fill="#c9c9c9"/>
        <path id="路径_128" data-name="路径 128" d="M65.449,287.557v8.048H80.023l.926-7.973Z" fill="#959696"/>
        <rect id="矩形_37" data-name="矩形 37" width="20" height="7.972" transform="translate(65.449 284.444)" fill="#c9c9c9"/>
        <g id="组_50" data-name="组 50">
          <g id="组_49" data-name="组 49" clip-path="url(#clip-path)">
            <path id="路径_129" data-name="路径 129" d="M65.449,258.285h0L61.493,253.8a5.718,5.718,0,0,1,1.624-8.939,5.4,5.4,0,0,1,4.664,0A5.718,5.718,0,0,1,69.4,253.8Z" fill="#f84e1b"/>
            <path id="路径_130" data-name="路径 130" d="M65.449,258.285h0l-3.956,4.483a5.718,5.718,0,0,0,1.624,8.939,5.4,5.4,0,0,0,4.664,0,5.718,5.718,0,0,0,1.624-8.939Z" fill="#f84e1b"/>
            <path id="路径_131" data-name="路径 131" d="M65.449,258.285h0l-4.5,3.943a5.76,5.76,0,0,1-8.97-1.619,5.351,5.351,0,0,1,0-4.648,5.76,5.76,0,0,1,8.97-1.619Z" fill="#f84e1b"/>
            <path id="路径_132" data-name="路径 132" d="M65.449,258.285h0l4.5,3.943a5.76,5.76,0,0,0,8.97-1.619,5.351,5.351,0,0,0,0-4.648,5.76,5.76,0,0,0-8.97-1.619Z" fill="#e0471b"/>
            <path id="路径_133" data-name="路径 133" d="M69.4,262.768l-3.956-4.483v13.952a5.453,5.453,0,0,0,2.332-.53,5.718,5.718,0,0,0,1.624-8.939" fill="#e0471b"/>
            <path id="路径_134" data-name="路径 134" d="M69.4,253.8l-3.956,4.483V244.333a5.453,5.453,0,0,1,2.332.53A5.718,5.718,0,0,1,69.4,253.8" fill="#e0471b"/>
            <path id="路径_135" data-name="路径 135" d="M65.463,262.271h-.028a3.986,3.986,0,0,1,0-7.972h.028a3.986,3.986,0,1,1,0,7.972" fill="#ffcd0e"/>
            <path id="路径_136" data-name="路径 136" d="M65.449,254.3h0a3.986,3.986,0,1,1,0,7.972" fill="#e5ba0b"/>
            <path id="路径_137" data-name="路径 137" d="M52.291,69.754l2.294,3.277,98.3-68.83-1-1.428Z" fill="#666"/>
            <path id="路径_138" data-name="路径 138" d="M249.931,69.754l-2.294,3.277L149.338,4.2l1-1.428Z" fill="#666"/>
            <path id="路径_139" data-name="路径 139" d="M151.111,10h0a5,5,0,1,1,5-5,5,5,0,0,1-5,5" fill="#e48c28"/>
            <rect id="矩形_38" data-name="矩形 38" width="260" height="166" transform="translate(21.111 40)" fill="#b36840"/>
            <rect id="矩形_39" data-name="矩形 39" width="252" height="158" transform="translate(25.111 44)" fill="#fcfefe"/>
            <path id="路径_140" data-name="路径 140" d="M151,10.838h0a5,5,0,1,1,5-5,5,5,0,0,1-5,5" fill="#b36a17"/>
            <path id="路径_141" data-name="路径 141" d="M343.663,40.98a23.006,23.006,0,0,0-2.344.12,16.432,16.432,0,0,0-4.416,1.04,9.479,9.479,0,0,0-3.288,2.116,4,4,0,0,0-.7-.059c-.088,0-.176,0-.265.008a4.34,4.34,0,0,0-1.394.352,8.531,8.531,0,0,0-2.359,1.656,12.724,12.724,0,0,0-3.045,4.486,19.406,19.406,0,0,0-1.3,5.309,36.134,36.134,0,0,0-.158,5.512c.021.527.049,1.051.078,1.577l.013.258c.024.4.045.785.063,1.174.059,1.153.1,2.219.12,3.257a52.576,52.576,0,0,1-.189,6.222c-.105,1.073-.256,2.17-.451,3.26-.1.559-.214,1.115-.335,1.67l-.125.55-.054.24-.014.05c-.072.306-.142.612-.208.917a32.012,32.012,0,0,0-.7,6.548,27.26,27.26,0,0,0,.764,6.537,23.44,23.44,0,0,0,1.006,3.146,18.848,18.848,0,0,0,1.267,2.612,20.718,20.718,0,0,0,3.392,4.261,30.277,30.277,0,0,0,4.357,3.489,58.792,58.792,0,0,0,9.851,5.136,48.507,48.507,0,0,0,5.991,2.111,37.379,37.379,0,0,0,6.448,1.208c.912.086,1.809.129,2.667.129a24.771,24.771,0,0,0,3.822-.291,20.573,20.573,0,0,0,3.078-.727,16.386,16.386,0,0,0,2.667-1.139,21.785,21.785,0,0,0,4.836-3.543,28.982,28.982,0,0,0,3.925-4.637c.542-.79,1.061-1.635,1.544-2.516.254-.462.471-.893.664-1.317a12.183,12.183,0,0,0,.59-1.57,17.221,17.221,0,0,0,.473-6.157c-.014-.218-.031-.439-.048-.656-.026-.319-.051-.64-.067-.96a10.592,10.592,0,0,1,.036-1.451l-.01-.055a16.823,16.823,0,0,1,.636-2.828c.133-.425.271-.843.411-1.263l.023-.071c.168-.5.333-.994.485-1.5a16.917,16.917,0,0,0,.629-2.959,15.55,15.55,0,0,0,.058-2.85,16.982,16.982,0,0,0-1.367-5.525,18.277,18.277,0,0,0-3.021-4.815,17.624,17.624,0,0,0-2.121-2.073,18.136,18.136,0,0,0-2.753-1.844c-.624-.349-1.277-.684-1.853-.98l-.167-.083a31.053,31.053,0,0,1-3.768-2.148c-.358-.261-.664-.5-.961-.763a8.85,8.85,0,0,1-.919-.937,12.968,12.968,0,0,1-1.683-2.729c-.357-.781-.673-1.581-1.019-2.471l-.027-.069-.078-.205c-.261-.675-.66-1.685-1.114-2.65a22.672,22.672,0,0,0-2.712-4.482,17.792,17.792,0,0,0-1.7-1.86,15.87,15.87,0,0,0-1.974-1.588,17.363,17.363,0,0,0-4.726-2.277,20,20,0,0,0-4.137-.794c-.8-.074-1.579-.112-2.315-.112" fill="#383a45"/>
            <path id="路径_142" data-name="路径 142" d="M337.243,46.51c-.243.016-.482.037-.724.068h0a8.824,8.824,0,0,0-1.137.224c-.2.053-.4.111-.594.181-.161.059-.318.119-.476.187l.006,0c-.106.047-.211.1-.314.147a.1.1,0,0,1,0,.046.138.138,0,0,1-.056.076c-.037.027-.076.054-.113.084l0,0-.007.005h0l-.012.008h0l-.006.006.005-.006a11.945,11.945,0,0,0-1.093.979c-.163.165-.323.332-.482.5a6.135,6.135,0,0,1,.8-.22,7.4,7.4,0,0,1,1.139-.146c.134-.006.27-.008.4-.008a8.384,8.384,0,0,1,.938.051,10.759,10.759,0,0,1,1.2.2,15.978,15.978,0,0,1,2.707.884c.915.385,1.807.823,2.681,1.3.938.51,1.859,1.053,2.772,1.61a.128.128,0,0,1,.044.169.126.126,0,0,1-.171.045,42.359,42.359,0,0,0-5.312-2.848l.029.012a17.563,17.563,0,0,0-1.96-.709c-.317-.091-.639-.177-.964-.243q-.408-.084-.819-.142h.008a8.938,8.938,0,0,0-1.145-.076,8.766,8.766,0,0,0-.984.062h0a7.041,7.041,0,0,0-.894.18c-.164.046-.327.095-.487.153-.122.045-.244.093-.365.143l.011,0-.012,0-.1.109c-.335.364-.669.73-1.022,1.078a11.492,11.492,0,0,1-1.045.925.134.134,0,0,1-.088.037.12.12,0,0,1-.088-.037.127.127,0,0,1-.036-.087.124.124,0,0,1,.036-.09,11.357,11.357,0,0,0,1.163-1.042c.188-.191.374-.388.558-.586-.04.023-.08.045-.119.069-.245.148-.48.306-.712.477l0,0-.016.014,0,0,0,0,0,0,0,0-.005,0h0a8.635,8.635,0,0,0-.861.762c-.146.152-.292.3-.428.464s-.274.331-.407.5a14.025,14.025,0,0,0-1.031,1.575c-.187.334-.368.675-.535,1.021q-.213.447-.406.9l.012-.03a18.434,18.434,0,0,0-.819,2.428c-.1.407-.2.815-.277,1.228-.064.351-.12.7-.171,1.053a.087.087,0,0,1,0,.025c0-.007,0-.015,0-.025v-.008a22.875,22.875,0,0,0-.189,3.42c.012.573.039,1.147.086,1.719s.109,1.133.181,1.7l0,0a.037.037,0,0,0,0,.015,49.562,49.562,0,0,0,1.084,5.448q.253,1.011.529,2.017c.168.615.343,1.23.516,1.845.205.73.388,1.468.535,2.213q.2,1.008.339,2.028a39.249,39.249,0,0,1,.142,8.316c-.223,2.869-.632,5.719-1.1,8.557-.222,1.337-.452,2.672-.676,4.008A22.788,22.788,0,0,0,329,103.807a30.341,30.341,0,0,0,4.36,3.488,58.543,58.543,0,0,0,9.849,5.137,47.684,47.684,0,0,0,5.993,2.11,37.392,37.392,0,0,0,6.451,1.213c.946.085,1.844.128,2.667.128a25.278,25.278,0,0,0,3.823-.29,20.73,20.73,0,0,0,3.081-.731,16.137,16.137,0,0,0,2.669-1.14,21.765,21.765,0,0,0,4.839-3.542,26.494,26.494,0,0,0,1.979-2.094c0-.082-.008-.166-.014-.248q-.042-.627-.124-1.249l.006.033a22.778,22.778,0,0,0-.49-2.474c-.2-.775-.411-1.544-.612-2.317-.214-.817-.418-1.638-.552-2.474a13.191,13.191,0,0,1-.2-2.271c0-.426.025-.85.061-1.275.028-.358.063-.716.106-1.072.08-.664.178-1.328.287-1.988.229-1.37.5-2.735.687-4.113l-.006.033a20.8,20.8,0,0,0,.194-2.172c.01-.36.012-.72,0-1.078s-.047-.719-.092-1.077v.008a10.909,10.909,0,0,0-.282-1.409c-.068-.243-.141-.485-.224-.72-.072-.205-.15-.4-.231-.6l.011.029a11.474,11.474,0,0,0-.672-1.333c-.148-.251-.3-.5-.467-.736-.142-.2-.288-.407-.438-.605a10.581,10.581,0,0,0-.992-1.123c-.16-.152-.32-.3-.487-.446s-.333-.28-.5-.413v0c-.061-.048-.121-.1-.181-.14a16.345,16.345,0,0,0-1.4-.922c-.446-.263-.9-.511-1.357-.748-.966-.5-1.947-.967-2.9-1.487-.271-.148-.54-.3-.8-.454-.226-.132-.452-.266-.672-.412A9.007,9.007,0,0,1,361.285,72a7.5,7.5,0,0,1-.9-.991,7.214,7.214,0,0,1-.663-1.055,12.028,12.028,0,0,1-.9-2.439c-.262-.991-.465-2-.693-3-.247-1.078-.51-2.151-.823-3.211-.164-.548-.335-1.094-.527-1.633-.176-.495-.365-.986-.569-1.468,0,.01.01.019.014.029a19.7,19.7,0,0,0-1.038-2.108c-.194-.341-.4-.676-.617-1s-.438-.631-.671-.937l-.016-.019.012.013-.012-.013a14.785,14.785,0,0,0-1.415-1.567c-.241-.23-.491-.456-.748-.67-.165-.138-.334-.272-.5-.4a24.044,24.044,0,0,0-2.629-1.744,29.1,29.1,0,0,0-3.168-1.576l.029.011a22.358,22.358,0,0,0-5.647-1.605h0a14.4,14.4,0,0,0-1.674-.125h-.131c-.25,0-.5.005-.751.021M335.7,48.953l.025,0a.1.1,0,0,1-.025,0m38.258,35.4,0,.025,0-.025" fill="#26272b"/>
            <path id="路径_143" data-name="路径 143" d="M344.593,302.563l-14.123-.785-.223,6.243s-12.82,3.719-14.015,7.173c-.13.377,26.309-.459,27.505-1.123s.856-11.508.856-11.508" fill="#ffc5a6"/>
            <path id="路径_144" data-name="路径 144" d="M349.075,302.5l14.123-.785.223,6.243s12.82,3.719,14.015,7.173c.13.377-25.977-.545-27.173-1.21s-1.188-11.421-1.188-11.421" fill="#ffc5a6"/>
            <path id="路径_145" data-name="路径 145" d="M316.951,187.945l32.828,3.406h26.988s-.924,17.164-11.733,17.8-33.52,1.806-36.573-1.7-11.51-19.5-11.51-19.5" fill="#d26f84"/>
            <path id="路径_146" data-name="路径 146" d="M345.713,199.825s-.4,102.756,0,105.957l-16.541.657S316.764,221.407,316.951,191.9Z" fill="#d26f84"/>
            <path id="路径_147" data-name="路径 147" d="M348.006,199.825s.4,102.756,0,105.957l16.541.657s12.406-81.524,12.219-111.028Z" fill="#d26f84"/>
            <path id="路径_148" data-name="路径 148" d="M366.81,125.12s8.106,25.25,13.791,27.206,13.774-3.7,14.027-6.389c.466-4.937-13.8-34.8-17.859-38.969s-16.423,1.406-9.959,18.152" fill="#ffc5a6"/>
            <path id="路径_149" data-name="路径 149" d="M323.742,94.442s-10.339,7.41-13.525,12.889c-5.029,8.649-16.722,44.711-16.722,44.711s22.193,12.626,23.781,2.716,9.019-57.589,6.466-60.316" fill="#ffc5a6"/>
            <path id="路径_150" data-name="路径 150" d="M321.44,95.037s18.6-7.9,43.533,1.367c13.033,4.844,4.5,38.863,5.048,55.225.277,8.192,9.849,28.461,9.2,43.746,0,0-63.686.825-63.656-1.61.188-15.161,6.39-34.48,6.39-39.764s-5.642-53.325-.511-58.964" fill="#f4929f"/>
            <path id="路径_151" data-name="路径 151" d="M337.324,150.223c9.981,0,27.206-1.961,28.2-3.244l.087-.636c-.172-.393-.636-.5-1.488-.576-6.958-.608-35.516-.157-36.729-.138l.017,1.084c.283-.005,27.081-.425,35.532.057-5.908,1.2-24.325,3.11-30.6,2.093l-.175,1.069a34.864,34.864,0,0,0,5.154.291" fill="#42394a"/>
            <path id="路径_152" data-name="路径 152" d="M362.9,122.964c2.989,3.054,8.325,13.861,8.325,13.861s15.977-5.031,15.843-11.359c0,0-11.141-35.132-33.85-33.556,0,0,4.352,25.609,9.682,31.054" fill="#f4929f"/>
            <path id="路径_153" data-name="路径 153" d="M322.6,133.966s-14.066-3.312-20.341-6.517c-3.516-1.795,9.3-23.043,13.6-28.916,3.346-4.568,11.992-4.828,11.992-4.828Z" fill="#f4929f"/>
            <path id="路径_154" data-name="路径 154" d="M352.091,101.866s-10.5.644-12.3,0c0,0,5.371,12.984,5.772,13.856l6.532-13.856" fill="#f4efe2"/>
            <path id="路径_155" data-name="路径 155" d="M359.457,167.275s12.537-43.3,12.08-45.266-34.986-12.8-35.7-11.556c-5.136,8.938-14.361,44.568-12.128,45.34,9.189,3.181,35.748,11.482,35.748,11.482" fill="#2c5c84"/>
            <path id="路径_156" data-name="路径 156" d="M359.35,168.326s11.489-43.594,10.986-45.544-35.284-11.952-35.968-10.692c-4.919,9.059-13.283,44.9-11.032,45.619,9.263,2.958,36.014,10.617,36.014,10.617" fill="#567ba6"/>
            <g id="组_42" data-name="组 42" opacity="0.8">
              <g id="组_41" data-name="组 41">
                <g id="组_40" data-name="组 40" clip-path="url(#clip-path-3)">
                  <path id="路径_157" data-name="路径 157" d="M347.461,122.048l-.052-.014-.264-.065-.038-.008a4.481,4.481,0,0,0-2.332.074,4.542,4.542,0,0,0-2.209,1.477c-.013.014-.028.027-.04.041h0l-7.451,8.4,2.149.527.725.178-.014-.005a4.519,4.519,0,0,0,4.541-1.551c.012-.014.028-.027.039-.041h0l3.52-3.97,3.459-3.9a4.484,4.484,0,0,0-2.034-1.144" fill="#fff"/>
                  <path id="路径_158" data-name="路径 158" d="M358.726,127.526h0c-.005-.018-.012-.036-.017-.054A4.516,4.516,0,0,0,355.4,124l.015,0-.726-.178-2.148-.527,1.413,5.659,1.652.4.025.008a2.106,2.106,0,0,1,1.58,1.493v-.007c.005.018.038.153.082.328l.242.973-2.963-.728.69,2.763h0c.005.018.012.036.017.054a4.516,4.516,0,0,0,3.308,3.476l-.015,0,.726.178,2.148.527Z" fill="#fff"/>
                  <path id="路径_159" data-name="路径 159" d="M352.093,130.815l-1.583-.389-.025-.007a2.088,2.088,0,0,1-1.58-1.493v.007c-.005-.019-.038-.153-.082-.329l-.242-.972,2.894.711-.69-2.764c-.005-.018-.012-.037-.017-.055a4.537,4.537,0,0,0-1.274-2.331l-3.458,3.9,1.285,5.148c.005.019.012.037.017.055a4.517,4.517,0,0,0,3.308,3.476l-.015,0,.726.178,2.148.526Z" fill="#fff"/>
                  <g id="组_39" data-name="组 39" opacity="0.2">
                    <g id="组_38" data-name="组 38">
                      <g id="组_37" data-name="组 37" clip-path="url(#clip-path-4)">
                        <path id="路径_160" data-name="路径 160" d="M349.5,123.194l-3.459,3.9.416,1.662Z" fill="#040000"/>
                      </g>
                    </g>
                  </g>
                </g>
              </g>
            </g>
            <path id="路径_161" data-name="路径 161" d="M393.227,140.2a16.715,16.715,0,0,1,1.4,5.742,12.218,12.218,0,0,1-1.283,5.691c-2.887,6.182-58.833,0-61.435.2s-6.638,5.377-8.575,5.883-1.419-4.224-1.626-7.786-1.675-9.943,5.079-9.77,42.593-7.091,51.18-6.036a35.486,35.486,0,0,1,15.258,6.079" fill="#ffc5a6"/>
            <path id="路径_162" data-name="路径 162" d="M363.422,307.955s-5.872,3.248-8.474,2.667-6.005-3.864-6.011-3.319-.758,7.349-.01,7.853,28.746,1.706,29.44.755-6.991-6.98-14.945-7.956" fill="#3c2a34"/>
            <path id="路径_163" data-name="路径 163" d="M330.488,308.021s5.872,3.248,8.474,2.667,6.005-3.863,6.011-3.319.758,7.349.01,7.853-28.746,1.707-29.44.755,6.991-6.98,14.945-7.956" fill="#3c2a34"/>
            <path id="路径_164" data-name="路径 164" d="M353.254,91.875c.482,2.959-.328,6.452-1.138,9.945-4.809.418-9.287.639-12.32,0a24.844,24.844,0,0,1,.99-9.9Z" fill="#ffc5a6"/>
            <path id="路径_165" data-name="路径 165" d="M328.714,66.237a2.189,2.189,0,0,0-1.728,1.5,5.2,5.2,0,0,0-.144,2.384,7.633,7.633,0,0,0,1.691,4.351,3.635,3.635,0,0,0,4.294.935.743.743,0,0,0,.424-.507c.025-.227-.25-.463-.433-.325" fill="#ff755f"/>
            <path id="路径_166" data-name="路径 166" d="M340.757,82.346v-.041l13.373-7.216c-.227,5.92-.875,11.416-1.216,17.32-.546,9.45-12.044,7.294-12.044,2.983,0-.045-.113-10.222-.113-13.046" fill="#ffc5a6"/>
            <path id="路径_167" data-name="路径 167" d="M349.8,77.9a39.152,39.152,0,0,1-9.032,3.439v.041c0,2.16-.079,4.155-.016,7.657.032.621.113,5.632.113,5.632,5.749.719,9.848-3.452,10.061-11.5.149-3.207,1.885-3.916,1.983-6.786L349.8,77.9" fill="#ff755f"/>
            <path id="路径_168" data-name="路径 168" d="M357.116,58.091c-.1-.579-.214-1.147-.332-1.7-.815-3.8-2.389-3.594-6.41-5.361-2.762-1.214-6.054-.8-8.92-.005-.844.235-1.677.508-2.5.807a12,12,0,0,1-5.576.579c-1.365-.16-.732-4.908-1.713-3.468-.435.639-2.085,1.9-2.254,2.643-.842,3.707-3.624,27.974,4.863,35.661a12.282,12.282,0,0,0,9.768,2.528c7.732-1.423,12.049-11.151,13.211-17.882a40.207,40.207,0,0,0-.136-13.8" fill="#ffc5a6"/>
            <path id="路径_169" data-name="路径 169" d="M356.486,74.646c.535.632,4.752-.487,4.369-5.843-.26-3.638-3.217-3.875-4.614-2.379-2.279,2.439-1.261,6.441.245,8.222" fill="#ffc5a6"/>
            <path id="路径_170" data-name="路径 170" d="M358.112,72.584a.3.3,0,0,0,.226-.1.3.3,0,0,0-.03-.422l-1.215-1.052,1.828-2.055a.3.3,0,1,0-.448-.4l-2.23,2.51,1.673,1.448a.3.3,0,0,0,.2.073" fill="#ff755f"/>
            <g id="组_45" data-name="组 45" opacity="0.46">
              <g id="组_44" data-name="组 44">
                <g id="组_43" data-name="组 43" clip-path="url(#clip-path-5)">
                  <path id="路径_171" data-name="路径 171" d="M348.9,74.9a1.831,1.831,0,1,0,1.831-1.831A1.831,1.831,0,0,0,348.9,74.9" fill="#ff806d"/>
                </g>
              </g>
            </g>
            <g id="组_48" data-name="组 48" opacity="0.46">
              <g id="组_47" data-name="组 47">
                <g id="组_46" data-name="组 46" clip-path="url(#clip-path-6)">
                  <path id="路径_172" data-name="路径 172" d="M330,75a1.831,1.831,0,1,0,1.831-1.831A1.831,1.831,0,0,0,330,75" fill="#ff806d"/>
                </g>
              </g>
            </g>
            <path id="路径_173" data-name="路径 173" d="M339.846,74.806h0a.644.644,0,0,0,.643-.643V72.777a.643.643,0,0,0-1.286,0v1.386a.644.644,0,0,0,.643.643" fill="#ff755f"/>
            <path id="路径_174" data-name="路径 174" d="M337.434,81.254a4.991,4.991,0,0,0,3.239,1.021,5.121,5.121,0,0,0,3.575-1.587,5.334,5.334,0,0,0-6.814.566" fill="#eca1a3"/>
            <path id="路径_175" data-name="路径 175" d="M335.6,77.053c-.6.767.111,2.91,1.833,4.2a5.335,5.335,0,0,1,6.814-.565c1.334-1.387,1.753-3.3,1.083-4.127-.923-1.126-2.4.629-4.933.661-2.478.024-3.746-1.526-4.8-.169" fill="#894747"/>
            <path id="路径_176" data-name="路径 176" d="M344.6,66.506a2.637,2.637,0,0,0,1.071.237c.389.033.779.076,1.116.125s.725.119,1.107.2a2.631,2.631,0,0,0,1.092.078c.308-.08.477-.415.2-.9a3.026,3.026,0,0,0-2.157-1.214,2.937,2.937,0,0,0-2.386.552c-.393.384-.316.754-.04.92" fill="#383a45"/>
            <path id="路径_177" data-name="路径 177" d="M332.694,67.209a2.757,2.757,0,0,0,1.136-.124c.4-.1.8-.185,1.145-.248s.755-.125,1.159-.174a2.745,2.745,0,0,0,1.1-.287c.277-.183.332-.569-.105-.952a3.157,3.157,0,0,0-2.535-.478,3.057,3.057,0,0,0-2.172,1.342c-.259.51-.06.85.268.921" fill="#383a45"/>
            <path id="路径_178" data-name="路径 178" d="M345.51,69.739a1.195,1.195,0,1,0,1.586-.582,1.195,1.195,0,0,0-1.586.582" fill="#383a45"/>
            <path id="路径_179" data-name="路径 179" d="M334.01,69.789a1.195,1.195,0,1,0,1.586-.582,1.194,1.194,0,0,0-1.586.582" fill="#383a45"/>
            <path id="路径_180" data-name="路径 180" d="M331.645,47.362s23.234,2.936,27.663,5.8l1.146-10.711s-.13-1.1-2.822-2.184c0,0-13.133-5.805-21.111-3.3a11.413,11.413,0,0,0-2.6,4.1Z" fill="#f4929f"/>
            <rect id="矩形_44" data-name="矩形 44" width="2.019" height="6.715" transform="translate(340.219 42.269) rotate(-83.913)" fill="#d31c1c"/>
            <rect id="矩形_45" data-name="矩形 45" width="6.715" height="2.02" transform="matrix(0.106, -0.994, 0.994, 0.106, 342.304, 44.853)" fill="#d31c1c"/>
            <path id="路径_181" data-name="路径 181" d="M346.875,57.761c.976,3.676,7.994,14.989,14.067,11.578,1.546-.868,1.541-3.091,1.458-4.862-.167-3.567-.362-7.251-1.937-10.456-1.114-2.266-5.141-6.9-8.016-4.836-3.2,2.3-6.676,4.417-5.572,8.576" fill="#383a45"/>
            <path id="路径_182" data-name="路径 182" d="M351.77,55.353c3.882-3.173,3.438-5.3.556-9.3-2.2-3.059-11.764-3.213-20.03.859-3,1.476-8.218,11.829-7.63,13.3,1.636,4.1,7.2,3.467,10.68,2.9,11.53-1.894,14.872-6.491,16.424-7.759" fill="#383a45"/>
            <path id="路径_183" data-name="路径 183" d="M305.67,139.847c-6.667-3.757-54.306-14.029-54.306-14.029-2.221,1.363-2.957,4.966-3.732,7.208a4.36,4.36,0,0,0-.132,2.218s60.691,31.269,65.714,26.653a13.539,13.539,0,0,0,4.329-10.732,36.513,36.513,0,0,0-11.873-11.318" fill="#ffc5a6"/>
            <path id="路径_184" data-name="路径 184" d="M236.874,121.755c-1.443-1.479-4.1-3.6-2.887-4.9,2-2.139,13.243,3.589,14.192,4.4s3.094,3.112,3.195,4.626-1.925,8.265-2.2,8.671c-1.028,1.515-10.327,1.049-13.77-1.328-3.646-2.517-5.284-6.409-3.388-9.443.7-1.115,1.943-2.151,4.858-2.026" fill="#ffc5a6"/>
            <path id="路径_185" data-name="路径 185" d="M250.156,137.335l-2.859,2.4-46.878-58.01.842-.706Z"/>
            <path id="路径_186" data-name="路径 186" d="M236.219,121.847c-1.944,0-6.607,1.245-4.985,6.2,2.005,6.122,12.074,10.536,15.557,6.685,4.326-4.784-6.97-12.876-10.572-12.882" fill="#ffc5a6"/>
          </g>
        </g>
      </g>
    </g>
  </g>
</svg>
