<?xml version="1.0" encoding="UTF-8"?><svg id="_图层_2" xmlns="http://www.w3.org/2000/svg" viewBox="0 0 120 100"><defs><style>.cls-1{fill:#fff;}.cls-2{fill:#e2e2e2;}.cls-3{fill:#cfcfcf;}.cls-4{fill:#efefef;}.cls-5{fill:#f8f8f8;}.cls-6{fill:none;stroke:#cfcfcf;stroke-dasharray:0 0 5 5;stroke-linecap:round;stroke-linejoin:round;stroke-width:.8px;}</style></defs><g id="_图层_1-2"><g><g><path class="cls-4" d="m105.59,100H21.2c-1.69,0-2.95-1.59-2.59-3.28l11.94-56.46c.53-2.49,2.68-4.27,5.18-4.27h78.97c3.38,0,5.89,3.18,5.18,6.55l-11.7,55.32c-.26,1.24-1.34,2.13-2.59,2.13Z"/><path class="cls-1" d="m101.97,93.71H26.45c-1.4,0-2.45-1.32-2.15-2.72l10.3-48.71c.22-1.03,1.12-1.77,2.15-1.77h75.51c1.4,0,2.45,1.32,2.15,2.72l-10.3,48.71c-.22,1.03-1.12,1.77-2.15,1.77Z"/><path class="cls-5" d="m100.95,86.06H29.58c-.28,0-.49-.27-.43-.55l8.69-41.08c.04-.21.22-.36.43-.36h71.37c.28,0,.49.27.43.55l-8.69,41.08c-.04.21-.22.36-.43.36Z"/><path class="cls-2" d="m105.57,100H21.2c-.99,0-1.89-.56-2.35-1.45L.3,62.19c-.92-1.8.36-3.95,2.35-3.95h84.37c.99,0,1.89.56,2.35,1.45l18.55,36.36c.92,1.8-.36,3.95-2.35,3.95Z"/></g><g><path id="_路径_94" class="cls-6" d="m3.98,52s20.35,1.67,40.42-6.53c20.07-8.2,15.19-15.84,15.19-15.84,0,0-3.12-9.24-18.49-5.23s-20.11,15.25-12.03,20.08c8.08,4.83,37.83-3.75,51.85-14.42,14.03-10.67,11.9-9.73,11.9-9.73"/><g><polygon class="cls-3" points="85.05 13.74 106.2 17.68 119.19 0 85.05 13.74"/><polygon class="cls-4" points="96.25 22.37 92.64 15.15 110.98 5.45 96.35 15.84 100.78 16.67 96.25 22.37"/><path class="cls-3" d="m96.53,20.2s-.03,0-.05,0c-.21,0-.38-.18-.38-.4l.08-3.4c0-.21.18-.38.4-.38.21,0,.38.18.38.4l-.08,3.4c0,.2-.16.36-.35.38Z"/></g></g></g></g></svg>