<?xml version="1.0" encoding="UTF-8"?><svg id="_图层_2" xmlns="http://www.w3.org/2000/svg" viewBox="0 0 400 320.33"><defs><style>.cls-1{fill:#aeb0af;}.cls-2{fill:#ffcd0e;}.cls-3{fill:#959696;}.cls-4{fill:#ddd;}.cls-5{fill:#383a45;}.cls-6{fill:#f4efe2;}.cls-7{fill:#42394a;}.cls-8{fill:#f4929f;}.cls-9{fill:#fff;}.cls-10{fill:#ff755f;}.cls-11,.cls-12{font-size:18px;}.cls-11,.cls-13{fill:#333;font-family:SourceHanSansCN-Normal-GBpc-EUC-H, 'Source Han Sans CN';}.cls-14{fill:#ff806d;opacity:.46;}.cls-15{fill:#3c2a34;}.cls-12,.cls-16{fill:#1fb19a;font-family:SourceHanSansCN-Bold-GBpc-EUC-H, 'Source Han Sans CN';font-weight:700;}.cls-17{fill:#d31c1c;}.cls-18{fill:#e48c28;}.cls-19{fill:#00942c;}.cls-20{fill:#040000;}.cls-21{opacity:.2;}.cls-22{fill:#d26f84;}.cls-23{fill:#2c5c84;}.cls-24{fill:#c9c9c9;}.cls-25{fill:#e5ba0b;}.cls-13{font-size:16px;}.cls-26{opacity:.8;}.cls-27{fill:#fcfefe;}.cls-16{font-size:24px;}.cls-28{fill:#567ba6;}.cls-29{fill:#eca1a3;}.cls-30{fill:#00c43c;}.cls-31{fill:#b36a17;}.cls-32{fill:#894747;}.cls-33{fill:#e0471b;}.cls-34{fill:#26272b;}.cls-35{fill:#ffc5a6;}.cls-36{fill:#f84e1b;}.cls-37{fill:#b36840;}.cls-38{fill:#e2e2e0;}.cls-39{fill:#666;}</style></defs><g id="_图层_1-2"><g><rect class="cls-4" y="316.33" width="400" height="4"/><g><g><rect class="cls-19" x="63.45" y="264.43" width="4" height="19.93"/><rect class="cls-30" x="63.45" y="264.43" width="2" height="19.93"/></g><g><g><polygon class="cls-38" points="77.45 316.33 53.45 316.33 49.45 284.44 81.45 284.44 77.45 316.33"/><polygon class="cls-1" points="80.02 295.6 50.82 295.6 49.95 287.63 80.95 287.63 80.02 295.6"/><rect class="cls-38" x="45.45" y="284.44" width="40" height="7.97"/></g><g><polygon class="cls-24" points="65.45 284.44 65.45 316.33 77.45 316.33 81.45 284.44 65.45 284.44"/><polygon class="cls-3" points="65.45 287.56 65.45 295.6 80.02 295.6 80.95 287.63 65.45 287.56"/><rect class="cls-24" x="65.45" y="284.44" width="20" height="7.97"/></g></g><g><path class="cls-36" d="m65.45,258.28h0l-3.96-4.48c-2.48-2.81-1.76-7.34,1.62-8.94.71-.33,1.49-.53,2.33-.53h0c.84,0,1.62.2,2.33.53,3.39,1.6,4.1,6.13,1.62,8.94l-3.96,4.48Z"/><path class="cls-36" d="m65.45,258.28h0l-3.96,4.48c-2.48,2.81-1.76,7.34,1.62,8.94.71.33,1.49.53,2.33.53h0c.84,0,1.62-.2,2.33-.53,3.39-1.6,4.1-6.13,1.62-8.94l-3.96-4.48Z"/><path class="cls-36" d="m65.45,258.28h0l-4.5,3.94c-2.81,2.47-7.37,1.76-8.97-1.62-.34-.71-.53-1.49-.53-2.32h0c0-.83.2-1.62.53-2.32,1.6-3.38,6.16-4.09,8.97-1.62l4.5,3.94Z"/><path class="cls-33" d="m65.45,258.28h0l4.5,3.94c2.81,2.47,7.37,1.76,8.97-1.62.34-.71.53-1.49.53-2.32h0c0-.83-.2-1.62-.53-2.32-1.6-3.38-6.16-4.09-8.97-1.62l-4.5,3.94Z"/><path class="cls-33" d="m69.41,262.77l-3.96-4.48h0v13.95h0c.84,0,1.62-.2,2.33-.53,3.39-1.6,4.1-6.13,1.62-8.94Z"/><path class="cls-33" d="m69.41,253.8l-3.96,4.48h0v-13.95h0c.84,0,1.62.2,2.33.53,3.39,1.6,4.1,6.13,1.62,8.94Z"/><rect class="cls-2" x="61.45" y="254.3" width="8" height="7.97" rx="3.99" ry="3.99"/><path class="cls-25" d="m65.45,254.3h0c2.21,0,4,1.78,4,3.99h0c0,2.2-1.79,3.99-4,3.99h0"/></g></g><g><g><polygon class="cls-39" points="52.29 69.75 54.58 73.03 152.88 4.2 151.88 2.77 52.29 69.75"/><polygon class="cls-39" points="249.93 69.75 247.64 73.03 149.34 4.2 150.34 2.77 249.93 69.75"/></g><rect class="cls-18" x="146.11" y="0" width="10" height="10" rx="5" ry="5"/><rect class="cls-37" x="21.11" y="40" width="260" height="166"/><rect class="cls-27" x="25.11" y="44" width="252" height="158"/></g><rect class="cls-31" x="146" y=".84" width="10" height="10" rx="5" ry="5"/></g><g><text class="cls-16" transform="translate(35.11 73.5)"><tspan x="0" y="0">没有数据哦！</tspan></text><text class="cls-11" transform="translate(35.11 109.12)"><tspan x="0" y="0">选条数据看看吧！</tspan></text><text transform="translate(35.11 150.82)"><tspan class="cls-12"><tspan x="0" y="0">No data!</tspan></tspan><tspan class="cls-13"><tspan x="0" y="24">Please select one!</tspan></tspan></text></g><g id="_原"><g><path class="cls-5" d="m343.66,40.98c-.79,0-1.58.04-2.34.12-1.62.17-3.11.52-4.42,1.04-1.32.53-2.43,1.24-3.29,2.12-.22-.04-.45-.06-.7-.06-.09,0-.18,0-.27,0-.45.03-.92.15-1.39.35-.94.4-1.76,1.09-2.36,1.66-1.27,1.18-2.3,2.69-3.05,4.49-.64,1.55-1.07,3.28-1.3,5.31-.19,1.64-.24,3.45-.16,5.51.02.53.05,1.05.08,1.58v.26c.04.4.06.78.08,1.17.06,1.15.1,2.22.12,3.26.05,2.3,0,4.33-.19,6.22-.11,1.07-.26,2.17-.45,3.26-.1.56-.21,1.12-.33,1.67l-.12.55-.05.24v.05c-.09.31-.16.61-.22.92-.46,2.14-.7,4.34-.71,6.55,0,2.21.25,4.41.76,6.54.25,1.04.59,2.1,1.01,3.15.36.92.79,1.8,1.27,2.61.85,1.45,1.99,2.88,3.39,4.26,1.21,1.19,2.63,2.33,4.36,3.49,3.38,2.28,7.04,3.94,9.85,5.14,1.98.84,4,1.55,5.99,2.11,2.14.6,4.31,1,6.45,1.21.91.09,1.81.13,2.67.13,1.3,0,2.58-.1,3.82-.29,1.07-.17,2.1-.41,3.08-.73.86-.28,1.73-.65,2.67-1.14,1.64-.86,3.22-2.02,4.84-3.54,1.39-1.32,2.71-2.88,3.92-4.64.54-.79,1.06-1.63,1.54-2.52.25-.46.47-.89.66-1.32.22-.48.41-.99.59-1.57.64-2.06.6-4.27.47-6.16-.01-.22-.03-.44-.05-.66-.03-.32-.05-.64-.07-.96-.02-.45,0-.93.04-1.45v-.06c.1-.88.3-1.77.63-2.83.13-.42.27-.84.41-1.26l.02-.07c.17-.5.33-.99.48-1.5.32-1.05.52-2.02.63-2.96.11-.93.13-1.89.06-2.85-.13-1.84-.59-3.7-1.37-5.53-.37-.86-.82-1.71-1.32-2.53-.48-.77-1.03-1.51-1.7-2.29-.61-.72-1.33-1.41-2.12-2.07-.77-.63-1.64-1.22-2.75-1.84-.62-.35-1.28-.68-1.85-.98l-.17-.08c-1.22-.62-2.57-1.31-3.77-2.15-.36-.26-.66-.5-.96-.76-.29-.25-.6-.56-.92-.94-.61-.75-1.17-1.64-1.68-2.73-.36-.78-.67-1.58-1.02-2.47l-.03-.07-.08-.2c-.26-.68-.66-1.69-1.11-2.65-.81-1.73-1.7-3.2-2.71-4.48-.51-.65-1.09-1.28-1.7-1.86-.58-.55-1.23-1.07-1.97-1.59-1.38-.96-2.97-1.72-4.73-2.28-1.22-.38-2.57-.64-4.14-.79-.8-.07-1.58-.11-2.32-.11"/><path class="cls-34" d="m337.24,46.51c-.24.02-.48.04-.72.07h0c-.38.05-.76.12-1.14.22-.2.05-.4.11-.59.18-.16.06-.32.12-.48.19,0,0,0,0,0,0-.11.05-.21.1-.31.15,0,.02,0,.03,0,.05,0,.03-.03.05-.06.08-.04.03-.08.05-.11.08h0s0,0,0,0c0,0,0,0,0,0,0,0,0,0-.01,0,0,0,0,0,0,0,0,0,0,0,0,0h0c-.39.3-.75.63-1.09.97-.16.16-.32.33-.48.5.26-.09.53-.17.8-.22.38-.08.75-.13,1.14-.15.13,0,.27,0,.4,0,.31,0,.63.02.94.05.4.04.8.11,1.2.2.93.21,1.83.51,2.71.88.91.39,1.81.82,2.68,1.3.94.51,1.86,1.05,2.77,1.61.06.03.08.11.04.17-.03.06-.11.08-.17.04-1.72-1.04-3.46-2.06-5.31-2.85h.03c-.64-.26-1.29-.5-1.96-.7-.32-.09-.64-.18-.96-.24-.27-.06-.55-.1-.82-.14h0c-.38-.05-.76-.08-1.14-.08-.33,0-.66.02-.98.06h0c-.3.04-.6.1-.89.18-.16.05-.33.1-.49.15-.12.04-.24.09-.37.14h0s0,0,.01,0c0,0,0,0-.01,0-.03.04-.07.07-.1.11-.33.36-.67.73-1.02,1.08-.33.33-.68.64-1.05.92-.03.02-.05.04-.09.04-.03,0-.07-.01-.09-.04-.02-.02-.04-.05-.04-.09,0-.03.01-.07.04-.09.41-.32.8-.67,1.16-1.04.19-.19.37-.39.56-.59-.04.02-.08.04-.12.07-.25.15-.48.31-.71.48h0s0,0-.02,0c0,0,0,0,0,0h0s0,0,0,0c0,0,0,0,0,0,0,0,0,0,0,0h0c-.3.24-.59.49-.86.76-.15.15-.29.3-.43.46-.14.17-.27.33-.41.5-.38.5-.72,1.03-1.03,1.58-.19.33-.37.68-.54,1.02-.14.3-.28.6-.41.9v-.03c-.31.79-.6,1.6-.81,2.43-.1.41-.2.82-.28,1.23-.06.35-.12.7-.17,1.05,0,0,0,.02,0,.02,0,0,0-.02,0-.02h0c-.15,1.13-.21,2.27-.19,3.41.01.57.04,1.15.09,1.72.04.57.11,1.13.18,1.7,0,0,0,0,0,0,0,0,0,.01,0,.02.25,1.84.63,3.65,1.08,5.45.17.67.34,1.34.53,2.02.17.62.34,1.23.52,1.85.2.73.39,1.47.54,2.21.13.67.25,1.35.34,2.03.37,2.75.36,5.55.14,8.32-.22,2.87-.63,5.72-1.1,8.56-.22,1.34-.45,2.67-.68,4.01.61.79,1.31,1.58,2.09,2.34,1.21,1.19,2.64,2.33,4.36,3.49,3.39,2.29,7.04,3.95,9.85,5.14,1.99.85,4,1.56,5.99,2.11,2.13.6,4.3,1,6.45,1.21.95.09,1.84.13,2.67.13,1.28,0,2.57-.1,3.82-.29,1.07-.17,2.11-.42,3.08-.73.87-.28,1.74-.65,2.67-1.14,1.64-.86,3.22-2.02,4.84-3.54.68-.64,1.34-1.34,1.98-2.09,0-.08,0-.17-.01-.25-.03-.42-.07-.84-.12-1.25,0,0,0,.02,0,.03-.11-.83-.29-1.66-.49-2.47-.19-.77-.41-1.54-.61-2.32-.21-.82-.42-1.64-.55-2.47-.12-.75-.21-1.51-.2-2.27,0-.43.03-.85.06-1.28.03-.36.06-.72.11-1.07.08-.66.18-1.33.29-1.99.23-1.37.5-2.73.69-4.11,0,.01,0,.02,0,.03.1-.72.17-1.45.19-2.17,0-.36.01-.72,0-1.08-.02-.36-.05-.72-.09-1.08h0c-.07-.47-.15-.94-.28-1.4-.07-.24-.14-.48-.22-.72-.07-.2-.15-.41-.23-.6v.03c-.19-.46-.41-.9-.66-1.33-.15-.25-.3-.5-.47-.74-.14-.2-.29-.41-.44-.61-.31-.4-.63-.77-.99-1.12-.16-.15-.32-.3-.49-.45-.17-.14-.33-.28-.5-.41h0c-.06-.05-.12-.09-.18-.14-.45-.33-.92-.64-1.4-.92-.45-.26-.9-.51-1.36-.75-.97-.5-1.95-.97-2.9-1.49-.27-.15-.54-.3-.8-.45-.23-.13-.45-.27-.67-.41-.38-.25-.74-.52-1.07-.83-.33-.31-.63-.63-.9-.99-.25-.33-.47-.68-.66-1.06-.4-.77-.68-1.6-.9-2.44-.26-.99-.46-2-.69-3-.25-1.08-.51-2.15-.82-3.21-.16-.55-.33-1.09-.53-1.63-.18-.49-.36-.99-.57-1.47,0,0,0,.02.01.03-.31-.72-.65-1.43-1.04-2.11-.19-.34-.4-.68-.62-1-.21-.32-.44-.63-.67-.94,0,0,0-.01-.02-.02,0,0,0,0,.01.01,0,0,0,0-.01-.01-.44-.55-.9-1.08-1.42-1.57-.24-.23-.49-.46-.75-.67-.17-.14-.33-.27-.5-.4-.84-.64-1.72-1.22-2.63-1.74-1.02-.59-2.08-1.12-3.17-1.58h.03c-1.81-.75-3.7-1.33-5.65-1.59h0c-.55-.07-1.11-.12-1.67-.12-.04,0-.09,0-.13,0-.25,0-.5,0-.75.02m-1.54,2.44s.02,0,.02,0c0,0-.02,0-.02,0m38.26,35.4s0,.02,0,.03c0,0,0-.02,0-.03"/></g><path class="cls-35" d="m344.59,302.56l-14.12-.79-.22,6.24s-12.82,3.72-14.01,7.17c-.13.38,26.31-.46,27.51-1.12,1.2-.66.86-11.51.86-11.51Z"/><path class="cls-35" d="m349.08,302.5l14.12-.79.22,6.24s12.82,3.72,14.01,7.17c.13.38-25.98-.55-27.17-1.21-1.2-.66-1.19-11.42-1.19-11.42Z"/><path class="cls-22" d="m316.95,187.94l32.83,3.41h26.99s-.92,17.16-11.73,17.8c-10.81.64-33.52,1.81-36.57-1.7-3.05-3.51-11.51-19.51-11.51-19.51Z"/><path class="cls-22" d="m345.71,199.82s-.4,102.76,0,105.96l-16.54.66s-12.41-85.03-12.22-114.54l28.76,7.92Z"/><path class="cls-22" d="m348.01,199.82s.4,102.76,0,105.96l16.54.66s12.41-81.52,12.22-111.03l-28.76,4.41Z"/><path class="cls-35" d="m366.81,125.12s8.11,25.25,13.79,27.21,13.77-3.7,14.03-6.39c.47-4.94-13.8-34.8-17.86-38.97s-16.42,1.41-9.96,18.15Z"/><path class="cls-35" d="m323.74,94.44s-10.34,7.41-13.53,12.89c-5.03,8.65-16.72,44.71-16.72,44.71,0,0,22.19,12.63,23.78,2.72,1.59-9.91,9.02-57.59,6.47-60.32Z"/><path class="cls-8" d="m321.44,95.04s18.6-7.9,43.53,1.37c13.03,4.84,4.5,38.86,5.05,55.23.28,8.19,9.85,28.46,9.2,43.75,0,0-63.69.82-63.66-1.61.19-15.16,6.39-34.48,6.39-39.76,0-5.28-5.64-53.32-.51-58.96Z"/><path class="cls-7" d="m337.32,150.22c9.98,0,27.21-1.96,28.2-3.24l.09-.64c-.17-.39-.64-.5-1.49-.58-6.96-.61-35.52-.16-36.73-.14l.02,1.08c.28,0,27.08-.43,35.53.06-5.91,1.2-24.33,3.11-30.6,2.09l-.17,1.07c1.24.2,3.04.29,5.15.29Z"/><path class="cls-8" d="m362.9,122.96c2.99,3.05,8.32,13.86,8.32,13.86,0,0,15.98-5.03,15.84-11.36,0,0-11.14-35.13-33.85-33.56,0,0,4.35,25.61,9.68,31.05Z"/><path class="cls-8" d="m322.6,133.97s-14.07-3.31-20.34-6.52c-3.52-1.8,9.3-23.04,13.6-28.92,3.35-4.57,11.99-4.83,11.99-4.83l-5.25,40.26Z"/><path class="cls-6" d="m352.09,101.87s-10.5.64-12.3,0c0,0,5.37,12.98,5.77,13.86,0,0,3.92-8.32,6.53-13.86Z"/><path class="cls-23" d="m359.46,167.27s12.54-43.3,12.08-45.27c-.46-1.96-34.99-12.8-35.7-11.56-5.14,8.94-14.36,44.57-12.13,45.34,9.19,3.18,35.75,11.48,35.75,11.48Z"/><path class="cls-28" d="m359.35,168.33s11.49-43.59,10.99-45.54c-.5-1.95-35.28-11.95-35.97-10.69-4.92,9.06-13.28,44.9-11.03,45.62,9.26,2.96,36.01,10.62,36.01,10.62Z"/><g class="cls-26"><path class="cls-9" d="m347.46,122.05s-.06-.02-.05-.01l-.26-.06s-.04,0-.04,0c-.8-.19-1.6-.15-2.33.07-.86.26-1.64.77-2.21,1.48-.01.01-.03.03-.04.04h0s0,0,0,0l-7.45,8.4s1.29.32,2.15.53l.73.18s0,0-.01,0c1.74.41,3.48-.25,4.54-1.55.01-.01.03-.03.04-.04h0s0,0,0,0l3.52-3.97,3.46-3.9c-.55-.54-1.24-.94-2.03-1.14Z"/><path class="cls-9" d="m358.73,127.53h0s0,0,0,0c0-.02-.01-.04-.02-.05-.34-1.65-1.58-3.03-3.31-3.48,0,0,.01,0,.02,0l-.73-.18-2.15-.53,1.41,5.66,1.65.41h0s0,0,0,0c0,0,.02,0,.02,0,.74.18,1.38.71,1.58,1.49,0,0,0,0,0,0,0,.02.04.15.08.33.1.39.24.97.24.97l-2.96-.73.69,2.76h0s0,0,0,0c0,.02.01.04.02.05.34,1.65,1.58,3.03,3.31,3.48,0,0-.01,0-.02,0l.73.18,2.15.53-2.72-10.89Z"/><path class="cls-9" d="m352.09,130.81l-1.58-.39h0s0,0,0,0c0,0-.02,0-.02,0-.75-.19-1.38-.71-1.58-1.49,0,0,0,0,0,0,0-.02-.04-.15-.08-.33l-.24-.97,2.89.71-.69-2.76h0s0,0,0,0c0-.02-.01-.04-.02-.05-.18-.89-.63-1.7-1.27-2.33l-3.46,3.9,1.29,5.15h0s0,0,0,0c0,.02.01.04.02.05.34,1.65,1.58,3.03,3.31,3.48,0,0-.01,0-.02,0l.73.18,2.15.53-1.41-5.66Z"/><g class="cls-21"><polygon class="cls-20" points="349.5 123.19 346.04 127.09 346.45 128.75 349.5 123.19 349.5 123.19"/></g></g><path class="cls-35" d="m393.23,140.2s1.24,2.58,1.4,5.74c.09,1.69-.33,3.64-1.28,5.69-2.89,6.18-58.83,0-61.43.2-2.6.2-6.64,5.38-8.57,5.88-1.94.51-1.42-4.22-1.63-7.79-.21-3.56-1.67-9.94,5.08-9.77,6.75.17,42.59-7.09,51.18-6.04,8.59,1.06,15.26,6.08,15.26,6.08Z"/><path class="cls-15" d="m363.42,307.95s-5.87,3.25-8.47,2.67c-2.6-.58-6-3.86-6.01-3.32s-.76,7.35-.01,7.85c.75.5,28.75,1.71,29.44.76s-6.99-6.98-14.95-7.96Z"/><path class="cls-15" d="m330.49,308.02s5.87,3.25,8.47,2.67c2.6-.58,6-3.86,6.01-3.32s.76,7.35.01,7.85-28.75,1.71-29.44.76c-.69-.95,6.99-6.98,14.95-7.96Z"/><g><path class="cls-35" d="m353.25,91.87c.48,2.96-.33,6.45-1.14,9.94-4.81.42-9.29.64-12.32,0-.37-3.36.09-7.24.99-9.9l12.47-.05Z"/><path class="cls-10" d="m328.71,66.24c-.8.07-1.45.74-1.73,1.5-.27.76-.24,1.59-.14,2.38.19,1.57.62,3.19,1.69,4.35,1.07,1.16,2.92,1.72,4.29.93.2-.11.4-.28.42-.51.03-.23-.25-.46-.43-.32"/><path class="cls-35" d="m340.76,82.35v-.04l13.37-7.22c-.23,5.92-.87,11.42-1.22,17.32-.55,9.45-12.04,7.29-12.04,2.98,0-.04-.11-10.22-.11-13.05Z"/><path class="cls-10" d="m349.8,77.9c-3.6,2.14-9.03,3.44-9.03,3.44v.04c0,2.16-.08,4.16-.02,7.66.03.62.11,5.63.11,5.63,5.75.72,9.85-3.45,10.06-11.5.15-3.21,1.89-3.92,1.98-6.79-.91.44-1.98.97-3.11,1.52Z"/><path class="cls-35" d="m357.12,58.09c-.1-.58-.21-1.15-.33-1.7-.81-3.8-2.39-3.59-6.41-5.36-2.76-1.21-6.05-.8-8.92,0-.84.23-1.68.51-2.5.81-1.82.66-3.68.8-5.58.58-1.36-.16-.73-4.91-1.71-3.47-.43.64-2.08,1.9-2.25,2.64-.84,3.71-3.62,27.97,4.86,35.66,2.42,2.19,6.56,3.12,9.77,2.53,7.73-1.42,12.05-11.15,13.21-17.88.79-4.56.67-9.25-.14-13.8Z"/><g><path class="cls-35" d="m356.49,74.65c.53.63,4.75-.49,4.37-5.84-.26-3.64-3.22-3.87-4.61-2.38-2.28,2.44-1.26,6.44.25,8.22Z"/><path class="cls-10" d="m358.11,72.58c.08,0,.17-.04.23-.1.11-.13.09-.31-.03-.42l-1.21-1.05,1.83-2.06c.11-.12.1-.31-.03-.42-.12-.11-.31-.1-.42.03l-2.23,2.51,1.67,1.45c.06.05.13.07.2.07Z"/></g><circle class="cls-14" cx="350.73" cy="74.9" r="1.83"/><circle class="cls-14" cx="331.83" cy="75" r="1.83"/><rect class="cls-10" x="339.2" y="72.13" width="1.29" height="2.67" rx=".64" ry=".64" transform="translate(679.69 146.94) rotate(180)"/><g><path class="cls-29" d="m337.43,81.25c.84.64,1.93,1.06,3.24,1.02,1.53-.05,2.73-.71,3.57-1.59-3.56-2.38-6.45.21-6.81.57Z"/><path class="cls-32" d="m335.6,77.05c-.6.77.11,2.91,1.83,4.2.36-.36,3.26-2.95,6.81-.57,1.33-1.39,1.75-3.3,1.08-4.13-.92-1.13-2.4.63-4.93.66-2.48.02-3.75-1.53-4.8-.17Z"/></g><g><g><g><path class="cls-5" d="m344.59,66.51c.29.18.69.2,1.07.24.39.03.78.08,1.12.13.34.05.72.12,1.11.2.38.07.77.17,1.09.08.31-.08.48-.41.2-.9-.26-.47-1.04-1.05-2.16-1.21-1.12-.16-2.01.18-2.39.55-.39.38-.32.75-.04.92Z"/><path class="cls-5" d="m332.69,67.21c.34.08.74-.04,1.14-.12.4-.1.79-.18,1.14-.25.35-.06.76-.12,1.16-.17.4-.06.82-.09,1.1-.29.28-.18.33-.57-.11-.95-.41-.37-1.38-.69-2.54-.48-1.16.22-1.93.85-2.17,1.34-.26.51-.06.85.27.92Z"/></g><path class="cls-5" d="m345.51,69.74c-.28.6-.02,1.31.58,1.59.6.28,1.31.02,1.59-.58.28-.6.02-1.31-.58-1.59-.6-.28-1.31-.02-1.59.58Z"/><path class="cls-5" d="m334.01,69.79c-.28.6-.02,1.31.58,1.59.6.28,1.31.02,1.59-.58.28-.6.02-1.31-.58-1.59-.6-.28-1.31-.02-1.59.58Z"/></g><path class="cls-8" d="m331.64,47.36s23.24,2.94,27.66,5.8l1.15-10.71s-.13-1.1-2.82-2.18c0,0-13.13-5.81-21.11-3.3,0,0-1.25,1.01-2.6,4.1l-2.28,6.31Z"/><g><rect class="cls-17" x="342.65" y="38.26" width="2.02" height="6.71" transform="translate(265.84 378.94) rotate(-83.91)"/><rect class="cls-17" x="340.31" y="40.61" width="6.72" height="2.02" transform="translate(265.84 378.93) rotate(-83.91)"/></g></g><path class="cls-5" d="m346.88,57.76c.98,3.68,7.99,14.99,14.07,11.58,1.55-.87,1.54-3.09,1.46-4.86-.17-3.57-.36-7.25-1.94-10.46-1.11-2.27-5.14-6.9-8.02-4.84-3.2,2.3-6.68,4.42-5.57,8.58Z"/><path class="cls-5" d="m351.77,55.35c3.88-3.17,3.44-5.3.56-9.3-2.2-3.06-11.76-3.21-20.03.86-3,1.48-8.22,11.83-7.63,13.3,1.64,4.1,7.2,3.47,10.68,2.9,11.53-1.89,14.87-6.49,16.42-7.76Z"/></g><path class="cls-35" d="m305.67,139.85c-6.67-3.76-54.31-14.03-54.31-14.03-2.22,1.36-2.96,4.97-3.73,7.21-.39,1.14-.13,2.22-.13,2.22,0,0,60.69,31.27,65.71,26.65,5.02-4.62,4.33-10.73,4.33-10.73,0,0-4.34-7.07-11.87-11.32Z"/><path class="cls-35" d="m236.87,121.75c-1.44-1.48-4.1-3.6-2.89-4.9,2-2.14,13.24,3.59,14.19,4.41s3.09,3.11,3.2,4.63c.1,1.51-1.93,8.26-2.2,8.67-1.03,1.52-10.33,1.05-13.77-1.33-3.65-2.52-5.28-6.41-3.39-9.44.7-1.12,1.94-2.15,4.86-2.03Z"/><polygon points="250.16 137.33 247.3 139.73 200.42 81.72 201.26 81.02 250.16 137.33"/><path class="cls-35" d="m236.22,121.85c-1.94,0-6.61,1.25-4.99,6.2,2.01,6.12,12.07,10.54,15.56,6.69,4.33-4.78-6.97-12.88-10.57-12.88Z"/></g></g></svg>