<svg xmlns="http://www.w3.org/2000/svg" xmlns:xlink="http://www.w3.org/1999/xlink" width="352" height="352" viewBox="0 0 352 352">
  <defs>
    <clipPath id="clip-path">
      <rect id="矩形_4904" data-name="矩形 4904" width="352" height="352" transform="translate(32 22)" fill="none" stroke="#707070" stroke-width="1"/>
    </clipPath>
    <clipPath id="clip-女婴患者">
      <rect width="352" height="352"/>
    </clipPath>
  </defs>
  <g id="女婴患者" clip-path="url(#clip-女婴患者)">
    <rect width="352" height="352" fill="#fff"/>
    <g id="蒙版组_8" data-name="蒙版组 8" transform="translate(-32 -22)" clip-path="url(#clip-path)">
      <rect id="矩形_4861" data-name="矩形 4861" width="430" height="430" transform="translate(-7 -5)" fill="#ffe0e0"/>
      <g id="组_86" data-name="组 86" transform="translate(65.483 75.346)">
        <g id="组_80" data-name="组 80" transform="translate(0 185.361)">
          <path id="路径_82" data-name="路径 82" d="M2291.4,381.932s.331-71.885,26.906-112.355c15.5-23.606,47.7-52.271,111.949-52.271s95.43,26.369,111.364,43.356c31.39,33.467,34.815,121.27,34.815,121.27Z" transform="translate(-2291.395 -217.306)" fill="#f26d8b"/>
          <path id="路径_83" data-name="路径 83" d="M2362.29,226.08s11.416,25.585,49.421,30.522c51.019,6.628,90.166-18.209,90.166-18.209s-15.426-10.207-31.051-14.582c0,0-22.123,15.1-45.894,14.259S2362.29,226.08,2362.29,226.08Z" transform="translate(-2276.059 -215.645)" fill="#c62f53" opacity="0.5"/>
        </g>
        <g id="组_85" data-name="组 85" transform="translate(35.28)">
          <g id="组_83" data-name="组 83" transform="translate(0 40.765)">
            <path id="路径_86" data-name="路径 86" d="M2515.441,176.051c-6.139-10.582-16.264-4.773-16.264-4.773a83.673,83.673,0,0,0-8.081-38.395c-13.229-27.494-38.054-39.05-75.207-39.05-17.784,0-48.878,1.687-67.986,38.8a67.267,67.267,0,0,0-6.291,40.576s-4.186-5.744-15.111-1.934c-7.079,2.469-8.21,15.561,0,27.111,4.206,5.919,11.921,10.774,21.4,14.888,0,0,2.328,47.991,71.463,47.991,55.548,0,69.666-31.936,71.729-47.991,0,0,11.382-4.492,18.983-12.73C2516.331,193.774,2519.9,183.729,2515.441,176.051Z" transform="translate(-2314.963 -90.833)" fill="#fed3b8"/>
            <g id="组_82" data-name="组 82" transform="translate(65.237 79.616)">
              <g id="组_81" data-name="组 81" transform="translate(0 0)">
                <ellipse id="椭圆_16" data-name="椭圆 16" cx="8.475" cy="8.118" rx="8.475" ry="8.118" transform="translate(62.226)"/>
                <ellipse id="椭圆_16-2" data-name="椭圆 16" cx="8.475" cy="8.118" rx="8.475" ry="8.118"/>
              </g>
              <path id="形状_121" data-name="形状 121" d="M2395.717,202.534a12.818,12.818,0,0,0,9.435,3.992,15.462,15.462,0,0,0,10.121-3.992" transform="translate(-2366.216 -149.875)" fill="none" stroke="#ab392c" stroke-linecap="round" stroke-width="4.916"/>
              <path id="路径_87" data-name="路径 87" d="M2407.578,184.2s7.555,11.489-3.178,11.489" transform="translate(-2364.578 -162.505)" fill="none" stroke="#ab392c" stroke-linecap="round" stroke-width="4.916"/>
              <g id="组_10929" data-name="组 10929" transform="translate(7.16 -16.333)">
                <path id="路径_8983" data-name="路径 8983" d="M2945.824,610.536c3.482-3.233,13.1-4.843,19.567-1.361" transform="translate(-2955.824 -607.219)" fill="none" stroke="#462a2a" stroke-linecap="round" stroke-width="2.8"/>
                <path id="路径_9927" data-name="路径 9927" d="M2965.392,610.536c-3.482-3.233-13.1-4.843-19.567-1.361" transform="translate(-2890.713 -607.219)" fill="none" stroke="#462a2a" stroke-linecap="round" stroke-width="2.8"/>
              </g>
            </g>
          </g>
          <path id="路径_9942" data-name="路径 9942" d="M2631.057,166.508c-2.925-3.268-7.34-3.441-10.322.917-2.677,3.914.2,9.151,3.67,14.221,4.041,5.9,8.716,8.257,10.092,7.569s1.005-7.913-1.376-11.927S2633.981,169.777,2631.057,166.508Z" transform="translate(-2606.395 -38.279)" fill="#e6785c" opacity="0.5"/>
          <path id="路径_9943" data-name="路径 9943" d="M2623.921,166.508c2.924-3.268,7.34-3.44,10.322.917,2.677,3.914-.2,9.151-3.67,14.221-4.041,5.9-8.716,8.257-10.092,7.569s-1.005-7.913,1.377-11.927S2621,169.777,2623.921,166.508Z" transform="translate(-2439.929 -38.279)" fill="#e6785c" opacity="0.5"/>
          <path id="路径_84" data-name="路径 84" d="M2349.506,65.647" transform="translate(-2313.761 -65.647)" fill="#251b26"/>
          <path id="路径_85" data-name="路径 85" d="M2408.555,76.463A34.968,34.968,0,0,1,2422.815,62l15.482,7.537s-14.056,5.5-19.352,17.315-17.111,15.685-17.111,15.685S2403.31,86.6,2408.555,76.463Z" transform="translate(-2302.133 -59.124)" fill="#101013"/>
          <path id="路径_88" data-name="路径 88" d="M2379.333,118.952c0,13.316,9.79,26.112,34.426,30.075,0,0-.815-6.519,7.537-9.778s18.005-8.275,18.333-20.3-6.107-21.174-15.187-26.367c-7.146-4.087-17.866-3.79-23.209-2.179C2388.9,94.126,2379.333,105.636,2379.333,118.952Z" transform="translate(-2307.133 -53.058)" fill="#101013"/>
          <g id="组_84" data-name="组 84" transform="translate(59.518 18.035)">
            <path id="路径_89" data-name="路径 89" d="M2405.962,100.262s-5.328-14.678-10.146-18.234-10.5-8.578-12.012-7.468-15.263,10.428-14.838,24.817c.162,5.539,2.6,8.131,1.667,13.354s-2.535,10.566.447,14.91a52.655,52.655,0,0,1,4.14,7,2.446,2.446,0,0,0,2.492,1.414c5.254-.592,19.936-3.637,27.4-19.279C2405.118,116.776,2408.97,107.486,2405.962,100.262Z" transform="translate(-2368.957 -74.403)" fill="#f26d8b"/>
            <path id="路径_90" data-name="路径 90" d="M2413.474,100.094a22.7,22.7,0,0,0,5.129-8.43c1.861-5.355,10.938-17.362,21.137-16.191,0,0,8.356,8.657,9.163,19.58s5.2,7.694,1.743,20.907-8.309,15.835-9.235,18.8-1.151,4.083-3.329,3.7-11.323-2.3-16.918-10.591-7.639-10.2-8.812-12.241C2412.351,115.638,2407.489,109.25,2413.474,100.094Z" transform="translate(-2359.728 -74.182)" fill="#f26d8b"/>
            <path id="路径_91" data-name="路径 91" d="M2399.441,95.3s-3.221,8.7-.726,16.834a61.789,61.789,0,0,1,9.091-.92,46.6,46.6,0,0,1,8.443.98s3.256-6.738.4-16.575a35.472,35.472,0,0,1-8.306,1.407A26.322,26.322,0,0,1,2399.441,95.3Z" transform="translate(-2362.555 -69.759)" fill="#c62f53"/>
          </g>
        </g>
      </g>
      <path id="路径_9944" data-name="路径 9944" d="M2706.026,64.667s-5.907,9.167-6.518,17.722a18.688,18.688,0,0,0,5.3,14.056" transform="translate(-2501.897 16.815)" fill="none" stroke="#000" stroke-linecap="round" stroke-width="4"/>
    </g>
  </g>
</svg>
