<svg xmlns="http://www.w3.org/2000/svg" xmlns:xlink="http://www.w3.org/1999/xlink" width="352" height="352" viewBox="0 0 352 352">
  <defs>
    <clipPath id="clip-path">
      <rect id="矩形_4904" data-name="矩形 4904" width="352" height="352" transform="translate(32 22)" fill="none" stroke="#707070" stroke-width="1"/>
    </clipPath>
    <clipPath id="clip-男婴患者">
      <rect width="352" height="352"/>
    </clipPath>
  </defs>
  <g id="男婴患者" clip-path="url(#clip-男婴患者)">
    <rect width="352" height="352" fill="#fff"/>
    <g id="蒙版组_4" data-name="蒙版组 4" transform="translate(-32 -22)" clip-path="url(#clip-path)">
      <rect id="矩形_4861" data-name="矩形 4861" width="430" height="430" transform="translate(-7 -5)" fill="#cce3f9"/>
      <g id="组_51" data-name="组 51" transform="translate(65.483 110.973)">
        <path id="路径_55" data-name="路径 55" d="M1919.4,381.95s.331-71.984,26.906-112.453c15.5-23.606,47.7-52.271,111.949-52.271s95.43,26.369,111.364,43.356c31.39,33.467,34.815,121.368,34.815,121.368Z" transform="translate(-1919.395 -67.59)" fill="#3c92de"/>
        <path id="路径_56" data-name="路径 56" d="M1988.919,225.311s12.729,26.428,50.734,31.366c51.019,6.629,90.166-18.207,90.166-18.207s-16.813-10.11-30.541-14.47c0,0-22.633,14.986-46.4,14.146S1988.919,225.311,1988.919,225.311Z" transform="translate(-1904.001 -66.084)" fill="#1473c5" opacity="0.5"/>
        <g id="组_50" data-name="组 50" transform="translate(35.28)">
          <g id="组_83" data-name="组 83" transform="translate(0 5.138)">
            <path id="路径_86" data-name="路径 86" d="M2515.441,176.051c-6.139-10.582-16.264-4.773-16.264-4.773a83.673,83.673,0,0,0-8.081-38.395c-13.229-27.494-38.054-39.05-75.207-39.05-17.784,0-48.878,1.687-67.986,38.8a67.267,67.267,0,0,0-6.291,40.576s-4.186-5.744-15.111-1.934c-7.079,2.469-8.21,15.561,0,27.111,4.206,5.919,11.921,10.774,21.4,14.888,0,0,2.328,47.991,71.463,47.991,55.548,0,69.666-31.936,71.729-47.991,0,0,11.382-4.492,18.983-12.73C2516.331,193.774,2519.9,183.729,2515.441,176.051Z" transform="translate(-2314.963 -90.833)" fill="#fed3b8"/>
            <g id="组_82" data-name="组 82" transform="translate(65.237 79.616)">
              <g id="组_81" data-name="组 81" transform="translate(0 0)">
                <ellipse id="椭圆_16" data-name="椭圆 16" cx="8.475" cy="8.118" rx="8.475" ry="8.118" transform="translate(62.226)"/>
                <ellipse id="椭圆_16-2" data-name="椭圆 16" cx="8.475" cy="8.118" rx="8.475" ry="8.118"/>
              </g>
              <path id="形状_121" data-name="形状 121" d="M2395.717,202.534a12.818,12.818,0,0,0,9.435,3.992,15.462,15.462,0,0,0,10.121-3.992" transform="translate(-2366.216 -149.875)" fill="none" stroke="#ab392c" stroke-linecap="round" stroke-width="4.916"/>
              <path id="路径_87" data-name="路径 87" d="M2407.578,184.2s7.555,11.489-3.178,11.489" transform="translate(-2364.578 -162.505)" fill="none" stroke="#ab392c" stroke-linecap="round" stroke-width="4.916"/>
              <g id="组_10982" data-name="组 10982" transform="translate(7.16 -16.333)">
                <path id="路径_8983" data-name="路径 8983" d="M2945.824,610.536c3.482-3.233,13.1-4.843,19.567-1.361" transform="translate(-2955.824 -607.219)" fill="none" stroke="#462a2a" stroke-linecap="round" stroke-width="2.8"/>
                <path id="路径_9927" data-name="路径 9927" d="M2965.392,610.536c-3.482-3.233-13.1-4.843-19.567-1.361" transform="translate(-2890.713 -607.219)" fill="none" stroke="#462a2a" stroke-linecap="round" stroke-width="2.8"/>
              </g>
            </g>
          </g>
          <path id="路径_9942" data-name="路径 9942" d="M2631.057,166.508c-2.925-3.268-7.34-3.441-10.322.917-2.677,3.914.2,9.151,3.67,14.221,4.041,5.9,8.716,8.257,10.092,7.569s1.005-7.913-1.376-11.927S2633.981,169.777,2631.057,166.508Z" transform="translate(-2606.395 -73.906)" fill="#e6785c" opacity="0.5"/>
          <path id="路径_9943" data-name="路径 9943" d="M2623.921,166.508c2.924-3.268,7.34-3.44,10.322.917,2.677,3.914-.2,9.151-3.67,14.221-4.041,5.9-8.716,8.257-10.092,7.569s-1.005-7.913,1.377-11.927S2621,169.777,2623.921,166.508Z" transform="translate(-2439.929 -73.906)" fill="#e6785c" opacity="0.5"/>
          <g id="组_10957" data-name="组 10957" transform="translate(76.654 3)">
            <path id="路径_59" data-name="路径 59" d="M2032.712,91.947s-9.2,3.9-8.493,15.312c.428,6.954,7.636,13.079.419,18.717-2.794,2.183-10.388,2.569-10.388,2.569s5.251,10.5,21.906,10.5c16.72,0,27.917-11.57,29.07-21.016s-.5-14.531-5.174-20.706C2054.971,90.609,2041.861,87.336,2032.712,91.947Z" transform="translate(-2014.25 -89.796)" fill="#101013"/>
            <path id="路径_9945" data-name="路径 9945" d="M2292.375,91.75s-16.653-.153-21.236,8.25,1.833,14.056,1.375,20.167a8.189,8.189,0,0,1-6.264,7.333" transform="translate(-2263.806 -89.362)" fill="none" stroke="#000" stroke-linecap="round" stroke-linejoin="round" stroke-width="4"/>
          </g>
        </g>
      </g>
    </g>
  </g>
</svg>
