<svg xmlns="http://www.w3.org/2000/svg" xmlns:xlink="http://www.w3.org/1999/xlink" width="352" height="352" viewBox="0 0 352 352">
  <defs>
    <clipPath id="clip-path">
      <rect id="矩形_4904" data-name="矩形 4904" width="352" height="352" transform="translate(32 22)" fill="none" stroke="#707070" stroke-width="1"/>
    </clipPath>
    <clipPath id="clip-男性患者">
      <rect width="352" height="352"/>
    </clipPath>
  </defs>
  <g id="男性患者" clip-path="url(#clip-男性患者)">
    <rect width="352" height="352" fill="#fff"/>
    <g id="蒙版组_2" data-name="蒙版组 2" transform="translate(-32 -22)" clip-path="url(#clip-path)">
      <rect id="矩形_22" data-name="矩形 22" width="430" height="430" transform="translate(-7 -5)" fill="#cce3f9"/>
      <path id="路径_9908" data-name="路径 9908" d="M264.126,219.585c38.548,7.633,71.537,26.9,83.17,38.746C380.176,291.8,393.3,382.178,393.3,382.178h-.031l.031.268H25.56s0-.11,0-.268h0s5.907-74.312,41.762-121.819c11.76-15.581,48.9-34.232,86.931-41.237,15.249-2.809,27.1-4.237,54.567-4.121S264.126,219.585,264.126,219.585Z" transform="translate(-1.431 42.888)" fill="#3c92de"/>
      <g id="组_10932" data-name="组 10932" transform="translate(132.657 56.222)">
        <g id="组_8967" data-name="组 8967">
          <g id="组_8957" data-name="组 8957" transform="translate(0 62.089)">
            <path id="路径_8687" data-name="路径 8687" d="M502.648,609.356c4.821-8.351,28.6-17.6,54.022-17.6s32.866,3.177,46.612,11.492,11.216,18.316,10.832,21.263c-.632,4.864.208,9.484,5.812,7.945s18.413,6.671,5.6,26.426-20.677,13.085-20.677,13.085-2.579,10.872-7.567,18.7a46.478,46.478,0,0,1-12.384,12.6s-.715,10.6.306,18.223a25.361,25.361,0,0,0,5.286,12.448s-20.014,34.673-36.838,34.673-31.881-12.562-34.836-35.412a38.529,38.529,0,0,0,4.484-11.709,136.923,136.923,0,0,0,2.319-18.223,48.788,48.788,0,0,1-10.941-12.6c-4.664-7.825-7.715-18.7-7.715-18.7s-10.229,3.079-21.437-13.085-2.135-26.426,7.472-26.426S497.827,617.707,502.648,609.356Z" transform="translate(-480.349 -591.756)" fill="#ffcaab"/>
            <path id="路径_8688" data-name="路径 8688" d="M534.581,618.332c-4.583,2.954-12.2,6.824-25.768,6.824a52.033,52.033,0,0,1-14.041-1.732" transform="translate(-432.35 -503.403)" fill="none" stroke="#e6785c" stroke-linecap="round" stroke-linejoin="round" stroke-width="3.6"/>
            <path id="路径_8689" data-name="路径 8689" d="M530.534,617.094s-6.176,4.786-11.638,6.733-22.727,5.533-22.727,5.533a130.437,130.437,0,0,0,17.76,8.938,144.982,144.982,0,0,0,19.632,6s-2.349-3.476-3.027-11.306A107.442,107.442,0,0,1,530.534,617.094Z" transform="translate(-425.982 -505.71)" fill="#e6785c" opacity="0.5"/>
            <path id="路径_8695" data-name="路径 8695" d="M495.633,602.481s-10-4.244-12.732,3.031,10.842,21.267,15.46,21.523-1.8-7.391-1.283-13.035A32.627,32.627,0,0,0,495.633,602.481Z" transform="translate(-475.503 -554.519)" fill="#e6785c" opacity="0.5"/>
            <path id="路径_8696" data-name="路径 8696" d="M488.019,601.73s8.21-1.8,9.493,3.335-8.467,20.782-13.085,21.038,2.822-8.723,2.309-14.368A23.3,23.3,0,0,1,488.019,601.73Z" transform="translate(-355.956 -554.055)" fill="#e6785c" opacity="0.5"/>
            <path id="形状_128" data-name="形状 128" d="M1622.754,226.7s5.388-1.676,7.221-5.75-2.241-11.407-2.409-20.555" transform="translate(-1547.276 -147.169)" fill="none" stroke="#ab392c" stroke-linecap="round" stroke-linejoin="round" stroke-width="4"/>
            <path id="形状_110_拷贝" data-name="形状 110 拷贝" d="M1618.692,210.293a17.307,17.307,0,0,0,10.984,3.6c6.969,0,9.37-3.6,9.37-3.6" transform="translate(-1552.991 -116.688)" fill="none" stroke="#ab392c" stroke-linecap="round" stroke-linejoin="round" stroke-width="4"/>
            <g id="组_10945" data-name="组 10945" transform="translate(41.867 24.931)">
              <path id="路径_8972" data-name="路径 8972" d="M0,5.648C3.739.209,13.3-1.68,18.68,1.658" transform="translate(0.786 0) rotate(8)" fill="none" stroke="#462a2a" stroke-linecap="round" stroke-width="2.8"/>
              <path id="路径_9921" data-name="路径 9921" d="M0,0C3.739,5.438,13.3,7.327,18.68,3.99" transform="translate(70.618 5.593) rotate(172)" fill="none" stroke="#462a2a" stroke-linecap="round" stroke-width="2.8"/>
            </g>
            <g id="组_10946" data-name="组 10946" transform="translate(46.756 38.324)">
              <circle id="椭圆_17" data-name="椭圆 17" cx="6.096" cy="6.096" r="6.096" transform="translate(0)"/>
              <circle id="椭圆_17-2" data-name="椭圆 17" cx="6.096" cy="6.096" r="6.096" transform="translate(48.889)"/>
            </g>
          </g>
          <g id="组_8956" data-name="组 8956" transform="translate(3.835 0)">
            <path id="路径_8679" data-name="路径 8679" d="M-4635.1,3266.718c1.1,0-.488-7.578,0-17.111a46.079,46.079,0,0,1,3.667-16.133s4.936-4.3,10.021-2.933,14.273.651,15.4,0c2.29-1.322,1.711-11.978,10.267-18.333s15.155,7.333,15.155,7.333,6.845-10.267,14.178-6.111,8.557,15.644,10.756,17.111c1.148.766,7.822,1.956,14.178,0a22.085,22.085,0,0,1,12.222,0,66.857,66.857,0,0,1,3.178,17.111c.367,9.044-1.97,19.067,0,19.067s7.823-10.511,13.2-25.667,2.688-35.688-.979-41.066,3.789-21.511-21.267-38.928-44.306-2.383-65.694-1.528-20.813,20.122-22.306,22.611c-1.123,1.867-11.306-2.139-20.167,5.195s-12.208,23.016-7.944,41.494S-4637.315,3266.718-4635.1,3266.718Z" transform="translate(4653.076 -3146.696)" fill="#101013"/>
            <path id="路径_8686" data-name="路径 8686" d="M401.567,616.9s-5.622-19.006,9.778-30.494,34.711-.733,48.156-8.311" transform="translate(-371.615 -578.097)" fill="none" stroke="#000" stroke-linecap="round" stroke-linejoin="round" stroke-width="3.3"/>
            <path id="路径_8950" data-name="路径 8950" d="M-2.129,21.39c3.911-7.333,17.844-12.467,29.394,0" transform="translate(2.992 17.721)" fill="none" stroke="#000" stroke-linecap="round" stroke-width="3.3"/>
          </g>
        </g>
      </g>
      <g id="组_95" data-name="组 95" transform="translate(148.741 252.236)">
        <path id="路径_9920" data-name="路径 9920" d="M124.516,233.125s1.078,21.289,9.148,38.042c6.728,13.969,20.242,23.691,24.292,23.833,6.723.236,16.806-18.486,23.069-27.347s9.625-8.1,9.625-8.1,8.77,12.589,11.947,18.456S212.619,295.367,217.019,295c8.556-.856,16.775-16.882,22.367-35.444s0-38.806,0-38.806l-57.9,33.306Z" transform="translate(-124.516 -210.513)" fill="#1065af" opacity="0.5"/>
        <path id="路径_99" data-name="路径 99" d="M159.756,211.335s-11.176-.657-25.236,9.54c0,0-.394,19.791,6.5,36.293s17.921,29.717,21.061,29.717,18.2-28.332,29.865-33.689C191.941,253.2,162.076,233.5,159.756,211.335Z" transform="translate(-134.516 -210.163)" fill="#fff"/>
        <path id="路径_100" data-name="路径 100" d="M193.867,210.375s10.89-.242,24.951,9.955c0,0,2.645,10.364-4.485,29.716s-22.292,37.133-25.407,37.05-16.091-28.23-27.759-33.587C161.167,253.509,191.546,232.541,193.867,210.375Z" transform="translate(-104.149 -210.375)" fill="#fff"/>
      </g>
    </g>
  </g>
</svg>
