<svg xmlns="http://www.w3.org/2000/svg" xmlns:xlink="http://www.w3.org/1999/xlink" width="352" height="352" viewBox="0 0 352 352"><defs><clipPath id="a"><rect width="352" height="352" transform="translate(32 22)" fill="none" stroke="#707070" stroke-width="1"/></clipPath><clipPath id="c"><rect width="352" height="352"/></clipPath></defs><g id="b" clip-path="url(#c)"><rect width="352" height="352" fill="#fff"/><g transform="translate(-32 -22)" clip-path="url(#a)"><path d="M264.126,219.585c38.548,7.633,71.537,26.9,83.17,38.746C380.176,291.8,393.3,382.178,393.3,382.178h-.031l.031.268H25.56s0-.11,0-.268h0s5.907-74.312,41.762-121.819c11.76-15.581,48.9-34.232,86.931-41.237,15.249-2.809,27.1-4.237,54.567-4.121S264.126,219.585,264.126,219.585Z" transform="translate(-1.431 42.888)" fill="#3c92de"/><g transform="translate(132.657 56.222)"><g transform="translate(0 62.089)"><path d="M502.648,609.356c4.821-8.351,28.6-17.6,54.022-17.6s32.866,3.177,46.612,11.492,11.216,18.316,10.832,21.263c-.632,4.864.208,9.484,5.812,7.945s18.413,6.671,5.6,26.426-20.677,13.085-20.677,13.085-2.579,10.872-7.567,18.7a46.478,46.478,0,0,1-12.384,12.6s-.715,10.6.306,18.223a25.361,25.361,0,0,0,5.286,12.448s-20.014,34.673-36.838,34.673-31.881-12.562-34.836-35.412a38.529,38.529,0,0,0,4.484-11.709,136.923,136.923,0,0,0,2.319-18.223,48.788,48.788,0,0,1-10.941-12.6c-4.664-7.825-7.715-18.7-7.715-18.7s-10.229,3.079-21.437-13.085-2.135-26.426,7.472-26.426S497.827,617.707,502.648,609.356Z" transform="translate(-480.349 -591.756)" fill="#ffcaab"/><path d="M508.813,626.956a52.072,52.072,0,0,1-13.445-1.548c-.331-.077-.661-.153-.993-.228a1.8,1.8,0,0,1,.793-3.512c.337.076.673.154,1.01.232a48.355,48.355,0,0,0,12.634,1.456c13.131,0,20.439-3.731,24.793-6.537a1.8,1.8,0,1,1,1.95,3.026C530.819,622.9,522.893,626.956,508.813,626.956Z" transform="translate(-432.35 -503.403)" fill="#e6785c"/><path d="M530.534,617.094s-6.176,4.786-11.638,6.733-22.727,5.533-22.727,5.533a130.437,130.437,0,0,0,17.76,8.938,144.982,144.982,0,0,0,19.632,6s-2.349-3.476-3.027-11.306A107.442,107.442,0,0,1,530.534,617.094Z" transform="translate(-425.982 -505.71)" fill="#e6785c" opacity="0.5"/><path d="M495.633,602.481s-10-4.244-12.732,3.031,10.842,21.267,15.46,21.523-1.8-7.391-1.283-13.035A32.627,32.627,0,0,0,495.633,602.481Z" transform="translate(-475.503 -554.519)" fill="#e6785c" opacity="0.5"/><path d="M488.019,601.73s8.21-1.8,9.493,3.335-8.467,20.782-13.085,21.038,2.822-8.723,2.309-14.368A23.3,23.3,0,0,1,488.019,601.73Z" transform="translate(-355.956 -554.055)" fill="#e6785c" opacity="0.5"/><path d="M1623.348,228.611l-1.188-3.819-.005,0c.046-.014,4.564-1.479,6-4.663.717-1.593.019-4.564-.79-8a54.1,54.1,0,0,1-1.8-11.693,2,2,0,1,1,4-.074,50.869,50.869,0,0,0,1.69,10.852c.975,4.148,1.816,7.731.543,10.561a12.044,12.044,0,0,1-5.107,5.306A17.565,17.565,0,0,1,1623.348,228.611Z" transform="translate(-1547.276 -147.169)" fill="#ab392c"/><g transform="translate(41.867 24.931)"><path d="M0,7.048A1.393,1.393,0,0,1-.793,6.8a1.4,1.4,0,0,1-.36-1.947A15.345,15.345,0,0,1,8.439-1.009,15.2,15.2,0,0,1,19.418.468a1.4,1.4,0,1,1-1.476,2.38A12.58,12.58,0,0,0,9.009,1.732,12.548,12.548,0,0,0,1.154,6.441,1.4,1.4,0,0,1,0,7.048Z" transform="translate(0.786 0) rotate(8)" fill="#462a2a"/><path d="M12.2,7.052a18.494,18.494,0,0,1-3.762-.4A15.345,15.345,0,0,1-1.154.793a1.4,1.4,0,0,1,.36-1.947,1.4,1.4,0,0,1,1.947.36A12.548,12.548,0,0,0,9.009,3.915,12.58,12.58,0,0,0,17.942,2.8a1.4,1.4,0,0,1,1.476,2.38A13.714,13.714,0,0,1,12.2,7.052Z" transform="translate(70.618 5.593) rotate(172)" fill="#462a2a"/></g><g transform="translate(46.756 38.324)"><circle cx="6.096" cy="6.096" r="6.096" transform="translate(0)"/><circle cx="6.096" cy="6.096" r="6.096" transform="translate(48.889)"/></g><path d="M-2926.6,4393.02c-9.616,0-11.945-3.879-12.179-4.321a1.849,1.849,0,0,1,1.181-2.585,2.537,2.537,0,0,1,3.033.919,3.675,3.675,0,0,0,1.412.98,15.765,15.765,0,0,0,6.552,1.09,15.534,15.534,0,0,0,6.489-1.079,3.516,3.516,0,0,0,1.369-.96,2.526,2.526,0,0,1,3.008-.966,1.861,1.861,0,0,1,1.243,2.566C-2914.715,4389.109-2916.951,4393.02-2926.6,4393.02Z" transform="translate(3002.417 -4294.075)" fill="#ab392c"/></g><g transform="translate(3.835 0)"><path d="M-4635.1,3266.718c1.1,0-.488-7.578,0-17.111a46.079,46.079,0,0,1,3.667-16.133s4.936-4.3,10.021-2.933,14.273.651,15.4,0c2.29-1.322,1.711-11.978,10.267-18.333s15.155,7.333,15.155,7.333,6.845-10.267,14.178-6.111,8.557,15.644,10.756,17.111c1.148.766,7.822,1.956,14.178,0a22.085,22.085,0,0,1,12.222,0,66.857,66.857,0,0,1,3.178,17.111c.367,9.044-1.97,19.067,0,19.067s7.823-10.511,13.2-25.667,2.688-35.688-.979-41.066,3.789-21.511-21.267-38.928-44.306-2.383-65.694-1.528-20.813,20.122-22.306,22.611c-1.123,1.867-11.306-2.139-20.167,5.195s-12.208,23.016-7.944,41.494S-4637.315,3266.718-4635.1,3266.718Z" transform="translate(4653.076 -3146.696)" fill="#101013"/><path d="M401.565,618.552a1.649,1.649,0,0,1-1.581-1.181,34.294,34.294,0,0,1-.948-11.545,29.865,29.865,0,0,1,2.8-10.523,27.7,27.7,0,0,1,8.524-10.217A29.839,29.839,0,0,1,424.5,579.5a79.3,79.3,0,0,1,14.232-.261c7.361.31,14.314.6,19.958-2.578a1.65,1.65,0,1,1,1.62,2.875,25.65,25.65,0,0,1-10.526,3,87.67,87.67,0,0,1-11.191,0c-8.98-.378-18.267-.769-26.262,5.2a24.507,24.507,0,0,0-10,18.258,31.577,31.577,0,0,0,.815,10.448,1.652,1.652,0,0,1-1.585,2.115Z" transform="translate(-371.615 -578.097)"/><path d="M-2.13,23.04a1.642,1.642,0,0,1-.775-.194,1.65,1.65,0,0,1-.679-2.232,15.067,15.067,0,0,1,5.1-5.406,18.674,18.674,0,0,1,7.791-2.856,19.5,19.5,0,0,1,9.527,1.167,25.7,25.7,0,0,1,9.641,6.751,1.65,1.65,0,1,1-2.421,2.243c-4.8-5.182-10.6-7.628-16.324-6.887-4.512.584-8.6,3.152-10.4,6.542A1.65,1.65,0,0,1-2.13,23.04Z" transform="translate(2.992 17.721)"/></g></g><g transform="translate(148.741 252.236)"><path d="M124.516,233.125s1.078,21.289,9.148,38.042c6.728,13.969,20.242,23.691,24.292,23.833,6.723.236,16.806-18.486,23.069-27.347s9.625-8.1,9.625-8.1,8.77,12.589,11.947,18.456S212.619,295.367,217.019,295c8.556-.856,16.775-16.882,22.367-35.444s0-38.806,0-38.806l-57.9,33.306Z" transform="translate(-124.516 -210.513)" fill="#1065af" opacity="0.5"/><path d="M159.756,211.335s-11.176-.657-25.236,9.54c0,0-.394,19.791,6.5,36.293s17.921,29.717,21.061,29.717,18.2-28.332,29.865-33.689C191.941,253.2,162.076,233.5,159.756,211.335Z" transform="translate(-134.516 -210.163)" fill="#fff"/><path d="M193.867,210.375s10.89-.242,24.951,9.955c0,0,2.645,10.364-4.485,29.716s-22.292,37.133-25.407,37.05-16.091-28.23-27.759-33.587C161.167,253.509,191.546,232.541,193.867,210.375Z" transform="translate(-104.149 -210.375)" fill="#fff"/></g></g></g></svg>