<svg xmlns="http://www.w3.org/2000/svg" xmlns:xlink="http://www.w3.org/1999/xlink" width="352" height="352" viewBox="0 0 352 352">
  <defs>
    <clipPath id="clip-path">
      <rect id="矩形_4904" data-name="矩形 4904" width="352" height="352" transform="translate(32 22)" fill="none" stroke="#707070" stroke-width="1"/>
    </clipPath>
    <clipPath id="clip-老年女性患者">
      <rect width="352" height="352"/>
    </clipPath>
  </defs>
  <g id="老年女性患者" clip-path="url(#clip-老年女性患者)">
    <rect width="352" height="352" fill="#fff"/>
    <g id="蒙版组_5" data-name="蒙版组 5" transform="translate(-32 -22)" clip-path="url(#clip-path)">
      <path id="路径_9958" data-name="路径 9958" d="M0,0H430.222V430.222H0Z" transform="translate(-7.111 -4.889)" fill="#ffe7d8"/>
      <path id="路径_9898" data-name="路径 9898" d="M264.126,220.585c1.893.375,6.022,1.287,6.022,1.287s-.115-4.386,2.839-3.775,4.3,3.3,6.213,3.812c31.983,8.627,57.905,25.827,68.1,36.2,32.88,33.467,46.007,123.848,46.007,123.848h-.031l.031.268H25.56s0-.11,0-.268h0s5.907-74.312,41.762-121.819c10.337-13.7,38.892-31.165,72.093-39.45,1.367-.341,2.619-2.939,6.286-3.812s3.892,4.159,3.892,4.159,2.976-.6,4.66-.91c15.249-2.809,27.1-4.237,54.567-4.121S264.126,220.585,264.126,220.585Z" transform="translate(-1.431 43.11)" fill="#ef7a5c"/>
      <path id="路径_9956" data-name="路径 9956" d="M10.063-.75,130.6.243s-4.943,31.83-8,71.915-3.841,88.349-3.841,88.349H22.208s-1.728-46.385-4.889-88.349c-1.441-19.135-3.077-35.98-4.469-49.006C11.275,8.407,10.063-.75,10.063-.75Z" transform="translate(138.125 264.826)" fill="#ffe7be"/>
      <g id="组_10965" data-name="组 10965" transform="translate(94.911 52.048)">
        <path id="路径_9948" data-name="路径 9948" d="M1846.978,62.978S1854.495,46.6,1889.94,46.6s61.233,21.878,64.594,38.378,12.583,18.333,19,36.361-.472,32.083,2.583,41.25,20.611,30.556,4.417,56.528-44.583,19.25-57.417,14.667-16.248-11.917-39.472-11.917-30.917,12.222-44.667,15.583-44.028,7.028-54.722-21.389,8.667-55.116,11.583-66-6.112-39.056,11.055-66.972S1846.978,62.978,1846.978,62.978Z" transform="translate(-1771.472 -40.47)" fill="#707070"/>
        <path id="路径_9949" data-name="路径 9949" d="M1833.333,66.944c0-13.858,19.372-29.272,45.3-25.341s51.933,21.8,58.927,39.433,18.867,18.622,29.073,39.767-.145,46.134,5.177,56.483" transform="translate(-1757.725 -41.584)" fill="none" stroke="#6a6a6a" stroke-linecap="round" stroke-width="4"/>
        <path id="路径_9950" data-name="路径 9950" d="M1777.861,191.04c-5.75-36.5,18.75-42.75,14.25-60.25s-.139-45.826,15.25-62.25,35.805-14,41.611-1.778" transform="translate(-1771.022 -37.838)" fill="none" stroke="#6a6a6a" stroke-linecap="round" stroke-linejoin="round" stroke-width="4"/>
      </g>
      <g id="组_46" data-name="组 46" transform="translate(134.478 114.481)">
        <path id="路径_9951" data-name="路径 9951" d="M608.763,635.428c3.285,0,5.756-3.66,7.333-4.225,6.6-2.367,18.334,5.789,8.067,25.344s-15.4,13.933-15.4,13.933-3.3,16.133-8.739,25.239-9.556,11.357-14.239,13.628c-.052-.24-3.661,27.569,10.572,31.383,2.859.766,8.9,1.8,14.3,2.865,4.063.8,7.372,1.681,7.372,1.681s-.888,5.958-1.642,11.42-1.375,10.427-1.375,10.427c-9.606,2.529-24.746,5.308-48.007,5.967-3.22.091-7.3,23.061-10.966,23.061s-6.469-22.96-10-23.052c-21.877-.568-36.24-2.853-45.88-5.441,0,0-.621-6.111-1.3-11.955s-1.413-11.42-1.413-11.42,3.574-.683,8.1-1.528c3.116-.581,6.965-1.256,9.834-2.024,15.157-4.061,8.311-31.383,8.311-31.383a49.709,49.709,0,0,1-11.978-14.911c-4.365-8.831-6.706-22.855-6.706-22.855s-7.96,5.5-17.494-15.033,1.024-27.559,9.289-25.344c1.173.062,4.644,7.077,6.274,7.077s1.868-16.951,8.637-27.646,21.918-15.947,21.918-15.947a237.872,237.872,0,0,1,48.074,6.111C608.193,606.91,605.479,635.428,608.763,635.428Z" transform="translate(-483.745 -594.688)" fill="#ffcaab"/>
        <g id="组_43" data-name="组 43" transform="translate(27.674 14.411)">
          <g id="组_42" data-name="组 42">
            <g id="组_41" data-name="组 41">
              <g id="组_10970" data-name="组 10970" transform="translate(14.667 22.094)">
                <ellipse id="椭圆_16" data-name="椭圆 16" cx="6.18" cy="6.917" rx="6.18" ry="6.917" transform="translate(49.174)"/>
                <ellipse id="椭圆_16-2" data-name="椭圆 16" cx="6.18" cy="6.917" rx="6.18" ry="6.917" transform="translate(0)"/>
              </g>
              <path id="形状_121" data-name="形状 121" d="M1651.66,176.812s1.956,4.749,9.1,4.749,9.067-4.749,9.067-4.749" transform="translate(-1615.604 -99.253)" fill="none" stroke="#ab392c" stroke-linecap="round" stroke-width="4.189"/>
              <path id="路径_43" data-name="路径 43" d="M1663.177,147.3s9.778,20.533-2.913,17.381" transform="translate(-1614.304 -103.368)" fill="none" stroke="#ab392c" stroke-linecap="round" stroke-width="4.189"/>
              <path id="路径_44" data-name="路径 44" d="M1648.9,105.523s13.42-4.879,30.5,0" transform="translate(-1618.299 -110.355)" fill="none" stroke="#e6785c" stroke-linecap="round" stroke-miterlimit="10" stroke-width="2.835" opacity="0.35"/>
              <path id="路径_45" data-name="路径 45" d="M1648.9,112.511s13.42-4.88,30.5,0" transform="translate(-1618.299 -108.802)" fill="none" stroke="#e6785c" stroke-linecap="round" stroke-miterlimit="10" stroke-width="2.835" opacity="0.35"/>
              <g id="组_10971" data-name="组 10971" transform="translate(0 21.068)" opacity="0.35">
                <path id="路径_46" data-name="路径 46" d="M1620.449,133.944a14.937,14.937,0,0,1,8.975-1.958" transform="translate(-1620.449 -124.185)" fill="none" stroke="#e6785c" stroke-linecap="round" stroke-miterlimit="10" stroke-width="2.835"/>
                <path id="路径_47" data-name="路径 47" d="M1620.449,125.592a18.5,18.5,0,0,1,8.76,2.457" transform="translate(-1620.449 -125.592)" fill="none" stroke="#e6785c" stroke-linecap="round" stroke-miterlimit="10" stroke-width="2.835"/>
                <path id="路径_48" data-name="路径 48" d="M1702.291,133.944a14.936,14.936,0,0,0-8.974-1.958" transform="translate(-1611.589 -124.185)" fill="none" stroke="#e6785c" stroke-linecap="round" stroke-miterlimit="10" stroke-width="2.835"/>
                <path id="路径_49" data-name="路径 49" d="M1702.252,125.592a18.5,18.5,0,0,0-8.76,2.457" transform="translate(-1611.551 -125.592)" fill="none" stroke="#e6785c" stroke-linecap="round" stroke-miterlimit="10" stroke-width="2.835"/>
              </g>
              <g id="组_10972" data-name="组 10972" transform="translate(18.333 63.765)" opacity="0.35">
                <path id="路径_50" data-name="路径 50" d="M1684.333,161.526s6.1,6.1,5.344,17.511" transform="translate(-1635.11 -161.472)" fill="none" stroke="#e6785c" stroke-linecap="round" stroke-miterlimit="10" stroke-width="2.835"/>
                <path id="路径_51" data-name="路径 51" d="M1640.82,161.526s-3.837,6.1-3.361,17.511" transform="translate(-1637.419 -161.526)" fill="none" stroke="#e6785c" stroke-linecap="round" stroke-miterlimit="10" stroke-width="2.835"/>
              </g>
              <path id="路径_8981" data-name="路径 8981" d="M2372.917,600.66c3.869-1.576,9.792-1.339,13.345,0" transform="translate(-2308.64 -587.594)" fill="none" stroke="#6a6a6a" stroke-linecap="round" stroke-width="2.8"/>
              <path id="路径_8982" data-name="路径 8982" d="M2385.262,601.047c-3.679-2.28-10.312-2.043-13.345,0" transform="translate(-2358.842 -587.982)" fill="none" stroke="#6a6a6a" stroke-linecap="round" stroke-width="2.8"/>
            </g>
          </g>
        </g>
        <g id="组_10973" data-name="组 10973" transform="translate(58.856 114.647)">
          <path id="路径_9952" data-name="路径 9952" d="M534.443,613.709a101.9,101.9,0,0,1-18.158,5.806c-9.128,1.833-20.508,4.316-20.508,4.316a65.812,65.812,0,0,0,17.23,10.366c10.16,4.1,27.379,8.425,27.379,8.425s-4.469-3.7-5.767-12.872A58.742,58.742,0,0,1,534.443,613.709Z" transform="translate(-491.23 -613.709)" fill="#e6785c" opacity="0.5"/>
          <path id="路径_9953" data-name="路径 9953" d="M1160.707,630.325a63.65,63.65,0,0,1-25.641,5.7,99.218,99.218,0,0,1-14.937-1.469" transform="translate(-1120.129 -627.232)" fill="none" stroke="#e6785c" stroke-linecap="round" stroke-width="3.6"/>
        </g>
        <g id="组_10974" data-name="组 10974" transform="translate(6.247 42.003)">
          <path id="路径_9954" data-name="路径 9954" d="M489.566,602.555c2.856-1.81,7.94-.483,7.247,5.621s-6.556,19.311-9.734,18.822.5-8.4,0-14S486.71,604.365,489.566,602.555Z" transform="translate(-364.771 -601.808)" fill="#e6785c" opacity="0.5"/>
          <path id="路径_9955" data-name="路径 9955" d="M493.082,602.555c-2.856-1.81-7.94-.483-7.247,5.621s6.556,19.311,9.734,18.822-.5-8.4,0-14S495.939,604.365,493.082,602.555Z" transform="translate(-485.771 -601.807)" fill="#e6785c" opacity="0.5"/>
        </g>
      </g>
      <path id="路径_9966" data-name="路径 9966" d="M1925.356,225.4s-4.644,33.794-7.333,73.333-3.422,84.822-3.422,84.822" transform="translate(-1644.756 45.2)" fill="none" stroke="#e15d44" stroke-linecap="round" stroke-linejoin="round" stroke-width="4"/>
      <path id="路径_9967" data-name="路径 9967" d="M1908.4,224.6s4.094,35.2,6.6,75.044,3.422,84.333,3.422,84.333" transform="translate(-1772.022 45.022)" fill="none" stroke="#e15d44" stroke-linecap="round" stroke-linejoin="round" stroke-width="4"/>
    </g>
    <circle id="椭圆_978" data-name="椭圆 978" cx="12.5" cy="12.5" r="12.5" transform="translate(158 342)" fill="#ffda9a"/>
    <ellipse id="椭圆_979" data-name="椭圆 979" cx="12.5" cy="12" rx="12.5" ry="12" transform="translate(129 300)" fill="#ffda9a"/>
    <circle id="椭圆_980" data-name="椭圆 980" cx="12.5" cy="12.5" r="12.5" transform="translate(198 317)" fill="#ffda9a"/>
  </g>
</svg>
