<svg xmlns="http://www.w3.org/2000/svg" xmlns:xlink="http://www.w3.org/1999/xlink" width="352" height="352" viewBox="0 0 352 352">
  <defs>
    <clipPath id="clip-path">
      <rect id="矩形_4904" data-name="矩形 4904" width="352" height="352" transform="translate(32 22)" fill="none" stroke="#707070" stroke-width="1"/>
    </clipPath>
    <clipPath id="clip-男学生患者">
      <rect width="352" height="352"/>
    </clipPath>
  </defs>
  <g id="男学生患者" clip-path="url(#clip-男学生患者)">
    <rect width="352" height="352" fill="#fff"/>
    <g id="蒙版组_3" data-name="蒙版组 3" transform="translate(-32 -22)" clip-path="url(#clip-path)">
      <rect id="矩形_4861" data-name="矩形 4861" width="430" height="430" transform="translate(-7 -5)" fill="#cce3f9"/>
      <path id="路径_98" data-name="路径 98" d="M260.792,226.189c38.548,7.633,59.314,24.46,70.948,36.3,32.88,33.467,39.9,117.737,39.9,117.737h-.031l.031.268H40.56s0-.11,0-.268h0s-.2-68.2,35.651-115.708c11.76-15.581,36.681-31.788,74.708-38.792,15.249-2.809,27.1-1.792,54.567-1.677S260.792,226.189,260.792,226.189Z" transform="translate(1.902 38.617)" fill="#71b7f4"/>
      <path id="路径_9930" data-name="路径 9930" d="M3656.528,233.75s11.611,48.278-23.833,53.167-50.417-21.694-50.417-21.694h-13.444s-18.333,22-49.195,21.694-37.889-35.75-37.889-35.75l76.083,3.056,4.889,8.25h14.056l6.722-8.25Z" transform="translate(-3359.611 42.056)" fill="#3c92de" opacity="0.5"/>
      <g id="组_10955" data-name="组 10955" transform="translate(176.019 302.689)">
        <path id="路径_9934" data-name="路径 9934" d="M3562.991,276.289s10.938-.073,17.143-2.633a67.335,67.335,0,0,0,10.486-5.4l-8.486-9.445s-10.364,10.751-24.758,10.978-21.783-10.978-21.783-10.978l-11.366,9.445a78.607,78.607,0,0,0,14.335,6.4,37.539,37.539,0,0,0,12.451,1.469Z" transform="translate(-3524.229 -258.811)" fill="#3c92de"/>
        <path id="路径_9937" data-name="路径 9937" d="M3576.137,259.422s-1.007,2.619-6.163,6.085-14.461,5.407-14.461,5.407,8.823.132,15.188-2.3a55.976,55.976,0,0,0,10.271-5.048s-1.107-.875-2.317-1.912S3576.137,259.422,3576.137,259.422Z" transform="translate(-3515.251 -253.621)" fill="#1065af" opacity="0.5"/>
        <path id="路径_9938" data-name="路径 9938" d="M3545.988,265.793a27.413,27.413,0,0,0,8.884,2.331,15.092,15.092,0,0,1,.225,1.56,5.434,5.434,0,0,1-.225,2.4,47.36,47.36,0,0,1-13.125-1.7,61.078,61.078,0,0,1-13-5.962l6.188-4.983A81.122,81.122,0,0,0,3545.988,265.793Z" transform="translate(-3528.327 -254.868)" fill="#1065af" opacity="0.5"/>
        <path id="路径_9940" data-name="路径 9940" d="M3134.928,320.107a37.778,37.778,0,0,0,6.583-5.11,43.07,43.07,0,0,0,5.351-6.825l-6.587-36.772h-10.694l-6.587,36.772a43.087,43.087,0,0,0,5.351,6.825A37.775,37.775,0,0,0,3134.928,320.107Z" transform="translate(-3101.732 -250.158)" fill="#3c92de"/>
        <path id="路径_9941" data-name="路径 9941" d="M3131.994,320.107a37.772,37.772,0,0,0,6.583-5.11,43.077,43.077,0,0,0,5.351-6.825l-6.587-36.772h-3.951s7.18,33.884,5.951,38.47S3131.994,320.107,3131.994,320.107Z" transform="translate(-3098.797 -250.158)" fill="#1065af" opacity="0.5"/>
        <path id="路径_9931" data-name="路径 9931" d="M3546.067,255.628c-2.42,2.15-.908,11.164,1.664,13.705s11.344,1.759,12.706,0,4.84-12.532,2.118-13.705S3548.487,253.478,3546.067,255.628Z" transform="translate(-3521.01 -247.56)" fill="#3c92de"/>
        <path id="路径_9939" data-name="路径 9939" d="M3547.271,269.481a11.522,11.522,0,0,0,5.624,1.326c3.292-.043,5.92-.725,6.648-1.666,1.361-1.759,4.84-12.532,2.117-13.705-.376-.162-2-.556-2-.556s-.056,11.886-3.52,13.918S3547.252,269.47,3547.271,269.481Z" transform="translate(-3520.117 -247.367)" fill="#1065af" opacity="0.5"/>
      </g>
      <path id="路径_9929" data-name="路径 9929" d="M3522.333,212.385s7.333-1.324,49.195-1.629,48.583,1.629,48.583,1.629a216.537,216.537,0,0,1,20.778,10.9,226.718,226.718,0,0,1,19.556,13.546s-.611,36.565-28.111,43.288-45.222-17.417-45.222-17.417L3581,268.811h-15.889L3559,262.7s-21.083,21.694-48.889,17.417S3482,236.829,3482,236.829a137.1,137.1,0,0,1,18.333-13.546A175.321,175.321,0,0,1,3522.333,212.385Z" transform="translate(-3363.222 36.938)" fill="#fff"/>
      <g id="组_10932" data-name="组 10932" transform="translate(132.657 58.947)">
        <g id="组_8967" data-name="组 8967">
          <g id="组_8957" data-name="组 8957" transform="translate(0 57.461)">
            <path id="路径_8687" data-name="路径 8687" d="M500.206,622.506c0-7.954,10.472-18.905,27.742-27.691s27.115-6.946,50.065,3.317c9.042,4.044,18.924.865,25.269,5.685,7.392,5.591,8.755,18.821,8.371,21.768-.632,4.864,2.668,8.979,8.272,7.44s18.413,6.671,5.6,26.426-20.677,13.085-20.677,13.085a86.925,86.925,0,0,1-6.345,17.475c-4.092,7.865-13.607,13.825-13.607,13.825s-5.054,13.8,5.592,24.448c5.536,5.536,6.761,15.369,0,24.039-5.786,7.424-19.4,13.933-19.4,13.933l-7.333,9.044H551.781l-6.845-9.044s-17.772-4.88-26.118-13.933c-7.442-8.072-5.672-20.2,0-24.778,11.7-9.444,6.8-23.709,6.8-23.709s-7.8-6-12.163-13.825a74.692,74.692,0,0,1-6.493-17.475s-10.229,3.079-21.437-13.085-2.135-26.426,7.472-26.426S500.206,630.459,500.206,622.506Z" transform="translate(-480.349 -589.199)" fill="#ffcaab"/>
            <path id="路径_8688" data-name="路径 8688" d="M533.909,619.843a53.639,53.639,0,0,1-24.954,6.2,59.718,59.718,0,0,1-13.907-1.824" transform="translate(-432.288 -501.164)" fill="none" stroke="#e6785c" stroke-linecap="round" stroke-linejoin="round" stroke-width="3.6"/>
            <path id="路径_8689" data-name="路径 8689" d="M530.552,618.193s-4.847,4.045-13.93,6.712-20.417,4.917-20.417,4.917,8.311,6.293,17.564,8.587,19.447.59,19.447.59a19.963,19.963,0,0,1-3.687-10.062A24.409,24.409,0,0,1,530.552,618.193Z" transform="translate(-426.028 -503.563)" fill="#e6785c" opacity="0.5"/>
            <g id="组_10942" data-name="组 10942" transform="translate(47.232 45.77)">
              <ellipse id="椭圆_16" data-name="椭圆 16" cx="5.346" cy="5.677" rx="5.346" ry="5.677" transform="translate(49.212)"/>
              <ellipse id="椭圆_16-2" data-name="椭圆 16" cx="5.346" cy="5.677" rx="5.346" ry="5.677" transform="translate(0)"/>
            </g>
            <path id="路径_8692" data-name="路径 8692" d="M508.41,611.748s4.32,12.96,4.32,16.939-4.32,6.139-4.32,6.139" transform="translate(-430.011 -553.378)" fill="none" stroke="#ab392c" stroke-linecap="round" stroke-width="4"/>
            <path id="形状_121" data-name="形状 121" d="M503.561,624.177a15.639,15.639,0,0,0,10.11,3.325,18.128,18.128,0,0,0,10.631-3.325" transform="translate(-437.385 -530.745)" fill="none" stroke="#ab392c" stroke-linecap="round" stroke-width="4"/>
            <path id="路径_8695" data-name="路径 8695" d="M495.633,602.481s-10-4.244-12.732,3.031,10.842,21.267,15.46,21.523-1.8-7.391-1.283-13.035A32.627,32.627,0,0,0,495.633,602.481Z" transform="translate(-475.503 -551.394)" fill="#e6785c" opacity="0.5"/>
            <path id="路径_8696" data-name="路径 8696" d="M488.019,601.73s8.21-1.8,9.493,3.335-8.467,20.782-13.085,21.038,2.822-8.723,2.309-14.368A23.3,23.3,0,0,1,488.019,601.73Z" transform="translate(-355.956 -550.93)" fill="#e6785c" opacity="0.5"/>
            <g id="组_10941" data-name="组 10941" transform="translate(43.565 33.46)">
              <path id="路径_8982" data-name="路径 8982" d="M2387.052,601.084c-3.679-2.28-13.538-2.583-17.694,0" transform="translate(-2369.359 -599.259)" fill="none" stroke="#462a2a" stroke-linecap="round" stroke-width="2.8"/>
              <path id="路径_9916" data-name="路径 9916" d="M2387.052,601.084c-3.679-2.28-13.538-2.583-17.694,0" transform="translate(-2320.146 -599.259)" fill="none" stroke="#462a2a" stroke-linecap="round" stroke-width="2.8"/>
            </g>
          </g>
          <g id="组_8956" data-name="组 8956" transform="translate(4.061 0)">
            <path id="路径_8679" data-name="路径 8679" d="M-4635.143,3266.563c2.213,0-.734-25.911,7.577-34.711a26.693,26.693,0,0,1,19.556-8.067s4.889-13.689,33.245-11.978,31.234,19.894,42.533,16.867c.374,0,3.667,11.489,4.4,19.311s-.259,18.578,1.711,18.578,11.34-13.449,15.889-39.983-3.239-27.484-3.239-27.484.917-13.75-7.944-18.028c-9.044-3.667-39.217-31.715-68.75-27.195s-31.875,24.2-34.223,28.111c-1.123,1.867-8.861.306-17.722,7.639s-13.431,20.572-9.167,39.05S-4637.356,3266.563-4635.143,3266.563Z" transform="translate(4652.891 -3148.044)" fill="#101013"/>
            <path id="路径_8686" data-name="路径 8686" d="M401.817,616.629c-6.926-10.287,1.731-28.493,20.37-34.731s39.111-.407,54.185,9.778" transform="translate(-372.091 -579.326)" fill="none" stroke="#000" stroke-linecap="round" stroke-linejoin="round" stroke-width="3.3"/>
            <path id="路径_8950" data-name="路径 8950" d="M-.129,24.192S10.219,9.77,26.821,20.77" transform="translate(3.21 16.839)" fill="none" stroke="#000" stroke-linecap="round" stroke-width="3.3"/>
          </g>
        </g>
      </g>
    </g>
  </g>
</svg>
