<svg xmlns="http://www.w3.org/2000/svg" xmlns:xlink="http://www.w3.org/1999/xlink" width="352" height="352" viewBox="0 0 352 352">
  <defs>
    <clipPath id="clip-path">
      <rect id="矩形_4904" data-name="矩形 4904" width="352" height="352" transform="translate(32 22)" fill="none" stroke="#707070" stroke-width="1"/>
    </clipPath>
    <clipPath id="clip-女学生患者">
      <rect width="352" height="352"/>
    </clipPath>
  </defs>
  <g id="女学生患者" clip-path="url(#clip-女学生患者)">
    <rect width="352" height="352" fill="#fff"/>
    <g id="蒙版组_7" data-name="蒙版组 7" transform="translate(-32 -22)" clip-path="url(#clip-path)">
      <rect id="矩形_4861" data-name="矩形 4861" width="430" height="430" transform="translate(-7 -5)" fill="#ffe0e0"/>
      <path id="路径_98" data-name="路径 98" d="M260.792,226.189c38.548,7.633,59.314,24.46,70.948,36.3,32.88,33.467,39.9,117.737,39.9,117.737h-.031l.031.268H40.56s0-.11,0-.268h0s-.2-68.2,35.651-115.708c11.76-15.581,36.681-31.788,74.708-38.792,15.249-2.809,27.1-1.792,54.567-1.677S260.792,226.189,260.792,226.189Z" transform="translate(1.902 39.839)" fill="#fe9eb5"/>
      <path id="路径_9930" data-name="路径 9930" d="M3656.528,233.75s11.611,48.278-23.833,53.167-50.417-21.694-50.417-21.694h-13.444s-18.333,22-49.195,21.694-37.889-35.75-37.889-35.75l76.083,3.056,4.889,8.25h14.056l6.722-8.25Z" transform="translate(-3359.611 42.056)" fill="#f26d8b" opacity="0.5"/>
      <g id="组_10954" data-name="组 10954" transform="translate(179.654 300.952)">
        <path id="路径_9932" data-name="路径 9932" d="M3549.849,270.857s-11.159,6.477-15.138,16.391-7.8,23.4-7.8,23.4,23.172-4.406,31.709-15.515a86.993,86.993,0,0,0,10.041,8.715c4.875,3.438,16.688,7.063,16.688,7.063s-3.25-16.437-8.125-23.937-16.437-16.116-16.437-16.116Z" transform="translate(-3524.8 -250.801)" fill="#f26d8b"/>
        <path id="路径_9934" data-name="路径 9934" d="M3561.7,275.093s5.381-1.306,9.921-2.965a59.23,59.23,0,0,0,9.235-4.567l-7.235-8.751a27.241,27.241,0,0,1-19.111,8.032,25.113,25.113,0,0,1-18.937-8.032l-9.349,8.032a50.808,50.808,0,0,0,10.651,5.286c5.194,1.659,10.95,2.965,10.95,2.965Z" transform="translate(-3524.483 -257.811)" fill="#f26d8b"/>
        <path id="路径_9935" data-name="路径 9935" d="M3556.955,294.445s2.461,2.5,5.031,4.734,5.25,4.156,5.25,4.156.34-10.367-1.766-18.125a62.374,62.374,0,0,0-6.656-14.906l-.547.266s2.321,6.884,1.969,12.411S3556.955,294.445,3556.955,294.445Z" transform="translate(-3523.125 -250.101)" fill="#c62f53" opacity="0.5"/>
        <path id="路径_9936" data-name="路径 9936" d="M3553.459,271.333s-12.516,9.525-11.829,18.615,13.585-18.615,13.585-18.615Z" transform="translate(-3525.119 -250.101)" fill="#c62f53" opacity="0.5"/>
        <path id="路径_9937" data-name="路径 9937" d="M3574.154,257.974a31.13,31.13,0,0,1-5.876,6.448,113.1,113.1,0,0,1-9.573,6.307,91.156,91.156,0,0,0,12.016-3.687,61.7,61.7,0,0,0,7.8-4Z" transform="translate(-3522.139 -253.291)" fill="#c62f53" opacity="0.5"/>
        <path id="路径_9938" data-name="路径 9938" d="M3543.161,263.333a49.18,49.18,0,0,0,8.872,3.33s.048.974.191,1.967.382,2.005.382,2.005a98.626,98.626,0,0,1-12.333-3.392,72.88,72.88,0,0,1-10.44-5.009s4.067-3.746,4.787-4.234A82.61,82.61,0,0,0,3543.161,263.333Z" transform="translate(-3528.815 -253.286)" fill="#c62f53" opacity="0.5"/>
        <path id="路径_9931" data-name="路径 9931" d="M3545.938,255.492c-2.162,1.921-.811,9.873,1.486,12.143s10.132,1.571,11.348,0,4.323-11.1,1.891-12.143S3548.1,253.572,3545.938,255.492Z" transform="translate(-3522.659 -247.808)" fill="#f26d8b"/>
        <path id="路径_9939" data-name="路径 9939" d="M3547.272,267.823a10.29,10.29,0,0,0,5.022,1.184c2.941-.038,5.288-.648,5.938-1.488,1.216-1.571,4.323-11.1,1.891-12.143-.335-.145-1.783-.5-1.783-.5s-.05,10.519-3.144,12.333S3547.254,267.813,3547.272,267.823Z" transform="translate(-3522.121 -247.692)" fill="#c62f53" opacity="0.5"/>
      </g>
      <path id="路径_9929" data-name="路径 9929" d="M3522.333,212.385s7.333-1.324,49.195-1.629,48.583,1.629,48.583,1.629a216.537,216.537,0,0,1,20.778,10.9,226.718,226.718,0,0,1,19.556,13.546s-.611,36.565-28.111,43.288-45.222-17.417-45.222-17.417L3581,268.811h-15.889L3559,262.7s-21.083,21.694-48.889,17.417S3482,236.829,3482,236.829a137.1,137.1,0,0,1,18.333-13.546A175.321,175.321,0,0,1,3522.333,212.385Z" transform="translate(-3363.222 36.938)" fill="#fff"/>
      <g id="组_8987" data-name="组 8987" transform="translate(118.233 60.341)">
        <g id="组_8986" data-name="组 8986" transform="translate(0 0)">
          <path id="路径_8991" data-name="路径 8991" d="M30.088,179.94s4.583-1.528,26.278,0,13.4-.26,45.236,1.48,32.986-.869,58.041-1.48,26.278,0,26.278,0,9.854-9.5,11-29.211-3.667-34.344-6.417-49.622-2.309-26.36-13.75-55.459S137.032.884,112.588-.949,83.255,11.884,83.255,11.884a46.432,46.432,0,0,0-23.222,7.333C49.032,26.551,43.186,41.882,40.477,51c-7.8,26.251-2.75,26.889-10.389,50.111S17.56,131.02,17.56,150.729,30.088,179.94,30.088,179.94Z" transform="translate(-17.56 1.108)" fill="#1c161a"/>
          <path id="路径_8992" data-name="路径 8992" d="M122.241,11.123s-32.389.611-45.222,28.722,0,44-10.389,73.333" transform="translate(-56.547 2.48)" fill="none" stroke="#000" stroke-linecap="round" stroke-linejoin="round" stroke-width="3.3"/>
          <g id="组_8957" data-name="组 8957" transform="translate(23.407 60.251)">
            <path id="路径_8687" data-name="路径 8687" d="M561.606,608.026c-14.718-6.233-20.37-14.259-20.37-14.259s-8.555,18.741-21.593,24.607-13.187,15.4-19.786,13.033-18.334,5.789-8.067,25.344,15.4,13.933,15.4,13.933a70.856,70.856,0,0,0,7.517,17.906,51.538,51.538,0,0,0,14.239,14.85s4.743,20.074-14.239,25.16c-5.6,1.5-9.531,15.47,0,24.962,8.154,8.121,29.62,11.917,29.62,11.917l5.194,10.083h13.75l6.111-10.083s18.984-3.685,26.3-11.917c8.3-9.345,4.87-23.657,0-24.962-20.4-5.465-13.2-25.16-13.2-25.16s8.675-6.294,13.2-16.133,5.484-15.522,5.484-15.522,7.96,5.5,17.494-15.033-1.024-27.559-9.289-25.344c-1.173.062-3.178,0-3.178,0s-3.036-8.231-14.584-13.033C578.02,612.725,576.324,614.26,561.606,608.026Z" transform="translate(-487.745 -593.767)" fill="#ffcaab"/>
            <path id="路径_8689" data-name="路径 8689" d="M533.126,614.6a70.005,70.005,0,0,1-14.712,4.84C509.133,621.538,496,623,496,623a38.32,38.32,0,0,0,16.957,11c10.937,3.5,26.789,3,26.789,3a15.065,15.065,0,0,1-7.031-8.875C530.778,621.718,533.126,614.6,533.126,614.6Z" transform="translate(-438.387 -505.03)" fill="#e6785c" opacity="0.5"/>
            <path id="路径_8696" data-name="路径 8696" d="M489.566,602.555c2.856-1.81,7.94-.483,7.247,5.621s-6.556,19.311-9.734,18.822.5-8.4,0-14S486.71,604.365,489.566,602.555Z" transform="translate(-367.15 -558.636)" fill="#e6785c" opacity="0.5"/>
            <path id="路径_9903" data-name="路径 9903" d="M493.082,602.555c-2.856-1.81-7.94-.483-7.247,5.621s6.556,19.311,9.734,18.822-.5-8.4,0-14S495.939,604.365,493.082,602.555Z" transform="translate(-480.817 -558.636)" fill="#e6785c" opacity="0.5"/>
          </g>
        </g>
        <g id="组_222" data-name="组 222" transform="translate(63.861 101.045)">
          <ellipse id="椭圆_16" data-name="椭圆 16" cx="6.068" cy="5.814" rx="6.068" ry="5.814" transform="translate(45.222)"/>
          <ellipse id="椭圆_16-2" data-name="椭圆 16" cx="6.068" cy="5.814" rx="6.068" ry="5.814" transform="translate(0)"/>
        </g>
        <path id="形状_121" data-name="形状 121" d="M1028.917,634.06s3.667,3.662,10.511,3.662,10.166-3.662,10.166-3.662" transform="translate(-946.233 -485.886)" fill="none" stroke="#ab392c" stroke-linecap="round" stroke-width="4"/>
        <path id="路径_233" data-name="路径 233" d="M1035.047,629.684c0,2.943,2.705,6.116,1.9,8.7s-4.711,2.649-4.711,2.649" transform="translate(-940.874 -506.447)" fill="none" stroke="#ab392c" stroke-linecap="round" stroke-width="4"/>
        <path id="路径_8779" data-name="路径 8779" d="M1158.081,631.369a85.54,85.54,0,0,1-20.434,4.087c-10.656.649-16.958-1.6-16.958-1.681" transform="translate(-1042.839 -458.227)" fill="none" stroke="#e6785c" stroke-linecap="round" stroke-width="3.6"/>
        <g id="组_10929" data-name="组 10929" transform="translate(57.995 92.052)">
          <path id="路径_8983" data-name="路径 8983" d="M2945.824,610.536c3.482-3.233,13.1-4.843,19.567-1.361" transform="translate(-2945.824 -607.219)" fill="none" stroke="#462a2a" stroke-linecap="round" stroke-width="2.8"/>
          <path id="路径_9927" data-name="路径 9927" d="M2965.392,610.536c-3.482-3.233-13.1-4.843-19.567-1.361" transform="translate(-2895.713 -607.219)" fill="none" stroke="#462a2a" stroke-linecap="round" stroke-width="2.8"/>
        </g>
      </g>
      <path id="路径_9924" data-name="路径 9924" d="M6.19,0C13.54,0,12.3,4.767,12.3,12.222s-3.056,17.6-6.111,17.6S.079,19.678.079,12.222-1.16,0,6.19,0Z" transform="matrix(-0.966, -0.259, 0.259, -0.966, 238.231, 138.472)" fill="#fe94ad"/>
      <path id="路径_9925" data-name="路径 9925" d="M6.19,0C13.54,0,12.3,4.767,12.3,12.222s-3.056,17.6-6.111,17.6S.079,19.678.079,12.222-1.16,0,6.19,0Z" transform="translate(255.448 147.03) rotate(-150)" fill="#fe94ad"/>
    </g>
  </g>
</svg>
