<svg xmlns="http://www.w3.org/2000/svg" xmlns:xlink="http://www.w3.org/1999/xlink" width="352" height="352" viewBox="0 0 352 352"><defs><clipPath id="a"><rect width="352" height="352"/></clipPath><clipPath id="b"><rect width="352" height="352" transform="translate(32 22)" fill="#ffebcb" stroke="#707070" stroke-width="1"/></clipPath></defs><g clip-path="url(#a)"><g transform="translate(-32 -22)" clip-path="url(#b)"><g transform="translate(24.129 54.25)"><path d="M180.323,191.638l-.2,14.532c-.007-.068.007,14.621,0,14.553,0,0-11.447-6.23-25.874,3.667-38.027,7-75.17,25.656-86.931,41.237C31.467,313.133,25.56,387.445,25.56,387.445h0v.268H393.3l-.031-.268h.031s-13.124-90.381-46-123.845c-11.633-11.841-44.622-31.113-83.17-38.746-14.423-9.9-25.819-4.129-25.819-4.129-.038.345,0-29.43,0-29.43" transform="translate(-25.56 -16.63)" fill="#fbc364"/><path d="M165,212.839a77.79,77.79,0,0,0,18.944,9.09c10.255,3.113,22.076,3.132,22.076,3.361.119-8.76,0-26,0-26a41.981,41.981,0,0,1-16.227,9.778C179.538,212.452,165,212.839,165,212.839Z" transform="translate(6.649 -23.409)" fill="#ee8f46" opacity="0.5"/><path d="M220.825,66.981c-9.044,3.422-29.7-11.489-54.756-6.6s-21.04,16.8-23.467,22.978c-24.913,1.6-29.474,21.313-28.356,36.422,1.6,16.866,10.022,34.321,10.022,34.874-.381.049-15.156-.163-13.444,13.241s16.011,26.522,21.511,26.93,2.782-2.349,5.378-1.222c0,0,6.111,24.479,19.48,34.467,0,0,9.6,9.289,28.431,9.289s29.822-9.289,29.822-9.289c12.711-10.511,17.844-25.178,21.267-34.467,0,0,4.42,1.4,7.578,0,5.817-2.564,15.889-13.281,17.722-25.707s-9.935-14.373-11.407-13.241c1.63-5.5,13.821-43.389,6.641-63.963S229.87,63.559,220.825,66.981Z" transform="translate(-5.421 -49.609)" fill="#fbc364"/><path d="M172.186,212.894c-9.213,0-12.5-2.285-12.909-2.6l2.2-2.853-.033-.025a10.89,10.89,0,0,0,3.641,1.248,45.671,45.671,0,0,0,13.516.29A54.5,54.5,0,0,0,195.04,204.6a40.934,40.934,0,0,0,6.275-3.363,1.8,1.8,0,1,1,2.07,2.945,43.339,43.339,0,0,1-6.787,3.665,58.133,58.133,0,0,1-17.643,4.686C176.4,212.789,174.159,212.894,172.186,212.894Z" transform="translate(8.066 -22.647)" fill="#ee8f46"/><g transform="translate(129.505 197.926)"><path d="M130.75,234.583s4.6,21.124,10.694,35.852S154.976,292.9,154.976,292.9s10-13.014,18.45-22.466a132.608,132.608,0,0,1,16.067-15.3s8.566,10.924,15.07,20.832a174.835,174.835,0,0,1,11,19.556s11.4-16.145,16.733-34.862,4.1-40.282,4.1-40.282l-54.007,31.09Z" transform="translate(-128.023 -210.538)" fill="#ee8f46" opacity="0.5"/><path d="M153.755,212.335s-11.176-.657-25.236,9.54a150.456,150.456,0,0,0,7.677,31.4c5.972,16.2,16.213,33.384,16.213,33.384s18.773-28.027,30.442-33.384C182.85,253.279,156.075,234.5,153.755,212.335Z" transform="translate(-128.519 -212.326)" fill="#ffd894"/><path d="M201.881,212.375s11.253-.242,25.313,9.955a154.837,154.837,0,0,1-7.744,32.364c-5.945,16.08-16.037,31.957-16.037,31.957s-18.773-28.027-30.442-33.384C172.972,253.268,199.56,234.541,201.881,212.375Z" transform="translate(-118.641 -212.316)" fill="#ffd894"/><g transform="translate(49.57 69.592)"><g transform="translate(2.444 2.444)" opacity="0.5"><circle cx="6.281" cy="6.281" r="6.281" transform="translate(0 0)" fill="#ee8f46"/><circle cx="6.281" cy="6.281" r="6.281" transform="translate(0 37.046)" fill="#ee8f46"/></g><circle cx="6.281" cy="6.281" r="6.281" transform="translate(0 0)" fill="#ffd894"/><circle cx="6.281" cy="6.281" r="6.281" transform="translate(0 37.046)" fill="#ffd894"/></g></g><path d="M115.2,102.026a1.8,1.8,0,0,1-1.641-2.538,16.63,16.63,0,0,1,9.813-9.41,20.491,20.491,0,0,1,7.606-1.022,31.9,31.9,0,0,1,6.87,1.094,40.678,40.678,0,0,1,4.352,1.432,37.484,37.484,0,0,1,2.233-11.587,30.98,30.98,0,0,1,7.429-11.6,34.884,34.884,0,0,1,15.675-8.534c19.615-5.222,32.8-.339,43.392,3.583A69.461,69.461,0,0,0,222.1,66.921a1.8,1.8,0,1,1-.644,3.542,71.954,71.954,0,0,1-11.777-3.64c-10.643-3.941-22.705-8.408-41.216-3.48-10.3,2.741-17.231,8.719-20.6,17.768a33.141,33.141,0,0,0-2.022,13.081,1.8,1.8,0,0,1-2.619,1.766,35.132,35.132,0,0,0-6.379-2.351c-3.29-.869-8.093-1.6-12.294-.126a13.168,13.168,0,0,0-7.7,7.482A1.8,1.8,0,0,1,115.2,102.026Z" transform="translate(-8.084 -59.387)" fill="#f5ba55"/><path d="M491.545,603.333s-7.669-5.777-10.593,2.02,13.119,24.339,14.748,20.469-.55-5.44,0-11.489S491.545,603.333,491.545,603.333Z" transform="translate(-370.007 -489.65)" fill="#ee8f46" opacity="0.5"/><path d="M485.381,603.7s6.854-6.168,9.778,1.63-10.144,22.954-13.212,20.713,1.54-5.09.99-11.139A21,21,0,0,1,485.381,603.7Z" transform="translate(-245.276 -489.625)" fill="#ee8f46" opacity="0.5"/></g></g></g></svg>