<svg xmlns="http://www.w3.org/2000/svg" xmlns:xlink="http://www.w3.org/1999/xlink" width="352" height="352" viewBox="0 0 352 352">
  <defs>
    <clipPath id="clip-path">
      <rect id="矩形_4904" data-name="矩形 4904" width="352" height="352" transform="translate(32 22)" fill="#ffebcb" stroke="#707070" stroke-width="1"/>
    </clipPath>
    <clipPath id="clip-未知性别">
      <rect width="352" height="352"/>
    </clipPath>
  </defs>
  <g id="未知性别" clip-path="url(#clip-未知性别)">
    <rect width="352" height="352" fill="#fff"/>
    <g id="蒙版组_17" data-name="蒙版组 17" transform="translate(-32 -22)" clip-path="url(#clip-path)">
      <path id="路径_9978" data-name="路径 9978" d="M0,0H430.222V430.222H0Z" transform="translate(-7.111 -4.889)" fill="#ffebcb" stroke="#707070" stroke-width="1"/>
      <g id="组_97" data-name="组 97" transform="translate(24.129 54.25)">
        <g id="组_96" data-name="组 96">
          <path id="路径_98" data-name="路径 98" d="M180.323,191.638l-.2,14.532c-.007-.068.007,14.621,0,14.553,0,0-11.447-6.23-25.874,3.667-38.027,7-75.17,25.656-86.931,41.237C31.467,313.133,25.56,387.445,25.56,387.445h0c0,.158,0,.268,0,.268H393.3l-.031-.268h.031S380.176,297.064,347.3,263.6c-11.633-11.841-44.622-31.113-83.17-38.746-14.423-9.9-25.819-4.129-25.819-4.129-.038.345,0-29.43,0-29.43" transform="translate(-25.56 -16.63)" fill="#fbc364"/>
          <path id="路径_9888" data-name="路径 9888" d="M165,212.839a77.789,77.789,0,0,0,18.944,9.09c10.255,3.113,22.076,3.132,22.076,3.361.119-8.76,0-26,0-26a41.981,41.981,0,0,1-16.227,9.778C179.538,212.452,165,212.839,165,212.839Z" transform="translate(6.649 -23.409)" fill="#ee8f46" opacity="0.5"/>
          <path id="路径_9890" data-name="路径 9890" d="M220.825,66.981c-9.044,3.422-29.7-11.489-54.756-6.6s-21.04,16.8-23.467,22.978c-24.913,1.6-29.474,21.313-28.356,36.422,1.6,16.866,10.022,34.321,10.022,34.874-.381.049-15.156-.163-13.444,13.241s16.011,26.522,21.511,26.93,2.782-2.349,5.378-1.222c0,0,6.111,24.479,19.48,34.467,0,0,9.605,9.289,28.431,9.289s29.822-9.289,29.822-9.289c12.711-10.511,17.844-25.178,21.267-34.467,0,0,4.42,1.4,7.578,0,5.817-2.564,15.889-13.281,17.722-25.707s-9.935-14.373-11.407-13.241c1.63-5.5,13.821-43.389,6.641-63.963S229.87,63.559,220.825,66.981Z" transform="translate(-5.421 -49.609)" fill="#fbc364"/>
          <path id="路径_9889" data-name="路径 9889" d="M160.375,208.869s4.256,3.274,18.4,1.877a53.588,53.588,0,0,0,23.571-8.032" transform="translate(8.066 -22.647)" fill="none" stroke="#ee8f46" stroke-linecap="round" stroke-width="3.6"/>
          <g id="组_95" data-name="组 95" transform="translate(129.505 197.926)">
            <path id="路径_9886" data-name="路径 9886" d="M130.75,234.583s4.6,21.124,10.694,35.852S154.976,292.9,154.976,292.9s10-13.014,18.45-22.466a132.606,132.606,0,0,1,16.067-15.3s8.566,10.924,15.07,20.832a174.83,174.83,0,0,1,11,19.556s11.4-16.145,16.733-34.862,4.1-40.282,4.1-40.282l-54.007,31.09Z" transform="translate(-128.023 -210.538)" fill="#ee8f46" opacity="0.5"/>
            <path id="路径_99" data-name="路径 99" d="M153.755,212.335s-11.176-.657-25.236,9.54a150.456,150.456,0,0,0,7.677,31.4c5.972,16.2,16.213,33.384,16.213,33.384s18.773-28.027,30.442-33.384C182.85,253.279,156.075,234.5,153.755,212.335Z" transform="translate(-128.519 -212.326)" fill="#ffd894"/>
            <path id="路径_100" data-name="路径 100" d="M201.881,212.375s11.253-.242,25.313,9.955a154.836,154.836,0,0,1-7.744,32.364c-5.945,16.08-16.037,31.957-16.037,31.957s-18.773-28.027-30.442-33.384C172.972,253.268,199.56,234.541,201.881,212.375Z" transform="translate(-118.641 -212.316)" fill="#ffd894"/>
            <g id="组_94" data-name="组 94" transform="translate(49.57 69.592)">
              <g id="组_10923" data-name="组 10923" transform="translate(2.444 2.444)" opacity="0.5">
                <circle id="椭圆_7" data-name="椭圆 7" cx="6.281" cy="6.281" r="6.281" transform="translate(0)" fill="#ee8f46"/>
                <circle id="椭圆_8" data-name="椭圆 8" cx="6.281" cy="6.281" r="6.281" transform="translate(0 37.046)" fill="#ee8f46"/>
              </g>
              <g id="组_93" data-name="组 93">
                <circle id="椭圆_7-2" data-name="椭圆 7" cx="6.281" cy="6.281" r="6.281" fill="#ffd894"/>
                <circle id="椭圆_8-2" data-name="椭圆 8" cx="6.281" cy="6.281" r="6.281" transform="translate(0 37.046)" fill="#ffd894"/>
              </g>
            </g>
          </g>
          <path id="路径_9893" data-name="路径 9893" d="M221.778,68.692C208.578,66.293,194.4,54.575,168,61.6s-23.956,32.756-23.956,32.756-21.267-11-28.844,5.867" transform="translate(-8.084 -59.387)" fill="none" stroke="#f5ba55" stroke-linecap="round" stroke-linejoin="round" stroke-width="3.6"/>
          <path id="路径_9899" data-name="路径 9899" d="M491.545,603.333s-7.669-5.777-10.593,2.02,13.119,24.339,14.748,20.469-.55-5.44,0-11.489S491.545,603.333,491.545,603.333Z" transform="translate(-370.007 -489.65)" fill="#ee8f46" opacity="0.5"/>
          <path id="路径_9900" data-name="路径 9900" d="M485.381,603.7s6.854-6.168,9.778,1.63-10.144,22.954-13.212,20.713,1.54-5.09.99-11.139A21,21,0,0,1,485.381,603.7Z" transform="translate(-245.276 -489.625)" fill="#ee8f46" opacity="0.5"/>
        </g>
      </g>
    </g>
  </g>
</svg>
