<svg xmlns="http://www.w3.org/2000/svg" xmlns:xlink="http://www.w3.org/1999/xlink" width="352" height="352" viewBox="0 0 352 352">
  <defs>
    <clipPath id="clip-path">
      <rect id="矩形_4904" data-name="矩形 4904" width="352" height="352" transform="translate(32 22)" fill="none" stroke="#707070" stroke-width="1"/>
    </clipPath>
    <clipPath id="clip-女性患者">
      <rect width="352" height="352"/>
    </clipPath>
  </defs>
  <g id="女性患者" clip-path="url(#clip-女性患者)">
    <rect width="352" height="352" fill="#fff"/>
    <g id="蒙版组_6" data-name="蒙版组 6" transform="translate(-32 -22)" clip-path="url(#clip-path)">
      <rect id="矩形_4861" data-name="矩形 4861" width="430" height="430" transform="translate(-7 -5)" fill="#ffe0e0"/>
      <path id="路径_9908" data-name="路径 9908" d="M264.126,219.585c38.548,7.633,71.537,26.9,83.17,38.746C380.176,291.8,393.3,382.178,393.3,382.178h-.031l.031.268H25.56s0-.11,0-.268h0s5.907-74.312,41.762-121.819c11.76-15.581,48.9-34.232,86.931-41.237,15.249-2.809,27.1-4.237,54.567-4.121S264.126,219.585,264.126,219.585Z" transform="translate(-1.431 42.888)" fill="#f26d8b"/>
      <g id="组_10931" data-name="组 10931" transform="translate(82.092 59.049)">
        <g id="组_8986" data-name="组 8986" transform="translate(0 0)">
          <path id="路径_8991" data-name="路径 8991" d="M237.075,230.082s2.852-14.157-2.852-24.037A32.762,32.762,0,0,0,218.741,192.6s5.3-15.074,0-37.074-20.433-23.876-24.037-30.963c-7.461-14.674-1.059-43.593-10.43-74.963-5.3-20.37-19.311-41.963-39.681-37.889-.917-2.444-16.4-16.5-41.148-13.444S51.45,14.059,41.926,49.6s5.6,59.294-7.333,74.963c-4.746,5.75-19.556,10.593-26.481,30.963a56.734,56.734,0,0,0,0,37.074S-18.37,205.23-14.3,227.23c.243,1.036,60.7-29.792,122.884-30.708S237.075,230.082,237.075,230.082Z" transform="translate(14.722 2.165)" fill="#1c161a"/>
          <path id="路径_8992" data-name="路径 8992" d="M-6.954,14.9c.428-8.311,24.139-8.8,38.194,17.722s4.767,75.9,10.633,88.611,17.6,13.933,26.156,31.533,6.111,38.622,6.111,38.622,7.265,5.915,10.022,14.422c2.842,8.768.335,18.512,0,21.267" transform="translate(166.168 1.832)" fill="none" stroke="#000" stroke-linecap="round" stroke-linejoin="round" stroke-width="3.3"/>
          <g id="组_8957" data-name="组 8957" transform="translate(60.418 68.062)">
            <path id="路径_8687" data-name="路径 8687" d="M534.123,599.1s16.282,10.694,33,17.46a181.546,181.546,0,0,0,33.873,9.6,49.651,49.651,0,0,1,1.222,10.651A77.856,77.856,0,0,1,601,649.037a46.565,46.565,0,0,0,6.471-9.254c2.444-4.889,2.223-8.546,5.053-9.56,6.6-2.367,19.021,5.789,8.755,25.344S603.43,669.5,603.43,669.5s-2.5,11.754-8.44,20.859a147.284,147.284,0,0,1-11.672,15.563S581.6,729.5,594.062,735.431c0,0-7.57,29.891-37.939,29.891s-39.353-29.864-39.353-29.864c13.325-5.182,10.835-29.536,10.835-29.536a133.6,133.6,0,0,1-12.12-15.563c-5.78-8.754-7.333-19.454-7.333-19.454s-9.1,5.194-18.632-15.339,1.024-27.559,9.289-25.344c2.816.755,3.887,5.719,5.633,10.957a18.359,18.359,0,0,0,4.889,7.857,61.46,61.46,0,0,1,0-11.175,20.63,20.63,0,0,1,2.444-7.64s5.936-2.662,11.7-11.043S534.123,599.1,534.123,599.1Z" transform="translate(-485.745 -599.1)" fill="#ffcaab"/>
            <path id="路径_8689" data-name="路径 8689" d="M533.146,613.722a87.434,87.434,0,0,1-13.368,4.736c-8.728,2.464-21.771,5.042-21.771,5.042a92.411,92.411,0,0,0,19.021,10.465,90.208,90.208,0,0,0,21.007,4.813,47.216,47.216,0,0,1-4.049-11.458A61.255,61.255,0,0,1,533.146,613.722Z" transform="translate(-435.497 -506.854)" fill="#e6785c" opacity="0.5"/>
            <path id="路径_8696" data-name="路径 8696" d="M489.566,602.555c2.856-1.81,7.94-.483,7.247,5.621s-6.556,19.311-9.734,18.822.5-8.4,0-14S486.71,604.365,489.566,602.555Z" transform="translate(-363.483 -565.154)" fill="#e6785c" opacity="0.5"/>
            <path id="路径_9903" data-name="路径 9903" d="M493.082,602.555c-2.856-1.81-7.94-.483-7.247,5.621s6.556,19.311,9.734,18.822-.5-8.4,0-14S495.939,604.365,493.082,602.555Z" transform="translate(-479.595 -565.154)" fill="#e6785c" opacity="0.5"/>
          </g>
        </g>
        <path id="路径_8779" data-name="路径 8779" d="M1159.071,630.462s-12.833,5.434-25.754,5.085a73.621,73.621,0,0,1-11.892-1.4" transform="translate(-1003.219 -452.248)" fill="none" stroke="#e6785c" stroke-linecap="round" stroke-width="3.6"/>
        <g id="组_10951" data-name="组 10951" transform="translate(96.574 94.508)">
          <path id="路径_174" data-name="路径 174" d="M-2938.923,4401.158s5.8-.367,6.293-5.989-3.422-7.577-4.645-17.6" transform="translate(2973.139 -4357.72)" fill="none" stroke="#ab392c" stroke-linecap="round" stroke-linejoin="round" stroke-width="4"/>
          <path id="路径_175" data-name="路径 175" d="M-2936.979,4387.944s1.435,3.225,8.632,3.225,8.555-3.225,8.555-3.225" transform="translate(2963.257 -4331.719)" fill="none" stroke="#ab392c" stroke-linecap="round" stroke-width="4"/>
          <g id="组_10951-2" data-name="组 10951" transform="translate(4.889 10.455)">
            <path id="路径_172" data-name="路径 172" d="M-2927.46,4375.767a5.661,5.661,0,0,1,6.394,4.812h0a5.649,5.649,0,0,1-4.8,6.391l-.007,0h0a5.67,5.67,0,0,1-6.394-4.816v-.061a5.612,5.612,0,0,1,4.789-6.33h.034" transform="translate(2932.322 -4375.711)"/>
            <path id="路径_172-2" data-name="路径 172" d="M-2927.46,4375.767a5.661,5.661,0,0,1,6.394,4.812h0a5.649,5.649,0,0,1-4.8,6.391l-.007,0h0a5.67,5.67,0,0,1-6.394-4.816v-.061a5.612,5.612,0,0,1,4.789-6.33h.034" transform="translate(2980.321 -4375.711)"/>
          </g>
          <g id="组_10952" data-name="组 10952" transform="translate(0 0)">
            <path id="路径_8990" data-name="路径 8990" d="M-2932.912,4376.646c4.419-4.772,14.615-4.561,18.473-1.638" transform="translate(2932.912 -4372.916)" fill="none" stroke="#462a2a" stroke-linecap="round" stroke-width="2.8"/>
            <path id="路径_8990-2" data-name="路径 8990" d="M-2914.439,4376.646c-4.419-4.772-14.615-4.561-18.473-1.638" transform="translate(2982.132 -4372.916)" fill="none" stroke="#462a2a" stroke-linecap="round" stroke-width="2.8"/>
          </g>
        </g>
      </g>
      <g id="组_95" data-name="组 95" transform="translate(160.489 252.083)">
        <g id="组_94" data-name="组 94" transform="translate(47.605 69.685)">
          <g id="组_10923" data-name="组 10923" transform="translate(2.444 2.444)" opacity="0.5">
            <circle id="椭圆_7" data-name="椭圆 7" cx="6.281" cy="6.281" r="6.281" transform="translate(0)" fill="#c62f53"/>
            <circle id="椭圆_8" data-name="椭圆 8" cx="6.281" cy="6.281" r="6.281" transform="translate(0 37.046)" fill="#c62f53"/>
          </g>
          <g id="组_93" data-name="组 93">
            <circle id="椭圆_7-2" data-name="椭圆 7" cx="6.281" cy="6.281" r="6.281" fill="#fff"/>
            <circle id="椭圆_8-2" data-name="椭圆 8" cx="6.281" cy="6.281" r="6.281" transform="translate(0 37.046)" fill="#fff"/>
          </g>
        </g>
        <path id="路径_9923" data-name="路径 9923" d="M130.2,235.486a62.883,62.883,0,0,0,9.533,28.111c9.014,14.361,22,18.792,22,18.792s10.083-13.406,18.333-20.014,14.667-6.417,14.667-6.417A65.158,65.158,0,0,1,206.8,267.264a87,87,0,0,1,10.083,16.042s16.5-16.042,19.25-33.917-4.889-28.264-4.889-28.264-23.681,29.333-48.889,30.25S130.2,235.486,130.2,235.486Z" transform="translate(-130.111 -210.278)" fill="#c62f53" opacity="0.5"/>
        <path id="路径_99" data-name="路径 99" d="M152.354,212.438s-8.414.164-18.89,8.37c0,0-6.751,7.188-1.048,26.54s23.048,28.635,23.048,28.635,12.921-20.079,28.252-22.728c0,0-19.929-1.222-28.252-14.666A30.582,30.582,0,0,1,152.354,212.438Z" transform="translate(-130.127 -212.208)" fill="#fff"/>
        <path id="路径_9922" data-name="路径 9922" d="M159.637,212.25s9.931,1.79,19.359,10.694c0,0,6.46,8.759.7,25.492s-22.243,27.587-22.243,27.587S145.822,257.167,129.2,253.3c0,0,19.395-1.222,28.252-14.259S159.637,212.25,159.637,212.25Z" transform="translate(-78.057 -212.25)" fill="#fff"/>
      </g>
      <path id="路径_9926" data-name="路径 9926" d="M1072.906,69.929c.407-9.37-32.491-32.083-70.787-12.528S967.9,117.29,968.3,138.068s-5.3,33-19.556,44.407-22.815,36.259-12.222,65.185" transform="translate(-831.601 6.154)" fill="none" stroke="#000" stroke-linecap="round" stroke-linejoin="round" stroke-width="3.3"/>
    </g>
  </g>
</svg>
