<svg xmlns="http://www.w3.org/2000/svg" xmlns:xlink="http://www.w3.org/1999/xlink" width="352" height="352" viewBox="0 0 352 352"><defs><clipPath id="a"><rect width="352" height="352" transform="translate(32 22)" fill="none" stroke="#707070" stroke-width="1"/></clipPath><clipPath id="c"><rect width="352" height="352"/></clipPath></defs><g id="b" clip-path="url(#c)"><rect width="352" height="352" fill="#fff"/><g transform="translate(-32 -22)" clip-path="url(#a)"><path d="M264.126,219.585c38.548,7.633,71.537,26.9,83.17,38.746C380.176,291.8,393.3,382.178,393.3,382.178h-.031l.031.268H25.56s0-.11,0-.268h0s5.907-74.312,41.762-121.819c11.76-15.581,48.9-34.232,86.931-41.237,15.249-2.809,27.1-4.237,54.567-4.121S264.126,219.585,264.126,219.585Z" transform="translate(-1.431 42.888)" fill="#f26d8b"/><g transform="translate(82.092 59.049)"><g transform="translate(0 0)"><path d="M237.075,230.082s2.852-14.157-2.852-24.037A32.762,32.762,0,0,0,218.741,192.6s5.3-15.074,0-37.074-20.433-23.876-24.037-30.963c-7.461-14.674-1.059-43.593-10.43-74.963-5.3-20.37-19.311-41.963-39.681-37.889-.917-2.444-16.4-16.5-41.148-13.444S51.45,14.059,41.926,49.6s5.6,59.294-7.333,74.963c-4.746,5.75-19.556,10.593-26.481,30.963a56.734,56.734,0,0,0,0,37.074S-18.37,205.23-14.3,227.23c.243,1.036,60.7-29.792,122.884-30.708S237.075,230.082,237.075,230.082Z" transform="translate(14.722 2.165)" fill="#1c161a"/><path d="M84.164,228.725a1.651,1.651,0,0,1-1.64-1.849c.057-.469.163-1.073.3-1.838.664-3.8,2.047-11.7-.228-18.72a30.127,30.127,0,0,0-5.685-9.785,33.2,33.2,0,0,0-3.811-3.867,1.653,1.653,0,0,1-.6-1.469,78.9,78.9,0,0,0,.14-12.491c-.413-6.634-1.806-16.394-6.1-25.219-4.438-9.129-9.655-13.613-14.7-17.95-4.422-3.8-8.6-7.391-11.47-13.613-2.456-5.322-2.424-15.78-2.383-29.02.06-19.5.134-43.765-8.21-59.51-5.528-10.43-12.158-15.747-16.746-18.371C7.945,12.11,2.522,10.9-1.469,11.784c-1.117.247-3.727,1.054-3.837,3.2a1.65,1.65,0,0,1-1.733,1.563A1.65,1.65,0,0,1-8.6,14.812c.157-3.058,2.557-5.395,6.419-6.25a19.109,19.109,0,0,1,7.731.084,30.4,30.4,0,0,1,9.126,3.511,41.181,41.181,0,0,1,9.435,7.528A55.5,55.5,0,0,1,32.7,31.846c8.731,16.475,8.655,41.2,8.594,61.066-.038,12.324-.071,22.968,2.08,27.627,2.571,5.57,6.3,8.778,10.625,12.493,5.053,4.343,10.78,9.266,15.516,19.01A62.036,62.036,0,0,1,74.2,165.87a83.537,83.537,0,0,1,1.735,12.7,85.516,85.516,0,0,1-.076,12.125,39.1,39.1,0,0,1,3.51,3.639A33.481,33.481,0,0,1,85.732,205.3c2.528,7.8,1.05,16.247.34,20.307-.121.689-.225,1.284-.271,1.668A1.65,1.65,0,0,1,84.164,228.725Z" transform="translate(166.168 1.832)"/><g transform="translate(60.418 68.062)"><path d="M534.123,599.1s16.282,10.694,33,17.46a181.546,181.546,0,0,0,33.873,9.6,49.651,49.651,0,0,1,1.222,10.651A77.856,77.856,0,0,1,601,649.037a46.565,46.565,0,0,0,6.471-9.254c2.444-4.889,2.223-8.546,5.053-9.56,6.6-2.367,19.021,5.789,8.755,25.344S603.43,669.5,603.43,669.5s-2.5,11.754-8.44,20.859a147.284,147.284,0,0,1-11.672,15.563S581.6,729.5,594.062,735.431c0,0-7.57,29.891-37.939,29.891s-39.353-29.864-39.353-29.864c13.325-5.182,10.835-29.536,10.835-29.536a133.6,133.6,0,0,1-12.12-15.563c-5.78-8.754-7.333-19.454-7.333-19.454s-9.1,5.194-18.632-15.339,1.024-27.559,9.289-25.344c2.816.755,3.887,5.719,5.633,10.957a18.359,18.359,0,0,0,4.889,7.857,61.46,61.46,0,0,1,0-11.175,20.63,20.63,0,0,1,2.444-7.64s5.936-2.662,11.7-11.043S534.123,599.1,534.123,599.1Z" transform="translate(-485.745 -599.1)" fill="#ffcaab"/><path d="M533.146,613.722a87.434,87.434,0,0,1-13.368,4.736c-8.728,2.464-21.771,5.042-21.771,5.042a92.411,92.411,0,0,0,19.021,10.465,90.208,90.208,0,0,0,21.007,4.813,47.216,47.216,0,0,1-4.049-11.458A61.255,61.255,0,0,1,533.146,613.722Z" transform="translate(-435.497 -506.854)" fill="#e6785c" opacity="0.5"/><path d="M489.566,602.555c2.856-1.81,7.94-.483,7.247,5.621s-6.556,19.311-9.734,18.822.5-8.4,0-14S486.71,604.365,489.566,602.555Z" transform="translate(-363.483 -565.154)" fill="#e6785c" opacity="0.5"/><path d="M493.082,602.555c-2.856-1.81-7.94-.483-7.247,5.621s6.556,19.311,9.734,18.822-.5-8.4,0-14S495.939,604.365,493.082,602.555Z" transform="translate(-479.595 -565.154)" fill="#e6785c" opacity="0.5"/></g></g><path d="M1134.5,637.364q-.616,0-1.233-.016a75.279,75.279,0,0,1-12.183-1.428,1.8,1.8,0,0,1,.679-3.535,71.759,71.759,0,0,0,11.6,1.365c12.388.336,24.879-4.891,25-4.944a1.8,1.8,0,0,1,1.4,3.315,71.027,71.027,0,0,1-8.26,2.753A66.9,66.9,0,0,1,1134.5,637.364Z" transform="translate(-1003.219 -452.248)" fill="#e6785c"/><g transform="translate(96.574 94.508)"><path d="M-2938.8,4403.154l-.252-3.992h-.014a6.308,6.308,0,0,0,2.272-.715,4.067,4.067,0,0,0,2.169-3.453c.2-2.253-.465-3.762-1.464-6.046a35.823,35.823,0,0,1-3.173-11.138,2,2,0,0,1,1.743-2.228,2.077,2.077,0,0,1,.245-.015,2,2,0,0,1,1.983,1.758,31.9,31.9,0,0,0,2.867,10.019c1.064,2.431,2.069,4.727,1.785,8a8.342,8.342,0,0,1-1.576,4.327,8.232,8.232,0,0,1-2.815,2.373A10.147,10.147,0,0,1-2938.8,4403.154Z" transform="translate(2973.139 -4357.72)" fill="#ab392c"/><path d="M-2928.347,4393.169c-8.258,0-10.258-3.96-10.459-4.412a2,2,0,0,1,1.015-2.64,2,2,0,0,1,2.6.938,3.27,3.27,0,0,0,1.213,1,11.668,11.668,0,0,0,5.627,1.113,11.5,11.5,0,0,0,5.573-1.1,3.133,3.133,0,0,0,1.175-.981,2,2,0,0,1,2.583-.986,2,2,0,0,1,1.067,2.62C-2918.141,4389.175-2920.062,4393.169-2928.347,4393.169Z" transform="translate(2963.257 -4331.719)" fill="#ab392c"/><g transform="translate(4.889 10.455)"><path d="M-2927.46,4375.767a5.661,5.661,0,0,1,6.394,4.812h0a5.649,5.649,0,0,1-4.8,6.391l-.007,0h0a5.67,5.67,0,0,1-6.394-4.816v-.061a5.612,5.612,0,0,1,4.789-6.33h.034" transform="translate(2932.322 -4375.711)"/><path d="M-2927.46,4375.767a5.661,5.661,0,0,1,6.394,4.812h0a5.649,5.649,0,0,1-4.8,6.391l-.007,0h0a5.67,5.67,0,0,1-6.394-4.816v-.061a5.612,5.612,0,0,1,4.789-6.33h.034" transform="translate(2980.321 -4375.711)"/></g><g transform="translate(0 0)"><path d="M-2932.912,4378.045a1.394,1.394,0,0,1-.951-.373,1.4,1.4,0,0,1-.076-1.979,12.073,12.073,0,0,1,4.75-3.042,19.281,19.281,0,0,1,5.655-1.11q.541-.026,1.077-.026c3.563,0,6.889.88,8.864,2.376a1.4,1.4,0,0,1,.271,1.961,1.4,1.4,0,0,1-1.961.271c-1.646-1.247-4.831-1.946-8.111-1.784-3.646.181-6.74,1.369-8.489,3.257A1.4,1.4,0,0,1-2932.912,4378.045Z" transform="translate(2932.912 -4372.916)" fill="#462a2a"/><path d="M-2914.438,4378.045a1.4,1.4,0,0,1-1.028-.449c-1.749-1.889-4.843-3.076-8.489-3.257-3.281-.162-6.465.537-8.111,1.784a1.4,1.4,0,0,1-1.961-.271,1.4,1.4,0,0,1,.271-1.961c1.975-1.5,5.3-2.376,8.864-2.376q.536,0,1.077.026a19.281,19.281,0,0,1,5.655,1.11,12.073,12.073,0,0,1,4.75,3.042,1.4,1.4,0,0,1-.076,1.979A1.394,1.394,0,0,1-2914.438,4378.045Z" transform="translate(2982.132 -4372.916)" fill="#462a2a"/></g></g></g><g transform="translate(160.489 252.083)"><g transform="translate(47.605 69.685)"><g transform="translate(2.444 2.444)" opacity="0.5"><circle cx="6.281" cy="6.281" r="6.281" transform="translate(0)" fill="#c62f53"/><circle cx="6.281" cy="6.281" r="6.281" transform="translate(0 37.046)" fill="#c62f53"/></g><circle cx="6.281" cy="6.281" r="6.281" fill="#fff"/><circle cx="6.281" cy="6.281" r="6.281" transform="translate(0 37.046)" fill="#fff"/></g><path d="M130.2,235.486a62.883,62.883,0,0,0,9.533,28.111c9.014,14.361,22,18.792,22,18.792s10.083-13.406,18.333-20.014,14.667-6.417,14.667-6.417A65.158,65.158,0,0,1,206.8,267.264a87,87,0,0,1,10.083,16.042s16.5-16.042,19.25-33.917-4.889-28.264-4.889-28.264-23.681,29.333-48.889,30.25S130.2,235.486,130.2,235.486Z" transform="translate(-130.111 -210.278)" fill="#c62f53" opacity="0.5"/><path d="M152.354,212.438s-8.414.164-18.89,8.37c0,0-6.751,7.188-1.048,26.54s23.048,28.635,23.048,28.635,12.921-20.079,28.252-22.728c0,0-19.929-1.222-28.252-14.666A30.582,30.582,0,0,1,152.354,212.438Z" transform="translate(-130.127 -212.208)" fill="#fff"/><path d="M159.637,212.25s9.931,1.79,19.359,10.694c0,0,6.46,8.759.7,25.492s-22.243,27.587-22.243,27.587S145.822,257.167,129.2,253.3c0,0,19.395-1.222,28.252-14.259S159.637,212.25,159.637,212.25Z" transform="translate(-78.057 -212.25)" fill="#fff"/></g><path d="M936.527,249.311a1.65,1.65,0,0,1-1.549-1.083,77.827,77.827,0,0,1-4.661-21.235,63.839,63.839,0,0,1,1.394-18.865c2.58-11.178,8.265-20.746,16.008-26.941,14.016-11.212,19.325-23.293,18.937-43.087-.028-1.421-.073-2.933-.121-4.534-.322-10.793-.763-25.576,3.418-39.87a66.656,66.656,0,0,1,4.107-10.652,57.458,57.458,0,0,1,15.29-19.309,66.932,66.932,0,0,1,12.02-7.8,72.635,72.635,0,0,1,18.952-6.653,64.32,64.32,0,0,1,17.3-1.056,57.681,57.681,0,0,1,26.414,8.493,32.809,32.809,0,0,1,7.683,6.6c1.942,2.392,2.923,4.7,2.837,6.685a1.65,1.65,0,1,1-3.3-.143c.093-2.145-2.685-6.3-9.007-10.364-12.973-8.335-35.386-12.875-59.381-.622-34.732,17.736-33.671,53.33-33.037,74.6.048,1.61.093,3.131.122,4.568.212,10.79-1.193,19.186-4.421,26.422-3.171,7.11-8.177,13.245-15.754,19.306-13.433,10.747-22.262,34.5-11.7,63.329a1.651,1.651,0,0,1-1.549,2.218Z" transform="translate(-831.601 6.154)"/></g></g></svg>