<svg xmlns="http://www.w3.org/2000/svg" xmlns:xlink="http://www.w3.org/1999/xlink" width="46" height="46" viewBox="0 0 46 46"><defs><style>.a{fill:url(#a);}.b{isolation:isolate;}.c{fill:url(#b);}.d{clip-path:url(#c);}</style><linearGradient id="a" x1="0.5" x2="0.5" y2="1" gradientUnits="objectBoundingBox"><stop offset="0" stop-color="#58bfff"/><stop offset="1" stop-color="#008fff"/></linearGradient><linearGradient id="b" x1="0.5" y1="1" x2="0.5" gradientUnits="objectBoundingBox"><stop offset="0" stop-color="#eef8ff"/><stop offset="1" stop-color="#c4e4ff"/></linearGradient><clipPath id="c"><rect class="a" width="26" height="26"/></clipPath></defs><g class="b" transform="translate(0 0.369)"><rect class="c" width="46" height="46" rx="15" transform="translate(0 -0.369)"/><g class="d" transform="translate(10 9.631)"><path class="a" d="M21.417,18.866a1.227,1.227,0,0,1,.711.185,2.9,2.9,0,0,1-1.378-2.46V10.812A8.969,8.969,0,0,0,13.4,2.178v-.21A1.974,1.974,0,0,0,11.4.02h0a1.978,1.978,0,0,0-2,1.951v.2a8.969,8.969,0,0,0-7.346,8.637v5.779a2.906,2.906,0,0,1-1.38,2.46,1.191,1.191,0,0,1,.709-.185,1.3,1.3,0,1,0-.1,2.6H21.414a1.3,1.3,0,1,0,0-2.6M11.4,26.02a3.3,3.3,0,0,0,3.339-3.249H8.059A3.3,3.3,0,0,0,11.4,26.02" transform="translate(1.625 -0.02)"/></g></g></svg>