<svg xmlns="http://www.w3.org/2000/svg" xmlns:xlink="http://www.w3.org/1999/xlink" width="46" height="46" viewBox="0 0 46 46"><defs><style>.a{fill:url(#a);}.b{fill:url(#b);}</style><linearGradient id="a" x1="0.5" y1="1" x2="0.5" gradientUnits="objectBoundingBox"><stop offset="0" stop-color="#fff6e5"/><stop offset="1" stop-color="#ffe5b1"/></linearGradient><linearGradient id="b" x1="0.5" x2="0.5" y2="1" gradientUnits="objectBoundingBox"><stop offset="0" stop-color="#ffce6c"/><stop offset="1" stop-color="#fa0"/></linearGradient></defs><g transform="translate(10.996 11.698)"><rect class="a" width="46" height="46" rx="15" transform="translate(-10.996 -11.698)"/><g transform="translate(-0.499 -0.499)"><path class="b" d="M13,26A13,13,0,0,1,3.807,3.808,13,13,0,0,1,22.19,22.192,12.913,12.913,0,0,1,13,26Zm.066-8.19a1.736,1.736,0,0,0-1.734,1.71A1.754,1.754,0,0,0,13,21.319h.043a1.745,1.745,0,0,0,1.22-.5,1.809,1.809,0,0,0,.541-1.258,1.755,1.755,0,0,0-1.713-1.755h-.022ZM13,4.68a1.815,1.815,0,0,0-1.8,1.712l.895,7.92a2.756,2.756,0,0,0,.265,1.236c.171.33.4.513.637.513.5,0,.9-.784.9-1.749l.9-7.92A1.816,1.816,0,0,0,13,4.68Z" transform="translate(-0.495 -1.199)"/></g></g></svg>