<svg xmlns="http://www.w3.org/2000/svg" xmlns:xlink="http://www.w3.org/1999/xlink" width="46" height="46" viewBox="0 0 46 46"><defs><style>.a{fill:url(#a);}.b{isolation:isolate;}.c{fill:url(#b);}.d{clip-path:url(#c);}</style><linearGradient id="a" x1="0.5" x2="0.5" y2="1" gradientUnits="objectBoundingBox"><stop offset="0" stop-color="#58bfff"/><stop offset="1" stop-color="#008fff"/></linearGradient><linearGradient id="b" x1="0.5" y1="1" x2="0.5" gradientUnits="objectBoundingBox"><stop offset="0" stop-color="#eef8ff"/><stop offset="1" stop-color="#c4e4ff"/></linearGradient><clipPath id="c"><rect class="a" width="26" height="26"/></clipPath></defs><g class="b" transform="translate(0 0.369)"><rect class="c" width="46" height="46" rx="15" transform="translate(0 -0.369)"/><g class="d" transform="translate(10 9.631)"><path class="a" d="M26,11.537C26,5.2,20.15,0,13,0S0,5.2,0,11.537,5.849,23.075,13,23.075a18.022,18.022,0,0,0,3.087-.325L21.775,26l-.325-5.687A11.246,11.246,0,0,0,26,11.537m-13.04,7.9A1.926,1.926,0,1,1,14.8,17.513a1.841,1.841,0,0,1-1.842,1.924m1.281-5.331H11.678C11.2,10.879,14.6,9.6,14.6,7.673a1.562,1.562,0,0,0-1.7-1.644,3.087,3.087,0,0,0-2.223,1.123L9.056,5.668a5.538,5.538,0,0,1,4.2-2c2.4,0,4.164,1.242,4.164,3.807,0,2.846-3.484,3.808-3.183,6.634" transform="translate(0 0)"/></g></g></svg>