<svg xmlns="http://www.w3.org/2000/svg" xmlns:xlink="http://www.w3.org/1999/xlink" width="46" height="46" viewBox="0 0 46 46"><defs><style>.a{fill:url(#a);}.b{fill:url(#b);}.c{clip-path:url(#c);}</style><linearGradient id="a" x1="0.5" x2="0.5" y2="1" gradientUnits="objectBoundingBox"><stop offset="0" stop-color="#8aeb7d"/><stop offset="1" stop-color="#38ba54"/></linearGradient><linearGradient id="b" x1="0.5" y1="1" x2="0.5" gradientUnits="objectBoundingBox"><stop offset="0" stop-color="#f4fbf5"/><stop offset="1" stop-color="#d7f1dd"/></linearGradient><clipPath id="c"><rect class="a" width="26" height="26" transform="translate(0 0.007)"/></clipPath></defs><g transform="translate(20 13.992)"><rect class="b" width="46" height="46" rx="15" transform="translate(-20 -13.992)"/><g class="c" transform="translate(-10 -4)"><path class="a" d="M13,25.976a12.995,12.995,0,1,1,9.194-3.8A12.995,12.995,0,0,1,13,25.976m-2.9-7.89a1.359,1.359,0,0,0,1.918,0l8.21-8.2a1.367,1.367,0,1,0-1.917-1.948L11,15.157,7.749,11.91A1.367,1.367,0,0,0,5.8,13.826Z"/></g></g></svg>