<svg xmlns="http://www.w3.org/2000/svg" xmlns:xlink="http://www.w3.org/1999/xlink" width="46" height="46" viewBox="0 0 46 46"><defs><style>.a{fill:url(#a);}.b{fill:url(#b);}.c{clip-path:url(#c);}.d{fill:url(#d);}</style><linearGradient id="a" x1="0.5" x2="0.5" y2="1" gradientUnits="objectBoundingBox"><stop offset="0" stop-color="#58bfff"/><stop offset="1" stop-color="#008fff"/></linearGradient><linearGradient id="b" x1="0.5" y1="1" x2="0.5" gradientUnits="objectBoundingBox"><stop offset="0" stop-color="#fee8cd"/><stop offset="1" stop-color="#fee8cd"/></linearGradient><clipPath id="c"><rect class="a" width="26" height="26" transform="translate(-0.995 -1.698)"/></clipPath><linearGradient id="d" x1="0.5" x2="0.5" y2="1" gradientUnits="objectBoundingBox"><stop offset="0" stop-color="#febb77"/><stop offset="1" stop-color="#febb77"/></linearGradient></defs><g transform="translate(10.996 11.698)"><rect class="b" width="46" height="46" rx="15" transform="translate(-10.996 -11.698)"/><g class="c"><path class="d" d="M25.644,18.851,15.181,1.236a2.588,2.588,0,0,0-4.414,0L.3,18.851a2.532,2.532,0,0,0,.051,2.5,2.47,2.47,0,0,0,2.156,1.216H23.443a2.436,2.436,0,0,0,2.185-1.2,2.5,2.5,0,0,0,.016-2.514m-12.67.847A1.581,1.581,0,1,1,14.6,18.117a1.614,1.614,0,0,1-.487,1.133,1.579,1.579,0,0,1-1.137.448m.812-6.311c0,.872-.366,1.575-.812,1.575s-.812-.709-.812-1.575l-.806-7.132a1.623,1.623,0,0,1,3.242,0Z" transform="translate(-0.971 0.019)"/></g></g></svg>