<?xml version="1.0" encoding="UTF-8"?><svg id="_层_2" xmlns="http://www.w3.org/2000/svg" viewBox="0 0 596.29 342.91"><defs><style>.cls-1{fill:#52c2ad;}.cls-2{fill:#fff;}.cls-3{fill:#1c161a;}.cls-4,.cls-5,.cls-6,.cls-7,.cls-8,.cls-9,.cls-10,.cls-11,.cls-12,.cls-13{fill:none;}.cls-4,.cls-5,.cls-7,.cls-9,.cls-10,.cls-11{stroke-width:1.29px;}.cls-4,.cls-9{stroke:#111114;}.cls-14{fill:#df4147;}.cls-5,.cls-6,.cls-8,.cls-9,.cls-10,.cls-11,.cls-12{stroke-linecap:round;}.cls-5,.cls-8,.cls-9,.cls-11,.cls-12{stroke-linejoin:round;}.cls-5,.cls-8,.cls-10{stroke:#000;}.cls-15{fill:#73ccb4;}.cls-16{fill:#ffb693;}.cls-6{opacity:.76;stroke:#fff;stroke-width:7.27px;}.cls-6,.cls-7,.cls-10,.cls-13{stroke-miterlimit:10;}.cls-17,.cls-18{opacity:.8;}.cls-19{fill:#feb592;}.cls-7{opacity:.42;}.cls-7,.cls-11{stroke:#9eceef;}.cls-8{stroke-width:1.29px;}.cls-20{fill:#ffc205;}.cls-21{fill:#d6e9f5;opacity:.75;}.cls-22{fill:#f1c456;}.cls-18,.cls-23{fill:#e9f5ff;}.cls-24{fill:#b0d4f7;}.cls-25{fill:#53c3ae;}.cls-26{fill:#4496df;}.cls-12{stroke:#0d1618;stroke-width:1.6px;}.cls-27{opacity:.5;}.cls-27,.cls-28{fill:#5cb1f7;}.cls-13{stroke:#4496df;stroke-width:5px;}.cls-29{fill:#595e9c;}.cls-30{fill:#cae7fc;}.cls-31{fill:#111114;}</style></defs><g id="_层_2-2"><g><path class="cls-8" d="M235.75,.65h240.95c12.09,0,21.9,9.8,21.9,21.9v235.73c0,12.09-9.8,21.9-21.9,21.9H96.82c-12.09,0-21.9-9.8-21.9-21.9V22.54c0-12.09,9.8-21.9,21.9-21.9h25.54"/><line class="cls-8" x1="131.73" y1=".65" x2="227.13" y2=".65"/><g><rect class="cls-24" x="84.68" y="10.02" width="404.15" height="260.77" rx="15.86" ry="15.86"/><path class="cls-23" d="M488.84,39.92v-13.51c0-9.06-7.34-16.4-16.4-16.4H101.08c-9.06,0-16.4,7.34-16.4,16.4v13.51H488.84Z"/></g></g><path id="_径_52" class="cls-14" d="M109.63,19.48c2.81,0,5.09,2.28,5.09,5.09s-2.28,5.09-5.09,5.09c-2.81,0-5.08-2.28-5.09-5.09,0-2.81,2.28-5.09,5.09-5.09h0"/><path id="_径_53" class="cls-22" d="M128.38,19.48c2.81,0,5.09,2.28,5.09,5.09,0,2.81-2.28,5.09-5.09,5.09-2.81,0-5.08-2.28-5.09-5.09,0-2.81,2.28-5.09,5.09-5.09h0"/><path id="_径_54" class="cls-15" d="M147.13,19.48c2.81,0,5.09,2.28,5.09,5.09s-2.28,5.09-5.09,5.09c-2.81,0-5.08-2.28-5.09-5.09,0-2.81,2.28-5.09,5.09-5.09h0"/><rect class="cls-23" x="101.22" y="50.78" width="371.08" height="35.14" rx="4.07" ry="4.07"/><rect class="cls-18" x="101.22" y="107.63" width="163.31" height="139.54" rx="4.07" ry="4.07"/><rect class="cls-7" x="120.03" y="125.72" width="127.14" height="105.43"/><rect class="cls-28" x="113.45" y="60.6" width="299.24" height="15.5" rx="7.5" ry="7.5"/><rect class="cls-18" x="370.18" y="107.63" width="102.12" height="64.38" rx="5.15" ry="5.15"/><g class="cls-17"><rect class="cls-23" x="370.18" y="182.79" width="102.12" height="64.38" rx="5.15" ry="5.15"/></g><polyline class="cls-11" points="126.33 182.53 148.73 182.53 152.55 167.78 158.01 183.08 162.38 153.04 175.49 204.38 179.86 182.53 188.06 182.53 191.34 173.79 196.25 182.53 212.64 182.53"/><path class="cls-27" d="M125.72,67.32l.13,193.37c.01,16.14,3.13,38.72,10.35,53.15,8.27,16.54,20.1,22.79,28.94,27.91h43.41L150.52,77.84l-24.81-10.52Z"/><path class="cls-30" d="M126.75,67.32H395.86s32.86,66.05,25.28,158.92c0,0-4.83,95.87,37.55,97.93l-251.04,17.65s-50.56,14.45-50.56-121.77c0,0-2.53-119.71-30.34-152.73Z"/><path class="cls-28" d="M213.17,323.69h245.89s5.06,18.58-12.64,18.58H200.52s20.22,0,12.64-18.58Z"/><path class="cls-8" d="M595.65,341.82H206.61s-50.56,7.16-50.56-121.77c0,0-2.53-119.71-30.34-152.73"/><g><path class="cls-20" d="M85.79,331.14s-11.13-50.19,15.2-59.41c21.48-7.52,34.63-46.98,43.77-28.69,11.49,22.99-.58,33.5-4.83,44.01-5.98,14.79-3.32,41.74-40.73,52.29-25.28,7.13-13.41-8.21-13.41-8.21Z"/><path class="cls-12" d="M32.38,276.37c-8.08,16,10.54,21.78,6.44,27.8-4.1,6.01-14.23,9.78-4.39,22.78,6.82,9.01,26.65,11.64,26.65,11.64"/><path class="cls-8" d="M74.2,321.01c1.92-29.45,5.21-91.29-19.15-99.82-32.06-11.22-29.16,22.37-25.98,26.54,1.89,2.48,8.03,13.72,5.86,19.86"/><g><path class="cls-25" d="M88.31,339.84s13.12-42.99,7.57-59.52c-5.55-16.52,27.01-28.97,23.55-50.04-3.46-21.07-8.77-50.15-17.72-47.61-8.95,2.55-33.15,36.33-29.17,56.1,3.97,19.78-25.44,41.4-8.69,76.53,16.75,35.13,24.46,24.53,24.46,24.53Z"/><path class="cls-8" d="M99.48,215.26s-5.25,34.49-18.66,60.01c-11.32,21.54,.44,51.03,.44,51.03"/></g><path class="cls-8" d="M130.14,267.82s-30.91,31.8-29.6,49.61"/><path class="cls-12" d="M64.04,331.48s-4.24-44.26-50.28-76.91"/><path class="cls-8" d="M42.54,230.07s19.04,22.03,16.66,49.36"/></g><path class="cls-2" d="M388.27,255.95H187.47c-7.14,0-12.91-5.84-12.8-12.98,.29-20.14,.57-58.21-1.17-73.73-3.91-34.84-8.98-57.27-12.85-70.6-2.37-8.18,3.79-16.34,12.31-16.34h197.36c6.86,0,12.91,4.46,14.96,11.01,3.78,12.06,9.54,35.31,14.59,75.91,1.94,15.6,1.56,54.12,1.21,74.16-.12,6.98-5.82,12.57-12.8,12.57Z"/><line class="cls-8" x1="187.73" y1="342.26" x2=".65" y2="342.26"/><g><g id="__40"><path id="_状_27" class="cls-16" d="M495.61,309.53l-1.76,14.51-22.02-2.04,3.54-16.59,20.23,4.12Z"/><path id="_状_7_拷贝" class="cls-29" d="M498.65,320.72l2.47,20.35-58.83-.06s-.73-6.21,6.4-9.88c7.13-3.67,23.15-14.26,23.15-14.26,0,0,7.53,.77,11.55,3.24,4.02,2.47,13.69,2.26,15.26,.6Z"/><path id="_状_7_拷贝-2" class="cls-8" d="M500.38,315.98l2.47,20.35-58.83-.06s-.73-6.21,6.4-9.88c7.13-3.67,23.15-14.26,23.15-14.26,0,0,7.53,.77,11.55,3.24,4.02,2.47,13.69,2.26,15.26,.6Z"/></g><g id="__40-2"><path id="_状_27-2" class="cls-16" d="M566.45,306.6l2.91,17.54-19.95,.8-5.59-16.76,22.63-1.58Z"/><path id="_状_7_拷贝-3" class="cls-29" d="M570.7,320.96l2.47,20.35-58.83-.06s-.73-6.21,6.4-9.88,23.15-14.26,23.15-14.26c0,0,7.53,.77,11.55,3.24,4.02,2.47,13.69,2.26,15.26,.6Z"/><path id="_状_7_拷贝-4" class="cls-8" d="M572.43,316.23l2.47,20.35-58.83-.06s-.73-6.21,6.4-9.88,23.15-14.26,23.15-14.26c0,0,7.53,.77,11.55,3.24s13.69,2.26,15.26,.6Z"/></g><polygon class="cls-1" points="540.35 170.16 572.64 311.77 527.15 311.77 502.24 180.65 497.84 169 540.35 170.16"/><polygon class="cls-1" points="483.48 166.93 474.15 177.39 459.68 241.48 460.76 311.77 508.3 311.77 501.07 243.55 520.99 166.93 483.48 166.93"/><path class="cls-19" d="M470.06,123.65s-24.85,6.2-27.95,7.23c-.35,.12-6.16-1.03-8.22-1.03-1.8,0-7.24,5.17-7.24,5.17l5.17,14.47s6.15,1.41,8.27,0c3.1-2.07,7.44-3.86,8.27-4.13,3.1-1.03,25.8-3.34,33.08-9.3,5.12-4.2,6.16-26.88,6.16-26.88l-16.54,1.03-.99,13.44Z"/><path id="_状_680" class="cls-19" d="M487.59,77.56v20.93l17.44-5.23-4-22.33-13.44,6.63Z"/><path id="_状_679" class="cls-19" d="M476.21,53.3s-9.47,28.75,12.12,27.88c21.58-.88,10.55-33.45,3.91-36.45-6.64-3-16.03,8.57-16.03,8.57Z"/><path id="_状_670" class="cls-31" d="M489.2,38.47c-12.03,1.22-5.54,6.23-14.25,6.46-8.58,.23-8,19.36,.38,14.71,5.1-2.82,5.77,1.91,11.89,.66,5.13-1.05,3.51-4.72,7.8-4.17,1.74,.22,4.35,13.92,8.63,9.48,4.62-4.79,6.3-17.04,1.01-18.65-6.29-1.91-5.69-9.49-15.45-8.5Z"/><path id="_状_726" class="cls-8" d="M468.13,49.16s-.32-4.61,2.77-6.98c1.99-1.44,4.39-2.2,6.84-2.16,0,0,2.8-7.47,12.5-6.12"/><path id="_状_727" class="cls-8" d="M501.17,41.11s11.89,3.41,6.88,15.91"/><ellipse id="_圆_17" class="cls-3" cx="487.36" cy="64.15" rx="1.1" ry="1.13" transform="translate(-1.59 13.49) rotate(-1.58)"/><ellipse id="_圆_17_拷贝" class="cls-3" cx="477.35" cy="63.79" rx="1.17" ry="1.13" transform="translate(-1.58 13.21) rotate(-1.58)"/><ellipse class="cls-4" cx="475.34" cy="64.51" rx="4.58" ry="4.98" transform="translate(-1.6 13.16) rotate(-1.58)"/><ellipse class="cls-4" cx="488.21" cy="64.16" rx="4.73" ry="4.98" transform="translate(-1.59 13.51) rotate(-1.58)"/><path id="_状_128" class="cls-9" d="M482.23,65.09l-2.27,6.15,3.68,1.12"/><path id="_状_110_拷贝" class="cls-9" d="M481.32,76.17c1.69,.32,3.43-.19,4.68-1.37"/><path class="cls-1" d="M487.59,85.4l3.14,12.74,12.37-15.84s24.85,2.07,30.02,8.27c11.58,13.89,8.27,35.14,8.27,35.14l-26.87-1.03,20.67,1.03,9.85,58.12-76.04-1.27,7.24-60.98h-13.39s3.25-20.64,6.2-25.84c1.87-3.3,9.58-8.53,18.56-10.34Z"/><polyline class="cls-8" points="477.77 103.49 469.5 183.08 537.8 183.83"/><path class="cls-19" d="M511.36,124.68l22.78,1.04c.36-.05-5.6,18.75-9.3,24.81-8.22,13.44-53.75,19.64-53.75,19.64v-16.54s35.1-9.31,37.48-14.98c1.43-3.39,2.79-13.97,2.79-13.97Z"/><polyline class="cls-8" points="511.92 103.49 510.44 125.1 542.29 125.83"/><polyline class="cls-8" points="487.07 85.92 490.17 98.32 503.61 82.82"/><path class="cls-19" d="M500.19,64.42s.92-4.16,4.05-3.21,1.96,5.59,1.23,7.2c-1.42,3.16-3.01,3.19-5.08,3.24s-.2-7.23-.2-7.23Z"/><path class="cls-31" d="M487.56,81.2l.02,3.17s8.27-4.13,9.3-8.27c0,0-5.17,5.17-9.32,5.1Z"/><polyline class="cls-9" points="503.61 64.21 501.54 67.31 503.61 67.31"/><g><ellipse class="cls-21" cx="395.45" cy="89.58" rx="45.81" ry="46.69"/><ellipse class="cls-13" cx="395.45" cy="89.58" rx="45.81" ry="46.69"/><path class="cls-6" d="M382.08,59.67s-16.67,4.53-21.31,29.06"/><path class="cls-10" d="M404.88,38.02s21.9,.81,34.68,23.13"/><path class="cls-26" d="M458.28,168.35h0c-1.61,1.26-3.94,.95-5.18-.69l-28.98-38.45c-1.24-1.64-.93-4.02,.68-5.28h0c1.61-1.26,3.94-.95,5.18,.69l28.98,38.45c1.24,1.64,.93,4.02-.68,5.28Z"/><path class="cls-5" d="M348.32,113.81s19.92,47.77,75.84,21.6l26.08,33.41"/></g><polyline class="cls-8" points="505.72 194.45 526.12 311.25 573.79 311.25 560.5 255.44"/><g><path class="cls-19" d="M466.88,154.96s-5.09-3.4-14.41-.51c-.84,.26-2.32,.62-2.44,2.51s6.84,.04,8.31,.89c1.18,.68-.83,1.7-5.06,1.97-3.05,.19-5.71-.79-7.15-1.2-1.58-.45-.49,1.05-.97,3.36-.17,.82-1.37,1.23-1.28,2.2,.1,1.07,1.19,2.07,2.09,3.17,.9,1.1-1.28,2.2,2.92,3.42,1.18,.34,1.52,2.18,2.56,2.49,1.54,.44,2.86,.88,4.13,1.03,3.5,.43,6.99,1.11,10.34,0,6.2-2.07,7.33-4.83,7.24-5.17-.8-2.81,5.12-17.58,5.12-17.58l-11.4,3.41Z"/><path class="cls-8" d="M456.82,159.23s-9.07,.82-10.33-.67c0,0-1.35-.07-1.75,1.78s3.04,5.61,11.37,4.13"/><path class="cls-8" d="M456.11,168.61c-4.13,0-10.71-1.1-11.88-3.16-.94-1.66,.51-3.04,.51-3.04"/><path class="cls-8" d="M457.14,171.71s-7.24,1.03-10.66-2.29c-1.38-1.33-.26-2.39-.26-2.39"/><path class="cls-8" d="M459.21,174.81s-10.34,0-9.83-3.5"/></g><g><path class="cls-19" d="M426.65,132.95c-4.4,4.58-4.13,10.34-1.03,14.47,3.1,4.13,6.2,4.13,8.27,4.13s5.37-1.48,7.48-6.41c2.11-4.93-1.41-2.82-1.41-2.82,0,0,1.41-4.23-.7-4.93-.67-.22-1.41,.7-1.41,.7,0,0,.7-2.82-.7-3.52-.89-.45-1.29,.8-1.41,.7-.48-.38-.37-2.48-1.41-2.82s-1.69,.36-2.11,.7c-1.49,1.21-1.79,2.82-2.82,2.82,0,0-2.14-3.67-2.74-3.04Z"/><g><path class="cls-8" d="M428.2,137.05s3.31-2.67,4.63-4.33c.35-.44,.86-.71,1.42-.71,1.04,0,1.67,1.09,.47,3.36-1.82,3.44-6.05,6.66-6.4,6.61"/><path class="cls-8" d="M434.67,135.64s2.11-2.11,2.82-.7c.7,1.41-.35,6.41-6.34,9.86"/><path class="cls-8" d="M437.49,137.75s1.24-1.32,2.38,.04,.44,6.3-5.2,9.12"/><path class="cls-8" d="M439.6,142.68s1.41-1.41,2.44-.6c.56,.44-.41,6.89-5.57,8.96"/></g></g></g><path class="cls-23" d="M408.56,306.6h-98.22c-.93,0-1.77-.55-2.15-1.39l-2.05-4.61c-.69-1.55,.45-3.3,2.15-3.3h98.22c.93,0,1.77,.55,2.15,1.39l2.05,4.61c.69,1.55-.45,3.3-2.15,3.3Z"/><path class="cls-23" d="M401.24,281.8H185.04c-1.07,0-1.98-.77-2.16-1.82l-.84-4.93c-.23-1.34,.8-2.56,2.16-2.56h216.2c1.07,0,1.98,.77,2.16,1.82l.84,4.93c.23,1.34-.8,2.56-2.16,2.56Z"/></g></svg>