<?xml version="1.0" encoding="UTF-8"?><svg xmlns="http://www.w3.org/2000/svg" viewBox="0 0 400 320"><defs><style>.cls-1{fill:#1fb19a;font-family:SourceHanSansCN-Bold-GBpc-EUC-H, 'Source Han Sans CN';font-size:26px;font-weight:700;}.cls-2{fill:#f7ebe4;}.cls-3{fill:#00c43c;}.cls-4{fill:#00942c;}.cls-5{fill:#eaeaea;}.cls-6{fill:#f84e1b;}.cls-7{fill:#ff9ba0;}.cls-8{fill:#e48c28;}.cls-9{fill:#ffcd0e;}.cls-10,.cls-11{fill:#ffd3b6;}.cls-12{fill:#ffbbc4;}.cls-13{fill:#fcfefe;}.cls-14{fill:#e2e2e0;}.cls-15{fill:#e5ba0b;}.cls-16{fill:#ff9880;}.cls-17,.cls-18{fill:#ff8080;}.cls-19{fill:#666;}.cls-20{fill:#d8d8d8;}.cls-21{fill:#b36840;}.cls-22{fill:#b36a17;}.cls-23{fill:#aeb0af;}.cls-24{fill:#c9c9c9;}.cls-25{fill:#df6250;}.cls-26{fill:#e0471b;}.cls-27{fill:#959696;}.cls-28,.cls-29{fill:#633b32;}.cls-29{mix-blend-mode:multiply;}.cls-29,.cls-18{opacity:.5;}.cls-11{fill-rule:evenodd;}.cls-30{isolation:isolate;}</style></defs><g class="cls-30"><g id="_图层_1"><rect class="cls-5" x="0" y="304" width="400" height="16"/><rect class="cls-4" x="63.34" y="264.43" width="4" height="19.93"/><rect class="cls-3" x="63.34" y="264.43" width="2" height="19.93"/><polygon class="cls-20" points="77.34 316.33 53.34 316.33 49.34 284.44 81.34 284.44 77.34 316.33"/><polygon class="cls-23" points="79.91 295.6 50.71 295.6 49.84 287.63 80.84 287.63 79.91 295.6"/><rect class="cls-14" x="45.34" y="284.44" width="40" height="7.97"/><polygon class="cls-24" points="65.34 284.44 65.34 316.33 77.34 316.33 81.34 284.44 65.34 284.44"/><polygon class="cls-27" points="65.34 287.56 65.34 295.6 79.91 295.6 80.84 287.63 65.34 287.56"/><rect class="cls-24" x="65.34" y="284.44" width="20" height="7.97"/><path class="cls-6" d="m65.34,258.28h0l-3.96-4.48c-2.48-2.81-1.76-7.34,1.62-8.94.71-.33,1.49-.53,2.33-.53h0c.84,0,1.62.2,2.33.53,3.39,1.6,4.1,6.13,1.62,8.94l-3.96,4.48Z"/><path class="cls-6" d="m65.34,258.28h0l-3.96,4.48c-2.48,2.81-1.76,7.34,1.62,8.94.71.33,1.49.53,2.33.53h0c.84,0,1.62-.2,2.33-.53,3.39-1.6,4.1-6.13,1.62-8.94l-3.96-4.48Z"/><path class="cls-6" d="m65.34,258.28h0l-4.5,3.94c-2.81,2.47-7.37,1.76-8.97-1.62-.34-.71-.53-1.49-.53-2.32h0c0-.83.2-1.62.53-2.32,1.6-3.38,6.16-4.09,8.97-1.62l4.5,3.94Z"/><path class="cls-26" d="m65.34,258.28h0l4.5,3.94c2.81,2.47,7.37,1.76,8.97-1.62.34-.71.53-1.49.53-2.32h0c0-.83-.2-1.62-.53-2.32-1.6-3.38-6.16-4.09-8.97-1.62l-4.5,3.94Z"/><path class="cls-26" d="m69.29,262.77l-3.96-4.48h0v13.95h0c.84,0,1.62-.2,2.33-.53,3.39-1.6,4.1-6.13,1.62-8.94Z"/><path class="cls-26" d="m69.29,253.8l-3.96,4.48h0v-13.95h0c.84,0,1.62.2,2.33.53,3.39,1.6,4.1,6.13,1.62,8.94Z"/><rect class="cls-9" x="61.34" y="254.3" width="8" height="7.97" rx="3.99" ry="3.99"/><path class="cls-15" d="m65.34,254.3h0c2.21,0,4,1.78,4,3.99h0c0,2.2-1.79,3.99-4,3.99h0"/><polygon class="cls-19" points="52.18 69.75 54.47 73.03 152.77 4.2 151.77 2.77 52.18 69.75"/><polygon class="cls-19" points="249.82 69.75 247.53 73.03 149.23 4.2 150.23 2.77 249.82 69.75"/><rect class="cls-8" x="146" y="0" width="10" height="10" rx="5" ry="5"/><rect class="cls-21" x="21" y="40" width="260" height="166"/><rect class="cls-13" x="25" y="44" width="252" height="158"/><rect class="cls-22" x="145.89" y=".84" width="10" height="10" rx="5" ry="5"/><text class="cls-1" transform="translate(39.1 92.04)"><tspan x="0" y="0">Welcome</tspan><tspan x="0" y="38">to the system！</tspan></text><g id="_护士"><g id="_左臂"><path class="cls-10" d="m299.85,133.91c1.86-5.03,1.95-7.13-2.72-10.31-4.67-3.18-29.26-18.14-29.26-18.14l-5.35,6.71s25.13,22.51,28.77,24.65,6.71,2.12,8.57-2.91Z"/><path class="cls-10" d="m310.03,109.2s-8.27,26.65-13.05,28.78c-4.77,2.13-11.19-4.88-11.13-7.71.06-2.83,13.62-35.59,17.22-40.03,3.59-4.44,13.33,1.26,6.96,18.96Z"/><path class="cls-10" d="m247.36,91.12c1.83-.6,1.82,2.19,3.15,2.7s4.22,1.09,6.16,1.96,4.7,4.89,4.7,4.89c.85,1.51,1.65,2.62,2.38,3.24l-3.72,5.71s-6.01.25-8.8-.52-4.05-1.67-4.94-3-.78-2.27-.78-2.27c-.88-.88-1.64-1.79-.9-2.97-.9-.95-1.33-2-.64-3.29-1.01-1.05.03-2.87,1.14-3.15s1.45-.47,1.45-.47c0,0-1.05-2.23.78-2.83Z"/><path class="cls-10" d="m261.25,100.5c1.94,1.65,4.15,3.3,6.62,4.97l-1.18,9.84c-4.07-3.08-8.37-6.39-10.46-6.09l5.02-8.72Z"/><polygon class="cls-19" points="259.95 103.47 257.53 106.46 198 57.57 198.71 56.69 259.95 103.47"/><path class="cls-10" d="m244.24,94.59c.91-.59,1.78-.92,2.57-.68,1.56.53,1.32,1.47.65,2.52,0,0-2.02,1.25-3.19,1.34s-1.35-1.91-.02-3.17Z"/><path class="cls-10" d="m248.68,96.68c-1.37-.23-4.5.61-4.93,1.33s-.1,1.95.94,2.98c-.05,0,2.59-1.94,4.18-1.65,1.59.3,3.86,1.2,3.94-.03s-.45-1.35-.45-1.35c0,0-2.31-1.05-3.68-1.28Z"/><path class="cls-10" d="m250.29,99.87c1.94.41,3.69,1.56,3.69,1.56.62,1.09.47,1.98-.6,2.63,0,0-2.27-.9-4.18-1.08-1.91-.19-3.57,1.12-3.57,1.12-1.09-.94-2.26-2.21-.88-3.56,1.91-.91,3.59-1.07,5.53-.66Z"/><path class="cls-10" d="m246.29,102.98c1.28-.73,2.64-.74,3.97-.25,1.33.49,3.12,1.33,3.12,1.33,0,0,.32,1.07-.23,1.44s-1.24,1.08-2.07,1.13-.47-.21-1.41-.53-3.05.61-3.05.61c-.96-1.21-1.43-2.7-.34-3.73Z"/></g><g id="_右腿"><path class="cls-10" d="m364.47,172.01c-1.77,16.96-6.52,47.98-6.98,48.78l-9.02,73.22-9.8,1.58s-.28-10.49-.42-14.87c-.76-24.52-1.3-50.8-.81-58.61.49-7.81-.62-48.67-.62-48.67l27.64-1.43Z"/><path class="cls-10" d="m348.29,290.14s-.2,2.93.58,5.14c.78,2.21,4.48,6.92,7.54,11.02l-2.08,4.68-9.76-3.81-6.14-9.33.28-4.95,9.57-2.75Z"/><path class="cls-7" d="m338.65,295.36s6.99,16.53,15.41,12.94c3.48-1.53,1.41-2.87,1.34-3.26,0,0,5.09,3.22,4.81,7.15-.24,3.39-5.28,5.52-11.07,2.01s-11.18-12.82-11.18-12.82c-.39-2.13-.79-4.29.7-6.01Z"/><path class="cls-7" d="m344.77,305.36c1.43-3.3,4.46-4.06,8.02-3.96l1.69,2.21c-3.91-1.01-6.38.49-8.17,3.15l-1.54-1.4Z"/><path class="cls-7" d="m337.58,298.35s-.07,4.46.61,6.11c.68,1.66.7,1.77,3.49,3.29s-4.1-9.4-4.1-9.4Z"/></g><g id="_左腿"><path class="cls-10" d="m308.68,172.04c1.76,16.96,6.48,47.98,6.94,48.78l8.97,73.22,9.74,1.58s.28-10.49.42-14.87c.76-24.52,1.29-50.8.81-58.61s.62-48.67.62-48.67l-27.49-1.43Z"/><path class="cls-10" d="m324.72,289.88s.18,2.93-.61,5.13-4.52,6.9-7.61,10.97l2.05,4.7,9.79-3.75,6.19-9.29-.25-4.95-9.56-2.81Z"/><path class="cls-7" d="m334.33,295.17s-7.09,16.49-15.49,12.84c-3.47-1.55-1.39-2.88-1.32-3.27,0,0-5.11,3.19-4.85,7.12.22,3.39,5.24,5.55,11.06,2.07s11.26-12.75,11.26-12.75c.4-2.13.81-4.29-.66-6.02Z"/><path class="cls-7" d="m328.15,305.13c-1.41-3.31-4.43-4.09-8-4.01l-1.7,2.2c3.92-.98,6.38.53,8.15,3.2l1.55-1.39Z"/><path class="cls-7" d="m335.38,298.16s.04,4.46-.65,6.11-.71,1.76-3.51,3.27c-2.8,1.51,4.16-9.38,4.16-9.38Z"/></g><g id="_头发"><path class="cls-28" d="m360.65,46.38c-1.49-5.44-3.53-11.41-5.43-14.49-1.9-3.07-6.79-7.11-10.32-5.39.35-.17-2.28-1.43-2.37-1.47-20.17-9.15-34.02,13.69-34.06,29.72,0,3.64-.05,16.48,12.14,14.47,12.18-2.01,28.13,1.24,32.99.31,4.86-.93,12.96-1.46,7.05-23.15Z"/><path class="cls-29" d="m319.5,44.72s-4.07,8.91,2.24,14.03c6.31,5.12,8.03,9.56,8.03,9.56-4.01.18-7.64.47-10.76.91-.7-.34-1.38-.79-2.03-1.36-9.37-8.83,2.53-23.13,2.53-23.13Z"/><path class="cls-29" d="m349.95,40.64s4.89,8.9,5.39,17.7c.51,8.79-7.17,11.12-7.17,11.12-2.69-.04-6.4-.47-9.98-.56l11.75-28.26Z"/></g><g id="_裙身"><path class="cls-12" d="m314.78,132.52h42.15s19.48,60.57,16.39,78.03c-7.5,16.36-68.69,11.68-74.43.99-5.73-10.69,15.88-79.02,15.88-79.02Z"/><path class="cls-12" d="m359.98,114.82l-2.92,15.87c-14.29,4.52-28.3,4.72-42,0l-2.78-15.87c-7.06-7.2-7.46-13.95,0-20.16,15.15-8.33,31.09-7.89,47.7,0,6.33,6.41,5.29,13.18,0,20.16Z"/><path class="cls-7" d="m314.7,128.85c19.9,3.97,42.81-.12,42.71,0l.48,6.76c-14.63,3.55-29.34,3.57-44.14,0l.95-6.76Z"/></g><g id="_右臂"><path class="cls-11" d="m364.52,143.56c-1.95-.66-7.64-3.17-9.21-5.1-1.57-1.93-.99-2.13-3.94-2.37-2.95-.23-6.93-.72-6.83.06s4.96,1.81,7.39,2.12l3.21,3.19-6.16.22c-3.28,3.4-4.81,5.24-4.59,5.52.22.28,2.24-.93,6.08-3.62l4.86.48-4.64,1.22c-3.67,2.73-5.26,4.35-4.78,4.86.48.51,2.32-.45,5.52-2.88l3.34-.42-2.69,1.51c-2.34,1.65-3.31,2.71-2.91,3.17.4.47,1.79-.3,4.15-2.31,2.3.03,4.03-.27,5.18-.92,3.13,2.99,6.12,4.08,8.96,3.26,4.26-1.23,28.39-19.47,28.55-23.19.11-2.48-7.26-12.65-22.09-30.49l-10.78,12.07,18.15,17.13c-8.27,10.07-13.2,15.63-14.82,16.67-.61.39-1.68-.09-1.94-.18Z"/></g><g id="_上"><path class="cls-12" d="m309.63,80.42c8-5.09,46.79-3.74,51.56-.74,4.77,3,17.31,22.97,17.31,22.97l-13.1,10.86-10.96-11.23-17.32-2.91-22.88,1.68-4.3,12.97-16.38-4.99s8.96-23.04,16.07-28.61Z"/><ellipse class="cls-7" cx="336.12" cy="100.15" rx="1.72" ry="1.7"/><ellipse class="cls-7" cx="336.22" cy="107.16" rx="1.72" ry="1.7"/><rect class="cls-7" x="351.16" y="94.54" width="1.86" height="14.54" rx=".93" ry=".93" transform="translate(250.28 453.91) rotate(-90)"/><path class="cls-7" d="m310.58,96.5c-2.07,7.19-1.19,13.45,2.08,18.97,0,0-.32-.35-3.03-6.03-2.71-5.68.95-12.94.95-12.94Z"/><path class="cls-7" d="m362.83,95.66c1.85,7.25.78,13.48-2.66,18.9,0,0,.33-.34,3.21-5.94s-.55-12.96-.55-12.96Z"/></g><g id="_脖子"><path id="_脖子-2" class="cls-10" d="m327.17,77.37c1.33-.82,1.86-2.38,1.97-3.68s-.03-6.73-.03-6.73l14.85.71s-.29,4.7-.2,5.9.59,3.53,1.6,3.71c-6.03,3.1-12.1,3.09-18.19.09Z"/><path class="cls-10" d="m323.76,77.38c1.56-.18,3.04-.37,4.03-.55,5.73-1.26,11.36-1.3,16.85.06.98.5,2.36.57,3.84.55l-12.44,19.03-12.28-19.09Z"/></g><polygon id="_领子" class="cls-2" points="324.96 77.07 336.04 96.5 347.72 77.29 352.73 77.84 353.82 82.95 336.04 97.17 317.76 82.58 320.43 77.76 324.96 77.07"/><g id="_耳朵"><path class="cls-10" d="m321.74,58.38c-.62.66-5.42-.41-4.88-5.95.37-3.76,3.76-4.06,5.33-2.55,2.56,2.47,1.31,6.63-.45,8.5Z"/><path class="cls-17" d="m319.21,55.66c-.07,0-.13-.03-.18-.1-.09-.12-.07-.31.02-.42l.96-1.04-1.44-2.03c-.09-.12-.08-.31.02-.42.1-.11.25-.1.33.02l1.76,2.47-1.32,1.43s-.1.07-.15.07Z"/><path class="cls-10" d="m350.21,58.34c.65.67,5.56-.37,4.95-5.93-.41-3.77-3.88-4.1-5.48-2.59-2.6,2.46-1.29,6.63.53,8.52Z"/><path class="cls-17" d="m352.65,55.64c.07,0,.14-.03.18-.1.09-.12.08-.31-.02-.42l-.99-1.04,1.49-2.03c.09-.12.08-.31-.02-.42-.1-.11-.25-.1-.34.02l-1.82,2.47,1.36,1.43s.1.07.16.07Z"/></g><g id="_脸"><path class="cls-10" d="m350.76,41.97c.98,6.3.42,11.78-.36,15.84-.93,4.81-4.16,8.26-7.2,10.79-1.84,1.53-4.46,2.8-6.86,2.81s-5.03-1.73-7.39-3.1c-2.34-1.36-5.63-5.46-7.23-8.77-2.17-8.01.85-18.2.85-18.2,0,0,4.39-8.81,9.75-11.07,5.36-2.26,16.67-3.2,18.43,11.7Z"/><path class="cls-17" d="m336.38,57.16h-.03c-.45,0-.82-.35-.83-.8l-.02-1.2c0-.45.36-.8.82-.82.45,0,.82.36.82.8v1.2c.01.44-.34.8-.77.82Z"/><path class="cls-25" d="m332.81,61.06c.11-.35.38-.57.72-.59.02,0,.09,0,.11,0,3.52.25,4.96-.03,5.01-.04.19-.04.39.04.55.2.15.16.24.39.24.63,0,.89-.33,1.7-.95,2.29-.57.55-1.32.87-2.12.92-.72.04-1.41-.16-2.01-.56-.3-.21-.57-.47-.8-.76-.99-1.31-.81-1.85-.74-2.09Z"/><path class="cls-28" d="m326.8,48.42c.12,0,.23-.05.33-.13,1.58-1.35,2.78-.38,2.92-.26.23.2.58.18.79-.04.21-.22.2-.57-.03-.78-.69-.63-2.51-1.39-4.41.24-.23.2-.26.55-.06.78.12.14.3.2.46.19Z"/><path class="cls-28" d="m345.68,48.17c-.12,0-.24-.03-.34-.1-1.71-1.18-2.81-.08-2.93.05-.21.23-.56.24-.79.04-.23-.2-.26-.55-.05-.78.62-.7,2.35-1.64,4.41-.22.25.17.32.52.14.77-.1.15-.27.23-.44.24Z"/><ellipse class="cls-18" cx="325.71" cy="58.52" rx="1.98" ry="1.95"/><ellipse class="cls-18" cx="346.4" cy="58.55" rx="1.98" ry="1.95"/><ellipse class="cls-28" cx="328.61" cy="52.23" rx="1.44" ry="1.95"/><ellipse class="cls-28" cx="343.89" cy="52.34" rx="1.44" ry="1.95"/><path class="cls-16" d="m328.93,68.22s3.51,3.17,7.52,3.23c3.89.03,7.53-3.35,7.53-3.35,0,0-2.7,3.7-7.55,3.67-4.85-.03-7.49-3.55-7.49-3.55Z"/></g><path id="_刘海" class="cls-28" d="m351.65,47.43s-4.43-12.04-9.44-11.57c-2.97,2.86-5.51,6.51-11,4.66-5.22-.42-8.39,1.38-9.57,5.37,0,0-2.45,1.95-5.06-1.4-2.61-3.36,2.19-12.16,2.19-12.16,0,0,4.62-5.04,13.07-6.19,8.45-1.15,12.07-2.4,19.77,3.13,5.88,3.64.05,18.16.05,18.16Z"/><g id="_帽"><path class="cls-12" d="m319.59,20.69c.85-1.99,8.67-4.64,16.45-4.69,7.4-.04,14.76,2.42,16.08,4.49,1.59,1.95-.91,9.92-.91,9.92-10.06-2.61-20.07-2.43-30.06.18,0,0-2.82-6.94-1.56-9.91Z"/><rect class="cls-17" x="332.86" y="20.86" width="6.82" height="2.03" transform="translate(-.08 1.3) rotate(-.22)"/><rect class="cls-17" x="335.24" y="18.51" width="2.05" height="6.74" transform="translate(-.08 1.33) rotate(-.23)"/><path class="cls-2" d="m320.44,28.49c10.29-2.32,20.71-2.4,31.27-.06l-.26,1.06c-10.01-2.45-20.27-2.41-30.76-.06l-.26-.94Z"/></g><g id="_发卡"><path class="cls-17" d="m320.95,48.67l-4.67-4.22c-.29-.26-.31-.71-.05-1h0c.27-.29.72-.31,1.01-.05l4.67,4.22c.29.26.31.71.05,1h0c-.27.29-.72.31-1.01.05Z"/><path class="cls-17" d="m321.61,45.28l-4.67-4.22c-.29-.26-.31-.71-.05-1h0c.27-.29.72-.31,1.01-.05l4.67,4.22c.29.26.31.71.05,1h0c-.27.29-.72.31-1.01.05Z"/></g></g></g></g></svg>