<svg xmlns="http://www.w3.org/2000/svg" width="314" height="75" viewBox="0 0 314 75">
  <g id="声明-东华数字医疗" transform="translate(-743.339 -215)">
    <path id="路径_5250" data-name="路径 5250" d="M2.845-3.16H8.116V-21.135H2.845ZM5.517-24.024c1.8,0,3.141-1.091,3.141-2.568,0-1.541-1.336-2.568-3.141-2.568-1.841,0-3.177,1.027-3.177,2.568C2.34-25.116,3.676-24.024,5.517-24.024ZM14.253-3.16h4.8v-9.919c0-2.247-.433-5.553-.686-7.8h.144l2.13,5.585,4.151,9.983h3.068l4.115-9.983,2.166-5.585h.144c-.253,2.247-.65,5.553-.65,7.8V-3.16h4.873V-26.913h-5.92l-4.44,11.106c-.578,1.477-1.047,3.049-1.624,4.59h-.18c-.541-1.541-1.047-3.114-1.624-4.59L20.173-26.913h-5.92Zm30.829,0H61.868V-7.14H50.425V-13.5H59.81v-3.98H50.425v-5.489H61.471v-3.948H45.082Zm22.2,0H74.9c7.87,0,12.924-3.98,12.924-11.973,0-8.025-5.054-11.78-13.212-11.78H67.283Zm5.343-3.82V-23.125h1.661c4.982,0,8.086,2.183,8.086,7.993,0,5.778-3.1,8.153-8.086,8.153ZM95.477-3.16h6.534l2.924-11.748c.433-1.862.794-3.691,1.155-5.489h.144c.325,1.8.722,3.627,1.155,5.489l3,11.748h6.642l4.946-23.753h-5.09L114.79-15.325c-.4,2.472-.794,5.007-1.191,7.575h-.18c-.578-2.568-1.119-5.136-1.7-7.575l-3.1-11.588h-4.549l-3.1,11.588c-.578,2.472-1.155,5.04-1.7,7.575h-.144c-.4-2.536-.83-5.072-1.227-7.575l-2.13-11.588H90.314ZM131-12.95l.794-2.6c.794-2.472,1.588-5.168,2.274-7.768h.144c.794,2.568,1.516,5.3,2.346,7.768l.794,2.6Zm9.386,9.79h5.6l-8.592-23.753h-6.281L122.551-3.16h5.415l1.877-6.1h8.664Zm12.563,0h5.343v-8.7l8.05-15.054h-5.559l-2.671,5.778c-.758,1.765-1.552,3.435-2.383,5.264h-.144c-.83-1.83-1.552-3.5-2.31-5.264L150.6-26.913h-5.668l8.014,15.054Z" transform="translate(741 244.16)" fill="#3664bf"/>
    <path id="路径_5251" data-name="路径 5251" d="M3.276-3.006h7.6c7.853,0,12.9-4,12.9-12.044,0-8.072-5.043-11.85-13.184-11.85H3.276ZM8.607-6.848V-23.09h1.657c4.971,0,8.069,2.2,8.069,8.04,0,5.812-3.1,8.2-8.069,8.2ZM28.563-3.006h5.259V-21.088H28.563Zm2.666-20.988c1.8,0,3.134-1.1,3.134-2.583,0-1.55-1.333-2.583-3.134-2.583-1.837,0-3.17,1.033-3.17,2.583C28.059-25.092,29.392-23.994,31.229-23.994ZM46.61,4.84c6.736,0,10.951-2.777,10.951-6.425,0-3.164-2.63-4.52-7.492-4.52H46.646c-2.377,0-3.17-.517-3.17-1.485a1.749,1.749,0,0,1,.865-1.55,9.486,9.486,0,0,0,2.594.42c4.323,0,7.781-2.066,7.781-6.135a4.235,4.235,0,0,0-.937-2.745h3.458v-3.487H49.96a10.486,10.486,0,0,0-3.026-.452c-4.287,0-8.141,2.292-8.141,6.555a5.815,5.815,0,0,0,2.666,4.714v.129a4.429,4.429,0,0,0-2.233,3.39,3.366,3.366,0,0,0,1.837,3.035v.161c-1.837.936-2.882,2.228-2.882,3.745C38.181,3.387,41.855,4.84,46.61,4.84Zm.324-16.5a3.071,3.071,0,0,1-3.17-3.326,3.053,3.053,0,0,1,3.17-3.326,3.026,3.026,0,0,1,3.134,3.326A3.044,3.044,0,0,1,46.934-11.66Zm.468,13.5c-2.954,0-4.827-.872-4.827-2.389a2.656,2.656,0,0,1,1.333-2.1,12.649,12.649,0,0,0,2.81.258h2.449c2.161,0,3.35.323,3.35,1.614C52.517.642,50.428,1.837,47.4,1.837ZM61.019-3.006h5.259V-21.088H61.019Zm2.666-20.988c1.8,0,3.134-1.1,3.134-2.583,0-1.55-1.333-2.583-3.134-2.583-1.837,0-3.17,1.033-3.17,2.583C60.514-25.092,61.847-23.994,63.684-23.994ZM79.354-2.554A14.384,14.384,0,0,0,83.6-3.232L82.74-6.687a6.477,6.477,0,0,1-1.981.387c-1.8,0-2.738-.969-2.738-3.035v-8.008h4.971v-3.745H78.021v-4.843H73.59l-.612,4.843-3.1.226v3.519h2.846v8.008C72.726-5.266,74.563-2.554,79.354-2.554Zm11.887,0a10.04,10.04,0,0,0,6.088-2.389h.108l.4,1.937h4.323V-13.565c0-5.231-2.63-7.975-7.745-7.975a17.434,17.434,0,0,0-8.429,2.389l1.909,3.132a12.294,12.294,0,0,1,5.547-1.711c2.485,0,3.35,1.356,3.422,3.132-8.1.775-11.6,2.809-11.6,6.684C85.261-4.847,87.639-2.554,91.241-2.554ZM92.97-6.267c-1.549,0-2.666-.613-2.666-2.034,0-1.614,1.657-2.809,6.556-3.39v3.649A5.585,5.585,0,0,1,92.97-6.267Zm19.56,3.713a7.955,7.955,0,0,0,2.738-.42l-.648-3.519a3.318,3.318,0,0,1-.72.065c-.5,0-1.081-.355-1.081-1.421V-28.773h-5.259v20.7C107.558-4.717,108.855-2.554,112.529-2.554Zm14.985-.452h5.331V-13.339h10.086V-3.006h5.3V-26.9h-5.3v9.4H132.846v-9.4h-5.331Zm35.589.452a13.763,13.763,0,0,0,7.06-2l-1.8-2.906A9.007,9.007,0,0,1,163.824-6.2c-2.99,0-5.151-1.55-5.583-4.52h12.427a7.949,7.949,0,0,0,.252-2.163c0-5-2.882-8.653-8.429-8.653a9.3,9.3,0,0,0-9.4,9.525C153.09-6.074,157.484-2.554,163.1-2.554Zm-4.935-11.3a4.348,4.348,0,0,1,4.395-4c2.594,0,3.818,1.55,3.818,4Zm21.577,11.3a10.04,10.04,0,0,0,6.088-2.389h.108l.4,1.937h4.323V-13.565c0-5.231-2.63-7.975-7.745-7.975a17.434,17.434,0,0,0-8.429,2.389l1.909,3.132a12.294,12.294,0,0,1,5.547-1.711c2.486,0,3.35,1.356,3.422,3.132-8.1.775-11.6,2.809-11.6,6.684C173.766-4.847,176.143-2.554,179.746-2.554Zm1.729-3.713c-1.549,0-2.666-.613-2.666-2.034,0-1.614,1.657-2.809,6.556-3.39v3.649A5.585,5.585,0,0,1,181.475-6.267Zm19.56,3.713a7.955,7.955,0,0,0,2.738-.42l-.648-3.519a3.318,3.318,0,0,1-.72.065c-.5,0-1.081-.355-1.081-1.421V-28.773h-5.259v20.7C196.063-4.717,197.36-2.554,201.034-2.554Zm13.76,0a14.384,14.384,0,0,0,4.251-.678l-.865-3.455A6.477,6.477,0,0,1,216.2-6.3c-1.8,0-2.738-.969-2.738-3.035v-8.008h4.971v-3.745h-4.971v-4.843h-4.431l-.612,4.843-3.1.226v3.519h2.846v8.008C208.167-5.266,210-2.554,214.795-2.554Zm7.745-.452H227.8V-15.437c1.513-1.324,2.558-2.034,4.215-2.034,1.981,0,2.846,1,2.846,3.778V-3.006h5.3V-14.275c0-4.553-1.873-7.265-6.232-7.265a9.645,9.645,0,0,0-6.34,2.648l.216-3.39v-6.49h-5.259Zm31.627.452a10.719,10.719,0,0,0,6.592-2.2l-2.089-3.132a6.661,6.661,0,0,1-3.926,1.453c-2.918,0-5.007-2.2-5.007-5.586,0-3.423,2.089-5.651,5.151-5.651a4.883,4.883,0,0,1,3.1,1.195l2.522-3.067a9.412,9.412,0,0,0-5.872-2c-5.475,0-10.3,3.487-10.3,9.525C244.332-6.041,248.583-2.554,254.166-2.554Zm14.949,0A10.04,10.04,0,0,0,275.2-4.943h.108l.4,1.937h4.323V-13.565c0-5.231-2.63-7.975-7.745-7.975a17.434,17.434,0,0,0-8.429,2.389l1.909,3.132a12.294,12.294,0,0,1,5.547-1.711c2.486,0,3.35,1.356,3.422,3.132-8.1.775-11.6,2.809-11.6,6.684C263.136-4.847,265.513-2.554,269.115-2.554Zm1.729-3.713c-1.549,0-2.666-.613-2.666-2.034,0-1.614,1.657-2.809,6.556-3.39v3.649A5.585,5.585,0,0,1,270.844-6.267Zm14.589,3.261h5.259V-13.791c1.153-2.615,3.062-3.552,4.647-3.552a7.033,7.033,0,0,1,2.089.291l.937-4.1a6.286,6.286,0,0,0-2.377-.387,7.029,7.029,0,0,0-5.727,3.649h-.144l-.36-3.2h-4.323Zm24.026.452a13.764,13.764,0,0,0,7.06-2l-1.8-2.906A9.007,9.007,0,0,1,310.18-6.2c-2.99,0-5.151-1.55-5.583-4.52h12.427a7.95,7.95,0,0,0,.252-2.163c0-5-2.882-8.653-8.429-8.653a9.3,9.3,0,0,0-9.4,9.525C299.445-6.074,303.84-2.554,309.459-2.554Zm-4.935-11.3a4.348,4.348,0,0,1,4.395-4c2.594,0,3.818,1.55,3.818,4Z" transform="translate(740.063 285.16)" fill="#3664bf"/>
  </g>
</svg>
