<svg xmlns="http://www.w3.org/2000/svg" xmlns:xlink="http://www.w3.org/1999/xlink" width="74.49" height="74.49" viewBox="0 0 74.49 74.49"><defs><clipPath id="a"><circle cx="37.245" cy="37.245" r="37.245" transform="translate(197.823 87.717)" fill="none"/></clipPath></defs><g transform="translate(-197.823 -87.717)"><circle cx="37.245" cy="37.245" r="37.245" transform="translate(197.823 87.717)" fill="#efefef"/><path d="M212.56,108.241l38.132.029s7.679,7.408,9.246,8l-.008,22.5a2.106,2.106,0,0,1-2.1,2.1H212.56a2.105,2.105,0,0,1-2.1-2.1V110.346a2.1,2.1,0,0,1,2.1-2.105Z" fill="#fff"/><path d="M235.2,128.811H210.04c-1.509,0-2.6-.626-2.6-1.487V113.99a.5.5,0,1,1,1,0v13.333c.037.143.629.488,1.6.488H235.2a.5.5,0,0,1,0,1Z" transform="translate(0 17.149)" fill="#666566"/><path d="M250.706,108.241v8.047h9.289Z" fill="#d7d7d7"/><path d="M257.328,119.455h-8.876a.914.914,0,0,1-.913-.913v-7.634a.5.5,0,1,1,1,0v7.547h8.789a.5.5,0,0,1,0,1Z" fill="#666566"/><path d="M231.28,131.639H218.155a.5.5,0,0,1,0-1H231.28a.5.5,0,0,1,0,1Z" fill="#666566"/><rect width="27.369" height="1.579" rx="0.789" transform="translate(217.823 116.664)" fill="#d7d7d7"/><rect width="16.706" height="1.579" rx="0.789" transform="translate(217.823 123.506)" fill="#d7d7d7"/><g clip-path="url(#a)"><path d="M255.312,144.452l3.184-3.184h0l6.688,6.687a2.253,2.253,0,0,1,0,3.185h0a2.253,2.253,0,0,1-3.185,0l-6.687-6.688Z" fill="#d7d7d7"/><path d="M258.5,141.6a.807.807,0,0,1,.572.236l6.115,6.116A2.252,2.252,0,1,1,262,151.139l-6.114-6.114a.812.812,0,0,1,0-1.147l2.038-2.038A.808.808,0,0,1,258.5,141.6Zm5.1,9.295a1.351,1.351,0,0,0,.955-2.306l-6.051-6.052-1.911,1.911,6.051,6.051A1.343,1.343,0,0,0,263.591,150.9Z" fill="#666566"/><circle cx="9.908" cy="9.908" r="9.908" transform="translate(241.569 127.975)" fill="#efefef"/><path d="M9.458-.45A9.908,9.908,0,1,1-.45,9.458,9.919,9.919,0,0,1,9.458-.45Zm0,18.915A9.007,9.007,0,1,0,.45,9.458,9.017,9.017,0,0,0,9.458,18.465Z" transform="translate(242.02 128.426)" fill="#666566"/></g></g></svg>