<svg xmlns="http://www.w3.org/2000/svg" width="90" height="16" viewBox="0 0 90 16">
  <g id="logo" transform="translate(-965 -845.737)">
    <rect id="矩形_2384" data-name="矩形 2384" width="90" height="16" transform="translate(965 845.737)" fill="none"/>
    <g id="组_59" data-name="组 59" transform="translate(926 836.749)">
      <g id="组_1336" data-name="组 1336" transform="translate(39 11)">
        <g id="组_1335" data-name="组 1335">
          <path id="路径_12" data-name="路径 12" d="M769.116,460.058a1.342,1.342,0,0,1-1.012-.409,1.5,1.5,0,0,1,1.084-2.524,1.3,1.3,0,0,1,1.057.478,1.971,1.971,0,0,1,.395,1.292v4.72h3.824v-5a5.377,5.377,0,0,0-1.427-3.95,5.227,5.227,0,0,0-3.9-1.447,5.351,5.351,0,0,0-3.783,9.1,5.243,5.243,0,0,0,3.835,1.512,4.826,4.826,0,0,0,.858-.081v-3.955a1.74,1.74,0,0,1-.93.264Z" transform="translate(-701.252 -449.941)" fill="#226cae"/>
          <path id="路径_13" data-name="路径 13" d="M747.086,452.614h3.873V449.98h-3.873Zm0,11.313h3.873v-10.1h-3.873Z" transform="translate(-701.454 -449.98)" fill="#226cae"/>
          <rect id="矩形_3" data-name="矩形 3" width="3.823" height="13.837" transform="translate(74.027)" fill="#226cae"/>
          <path id="路径_14" data-name="路径 14" d="M742.234,450.106v4.474a5,5,0,0,0-1.577-1.011c-3.737-1.182-6.253,2.326-5.567,6.031.448,2.408,1.288,3.861,3.745,4.291a3.835,3.835,0,0,0,1.925-.224c.864-.341,1.122-.939,1.759-1.436v1.458h3.623V450.106ZM740.6,461.079c-1.571.184-1.972-2.219-1.537-3.647a1.661,1.661,0,0,1,.89-1.051c.164-.034.326-.068.489-.1C742.915,456.409,742.9,460.8,740.6,461.079Z" transform="translate(-701.601 -449.978)" fill="#226cae" fill-rule="evenodd"/>
          <path id="路径_15" data-name="路径 15" d="M734.085,458.463a5.148,5.148,0,0,0-5.236-5.225,5.228,5.228,0,0,0-3.828,1.544,5.367,5.367,0,0,0-.015,7.554,5.211,5.211,0,0,0,3.813,1.525,5.341,5.341,0,0,0,3.385-1.2l-2.18-2.619a1.508,1.508,0,0,1-1.1.576,1.333,1.333,0,0,1-1.14-.614,2.721,2.721,0,0,1-.434-1.6,2.555,2.555,0,0,1,.451-1.563,1.387,1.387,0,0,1,1.164-.605,1.2,1.2,0,0,1,1.278,1.135H728.3a2.68,2.68,0,0,0-.052,1.81h5.8q.041-.492.04-.716Z" transform="translate(-701.74 -449.941)" fill="#226cae"/>
          <path id="路径_16" data-name="路径 16" d="M716.968,450.136q-1.061,4.17-2.13,8.344-1.087-4.173-2.171-8.344h-5.647v13.809h3.516V453.512h.02q1.325,5.216,2.654,10.433h3.2q1.325-5.212,2.651-10.433.014,5.216.022,10.433h3.5V450.136Z" transform="translate(-701.939 -449.978)" fill="#226cae" fill-rule="evenodd"/>
          <path id="路径_17" data-name="路径 17" d="M759.575,459.607a2.039,2.039,0,0,1-2.817,1.367c-.773-.329-1.055-1.017-1.207-1.982a2.537,2.537,0,0,1,1.407-2.914,1.8,1.8,0,0,1,2.459,1.17q1.793-.238,3.587-.477c-1.006-2.617-2.5-3.434-6.146-3.388-.475.064-.952.133-1.427.2a4.749,4.749,0,0,0-2.5,1.505,5.118,5.118,0,0,0-.971,1.787,5.3,5.3,0,0,0,1.9,5.965,8.724,8.724,0,0,0,6.363.514,4.908,4.908,0,0,0,1.745-1.129,4.693,4.693,0,0,0,1.011-1.6q.108-.31.219-.617Q761.387,459.808,759.575,459.607Z" transform="translate(-701.398 -449.939)" fill="#226cae" fill-rule="evenodd"/>
          <path id="路径_18" data-name="路径 18" d="M702,452.614h3.871V449.98H702Zm0,11.313h3.871v-10.1H702Z" transform="translate(-702 -449.98)" fill="#226cae"/>
        </g>
      </g>
    </g>
    <g id="组_7038" data-name="组 7038" transform="translate(889.972 803.975)" style="isolation: isolate">
      <path id="路径_5215" data-name="路径 5215" d="M154.683,47.774a5.173,5.173,0,1,1,5.172,5.16A5.067,5.067,0,0,1,154.683,47.774Zm9.4,0a4.256,4.256,0,1,0-4.23,4.368A4.249,4.249,0,0,0,164.085,47.774Zm-6.191-2.832h2.012c1.1,0,2.141.432,2.141,1.727a1.545,1.545,0,0,1-1.1,1.464l1.376,2.281h-1.1l-1.1-1.993h-1.273v1.993h-.968Zm1.758,2.735c.84,0,1.375-.263,1.375-.96,0-.576-.3-.983-1.3-.983h-.866v1.943Z" fill="#226cae"/>
    </g>
  </g>
</svg>
