<svg xmlns="http://www.w3.org/2000/svg" xmlns:xlink="http://www.w3.org/1999/xlink" width="352" height="352" viewBox="0 0 352 352">
  <defs>
    <clipPath id="clip-path">
      <rect id="矩形_4904" data-name="矩形 4904" width="352" height="352" transform="translate(32 22)" fill="none" stroke="#707070" stroke-width="1"/>
    </clipPath>
    <clipPath id="clip-防护服人员">
      <rect width="352" height="352"/>
    </clipPath>
  </defs>
  <g id="防护服人员" clip-path="url(#clip-防护服人员)">
    <rect width="352" height="352" fill="#fff"/>
    <g id="蒙版组_14" data-name="蒙版组 14" transform="translate(-32 -22)" clip-path="url(#clip-path)">
      <path id="路径_9986" data-name="路径 9986" d="M0,0H430V430H0Z" transform="translate(-7 -5)" fill="#cee6f9"/>
      <path id="路径_9901" data-name="路径 9901" d="M264.126,220.585c38.548,7.633,71.537,25.683,83.17,37.523,32.88,33.467,46.007,123.848,46.007,123.848h-.031l.031.268H25.56s0-.11,0-.268h0s5.907-74.312,41.762-121.819c11.76-15.581,48.9-33.01,86.931-40.014,15.249-2.809,27.1-4.237,54.567-4.121S264.126,220.585,264.126,220.585Z" transform="translate(-1.431 43.11)" fill="#fff"/>
      <g id="组_10927" data-name="组 10927" transform="translate(106.555 43.848)">
        <g id="组_10829" data-name="组 10829" transform="translate(0 0)">
          <path id="路径_9794" data-name="路径 9794" d="M-910.59,897.831c0-20.719-21.639-51.432-21.639-67.739s9.408-21.326,9.408-21.326v-18.5s-1.7-17.152,0-26.97c1.966-11.415,9.167-29.725,23.834-43.278,24.776-22.893,71.5-21.639,95.337,0,13.276,12.053,20.117,29.483,22.58,43.278,1.595,8.869,0,26.97,0,26.97V807.2s7.84,6.272,6.586,22.893-26.657,45.865-26.657,67.739c0,10.649,6.874,18.617,16.263,25.926,12.212,9.509,27.989,15.481,27.989,15.481H-955.378A110.96,110.96,0,0,0-929.3,925.59C-919.279,918.281-910.59,910.416-910.59,897.831Z" transform="translate(955.378 -703.197)" fill="#fff"/>
          <path id="路径_9825" data-name="路径 9825" d="M15.053.634a291.036,291.036,0,0,1,2.7,31.518c.676,18.669,0,43.16,0,43.16H2.7s.676-24.491,0-43.16A291.036,291.036,0,0,0,0,.634S3.822.281,7.585.281,15.053.634,15.053.634Z" transform="translate(96.533 -0.281)" fill="#45a8f3"/>
          <path id="路径_9851" data-name="路径 9851" d="M-978.5,773.014c.235-22.109,4.7-39.985,27.755-47.982s48.452-1.646,59.978,11.29c5.809,6.52-47.543,103.361-63.537,92.541S-978.732,795.124-978.5,773.014Z" transform="translate(1027.989 -652.942)" fill="#a0c5ec" opacity="0.35"/>
          <path id="路径_9823" data-name="路径 9823" d="M15.971,1.136c5.752,21.2,11.81,30.323,11.81,30.323a44.451,44.451,0,0,0-8.173.764A31.186,31.186,0,0,0,13.139,34.4S6.1,25.881,0,0C-.032-.053,15.844,1.064,15.971,1.136Z" transform="translate(122.877 222.414) rotate(-90)" fill="#45a8f3"/>
          <path id="路径_9824" data-name="路径 9824" d="M12.807,0a43.422,43.422,0,0,0,7.372,4.2A45.033,45.033,0,0,0,28.39,6.684S20.941,18.9,15.355,43.595c0,0-3.923-.676-7.762-.9a73.036,73.036,0,0,0-7.593,0C5,15.36,12.807,0,12.807,0Z" transform="translate(38.003 224.747) rotate(-90)" fill="#45a8f3"/>
          <path id="路径_9826" data-name="路径 9826" d="M5.159,4.825S9.04,3.737,12.8,2.237a33.573,33.573,0,0,0,7.174-4.175V2.237c0,12.936-6.174,16.611-6.174,38.4,0,9.548,6.5,80.205,5.527,157.588s-16.062,77.383-15.053,0S-1.25,51.487-1.25,40.635c0-15.5,6.409-23.814,6.409-33.576Z" transform="translate(111.896 177.989)" fill="#45a8f3"/>
          <path id="路径_9821" data-name="路径 9821" d="M-963.552,752.417c0,14.921-6.782,19.118-6.782,36.065s6.782,35.751,6.782,116.035c0,29.544-.918,62.484-2.122,95.88" transform="translate(1050.559 -567.506)" fill="none" stroke="#a0c5ec" stroke-linecap="round" stroke-width="4"/>
          <path id="路径_9842" data-name="路径 9842" d="M-970.969,750.938a186.285,186.285,0,0,1,2.588,36.222c-.672,18.828-2.006,95.967-2.588,143.946s5.036,131.712,6.939,75.993c1.394-40.807,2.621-81.52,2.469-94.1-.186-15.419-.47-57.272-3.057-80.088s-3.763-39.646-3.763-43.631c0-8.533,3.267-13.36,5.292-22.109a75.844,75.844,0,0,0,1.588-12.7,39.726,39.726,0,0,1-4.763-1.411A47.89,47.89,0,0,1-970.969,750.938Z" transform="translate(1048.686 -571.593)" fill="#a0c5ec" opacity="0.35"/>
          <path id="路径_9847" data-name="路径 9847" d="M-983,731.281a77.29,77.29,0,0,1,8.233,9.173c4.292,5.586,8.938,13.171,8.938,13.171A81.96,81.96,0,0,1-971,741.513a36.346,36.346,0,0,1-1.411-9.114Z" transform="translate(1015.558 -625.909)" fill="#a0c5ec" opacity="0.35"/>
          <path id="路径_9848" data-name="路径 9848" d="M-957.86,704.2s15.078,13.96,20.726,32.387,10.937,47.747,10.937,69.15c0,6.336.154,15.067.154,15.067a23,23,0,0,1-2.977,8.453,36.422,36.422,0,0,1-6.939,7.644s-.235,3.5-.706,6.7-1.176,6.115-1.176,6.115a32.993,32.993,0,0,0,20.11-24.814c2.352-15.994,7.146-20.11,7.146-20.11V787.231s2.293-19.169-1.352-32.811-10.7-26.284-19.346-34.928a56.519,56.519,0,0,0-13.524-10A76.882,76.882,0,0,0-957.86,704.2Z" transform="translate(1085.029 -700.734)" fill="#a0c5ec" opacity="0.35"/>
          <path id="路径_9849" data-name="路径 9849" d="M-887.073,738.141s-2,5.586-10.857,14.633-9.018,14.063-22.778,31.938-43.925,19.934-43.572,36.633,29.636,8,48.394,7.762,25.063,2.545,25.063,2.545-5.08-2.75-12.146-9.549a28.74,28.74,0,0,1-7.792-10.962c-4.049-8.4-2.139-17.111,2.343-28.417s11.422-22.019,16.111-31.647S-887.073,738.141-887.073,738.141Z" transform="translate(1067.281 -606.954)" fill="#a0c5ec" opacity="0.35"/>
          <path id="路径_9850" data-name="路径 9850" d="M18.525,1.984a94.608,94.608,0,0,0-3.881,15.641,105.841,105.841,0,0,0-.588,18.052s-3.822.147-7.644,0-7.644-.588-7.644-.588a95.721,95.721,0,0,1,.588-13.23A82.772,82.772,0,0,1,1.943,10.8Z" transform="translate(111.878 188.827)" fill="#1b87d9"/>
          <path id="路径_9823-2" data-name="路径 9823" d="M15.983,1.131c5.75,21.2,11.881,30.336,11.881,30.336a32.529,32.529,0,0,0-7.83,1.26,26.469,26.469,0,0,0-6.646,3.361S6.1,25.89,0,0C-.019-.058,15.87,1.06,15.983,1.131Z" transform="translate(122.877 222.425) rotate(-90)" fill="#1b87d9"/>
          <path id="路径_9852" data-name="路径 9852" d="M-984.656,740.875a248.587,248.587,0,0,0,12.76,21.874c8.173,12.642,5.641,32.93,5.641,32.93a45.927,45.927,0,0,0-1.819-13.584,150.3,150.3,0,0,0-7.174-19.581C-978.423,755.517-984.656,740.875-984.656,740.875Z" transform="translate(1010.981 -599.399)" fill="#a0c5ec" opacity="0.35"/>
          <path id="路径_9853" data-name="路径 9853" d="M15.883,20.4,15.6,24.572s-3.6-.515-7.35-.706-7.527,0-7.527,0l.235-5.351a70.748,70.748,0,0,1,7.644.529C12.36,19.545,15.883,20.4,15.883,20.4Z" transform="translate(98.52 50.106)" fill="#1b87d9" opacity="0.51"/>
        </g>
        <g id="组_10828" data-name="组 10828" transform="translate(32.385 73.894)">
          <g id="组_10818" data-name="组 10818" transform="translate(21.451)">
            <path id="路径_9811" data-name="路径 9811" d="M-928.871,722.917c-39.2,0-48.3,17.562-48.3,50.177,0,27.2,6.325,51.13,32.262,58.628.385.408,30.648.016,30.879.143,26.338-6.207,32.509-32.8,32.509-58.772C-881.516,743.242-889.669,722.917-928.871,722.917Z" transform="translate(977.167 -722.917)" fill="#ffcaab"/>
            <g id="组_10816" data-name="组 10816" transform="translate(15.99 20.507)">
              <ellipse id="椭圆_16" data-name="椭圆 16" cx="5.531" cy="5.873" rx="5.531" ry="5.873" transform="translate(50.921 10.418)"/>
              <ellipse id="椭圆_16-2" data-name="椭圆 16" cx="5.531" cy="5.873" rx="5.531" ry="5.873" transform="translate(2.539 10.418)"/>
              <path id="路径_8981" data-name="路径 8981" d="M2372.917,600.7c4-1.631,10.13-1.386,13.8,0" transform="translate(-2323.052 -599.019)" fill="none" stroke="#462a2a" stroke-linecap="round" stroke-width="2.8"/>
              <path id="路径_8982" data-name="路径 8982" d="M2386.723,601.1c-3.807-2.358-10.669-2.113-13.806,0" transform="translate(-2372.917 -599.425)" fill="none" stroke="#462a2a" stroke-linecap="round" stroke-width="2.8"/>
            </g>
          </g>
          <g id="组_10817" data-name="组 10817" transform="translate(21.255 38.392)">
            <path id="路径_9832" data-name="路径 9832" d="M-977.158,748.156c.311,25.164,6.968,48.055,32.23,55.358.385.408,30.648.016,30.879.143,25.364-5.977,32.034-29.341,32.509-55.5,0,0-19.9-3.506-29.193-7.916s-12.054-7.115-15.818-7.115-8,2.823-15.288,7.115S-977.158,748.156-977.158,748.156Z" transform="translate(977.354 -733.1)" fill="#a3e4f3"/>
            <path id="路径_9833" data-name="路径 9833" d="M-963.992,803.675h13.56c25.364-5.977,32.034-29.341,32.509-55.5,0,0-19.9-3.506-29.193-7.916-2.778-1.319-5.057-2.47-9.585-5s-6.233-2.117-6.233-2.117l2.823,18.346v32.223Z" transform="translate(1013.737 -733.119)" fill="#64b2cf" opacity="0.35"/>
            <path id="路径_9815" data-name="路径 9815" d="M969.553,565.5c5.645-2.47,9.413-5.469,11.231-5.469,1.9,0,5,2.881,11.231,5.469" transform="translate(-929.592 -556.234)" fill="none" stroke="#fff" stroke-linecap="round" stroke-width="2.4"/>
            <path id="路径_9856" data-name="路径 9856" d="M-976.764,749.13s12,14.818,35.516,5.763c6-2.47,14.937-10.911,17.523-10.82s8.585,8.115,19.287,14.465a28.994,28.994,0,0,0,20.581,3.763s.823-3.528,1.294-6.821.588-6.351.588-6.351a51.819,51.819,0,0,1-17.052.706c-8.349-1.294-19.875-13.995-26.226-13.995s-18.111,12.7-30.224,13.995-21.874-7.644-21.874-7.644Z" transform="translate(977.352 -725.597)" fill="#64b2cf" opacity="0.35"/>
          </g>
          <g id="组_10820" data-name="组 10820" transform="translate(0 8.969)">
            <g id="组_10830" data-name="组 10830" transform="translate(41.773 0.005)">
              <path id="路径_9857" data-name="路径 9857" d="M-1305.76,725.625h8.536l-15.759,51.893-9.526,2.7Z" transform="translate(1322.509 -725.625)" fill="rgba(255,255,255,0.5)"/>
              <path id="路径_9858" data-name="路径 9858" d="M-1310.275,725.625h25.167l-14.936,48.835s-10.114-7.291-13.877-8.7-9.526,3.058-9.526,3.058Z" transform="translate(1346.261 -725.625)" fill="rgba(255,255,255,0.5)"/>
              <path id="路径_9859" data-name="路径 9859" d="M-1305.983,725.539h3.646l-16.464,52.716-3.176-1.176Z" transform="translate(1371.395 -725.539)" fill="rgba(255,255,255,0.5)"/>
            </g>
            <path id="路径_9812" data-name="路径 9812" d="M-1306.854,725.628h70.062s24.084-.88,24.084,21.895-12.693,31.96-27.587,31.96-24.568-13.9-30.7-13.9-19.221,13.9-32.357,13.9-28.025-10.5-28.025-31.96S-1306.854,725.628-1306.854,725.628Z" transform="translate(1343.544 -725.624)" fill="rgba(255,255,255,0.4)" stroke="#1065af" stroke-width="4"/>
            <path id="路径_9813" data-name="路径 9813" d="M0,.3,17.64,2.12a51,51,0,0,0-4.587,10,32.775,32.775,0,0,0-1.294,9.526L0,19.113Z" transform="translate(0 3.455)" fill="#2172ba"/>
            <path id="路径_9814" data-name="路径 9814" d="M15.149-.094-.375,3.434a47.929,47.929,0,0,1,4.234,9.643,30.309,30.309,0,0,1,.823,9.291l10.467-3.41Z" transform="translate(126.916 2.375)" fill="#2172ba"/>
          </g>
        </g>
      </g>
    </g>
  </g>
</svg>
