<svg xmlns="http://www.w3.org/2000/svg" xmlns:xlink="http://www.w3.org/1999/xlink" width="352" height="352" viewBox="0 0 352 352">
  <defs>
    <clipPath id="clip-path">
      <rect id="矩形_4904" data-name="矩形 4904" width="352" height="352" transform="translate(32 22)" fill="none" stroke="#707070" stroke-width="1"/>
    </clipPath>
    <clipPath id="clip-默认女医生_">
      <rect width="352" height="352"/>
    </clipPath>
  </defs>
  <g id="默认女医生_" data-name="默认女医生 " clip-path="url(#clip-默认女医生_)">
    <rect width="352" height="352" fill="#fff"/>
    <g id="蒙版组_15" data-name="蒙版组 15" transform="translate(-32 -22)" clip-path="url(#clip-path)">
      <rect id="矩形_4861" data-name="矩形 4861" width="430" height="430" transform="translate(-7 -5)" fill="#ffe7d8"/>
      <path id="路径_9909" data-name="路径 9909" d="M264.126,219.585c38.548,7.633,71.537,26.9,83.17,38.746C380.176,291.8,393.3,382.178,393.3,382.178h-.031l.031.268H25.56s0-.11,0-.268h0s5.907-74.312,41.762-121.819c11.76-15.581,48.9-34.232,86.931-41.237,15.249-2.809,27.1-4.237,54.567-4.121S264.126,219.585,264.126,219.585Z" transform="translate(-1.431 42.888)" fill="#fff"/>
      <g id="组_10931" data-name="组 10931" transform="translate(127.987 59.734)">
        <g id="组_8986" data-name="组 8986" transform="translate(0 0)">
          <g id="组_10980" data-name="组 10980" transform="translate(0 0)">
            <g id="组_9254" data-name="组 9254" transform="translate(3.749 4.331)">
              <ellipse id="椭圆_967" data-name="椭圆 967" cx="26.371" cy="26.371" rx="26.371" ry="26.371" transform="translate(13.395 133.672)" fill="#101013"/>
              <path id="路径_9188" data-name="路径 9188" d="M114.131,10.053s10.511,1.426,23.956,12.833,21.125,46.77,24.852,52.759,3.667,37.889-14.26,57.037-32.185,32.185-65.592,31.778-48.481-9.238-66.815-34.63S4.05,78.9,13.012,65.053s3.259-47.259,45.222-60.7S114.131,10.053,114.131,10.053Z" transform="translate(-4.378 0.437)" fill="#101013"/>
            </g>
            <path id="路径_9207" data-name="路径 9207" d="M30.576,146.014C22.428,139.5,14.687,129.31,9.8,108.94s10.185-33,10.185-44.407,11.408-38.7,33.815-49.7,67.792-7.578,67.059,10.756" transform="translate(-8.822 -8.563)" fill="none" stroke="#000" stroke-linecap="round" stroke-linejoin="round" stroke-width="4"/>
          </g>
          <g id="组_8957" data-name="组 8957" transform="translate(14.523 69.617)">
            <path id="路径_8687" data-name="路径 8687" d="M574.456,600.934S582.6,615.4,594.062,621.1s8.3,20.778,10.95,20.574c3.307,0-.572-9.51,8.2-11.859,6.6-2.367,18.334,5.789,8.067,25.344s-15.4,13.933-15.4,13.933-3.718,11.754-9.662,20.859-15.339,15.563-15.339,15.563.722,23.578,13.189,29.509c0,0-.763,9.242-1.578,17.211s-1.6,14.667-1.6,14.667-18.792,4.278-36.437,4.278A154.307,154.307,0,0,1,520.3,766.9s-.742-7.774-1.6-15.736-1.922-16.114-1.922-16.114c13.325-5.182,13.279-29.536,13.279-29.536a75.6,75.6,0,0,1-14.5-15.563,114.675,114.675,0,0,1-9.839-19.454s-6.654,5.194-16.188-15.339,1.024-27.559,9.289-25.344c6.056,1.623,4.76,11.859,8.426,11.859s-.211-28.232,30.759-30.148C557.753,610.3,574.456,600.934,574.456,600.934Z" transform="translate(-485.745 -600.934)" fill="#ffcaab"/>
            <path id="路径_8689" data-name="路径 8689" d="M531.92,613.706a89.966,89.966,0,0,1-17.455,6.818A92.19,92.19,0,0,1,495.75,623a57.681,57.681,0,0,0,17.264,11.2c10.16,4.1,23.375,5.194,23.375,5.194a56.839,56.839,0,0,1-3.285-12.241A78.086,78.086,0,0,1,531.92,613.706Z" transform="translate(-435.998 -509.098)" fill="#e6785c" opacity="0.5"/>
            <path id="路径_8696" data-name="路径 8696" d="M489.566,602.555c2.856-1.81,7.94-.483,7.247,5.621s-6.556,19.311-9.734,18.822.5-8.4,0-14S486.71,604.365,489.566,602.555Z" transform="translate(-363.483 -567.395)" fill="#e6785c" opacity="0.5"/>
            <path id="路径_9903" data-name="路径 9903" d="M493.082,602.555c-2.856-1.81-7.94-.483-7.247,5.621s6.556,19.311,9.734,18.822-.5-8.4,0-14S495.939,604.365,493.082,602.555Z" transform="translate(-479.595 -567.395)" fill="#e6785c" opacity="0.5"/>
          </g>
        </g>
        <g id="组_222" data-name="组 222" transform="translate(58.012 104.096)">
          <ellipse id="椭圆_16" data-name="椭圆 16" cx="5.456" cy="5.814" rx="5.456" ry="5.814" transform="translate(46.444)" fill="#101013"/>
          <ellipse id="椭圆_16-2" data-name="椭圆 16" cx="5.456" cy="5.814" rx="5.456" ry="5.814" transform="translate(0)" fill="#101013"/>
        </g>
        <path id="形状_121" data-name="形状 121" d="M1029.017,634.06s3.239,3.336,9.961,3.336a17.093,17.093,0,0,0,10.594-3.336" transform="translate(-953.282 -482.835)" fill="none" stroke="#ab392c" stroke-linecap="round" stroke-width="4"/>
        <path id="路径_8779" data-name="路径 8779" d="M1157.317,630.587s-10.007,4.736-19.785,5.806a38.136,38.136,0,0,1-18.181-2.826" transform="translate(-1049.575 -452.905)" fill="none" stroke="#e6785c" stroke-linecap="round" stroke-width="3.6"/>
        <g id="组_10929" data-name="组 10929" transform="translate(53.124 93.823)">
          <path id="路径_8983" data-name="路径 8983" d="M2949.624,610.208c5.887-2.816,11.794-2.612,18.313,0" transform="translate(-2949.624 -608.171)" fill="none" stroke="#462a2a" stroke-linecap="round" stroke-width="2.8"/>
          <path id="路径_9914" data-name="路径 9914" d="M2949.624,610.208c5.887-2.816,11.794-2.612,18.313,0" transform="translate(-2900.735 -608.171)" fill="none" stroke="#462a2a" stroke-linecap="round" stroke-width="2.8"/>
        </g>
        <path id="路径_174" data-name="路径 174" d="M0,23.331s4.23.219,5.172-3.792S2.494,11.884,2.452,0" transform="translate(84.29 113.059) rotate(-6)" fill="none" stroke="#ab392c" stroke-linecap="round" stroke-linejoin="round" stroke-width="4"/>
      </g>
      <path id="形状_716" data-name="形状 716" d="M513.506,890.7c8.413-71.156,58.362-164.044,58.362-164.044l-33.65-17.876,33.65-15.248-13.011-59.15" transform="translate(-270.804 -357.812)" fill="none" stroke="#a0c5ec" stroke-linecap="round" stroke-linejoin="round" stroke-width="4"/>
      <path id="形状_716-2" data-name="形状 716" d="M544.031,891.9c-3.505-82.022-51.351-164.569-51.351-164.569L524.3,704.124l-35.828-13.6,10.387-56.521" transform="translate(-371.959 -359.014)" fill="none" stroke="#a0c5ec" stroke-linecap="round" stroke-linejoin="round" stroke-width="4"/>
      <path id="路径_9894" data-name="路径 9894" d="M494.587,630.583l-22.087,69.4,28.042,9.464-24.186,15.773s22.434,37.155,36.454,63.094,16.474,59.589,20.33,74.311,7.01,22.083,7.01,22.083-1.4-48.723-17.876-90.785-32.6-72.909-32.6-72.909l32.6-21.031-37.506-15.423Z" transform="translate(-369.13 -353.925)" fill="#a0c5ec" opacity="0.35"/>
      <path id="路径_9895" data-name="路径 9895" d="M551.852,631l19.98,72.558-17.876,8.413,17.876,9.114s-44.866,124.435-51.176,140.208-15.072,22.433-15.072,22.433S514,832.2,532.223,790.487s31.9-69.4,31.9-69.4l-34.351-17.526,34.351-15.072Z" transform="translate(-263.056 -352.589)" fill="#a0c5ec" opacity="0.35"/>
      <path id="路径_9915" data-name="路径 9915" d="M572.688,1572.368c1.333,11.984,2.835,27.05,4.048,43.143,3.056,40.537,4.278,87.593,4.278,87.593h53.778s1.317-38.03,3.828-75.542c.254-3.8.548-7.957.857-12.051,1.188-15.769,2.593-30.552,3.9-43.038,0,0-20.157,4.36-37.829,4.334A132.619,132.619,0,0,1,572.688,1572.368Z" transform="translate(-395.625 -1277.363)" fill="#ef7a5c"/>
      <circle id="椭圆_975" data-name="椭圆 975" cx="12.5" cy="12.5" r="12.5" transform="translate(212 360)" fill="#ff987e"/>
      <ellipse id="椭圆_977" data-name="椭圆 977" cx="12.5" cy="12" rx="12.5" ry="12" transform="translate(183 318)" fill="#ff987e"/>
      <path id="路径_9979" data-name="路径 9979" d="M6927,1137.714c3.667-6.844,24.444-7.028,37.584,18.333s12.222,58.972,12.222,58.972" transform="translate(-6687.222 -1059.492)" fill="none" stroke="#000" stroke-linecap="round" stroke-linejoin="round" stroke-width="4"/>
    </g>
  </g>
</svg>
