<svg xmlns="http://www.w3.org/2000/svg" xmlns:xlink="http://www.w3.org/1999/xlink" width="352" height="352" viewBox="0 0 352 352">
  <defs>
    <clipPath id="clip-path">
      <rect id="矩形_4904" data-name="矩形 4904" width="352" height="352" transform="translate(32 22)" fill="#d3f0ea" stroke="#707070" stroke-width="1"/>
    </clipPath>
    <clipPath id="clip-医生">
      <rect width="352" height="352"/>
    </clipPath>
  </defs>
  <g id="医生" clip-path="url(#clip-医生)">
    <rect width="352" height="352" fill="#fff"/>
    <g id="蒙版组_12" data-name="蒙版组 12" transform="translate(-32 -22)" clip-path="url(#clip-path)">
      <path id="路径_9917" data-name="路径 9917" d="M0,0H430.222V430.222H0Z" transform="translate(-7.111 -4.889)" fill="#d3f0ea"/>
      <path id="路径_98" data-name="路径 98" d="M264.126,219.585c38.548,7.633,71.537,26.9,83.17,38.746C380.176,291.8,393.3,382.178,393.3,382.178h-.031l.031.268H25.56s0-.11,0-.268h0s5.907-74.312,41.762-121.819c11.76-15.581,48.9-34.232,86.931-41.237,15.249-2.809,27.1-4.237,54.567-4.121S264.126,219.585,264.126,219.585Z" transform="translate(-1.431 42.894)" fill="#fcfcfc"/>
      <path id="形状_716" data-name="形状 716" d="M513.506,890.7c8.413-71.156,58.362-164.044,58.362-164.044l-33.65-17.876,33.65-15.248-13.011-59.15" transform="translate(-270.804 -357.812)" fill="none" stroke="#a0c5ec" stroke-linecap="round" stroke-linejoin="round" stroke-width="4"/>
      <path id="形状_716-2" data-name="形状 716" d="M544.031,891.9c-3.505-82.022-51.351-164.569-51.351-164.569L524.3,704.124l-35.828-13.6,10.387-56.521" transform="translate(-371.959 -359.014)" fill="none" stroke="#a0c5ec" stroke-linecap="round" stroke-linejoin="round" stroke-width="4"/>
      <path id="路径_9894" data-name="路径 9894" d="M494.587,630.583l-22.087,69.4,28.042,9.464-24.186,15.773s22.434,37.155,36.454,63.094,16.474,59.589,20.33,74.311,7.01,22.083,7.01,22.083-1.4-48.723-17.876-90.785-32.6-72.909-32.6-72.909l32.6-21.031-37.506-15.423Z" transform="translate(-369.13 -353.925)" fill="#a0c5ec" opacity="0.35"/>
      <path id="路径_9895" data-name="路径 9895" d="M551.852,631l19.98,72.558-17.876,8.413,17.876,9.114s-44.866,124.435-51.176,140.208-15.072,22.433-15.072,22.433S514,832.2,532.223,790.487s31.9-69.4,31.9-69.4l-34.351-17.526,34.351-15.072Z" transform="translate(-263.056 -352.589)" fill="#a0c5ec" opacity="0.35"/>
      <g id="组_10924" data-name="组 10924" transform="translate(173.664 282.448)">
        <path id="路径_9896" data-name="路径 9896" d="M1861.964,1968.34h50.325s-.321-65.241,1.961-98.363,5.35-66.31,5.35-66.31-16.1,9.3-32.51,9.3-34.1-9.341-34.1-9.341,4.145,25.181,6.578,66.348S1861.964,1968.34,1861.964,1968.34Z" transform="translate(-1852.989 -1803.629)" fill="#3eb9a3"/>
        <path id="路径_9897" data-name="路径 9897" d="M490.151,644.732s8.965,6.129,23.833,5.806,22.306-5.806,22.306-5.806" transform="translate(-478.731 -629.875)" fill="none" stroke="#22947e" stroke-linecap="round" stroke-linejoin="round" stroke-width="4"/>
      </g>
      <g id="组_10925" data-name="组 10925" transform="translate(72.246 247.685)">
        <g id="组_34_拷贝" data-name="组 34 拷贝" transform="translate(0)">
          <g id="组_209" data-name="组 209" transform="translate(5 49.95)">
            <path id="形状_72" data-name="形状 72" d="M560.995,752.1c-.561-22.913-2.962-68.159-38.629-70.825s-46.2,59.113-45,70.825" transform="translate(-467.611 -681.578)" fill="none" stroke="#f38267" stroke-width="6"/>
            <circle id="椭圆_23" data-name="椭圆 23" cx="8.769" cy="8.769" r="8.769" transform="translate(0 66.712)" fill="#f38267"/>
            <circle id="椭圆_24" data-name="椭圆 24" cx="8.769" cy="8.769" r="8.769" transform="translate(83.351 66.712)" fill="#f38267"/>
          </g>
          <path id="路径_8993" data-name="路径 8993" d="M495.407,703.025c8.5-30.5,35.585-50.134,76.938-49.811,46.728.364,78.357,27.216,87.33,77" transform="translate(-437.153 -653.21)" fill="none" stroke="#f38267" stroke-width="6"/>
        </g>
        <g id="组_210" data-name="组 210" transform="translate(204.796 75.122)">
          <rect id="矩形_13" data-name="矩形 13" width="35.451" height="35.451" rx="17.726" fill="#f38267"/>
          <rect id="矩形_14" data-name="矩形 14" width="18.735" height="18.735" rx="9" transform="translate(8.358 8.358)" fill="#ffc7b3"/>
        </g>
      </g>
      <g id="组_10908" data-name="组 10908" transform="translate(132.223 46.964)">
        <g id="组_8967" data-name="组 8967">
          <g id="组_8957" data-name="组 8957" transform="translate(0 68.222)">
            <path id="路径_8687" data-name="路径 8687" d="M500.206,622.506c0-7.954,10.472-18.905,27.742-27.691s27.115-6.946,50.065,3.317c9.042,4.044,18.924.865,25.269,5.685,7.392,5.591,8.755,18.821,8.371,21.768-.632,4.864,2.668,8.979,8.272,7.44s18.413,6.671,5.6,26.426-20.677,13.085-20.677,13.085a91.516,91.516,0,0,1-6.345,16.253c-4.092,7.865-12.384,15.048-12.384,15.048s-1.937,10.6-.916,18.223a25.361,25.361,0,0,0,5.286,12.448l-2.1,22.111s-16.37,9.322-33.194,9.322-33.422-9.322-33.422-9.322l-2.956-22.85s2.887-3.8,4.32-11.254,1.261-18.677,1.261-18.677a93.655,93.655,0,0,1-10.941-15.048,76.57,76.57,0,0,1-6.493-16.253s-10.229,3.079-21.437-13.085-2.135-26.426,7.472-26.426S500.206,630.459,500.206,622.506Z" transform="translate(-480.349 -589.199)" fill="#febf9e"/>
            <path id="路径_8688" data-name="路径 8688" d="M535.441,617.8s-10.344,9.565-24.782,9.565c-10.8,0-15.611-2.688-15.611-2.688" transform="translate(-432.288 -500.397)" fill="none" stroke="#e6785c" stroke-linecap="round" stroke-linejoin="round" stroke-width="3.6"/>
            <path id="路径_8689" data-name="路径 8689" d="M531.384,617.094s-7.309,7.182-15.694,10.182-17.848,1.819-17.848,1.819a70.88,70.88,0,0,0,16.256,8.64c10.1,3.9,19.212,6.577,19.212,6.577a32.969,32.969,0,0,1-3.069-11.766C529.76,625.741,531.384,617.094,531.384,617.094Z" transform="translate(-425.61 -502.585)" fill="#e6785c" opacity="0.5"/>
            <ellipse id="椭圆_16" data-name="椭圆 16" cx="5.346" cy="5.677" rx="5.346" ry="5.677" transform="translate(96.158 44.548)" fill="#101013"/>
            <ellipse id="椭圆_16-2" data-name="椭圆 16" cx="5.346" cy="5.677" rx="5.346" ry="5.677" transform="translate(49.39 44.548)" fill="#101013"/>
            <path id="路径_8692" data-name="路径 8692" d="M508.41,616.678c0,3.162,4.32,6.934,4.32,10.913s-4.32,6.139-4.32,6.139" transform="translate(-429.773 -547.394)" fill="none" stroke="#ab392c" stroke-linecap="round" stroke-width="4"/>
            <path id="形状_121" data-name="形状 121" d="M503.561,624.177a15.639,15.639,0,0,0,10.11,3.325,18.128,18.128,0,0,0,10.631-3.325" transform="translate(-436.47 -525.856)" fill="none" stroke="#ab392c" stroke-linecap="round" stroke-width="4"/>
            <path id="路径_8695" data-name="路径 8695" d="M495.633,602.481s-10-4.244-12.732,3.031,10.842,21.267,15.46,21.523-1.8-7.391-1.283-13.035A32.627,32.627,0,0,0,495.633,602.481Z" transform="translate(-475.503 -551.394)" fill="#e6785c" opacity="0.5"/>
            <path id="路径_8696" data-name="路径 8696" d="M488.019,601.73s8.21-1.8,9.493,3.335-8.467,20.782-13.085,21.038,2.822-8.723,2.309-14.368A23.3,23.3,0,0,1,488.019,601.73Z" transform="translate(-355.956 -550.93)" fill="#e6785c" opacity="0.5"/>
            <path id="路径_8981" data-name="路径 8981" d="M2372.917,600.66c3.869-1.576,9.792-1.339,13.345,0" transform="translate(-2277.779 -569.041)" fill="none" stroke="#462a2a" stroke-linecap="round" stroke-width="2.8"/>
            <path id="路径_8982" data-name="路径 8982" d="M2386.262,601.047c-3.679-2.28-10.312-2.043-13.345,0" transform="translate(-2325.981 -569.429)" fill="none" stroke="#462a2a" stroke-linecap="round" stroke-width="2.8"/>
          </g>
          <g id="组_8956" data-name="组 8956" transform="translate(4.128 0)">
            <path id="路径_8679" data-name="路径 8679" d="M-4634.8,3262.227c-1.028-12.828,2.413-22.311,7.582-32.692s14.213-8.055,14.213-8.055,8.375-9.95,20.7-9.95,19.427,8.687,32.061,12.792,20.847,4.424,26.216,1.9c.374,0,1.771.724,4.423,12s3.56,18.88,1.765,28.373,13.171-15.738,17.72-42.272-6.851-26.532-6.851-26.532,3.412-19.147-5.686-31.746-29.153-25.355-49.052-14.931-17.666,2.079-35.337,8.314-17.82,21.184-20.167,25.1c-1.123,1.868-7.067-4.141-15.691,2.967s-12.442,21.969-8.179,40.447S-4633.771,3275.055-4634.8,3262.227Z" transform="translate(4652.836 -3138.641)" fill="#101013"/>
            <path id="路径_8686" data-name="路径 8686" d="M402.683,621.332c-5.2-13.744-3.124-34.3,12.512-40.937s34.275,2.255,42.614-9.874" transform="translate(-372.004 -570.522)" fill="none" stroke="#000" stroke-linecap="round" stroke-linejoin="round" stroke-width="3.3"/>
            <path id="路径_8950" data-name="路径 8950" d="M3.4,17.119s12.971-9.73,23.584,6.2" transform="translate(3.929 27.053)" fill="none" stroke="#000" stroke-linecap="round" stroke-width="3.3"/>
          </g>
        </g>
        <g id="组_8960" data-name="组 8960" transform="translate(23.909 105.494)">
          <g id="矩形_3651" data-name="矩形 3651" transform="translate(57.833)" fill="none" stroke="#462a2a" stroke-width="2.4">
            <rect width="41.694" height="30.323" rx="8" stroke="none"/>
            <rect x="1.2" y="1.2" width="39.294" height="27.923" rx="6.8" fill="none"/>
          </g>
          <g id="矩形_3652" data-name="矩形 3652" transform="translate(8.558)" fill="none" stroke="#462a2a" stroke-width="2.4">
            <rect width="41.694" height="30.323" rx="8" stroke="none"/>
            <rect x="1.2" y="1.2" width="39.294" height="27.923" rx="6.8" fill="none"/>
          </g>
          <path id="路径_8700" data-name="路径 8700" d="M497.688,601.5h10.068" transform="translate(-448.62 -586.473)" fill="none" stroke="#462a2a" stroke-linecap="round" stroke-width="2.4"/>
          <path id="路径_8701" data-name="路径 8701" d="M494.519,606.114l-9.979-7.873" transform="translate(-484.539 -594.166)" fill="none" stroke="#462a2a" stroke-linecap="round" stroke-width="2.4"/>
          <path id="路径_8702" data-name="路径 8702" d="M485.38,606.462l10.552-8.347" transform="translate(-387.432 -594.515)" fill="none" stroke="#462a2a" stroke-linecap="round" stroke-width="2.4"/>
        </g>
      </g>
      <g id="组_10948" data-name="组 10948" transform="translate(132.223 46.964)">
        <g id="组_8967-2" data-name="组 8967">
          <g id="组_8957-2" data-name="组 8957" transform="translate(0 68.222)">
            <path id="路径_8687-2" data-name="路径 8687" d="M500.206,622.506c0-7.954,10.472-18.905,27.742-27.691s27.115-6.946,50.065,3.317c9.042,4.044,18.924.865,25.269,5.685,7.392,5.591,8.755,18.821,8.371,21.768-.632,4.864,2.668,8.979,8.272,7.44s18.413,6.671,5.6,26.426-20.677,13.085-20.677,13.085a91.516,91.516,0,0,1-6.345,16.253c-4.092,7.865-12.384,15.048-12.384,15.048s-1.937,10.6-.916,18.223a25.361,25.361,0,0,0,5.286,12.448l-2.1,22.111s-16.37,9.322-33.194,9.322-33.422-9.322-33.422-9.322l-2.956-22.85s2.887-3.8,4.32-11.254,1.261-18.677,1.261-18.677a93.655,93.655,0,0,1-10.941-15.048,76.57,76.57,0,0,1-6.493-16.253s-10.229,3.079-21.437-13.085-2.135-26.426,7.472-26.426S500.206,630.459,500.206,622.506Z" transform="translate(-480.349 -589.199)" fill="#ffcaab"/>
            <path id="路径_8688-2" data-name="路径 8688" d="M535.441,617.8s-10.344,9.565-24.782,9.565c-10.8,0-15.611-2.688-15.611-2.688" transform="translate(-432.288 -500.397)" fill="none" stroke="#e6785c" stroke-linecap="round" stroke-linejoin="round" stroke-width="3.6"/>
            <path id="路径_8689-2" data-name="路径 8689" d="M531.384,617.094s-7.309,7.182-15.694,10.182-17.848,1.819-17.848,1.819a70.88,70.88,0,0,0,16.256,8.64c10.1,3.9,19.212,6.577,19.212,6.577a32.969,32.969,0,0,1-3.069-11.766C529.76,625.741,531.384,617.094,531.384,617.094Z" transform="translate(-425.61 -502.585)" fill="#e6785c" opacity="0.5"/>
            <ellipse id="椭圆_16-3" data-name="椭圆 16" cx="5.346" cy="5.677" rx="5.346" ry="5.677" transform="translate(96.158 44.548)"/>
            <ellipse id="椭圆_16-4" data-name="椭圆 16" cx="5.346" cy="5.677" rx="5.346" ry="5.677" transform="translate(49.39 44.548)"/>
            <path id="路径_8692-2" data-name="路径 8692" d="M508.41,616.678c0,3.162,4.32,6.934,4.32,10.913s-4.32,6.139-4.32,6.139" transform="translate(-429.773 -547.394)" fill="none" stroke="#ab392c" stroke-linecap="round" stroke-width="4"/>
            <path id="形状_121-2" data-name="形状 121" d="M503.561,624.177a15.639,15.639,0,0,0,10.11,3.325,18.128,18.128,0,0,0,10.631-3.325" transform="translate(-436.47 -525.856)" fill="none" stroke="#ab392c" stroke-linecap="round" stroke-width="4"/>
            <path id="路径_8695-2" data-name="路径 8695" d="M495.633,602.481s-10-4.244-12.732,3.031,10.842,21.267,15.46,21.523-1.8-7.391-1.283-13.035A32.627,32.627,0,0,0,495.633,602.481Z" transform="translate(-475.503 -551.394)" fill="#e6785c" opacity="0.5"/>
            <path id="路径_8696-2" data-name="路径 8696" d="M488.019,601.73s8.21-1.8,9.493,3.335-8.467,20.782-13.085,21.038,2.822-8.723,2.309-14.368A23.3,23.3,0,0,1,488.019,601.73Z" transform="translate(-355.956 -550.93)" fill="#e6785c" opacity="0.5"/>
            <path id="路径_8981-2" data-name="路径 8981" d="M2372.917,600.66c3.869-1.576,9.792-1.339,13.345,0" transform="translate(-2277.779 -569.041)" fill="none" stroke="#462a2a" stroke-linecap="round" stroke-width="2.8"/>
            <path id="路径_8982-2" data-name="路径 8982" d="M2386.262,601.047c-3.679-2.28-10.312-2.043-13.345,0" transform="translate(-2325.981 -569.429)" fill="none" stroke="#462a2a" stroke-linecap="round" stroke-width="2.8"/>
          </g>
          <g id="组_8956-2" data-name="组 8956" transform="translate(4.128 0)">
            <path id="路径_8679-2" data-name="路径 8679" d="M-4634.8,3262.227c-1.028-12.828,2.413-22.311,7.582-32.692s14.213-8.055,14.213-8.055,8.375-9.95,20.7-9.95,19.427,8.687,32.061,12.792,20.847,4.424,26.216,1.9c.374,0,1.771.724,4.423,12s3.56,18.88,1.765,28.373,13.171-15.738,17.72-42.272-6.851-26.532-6.851-26.532,3.412-19.147-5.686-31.746-29.153-25.355-49.052-14.931-17.666,2.079-35.337,8.314-17.82,21.184-20.167,25.1c-1.123,1.868-7.067-4.141-15.691,2.967s-12.442,21.969-8.179,40.447S-4633.771,3275.055-4634.8,3262.227Z" transform="translate(4652.836 -3138.641)" fill="#101013"/>
            <path id="路径_8686-2" data-name="路径 8686" d="M402.683,621.332c-5.2-13.744-3.124-34.3,12.512-40.937s34.275,2.255,42.614-9.874" transform="translate(-372.004 -570.522)" fill="none" stroke="#000" stroke-linecap="round" stroke-linejoin="round" stroke-width="3.3"/>
            <path id="路径_8950-2" data-name="路径 8950" d="M3.4,17.119s12.971-9.73,23.584,6.2" transform="translate(3.929 27.053)" fill="none" stroke="#000" stroke-linecap="round" stroke-width="3.3"/>
          </g>
        </g>
        <g id="组_8960-2" data-name="组 8960" transform="translate(23.909 105.494)">
          <g id="矩形_3651-2" data-name="矩形 3651" transform="translate(57.833)" fill="none" stroke="#462a2a" stroke-width="2.4">
            <rect width="41.694" height="30.323" rx="8" stroke="none"/>
            <rect x="1.2" y="1.2" width="39.294" height="27.923" rx="6.8" fill="none"/>
          </g>
          <g id="矩形_3652-2" data-name="矩形 3652" transform="translate(8.558)" fill="none" stroke="#462a2a" stroke-width="2.4">
            <rect width="41.694" height="30.323" rx="8" stroke="none"/>
            <rect x="1.2" y="1.2" width="39.294" height="27.923" rx="6.8" fill="none"/>
          </g>
          <path id="路径_8700-2" data-name="路径 8700" d="M497.688,601.5h10.068" transform="translate(-448.62 -586.473)" fill="none" stroke="#462a2a" stroke-linecap="round" stroke-width="2.4"/>
          <path id="路径_8701-2" data-name="路径 8701" d="M494.519,606.114l-9.979-7.873" transform="translate(-484.539 -594.166)" fill="none" stroke="#462a2a" stroke-linecap="round" stroke-width="2.4"/>
          <path id="路径_8702-2" data-name="路径 8702" d="M485.38,606.462l10.552-8.347" transform="translate(-387.432 -594.515)" fill="none" stroke="#462a2a" stroke-linecap="round" stroke-width="2.4"/>
        </g>
      </g>
    </g>
  </g>
</svg>
