<svg xmlns="http://www.w3.org/2000/svg" xmlns:xlink="http://www.w3.org/1999/xlink" width="352" height="352" viewBox="0 0 352 352">
  <defs>
    <clipPath id="clip-path">
      <rect id="矩形_4904" data-name="矩形 4904" width="352" height="352" transform="translate(32 22)" fill="none" stroke="#707070" stroke-width="1"/>
    </clipPath>
    <clipPath id="clip-院长">
      <rect width="352" height="352"/>
    </clipPath>
  </defs>
  <g id="院长" clip-path="url(#clip-院长)">
    <rect width="352" height="352" fill="#fff"/>
    <g id="蒙版组_9" data-name="蒙版组 9" transform="translate(-32 -22)" clip-path="url(#clip-path)">
      <rect id="矩形_4861" data-name="矩形 4861" width="430" height="430" transform="translate(-7 -6)" fill="#cee6f9"/>
      <path id="路径_9908" data-name="路径 9908" d="M289.609,226.25C318.7,235.222,338.094,249.63,347.3,259c32.88,33.467,46.007,123.848,46.007,123.848h-.031l.031.268H25.56s0-.11,0-.268h0s5.907-74.312,41.762-121.819c9.032-11.966,33.035-25.743,61.257-34.775a94.868,94.868,0,0,1,13.141-8.383A99.15,99.15,0,0,1,156.387,212H262.476a110.2,110.2,0,0,1,13.444,5.867A148.6,148.6,0,0,1,289.609,226.25Z" transform="translate(-1.431 42.222)" fill="#fcfcfc"/>
      <path id="形状_716" data-name="形状 716" d="M513.506,890.7c8.413-71.156,58.362-164.044,58.362-164.044l-33.65-17.876,33.65-15.248-13.011-59.15" transform="translate(-270.804 -357.812)" fill="none" stroke="#a0c5ec" stroke-linecap="round" stroke-linejoin="round" stroke-width="4"/>
      <path id="形状_716-2" data-name="形状 716" d="M544.031,891.9c-3.505-82.022-51.351-164.569-51.351-164.569L524.3,704.124l-35.828-13.6,10.387-56.521" transform="translate(-371.959 -359.014)" fill="none" stroke="#a0c5ec" stroke-linecap="round" stroke-linejoin="round" stroke-width="4"/>
      <path id="路径_9894" data-name="路径 9894" d="M494.587,630.583l-22.087,69.4,28.042,9.464-24.186,15.773s22.434,37.155,36.454,63.094,16.474,59.589,20.33,74.311,7.01,22.083,7.01,22.083-1.4-48.723-17.876-90.785-32.6-72.909-32.6-72.909l32.6-21.031-37.506-15.423Z" transform="translate(-369.13 -353.925)" fill="#a0c5ec" opacity="0.35"/>
      <path id="路径_9895" data-name="路径 9895" d="M551.852,631l19.98,72.558-17.876,8.413,17.876,9.114s-44.866,124.435-51.176,140.208-15.072,22.433-15.072,22.433S514,832.2,532.223,790.487s31.9-69.4,31.9-69.4l-34.351-17.526,34.351-15.072Z" transform="translate(-263.056 -352.589)" fill="#a0c5ec" opacity="0.35"/>
      <path id="路径_9947" data-name="路径 9947" d="M979.412,1565.363l98.921-.03s-5.806,37.481-10.185,71.7-7.333,67.63-7.333,67.63h-66s-3.463-33.407-7.333-67.63S979.412,1565.363,979.412,1565.363Z" transform="translate(-821.037 -1278.926)" fill="#9ecef3"/>
      <path id="路径_9980" data-name="路径 9980" d="M6369.861,786.092l98.5-3.759-9,61.926s-7.454-2.241-14.991-11.407-15.481-25.259-15.481-25.259h-13.037a109.109,109.109,0,0,0-11.169,15.19c-4.714,8-17.143,21.476-17.143,21.476a167.168,167.168,0,0,0-7.715-22.191,225.134,225.134,0,0,1-8.714-24.976Z" transform="translate(-6211.111 -495.926)" fill="#3c92de" opacity="0.5"/>
      <g id="组_10961" data-name="组 10961" transform="translate(174.804 303.485)">
        <path id="路径_9934" data-name="路径 9934" d="M3565.8,281.542s8.132-1.991,14.338-4.309,10.486-9.963,10.486-9.963l-10.486-9.459s-6.317,14.809-20.71,15.015-21.831-15.015-21.831-15.015l-13.366,9.459s7.525,7.645,14.335,9.963,12.452,4.309,12.452,4.309Z" transform="translate(-3524.228 -257.811)" fill="#3c92de"/>
        <path id="路径_9937" data-name="路径 9937" d="M3576.137,262.422a29.979,29.979,0,0,1-6.163,6.51c-3.98,3.126-11.017,7.746-11.017,7.746a131.838,131.838,0,0,0,13.692-4.575,23.563,23.563,0,0,0,8.322-5.925s-1.107-.793-2.317-1.732S3576.137,262.422,3576.137,262.422Z" transform="translate(-3515.251 -253.263)" fill="#1065af" opacity="0.5"/>
        <path id="路径_9938" data-name="路径 9938" d="M3545.988,268.8a77.866,77.866,0,0,0,8.884,3.811s.056,1.147.225,2.316a5.993,5.993,0,0,1-.225,2.374s-6.626-2.365-13.125-4.628-12.872-9.424-12.872-9.424l8.059-4.812S3541.5,266.507,3545.988,268.8Z" transform="translate(-3528.327 -253.581)" fill="#1065af" opacity="0.5"/>
        <path id="路径_9940" data-name="路径 9940" d="M3135.994,411.333a62.443,62.443,0,0,0,11-8.311c4.583-4.583,11-13.689,11-13.689L3144.105,276.4h-16.222l-13.889,112.933s6.417,9.106,11,13.689A62.452,62.452,0,0,0,3135.994,411.333Z" transform="translate(-3101.576 -245.156)" fill="#3c92de"/>
        <path id="路径_9941" data-name="路径 9941" d="M3131.994,411.333a62.443,62.443,0,0,0,11-8.311c4.583-4.583,11-13.689,11-13.689L3140.105,276.4h-4.724s9.191,116.74,8.493,119.987S3131.994,411.333,3131.994,411.333Z" transform="translate(-3097.576 -245.156)" fill="#1065af" opacity="0.5"/>
        <path id="路径_9931" data-name="路径 9931" d="M3546.579,256.162c-3.435,3.052-1.289,18.869,2.361,22.476s16.1,2.5,18.036,0,6.871-20.812,3.006-22.476S3550.014,253.109,3546.579,256.162Z" transform="translate(-3523.717 -245.197)" fill="#3c92de"/>
        <path id="路径_9939" data-name="路径 9939" d="M3547.271,278.629c1.557.536,3.309,1.942,7.983,1.882s8.4-1.03,9.437-2.365c1.932-2.5,6.871-20.812,3.006-22.477-.533-.23-2.833-.789-2.833-.789s-.079,19.895-5,22.778S3547.244,278.613,3547.271,278.629Z" transform="translate(-3521.432 -244.704)" fill="#1065af" opacity="0.5"/>
      </g>
      <path id="路径_9946" data-name="路径 9946" d="M991.417,1535.857h73.642l14.425,14.156s-3.076,25.13-3.222,25.137c-2.228,6.019-15.918,47.136-15.918,47.136s-9.394-9.568-14.143-18.333a110.877,110.877,0,0,0-10.651-15.889l-3.667,5.82h-8.556l-3.667-5.82a142.1,142.1,0,0,0-10.965,15.889c-5.867,9.743-12.257,18.333-12.257,18.333s-15.078-39.931-18.054-46.41c-.283-.261-2.437-27.451-2.437-27.451Z" transform="translate(-819.519 -1285.476)" fill="#9ecef3"/>
      <g id="组_153" data-name="组 153" transform="translate(130.213 50.131)">
        <g id="组_10932" data-name="组 10932" transform="translate(0 0)">
          <g id="组_8967" data-name="组 8967" transform="translate(0)">
            <g id="组_8957" data-name="组 8957" transform="translate(0 56.499)">
              <path id="路径_8687" data-name="路径 8687" d="M614.067,623.617c0-7.953-10.473-25.016-27.742-33.8s-32-6.946-54.954,3.317c-9.042,4.044-18.924.865-25.269,5.686-7.392,5.59-8.755,24.932-8.371,27.879.632,4.864-2.668,8.979-8.272,7.44s-18.413,6.671-5.6,26.426,20.677,13.085,20.677,13.085,2.252,14.5,6.345,22.364,13.607,13.825,13.607,13.825,3.431,11.936-1.48,22.434a56.186,56.186,0,0,0,8.367,20.5c6.755,10.014,18.654,19.556,18.654,19.556l4.278,12.019h3.972l4.583-12.019s13.626-9.707,20.778-19.556a42.143,42.143,0,0,0,7.828-19.839c-6.508-9.471-2.813-23.1-2.813-23.1s9.027-6,13.386-13.825,5.27-22.364,5.27-22.364,10.229,3.079,21.437-13.085,2.135-26.426-7.472-26.426S614.067,631.57,614.067,623.617Z" transform="translate(-478.349 -584.199)" fill="#ffcaab"/>
              <path id="路径_8688" data-name="路径 8688" d="M534.711,619.718a58.075,58.075,0,0,1-25.756,6.353,59.718,59.718,0,0,1-13.907-1.824" transform="translate(-427.399 -490.192)" fill="none" stroke="#e6785c" stroke-linecap="round" stroke-linejoin="round" stroke-width="3.6"/>
              <path id="路径_8689" data-name="路径 8689" d="M531.43,618.224a143.175,143.175,0,0,1-15.291,6.544,181.906,181.906,0,0,1-20.181,5.427,141.769,141.769,0,0,0,17.809,8.206,174.086,174.086,0,0,0,20.03,5.833l.5-2.941a22.67,22.67,0,0,1-3.667-9.778C529.788,625.481,531.43,618.224,531.43,618.224Z" transform="translate(-421.139 -492.556)" fill="#e6785c" opacity="0.5"/>
              <path id="路径_8695" data-name="路径 8695" d="M486.952,602.481s10-4.244,12.732,3.031-10.842,21.267-15.46,21.523,1.8-7.391,1.283-13.035A32.627,32.627,0,0,1,486.952,602.481Z" transform="translate(-351.508 -545.283)" fill="#e6785c" opacity="0.5"/>
              <path id="路径_8696" data-name="路径 8696" d="M495.563,601.91s-11.646-4.966-12.868,4.812,10.389,18.826,12.868,18.944c5.376.256.9-8.106,1.493-13.75A20.355,20.355,0,0,0,495.563,601.91Z" transform="translate(-477.63 -544.991)" fill="#e6785c" opacity="0.5"/>
            </g>
            <g id="组_8956" data-name="组 8956" transform="translate(2.058 0)">
              <path id="路径_8679" data-name="路径 8679" d="M-4525.745,3272.455c-1.052,0,.625-10.694,0-18.578s-2.5-19.066-2.5-19.066-5,1.629-11-6.356-17.519-3.5-17.519-3.5-8.148-9.371-31.778-7.333-28.926,16.3-40.113,10.836c-.374,0-3.724,15.645-4.4,25.422s.26,18.578-1.711,18.578-16.229-13.448-20.777-39.983,8.127-33.595,8.127-33.595-2.139-13.75,6.723-18.028c9.044-3.667,40.438-30.492,69.972-25.972s31.875,22.976,34.223,26.889c1.123,1.867,11.678.244,21.21,10.267s4.645,21.022,4.645,21.022,8.372,5.989,4.4,23.711S-4523.531,3272.455-4525.745,3272.455Z" transform="translate(4656.529 -3148.787)" fill="#57575a"/>
              <path id="路径_8686" data-name="路径 8686" d="M474,616.454c6.926-10.287-1.731-27.271-20.37-33.509s-39.111-1.63-54.185,8.556" transform="translate(-355.191 -580.113)" fill="none" stroke="#4e4e54" stroke-linecap="round" stroke-linejoin="round" stroke-width="3.3"/>
              <path id="路径_8950" data-name="路径 8950" d="M26.821,24.192S16.473,9.77-.129,20.77" transform="translate(118.63 15.877)" fill="none" stroke="#4e4e54" stroke-linecap="round" stroke-width="3.3"/>
            </g>
          </g>
        </g>
        <g id="组_152" data-name="组 152" transform="translate(34.271 99.838)">
          <g id="组_149" data-name="组 149" transform="translate(0 1.419)">
            <g id="组_10959" data-name="组 10959" transform="translate(19.517 45.142)">
              <path id="路径_158" data-name="路径 158" d="M941.219,769.795a20.9,20.9,0,0,1,4.334,8.031,26.208,26.208,0,0,1,1.009,9.48" transform="translate(-896.102 -769.795)" fill="none" stroke="#e5785c" stroke-linecap="round" stroke-miterlimit="10" stroke-width="2.835" opacity="0.35"/>
              <path id="路径_159" data-name="路径 159" d="M899.713,769.795s-6.1,6.1-5.344,17.511" transform="translate(-894.305 -769.795)" fill="none" stroke="#e6785c" stroke-linecap="round" stroke-miterlimit="10" stroke-width="2.835" opacity="0.35"/>
            </g>
          </g>
          <g id="组_150" data-name="组 150" transform="translate(14.667)">
            <ellipse id="椭圆_16" data-name="椭圆 16" cx="6.18" cy="6.917" rx="6.18" ry="6.917" transform="translate(46.73 0)"/>
            <ellipse id="椭圆_16-2" data-name="椭圆 16" cx="6.18" cy="6.917" rx="6.18" ry="6.917" transform="translate(0 0)"/>
          </g>
          <path id="形状_121" data-name="形状 121" d="M907.94,779.747c4.41,4.41,16.5,5.195,21.694,0" transform="translate(-874.329 -720.025)" fill="none" stroke="#ab392c" stroke-linecap="round" stroke-width="4"/>
          <path id="路径_160" data-name="路径 160" d="M919.112,753.5c1.528,6.417,7.944,13.444,6.417,21.389s-8.556,3.667-8.556,3.667" transform="translate(-872.362 -734.19)" fill="none" stroke="#ab392c" stroke-linecap="round" stroke-width="4"/>
          <path id="路径_8981" data-name="路径 8981" d="M2372.917,600.66c3.869-1.576,9.792-1.339,13.345,0" transform="translate(-2310.039 -608.158)" fill="none" stroke="#4e4e54" stroke-linecap="round" stroke-width="2.8"/>
          <path id="路径_8982" data-name="路径 8982" d="M2386.262,601.047c-3.679-2.28-10.312-2.043-13.345,0" transform="translate(-2361.241 -608.546)" fill="none" stroke="#4e4e54" stroke-linecap="round" stroke-width="2.8"/>
        </g>
      </g>
    </g>
  </g>
</svg>
