<svg xmlns="http://www.w3.org/2000/svg" xmlns:xlink="http://www.w3.org/1999/xlink" width="352" height="352" viewBox="0 0 352 352">
  <defs>
    <clipPath id="clip-path">
      <rect id="矩形_4904" data-name="矩形 4904" width="352" height="352" transform="translate(32 22)" fill="none" stroke="#707070" stroke-width="1"/>
    </clipPath>
    <clipPath id="clip-护士">
      <rect width="352" height="352"/>
    </clipPath>
  </defs>
  <g id="护士" clip-path="url(#clip-护士)">
    <rect width="352" height="352" fill="#fff"/>
    <g id="蒙版组_16" data-name="蒙版组 16" transform="translate(-32 -22)" clip-path="url(#clip-path)">
      <rect id="矩形_4861" data-name="矩形 4861" width="430" height="430" transform="translate(-7 -5)" fill="#ffe7d8"/>
      <path id="路径_98" data-name="路径 98" d="M264.126,219.585c38.548,7.633,71.537,26.9,83.17,38.746C380.176,291.8,393.3,382.178,393.3,382.178h-.031l.031.268H25.56s0-.11,0-.268h0s5.907-74.312,41.762-121.819c11.76-15.581,48.9-34.232,86.931-41.237,15.249-2.809,27.1-4.237,54.567-4.121S264.126,219.585,264.126,219.585Z" transform="translate(-1.431 42.888)" fill="#ef7a5c"/>
      <g id="组_8987" data-name="组 8987" transform="translate(115.584 53.778)">
        <g id="组_8986" data-name="组 8986" transform="translate(0 13.263)">
          <path id="路径_8991" data-name="路径 8991" d="M23.922,176.535s15.856,9.131,32.09,4.725,13.224-2.8,45.059-1.059,36.708-2.869,56.94,1.059,34.756-4.725,34.756-4.725,6.292-19,5.723-36.8-4.112-26.25-8-34.392.4-44.564-18.544-71.453S135.89,13.722,135.89,13.722s-18.576-8.756-24.444-9.167C75.88,2.068,46.968,25.512,39.164,51.762s-5.807,38.1-9.719,46.659-10.8,21.783-11.178,41.311A118.346,118.346,0,0,0,23.922,176.535Z" transform="translate(-15.363 -4.374)" fill="#1c161a"/>
          <path id="路径_8992" data-name="路径 8992" d="M141.965,16.616C136.16-2.023,78.715-1.523,52.438,31.894S38.715,89.477,32.382,101.477s-16,24-11.667,45.667" transform="translate(-22.966 -4.518)" fill="none" stroke="#000" stroke-linecap="round" stroke-linejoin="round" stroke-width="3.3"/>
          <g id="组_8957" data-name="组 8957" transform="translate(25.073 58.115)">
            <path id="路径_8687" data-name="路径 8687" d="M556.8,607.767c14.718-5.011,20.642-10.267,20.642-10.267s5.269,11.733,10.647,17.6,15.631,17.844,22.231,15.478,18.334,5.789,8.067,25.344-15.4,13.933-15.4,13.933-2.078,12.467-7.517,21.572-9.556,12.579-14.239,14.85c-.052-.24.005,26.347,14.239,30.16s-14.483,79.84-39.905,79.84S499.34,740.5,514.5,736.439s11.978-30.16,11.978-30.16-7.612-7.3-11.978-16.133a65.462,65.462,0,0,1-5.484-19.189s-7.96,5.5-17.494-15.033,1.024-27.559,9.289-25.344c1.173.062,3.178,0,3.178,0s3.036-8.231,14.584-13.033C532.156,611.895,542.081,612.778,556.8,607.767Z" transform="translate(-487.745 -597.5)" fill="#ffcaab"/>
            <path id="路径_8689" data-name="路径 8689" d="M531.92,613.706a89.966,89.966,0,0,1-17.455,6.818A92.19,92.19,0,0,1,495.75,623a57.681,57.681,0,0,0,17.264,11.2c10.16,4.1,23.375,5.194,23.375,5.194a56.839,56.839,0,0,1-3.285-12.241A78.086,78.086,0,0,1,531.92,613.706Z" transform="translate(-438.443 -504.902)" fill="#e6785c" opacity="0.5"/>
            <path id="路径_8696" data-name="路径 8696" d="M489.566,602.555c2.856-1.81,7.94-.483,7.247,5.621s-6.556,19.311-9.734,18.822.5-8.4,0-14S486.71,604.365,489.566,602.555Z" transform="translate(-367.15 -563.199)" fill="#e6785c" opacity="0.5"/>
            <path id="路径_9903" data-name="路径 9903" d="M493.082,602.555c-2.856-1.81-7.94-.483-7.247,5.621s6.556,19.311,9.734,18.822-.5-8.4,0-14S495.939,604.365,493.082,602.555Z" transform="translate(-480.817 -563.199)" fill="#e6785c" opacity="0.5"/>
            <path id="路径_9905" data-name="路径 9905" d="M590.447,735.511c-1.827,5.238-5.507,16.721-12.553,27.61-12.451,18.563-21.769,22.532-27.107,22.532-6.476,0-16.282-6.338-27.282-22.532-6.589-9.7-10.732-21.4-13.131-27.61-.085.11,19.337,5.922,40.412,5.922S590.447,735.417,590.447,735.511Z" transform="translate(-483.232 -566.832)" fill="#fff"/>
          </g>
        </g>
        <g id="组_222" data-name="组 222" transform="translate(66.749 106.386)">
          <ellipse id="椭圆_16" data-name="椭圆 16" cx="5.456" cy="5.814" rx="5.456" ry="5.814" transform="translate(44)" fill="#101013"/>
          <ellipse id="椭圆_16-2" data-name="椭圆 16" cx="5.456" cy="5.814" rx="5.456" ry="5.814" transform="translate(0)" fill="#101013"/>
        </g>
        <path id="形状_121" data-name="形状 121" d="M1029.017,634.06s3.295,3.152,10.259,3.4,10.3-3.4,10.3-3.4" transform="translate(-944.545 -479.322)" fill="none" stroke="#ab392c" stroke-linecap="round" stroke-width="4"/>
        <path id="路径_233" data-name="路径 233" d="M1034.878,626.885c-.825,4.058,3.246,8.346,2.068,12.12a3.687,3.687,0,0,1-4.711,2.649" transform="translate(-940.43 -501.728)" fill="none" stroke="#ab392c" stroke-linecap="round" stroke-width="4"/>
        <path id="路径_8779" data-name="路径 8779" d="M1157.872,630.587s-10.292,4.8-19.614,5.6-18.217-2.765-18.217-2.765" transform="translate(-1041.317 -446.949)" fill="none" stroke="#e6785c" stroke-linecap="round" stroke-width="3.6"/>
        <g id="组_10928" data-name="组 10928" transform="translate(40.657 0)">
          <path id="路径_9904" data-name="路径 9904" d="M7.5,19.889C12.283,14.169,29.35,4,52.266,4s42.6,8.431,46.9,15.889,10.638,40.72,7.333,46.444S93.824,68.78,88.933,63.889s-19.556-9.778-36.667-9.778S20.723,58.766,15.6,63.889,3.382,71.9.169,66.333,2.722,25.609,7.5,19.889Z" transform="translate(0.761 -4)" fill="#ef7a5c"/>
          <g id="组_223" data-name="组 223" transform="translate(36.105 11.18) rotate(1)">
            <path id="路径_236" data-name="路径 236" d="M33.565,10.2A101.3,101.3,0,0,0,17.222,9.17,112.409,112.409,0,0,0,.441,11.15L0,1.8A138.554,138.554,0,0,1,17.063.035,111.879,111.879,0,0,1,33.124.85Z" transform="translate(0 8.663)" fill="#fff"/>
            <path id="路径_237" data-name="路径 237" d="M.494,28.444,0,.169,9.68,0l1.568,28.256Z" transform="translate(12.068 0)" fill="#fff"/>
          </g>
        </g>
        <g id="组_10929" data-name="组 10929" transform="translate(64.305 96.13)">
          <path id="路径_8983" data-name="路径 8983" d="M2949.624,610.427c3.482-3.233,8.456-4.725,14.923-1.243" transform="translate(-2949.624 -607.185)" fill="none" stroke="#462a2a" stroke-linecap="round" stroke-width="2.8"/>
          <path id="路径_9906" data-name="路径 9906" d="M2964.547,610.427c-3.482-3.233-8.456-4.725-14.923-1.243" transform="translate(-2904.006 -607.185)" fill="none" stroke="#462a2a" stroke-linecap="round" stroke-width="2.8"/>
        </g>
      </g>
    </g>
  </g>
</svg>
