<svg xmlns="http://www.w3.org/2000/svg" xmlns:xlink="http://www.w3.org/1999/xlink" width="352" height="352" viewBox="0 0 352 352">
  <defs>
    <clipPath id="clip-path">
      <rect id="矩形_4904" data-name="矩形 4904" width="352" height="352" transform="translate(32 22)" fill="none" stroke="#707070" stroke-width="1"/>
    </clipPath>
    <clipPath id="clip-外科医生">
      <rect width="352" height="352"/>
    </clipPath>
  </defs>
  <g id="外科医生" clip-path="url(#clip-外科医生)">
    <rect width="352" height="352" fill="#fff"/>
    <g id="蒙版组_13" data-name="蒙版组 13" transform="translate(-32 -22)" clip-path="url(#clip-path)">
      <path id="路径_9989" data-name="路径 9989" d="M0,0H430V430H0Z" transform="translate(-7 -5)" fill="#d3f0ea"/>
      <path id="路径_9898" data-name="路径 9898" d="M264.126,220.585c38.548,7.633,71.537,25.683,83.17,37.523,32.88,33.467,46.007,123.848,46.007,123.848h-.031l.031.268H25.56s0-.11,0-.268h0s5.907-74.312,41.762-121.819c11.76-15.581,48.9-33.01,86.931-40.014,15.249-2.809,27.1-4.237,54.567-4.121S264.126,220.585,264.126,220.585Z" transform="translate(-1.431 43.11)" fill="#3eb9a3"/>
      <g id="组_10926" data-name="组 10926" transform="translate(129.842 46.964)">
        <path id="路径_9238" data-name="路径 9238" d="M-430.351,1460.407l-6.34-.944-17.122,15.92s5.213,30.039,58.963,28.42,59.671-24.175,59.671-24.175l-19.1-20.165-6.368.944s-12.735,4.245-34.2,4.245S-430.351,1460.407-430.351,1460.407Z" transform="translate(472.3 -1255.215)" fill="#3eb9a3"/>
        <path id="路径_9268" data-name="路径 9268" d="M956.329,587s10.078,24.528,58.506,24.843,55.976-21.069,55.976-21.069" transform="translate(-936.191 -363.008)" fill="none" stroke="#22947e" stroke-linecap="round" stroke-linejoin="round" stroke-width="4"/>
        <g id="组_9291" data-name="组 9291" transform="translate(0 9.257)">
          <g id="组_8967" data-name="组 8967" transform="translate(0 0)">
            <g id="组_8957" data-name="组 8957" transform="translate(0 56.864)">
              <path id="路径_8687" data-name="路径 8687" d="M500.948,623.75c0-8.251,10.864-19.612,28.778-28.726s28.128-7.205,51.936,3.44c9.38,4.195,19.631.9,26.213,5.9,7.668,5.8,9.082,19.524,8.684,22.581-.656,5.045,2.768,9.315,8.582,7.718s19.1,6.92,5.813,27.413-21.45,13.573-21.45,13.573-2.7,8.106-5.057,14.9-14.372,17.566-14.372,17.566-2.01,3.66-.95,11.57,4.922,12.327,4.935,12.317c-9.5,10.934-27.225,14.372-36.852,14.372s-27.347-4.354-36.794-14.372c0,0,2.836-4.112,4.323-11.845a58.329,58.329,0,0,0,1.308-12.042,97.14,97.14,0,0,1-11.35-15.61,79.418,79.418,0,0,1-6.735-16.86s-10.612,3.194-22.238-13.573-2.215-27.413,7.751-27.413S500.948,632,500.948,623.75Z" transform="translate(-480.349 -589.199)" fill="#ffcaab"/>
              <path id="路径_8688" data-name="路径 8688" d="M540.564,617.926s-14,7.929-25.747,8.922a38,38,0,0,1-21.227-4.953" transform="translate(-433.99 -495.982)" fill="none" stroke="#e6785c" stroke-linecap="round" stroke-linejoin="round" stroke-width="3.6"/>
              <path id="路径_8689" data-name="路径 8689" d="M538.8,617.094a46.966,46.966,0,0,1-22.192,10.834c-13.174,2.262-19.969,1.776-19.969,1.776s11.618,7.325,22.225,11.084a71.831,71.831,0,0,0,20.2,3.952l3.762-3.616s-3.437-3.457-4.832-11.42S538.8,617.094,538.8,617.094Z" transform="translate(-429.075 -498.307)" fill="#e6785c" opacity="0.5"/>
              <ellipse id="椭圆_16" data-name="椭圆 16" cx="5.546" cy="5.889" rx="5.546" ry="5.889" transform="translate(99.75 45.707)"/>
              <ellipse id="椭圆_16-2" data-name="椭圆 16" cx="5.546" cy="5.889" rx="5.546" ry="5.889" transform="translate(51.235 45.707)"/>
              <path id="路径_8692" data-name="路径 8692" d="M513.807,616.37s1.2,9.284,0,13.12-6.148,4.791-6.148,4.791" transform="translate(-430.137 -545.968)" fill="none" stroke="#ab392c" stroke-linecap="round" stroke-width="1.2"/>
              <path id="形状_121" data-name="形状 121" d="M504.1,622.638a17.061,17.061,0,0,0,7.985,5.809c4.874,1.452,9.073,1.158,11.513,0" transform="translate(-441.769 -525.542)" fill="none" stroke="#ab392c" stroke-linecap="round" stroke-width="1.2"/>
              <path id="路径_8695" data-name="路径 8695" d="M496.122,602.527s-10.378-4.4-13.208,3.144S494.162,627.732,498.952,628s-1.863-7.667-1.331-13.522A33.845,33.845,0,0,0,496.122,602.527Z" transform="translate(-475.24 -549.531)" fill="#e6785c" opacity="0.5"/>
              <path id="路径_8696" data-name="路径 8696" d="M488.21,601.742s8.517-1.863,9.847,3.46-8.783,21.558-13.573,21.824,2.927-9.049,2.4-14.9A24.168,24.168,0,0,1,488.21,601.742Z" transform="translate(-351.213 -549.043)" fill="#e6785c" opacity="0.5"/>
              <path id="路径_8981" data-name="路径 8981" d="M2372.917,600.7c4.012-1.635,10.156-1.39,13.843,0" transform="translate(-2274.225 -563.758)" fill="none" stroke="#462a2a" stroke-linecap="round" stroke-width="2.8"/>
              <path id="路径_8982" data-name="路径 8982" d="M2386.76,601.108c-3.818-2.365-10.7-2.119-13.843,0" transform="translate(-2324.228 -564.165)" fill="none" stroke="#462a2a" stroke-linecap="round" stroke-width="2.8"/>
            </g>
            <g id="组_8956" data-name="组 8956" transform="translate(9.747)">
              <path id="路径_8679" data-name="路径 8679" d="M-4638.875,3251.831c1.882.126,6.434-17.024,8.255-23.821s15.091-7.4,15.091-7.4c12.964-1.583,9.435-5.1,34.2-5.1s30.151,5.1,37.028,5.1,12.99,3.421,14.151,8.356c2.75,11.7,5.35,23.1,8.335,22.862s1.807-9.2,8.175-33.491-4.482-24.528-4.482-24.528,3.3-30.9-32.077-41.273-46.227,2.357-58.727,7.782-28.33,6.264-37.629,23.585-2.83,30.5,0,41.624S-4640.758,3251.7-4638.875,3251.831Z" transform="translate(4651.388 -3148.587)" fill="#101013"/>
            </g>
          </g>
        </g>
        <g id="组_9305" data-name="组 9305" transform="translate(20.138 111.322)">
          <path id="路径_9232" data-name="路径 9232" d="M-450.106,1447.287s26.651-10.849,49.765-10.849,42.689,10.849,42.689,10.849,1.71,13.974,0,23.585a47.705,47.705,0,0,1-6.84,16.982s-11.935,16.364-38.35,16.992-36.236-12.367-39.245-16.992-5.071-6.958-7.076-16.982S-450.106,1447.287-450.106,1447.287Z" transform="translate(461.663 -1421.107)" fill="#a3e4f3"/>
          <path id="路径_9321" data-name="路径 9321" d="M-450.313,1447.287s26.651-10.849,49.765-10.849,42.689,10.849,42.689,10.849l.607,7.476s-20.031-10.021-43.3-10.021-49.765,10.021-49.765,10.021Z" transform="translate(461.869 -1421.107)" fill="#d8f8ff"/>
          <path id="路径_9325" data-name="路径 9325" d="M-412.86,1437.258s6.351,1.738,11.417,3.676a72.627,72.627,0,0,1,8.845,4.078s1.71,13.975,0,23.585a47.7,47.7,0,0,1-6.84,16.982s-5.006,6.9-16.006,12.021a57.557,57.557,0,0,1-22.344,4.971s16.021-13.735,22.253-30.062S-412.86,1437.258-412.86,1437.258Z" transform="translate(496.609 -1418.832)" fill="#64b2cf" opacity="0.35"/>
          <path id="路径_9322" data-name="路径 9322" d="M931.281,577.035s20.047-6.848,37.265-6.258a118.844,118.844,0,0,1,32.665,6.258" transform="translate(-907.166 -539.358)" fill="none" stroke="#64b2cf" stroke-linecap="round" stroke-width="2.4"/>
          <path id="路径_9323" data-name="路径 9323" d="M931.281,577.438a120.714,120.714,0,0,0,37.736,6.014c20.282-.247,31.368-6.014,31.368-6.014" transform="translate(-907.166 -517.848)" fill="none" stroke="#64b2cf" stroke-linecap="round" stroke-width="2.4"/>
          <path id="路径_9233" data-name="路径 9233" d="M-453.375,1432.437l13.5,27.055" transform="translate(453.375 -1432.202)" fill="none" stroke="#fff" stroke-linecap="round" stroke-width="2.8"/>
          <path id="路径_9234" data-name="路径 9234" d="M-451.625,1443.812l11.5,18.21" transform="translate(458.229 -1400.651)" fill="none" stroke="#fff" stroke-linecap="round" stroke-width="2.8"/>
          <path id="路径_9235" data-name="路径 9235" d="M-436.542,1432.375l-17.63,26.937" transform="translate(556.354 -1432.375)" fill="none" stroke="#fff" stroke-linecap="round" stroke-width="2.8"/>
          <path id="路径_9236" data-name="路径 9236" d="M-441.253,1443.875l-11.262,18.917" transform="translate(550.924 -1400.478)" fill="none" stroke="#fff" stroke-linecap="round" stroke-width="2.8"/>
        </g>
        <path id="路径_9237" data-name="路径 9237" d="M-443.653,1516.083c6.23,0,8.137-18.278,22.878-26.179s59.494-7.606,74.529,0,18.868,32.311,22.406,24.293c1.887-4.481,3.57-14.089,6.84-28.774,2.824-12.687,4.01-22.406,4.01-27.831,0-10.717-10.819-29.06-21.227-37.029s-24.151-17.689-50.236-17.689c-25.639,0-41.389,10.981-50.237,17.689s-21.934,27.124-21.934,37.029c0,6.621.826,12.972,4.245,27.831S-446.547,1515.545-443.653,1516.083Z" transform="translate(464.499 -1402.875)" fill="#62b0f3"/>
        <path id="路径_9294" data-name="路径 9294" d="M-447.665,1474.285c6.23,0,8.137-18.279,22.878-26.18s59.494-7.606,74.529,0,18.868,32.312,22.406,24.293c1.483-3.522,5.19-21.207,5.19-21.207s-17.75-32.282-65.863-33.226-66.654,31.1-66.654,31.1S-450.281,1473.8-447.665,1474.285Z" transform="translate(468.511 -1361.075)" fill="#1065af" opacity="0.5"/>
        <path id="路径_9324" data-name="路径 9324" d="M925.125,567.709s23.113-19.687,59.592-19.458,55.622,18.632,55.622,18.632" transform="translate(-904.102 -490.418)" fill="none" stroke="#1065af" stroke-linecap="round" stroke-linejoin="round" stroke-width="4"/>
        <path id="路径_9326" data-name="路径 9326" d="M-432.564,1478.29a98.512,98.512,0,0,1,10.912,1.848,36.894,36.894,0,0,1,8.668,2.958c15.036,7.606,18.868,32.312,22.406,24.293,1.887-4.481,3.57-14.089,6.84-28.774,2.824-12.687,4.01-22.406,4.01-27.831,0-10.716-10.819-29.06-21.227-37.028,0,0-3.334-2.5-6.427-4.609s-5.946-3.817-5.946-3.817-2.427,17.123-6.476,35.991S-432.564,1478.29-432.564,1478.29Z" transform="translate(531.236 -1396.066)" fill="#1065af" opacity="0.35"/>
      </g>
    </g>
  </g>
</svg>
