<svg xmlns="http://www.w3.org/2000/svg" width="380.002" height="266" viewBox="0 0 380.002 266">
  <g id="证书认证登录" transform="translate(0.001)">
    <g id="组_25778" data-name="组 25778">
      <path id="路径_8686" data-name="路径 8686" d="M19.383,258C-19,216.279-.294,124.1,74.781,104.143c85.683-22.777,58.772-72.756,119.671-93.168,28.613-9.6,119.708-14.559,150.6,20.851,35.919,41.174-10,84.72,14.361,119.906,12.393,17.9,34.735,79.963,8.058,105.519Z" fill="#f4fafe"/>
      <rect id="矩形_2843" data-name="矩形 2843" width="380" height="266" transform="translate(0.001)" fill="none"/>
      <line id="直线_727" data-name="直线 727" x2="365" transform="translate(6.501 258)" fill="none" stroke="#bcdfff" stroke-linecap="round" stroke-width="2"/>
    </g>
    <g id="组_10925" data-name="组 10925" transform="translate(526.064 4.796)">
      <g id="组_9231" data-name="组 9231">
        <g id="组_9227" data-name="组 9227">
          <rect id="矩形_2826" data-name="矩形 2826" width="12.711" height="46.164" transform="translate(-483.712 10.881)" fill="#e3effa" style="isolation: isolate"/>
          <rect id="矩形_2827" data-name="矩形 2827" width="8.625" height="19.158" transform="translate(-481.669 13.112)" fill="#fff" opacity="0.8" style="isolation: isolate"/>
        </g>
        <g id="组_9228" data-name="组 9228">
          <rect id="矩形_2828" data-name="矩形 2828" width="12.711" height="46.164" transform="translate(-470.038 10.881)" fill="#e3effa" style="isolation: isolate"/>
          <rect id="矩形_2829" data-name="矩形 2829" width="8.625" height="19.158" transform="translate(-467.995 13.112)" fill="#fff" opacity="0.8" style="isolation: isolate"/>
        </g>
        <g id="组_9229" data-name="组 9229">
          <rect id="矩形_2830" data-name="矩形 2830" width="12.711" height="46.164" transform="translate(-456.364 10.881)" fill="#e3effa" style="isolation: isolate"/>
          <rect id="矩形_2831" data-name="矩形 2831" width="8.625" height="19.158" transform="translate(-454.321 13.112)" fill="#fff" opacity="0.8" style="isolation: isolate"/>
        </g>
        <g id="组_9230" data-name="组 9230">
          <rect id="矩形_2832" data-name="矩形 2832" width="12.711" height="46.164" transform="translate(-442.69 10.881)" fill="#e3effa" style="isolation: isolate"/>
          <rect id="矩形_2833" data-name="矩形 2833" width="8.625" height="19.158" transform="translate(-440.647 13.112)" fill="#fff" opacity="0.8" style="isolation: isolate"/>
        </g>
      </g>
      <line id="直线_724" data-name="直线 724" x2="66.146" transform="translate(-489.919 57.045)" fill="none" stroke="#d6e7f5" stroke-miterlimit="10" stroke-width="1"/>
    </g>
    <g id="组_25553" data-name="组 25553">
      <g id="组_25587" data-name="组 25587">
        <g id="组_25551" data-name="组 25551">
          <g id="组_25584" data-name="组 25584">
            <g id="组_25546" data-name="组 25546">
              <g id="组_25545" data-name="组 25545">
                <g id="组_25586" data-name="组 25586">
                  <path id="路径_20663" data-name="路径 20663" d="M330.684,198.69s-.189-23.158-12.9-31.2c0,0,5.06,29.739,2.957,38.416l.65,18.318,9.53-6.16Z" fill="#6ececc"/>
                </g>
              </g>
            </g>
            <g id="组_25549" data-name="组 25549">
              <g id="组_25548" data-name="组 25548">
                <g id="组_25585" data-name="组 25585">
                  <path id="路径_20664" data-name="路径 20664" d="M325.669,223.3s-1.8-40.664,19.474-51.776c0,0-15.883,35.51-14.8,53.972" fill="#9bdddd"/>
                  <path id="路径_20665" data-name="路径 20665" d="M327.765,221.435s.9-28.4,21.771-34.241c0,0-16.246,24.109-13.893,37.93l-7.41-2.62Z" fill="#6ececc"/>
                  <path id="路径_20666" data-name="路径 20666" d="M327.814,225.062s.314-42.049-25.571-48.146c0,0,13.831,26.8,21.384,50.72Z" fill="#9bdddd"/>
                </g>
              </g>
            </g>
            <path id="路径_20667" data-name="路径 20667" d="M322.134,216.622l10.846.048,12.07.053-5.476,40.066-6.754-.03-1.758-.009a3.906,3.906,0,0,0-7.331-.031l-1.76-.009-6.756-.029-5.146-40.113Z" fill="#bcc5f5"/>
            <line id="直线_288" data-name="直线 288" x2="28.44" transform="translate(313.474 221.131)" fill="none" stroke="#94a9f1" stroke-linecap="round" stroke-linejoin="round" stroke-width="1.81"/>
          </g>
        </g>
      </g>
    </g>
    <g id="组_25785" data-name="组 25785" transform="translate(-11 -1)">
      <g id="组_25779" data-name="组 25779" transform="translate(123.796 13.922)">
        <path id="路径_20561" data-name="路径 20561" d="M198.342,30.044a14.727,14.727,0,0,0-14.889-16.12H323.326a14.728,14.728,0,0,1,14.953,14.5,15.129,15.129,0,0,1-.064,1.621Z" transform="translate(-119.471 -13.922)" fill="#abcdff"/>
        <path id="路径_20562" data-name="路径 20562" d="M186.8,14.423a17.71,17.71,0,0,0-17.367,16.12L155.1,218.39a17.7,17.7,0,0,1-17.357,16.121H277.624a17.711,17.711,0,0,0,17.367-16.121L309.324,30.543a17.7,17.7,0,0,1,17.353-16.12Z" transform="translate(-122.785 -13.886)" fill="#fff" stroke="#abcdff" stroke-width="1"/>
        <path id="路径_20564" data-name="路径 20564" d="M178.51,201.448c.536-6.864-1.624-12.416-8.473-12.416h107.7c6.695,0,11.26,5.608,10.974,12.416Z" transform="translate(-120.444 -1.228)" fill="#abcdff"/>
        <path id="路径_10086" data-name="路径 10086" d="M276.99,221.8a14.722,14.722,0,0,1-13.254-16.055h0a17.7,17.7,0,0,1,17.354-16.157H141.217a17.7,17.7,0,0,0-17.35,16.119l0,.038a14.729,14.729,0,0,0,14.888,16.121H278.626a14.842,14.842,0,0,1-1.634-.064Z" transform="translate(-123.796 -1.188)" fill="#fff" stroke="#abcdff" stroke-width="1"/>
      </g>
      <line id="直线_731" data-name="直线 731" x2="55.651" transform="translate(185.994 46.741)" fill="none" stroke="#a3c9ff" stroke-linecap="round" stroke-linejoin="round" stroke-width="6" opacity="0.8" style="isolation: isolate"/>
      <line id="直线_732" data-name="直线 732" x2="103.897" transform="translate(183.958 69.555)" fill="none" stroke="#abcdff" stroke-linecap="round" stroke-linejoin="round" stroke-width="4" opacity="0.6" style="isolation: isolate"/>
      <line id="直线_733" data-name="直线 733" x2="103.897" transform="translate(182.605 87.574)" fill="none" stroke="#abcdff" stroke-linecap="round" stroke-linejoin="round" stroke-width="4" opacity="0.6" style="isolation: isolate"/>
      <line id="直线_734" data-name="直线 734" x2="103.897" transform="translate(181.252 105.594)" fill="none" stroke="#abcdff" stroke-linecap="round" stroke-linejoin="round" stroke-width="4" opacity="0.6" style="isolation: isolate"/>
      <line id="直线_735" data-name="直线 735" x2="103.897" transform="translate(179.899 123.613)" fill="none" stroke="#abcdff" stroke-linecap="round" stroke-linejoin="round" stroke-width="4" opacity="0.6" style="isolation: isolate"/>
      <line id="直线_736" data-name="直线 736" x2="103.897" transform="translate(178.546 141.633)" fill="none" stroke="#abcdff" stroke-linecap="round" stroke-linejoin="round" stroke-width="4" opacity="0.6" style="isolation: isolate"/>
      <g id="组_7569" data-name="组 7569" transform="translate(254.852 151.507)">
        <path id="路径_10090" data-name="路径 10090" d="M250.013,182.884l10.333-24.343,8.406,3.568-10.321,24.312-2.847-3.783-.18-.239-.3.027Z" transform="translate(-245.702 -141.023)" fill="#fdce46"/>
        <path id="路径_10091" data-name="路径 10091" d="M257.518,162.1l8.41-3.57,10.341,24.356-5.1-.457-.3-.027-.18.239-2.85,3.784Z" transform="translate(-245.158 -141.024)" fill="#fdce46"/>
        <path id="路径_5527" data-name="路径 5527" d="M273.6,173.79l-.184-.012a2.514,2.514,0,0,0-2.426,1.419l-.076.165a2.515,2.515,0,0,1-3.356,1.179l-.029-.014-.164-.082a2.517,2.517,0,0,0-2.787.385l-.137.123a2.516,2.516,0,0,1-3.552-.2l-.014-.016-.121-.138a2.514,2.514,0,0,0-2.721-.714l-.174.06a2.515,2.515,0,0,1-3.2-1.542l-.008-.021-.059-.175a2.515,2.515,0,0,0-2.24-1.7l-.183-.014a2.515,2.515,0,0,1-2.371-2.65l0-.024.012-.184a2.518,2.518,0,0,0-1.419-2.426l-.166-.076a2.517,2.517,0,0,1-1.178-3.358l.014-.027.082-.165a2.515,2.515,0,0,0-.385-2.787l-.122-.136a2.515,2.515,0,0,1,.2-3.551l.017-.015.138-.122a2.515,2.515,0,0,0,.714-2.721l-.061-.174a2.516,2.516,0,0,1,1.543-3.2l.021-.008.174-.059a2.516,2.516,0,0,0,1.705-2.239l.01-.183a2.515,2.515,0,0,1,2.652-2.37h.023l.184.012a2.512,2.512,0,0,0,2.425-1.419l.077-.165a2.514,2.514,0,0,1,3.355-1.18l.029.014.165.081a2.513,2.513,0,0,0,2.787-.385l.136-.122a2.516,2.516,0,0,1,3.552.2l.014.016.122.138a2.511,2.511,0,0,0,2.721.714l.174-.06a2.515,2.515,0,0,1,3.2,1.543l.008.02.059.175a2.514,2.514,0,0,0,2.24,1.7l.183.011a2.515,2.515,0,0,1,2.37,2.652v.024l-.012.182a2.516,2.516,0,0,0,1.418,2.43l.166.077a2.515,2.515,0,0,1,1.179,3.356l-.014.028-.082.165a2.513,2.513,0,0,0,.385,2.787l.122.137a2.515,2.515,0,0,1-.2,3.551l-.017.015-.138.121a2.515,2.515,0,0,0-.714,2.722l.06.174a2.515,2.515,0,0,1-1.543,3.2l-.02.006-.175.06a2.512,2.512,0,0,0-1.7,2.239l-.011.184a2.515,2.515,0,0,1-2.652,2.369Z" transform="translate(-245.993 -142.207)" fill="#ffdb74"/>
        <circle id="椭圆_949" data-name="椭圆 949" cx="11.536" cy="11.536" r="11.536" transform="translate(6.54 6.542)" fill="#ffc260"/>
        <path id="路径_5528" data-name="路径 5528" d="M266.652,160.8q.217,1.007.385,1.822.077.343.139.687t.121.624c.039.187.07.345.1.477s.042.214.05.249c.026.169-.013.282-.115.338a.708.708,0,0,1-.343.083.566.566,0,0,1-.184-.044l-.186-.071-3.326-1.935q-.9.539-1.643.956l-.631.356q-.312.179-.566.332c-.171.1-.316.187-.44.254s-.206.109-.248.128a.443.443,0,0,1-.262.045.549.549,0,0,1-.242-.1.482.482,0,0,1-.16-.184.341.341,0,0,1-.025-.223l.063-.249c.034-.132.072-.29.115-.473s.091-.384.146-.6.113-.446.173-.676q.191-.79.433-1.784-.751-.647-1.35-1.157l-.5-.427c-.165-.139-.314-.268-.446-.384s-.24-.208-.325-.275-.132-.113-.141-.121a1.523,1.523,0,0,1-.261-.312.506.506,0,0,1-.084-.35.445.445,0,0,1,.14-.28.516.516,0,0,1,.254-.128l3.936-.357,1.466-3.416a1.007,1.007,0,0,1,.217-.351.5.5,0,0,1,.384-.147.428.428,0,0,1,.223.058.637.637,0,0,1,.16.134,1.278,1.278,0,0,1,.108.153c.029.051.053.094.07.128L265.279,157l3.936.369a.894.894,0,0,1,.357.154.355.355,0,0,1,.1.28.485.485,0,0,1-.108.312c-.073.089-.164.2-.275.324Z" transform="translate(-245.204 -141.417)" fill="#fff"/>
      </g>
    </g>
    <g id="组_25783" data-name="组 25783" transform="translate(-0.076 0.241)">
      <g id="组_25782" data-name="组 25782">
        <path id="路径_10055" data-name="路径 10055" d="M150.036,92.448c-2.058-.52-4.284-1.222-5.42-1.6-1.979-.647-2.351-.573-7.849,2.03a53.992,53.992,0,0,1-8.24,2.827l1.979,8.859,8.75-2.81c2.8,1.2,8.726,1.181,10.693-.239.871-.628-1.083-2.727-1.1-4.218C148.811,94.95,150.277,94.141,150.036,92.448Z" fill="#febf9e"/>
        <g id="组_25781" data-name="组 25781">
          <line id="直线_737" data-name="直线 737" x1="8.887" y2="24.153" transform="translate(144.247 85.221)" fill="none" stroke="#2a3e67" stroke-linecap="round" stroke-linejoin="round" stroke-width="4.598"/>
          <rect id="矩形_4853" data-name="矩形 4853" width="9.195" height="3.065" transform="translate(149.895 80.709) rotate(20.201)" fill="#2f8eeb"/>
          <g id="组_25780" data-name="组 25780">
            <ellipse id="椭圆_947" data-name="椭圆 947" cx="18.869" cy="18.602" rx="18.869" ry="18.602" transform="translate(135.581 72.044) rotate(-61.882)" fill="#d6e9f5" opacity="0.436"/>
            <ellipse id="椭圆_948" data-name="椭圆 948" cx="18.869" cy="18.602" rx="18.869" ry="18.602" transform="translate(135.581 72.044) rotate(-61.882)" fill="none" stroke="#53a9ff" stroke-miterlimit="10" stroke-width="2.299"/>
            <path id="路径_10087" data-name="路径 10087" d="M169.486,53.467s5.894,3.8,4.679,13.816" fill="none" stroke="#fff" stroke-linecap="round" stroke-miterlimit="10" stroke-width="2.299" opacity="0.76"/>
          </g>
        </g>
        <g id="组_25760" data-name="组 25760">
          <g id="组_25758" data-name="组 25758">
            <path id="路径_10042" data-name="路径 10042" d="M147.607,93.668c-1.726-.692-.737-1.945-.022-2.049,1.632-.238,5.07.77,5.523.893.955.263,1.513,1.887.222,2.353,1.115.561.664,2.446-.408,2.129.954.651,1.093,2.354-.588,2.336a1.153,1.153,0,0,1-.717,2.133c-1.229-.028-5.831-.249-6.144-1.758-.244-1.181,1.426-1.232,1.426-1.232-2.021-.556-1.677-2.242.217-2.194C145.858,95.958,144.7,93.577,147.607,93.668Z" fill="#febf9e"/>
            <g id="组_25757" data-name="组 25757">
              <path id="路径_10043" data-name="路径 10043" d="M153.372,95a18.54,18.54,0,0,0-5.7-1.178,1.989,1.989,0,0,0-1.336.394c-.209.211-.562.63-.146,1.536" fill="none" stroke="#e6785c" stroke-linecap="round" stroke-linejoin="round" stroke-width="0.8"/>
              <path id="路径_10044" data-name="路径 10044" d="M153.506,92.963c-.382-.358-4.1-1.859-5.541-1.3-.454.175-.963.548-.438,1.86" fill="none" stroke="#e6785c" stroke-linecap="round" stroke-linejoin="round" stroke-width="0.8"/>
              <path id="路径_10045" data-name="路径 10045" d="M152.848,97.074a17.892,17.892,0,0,0-6.622-1.015c-1.234.171-1.688,2.061.181,2.488" fill="none" stroke="#e6785c" stroke-linecap="round" stroke-linejoin="round" stroke-width="0.8"/>
              <path id="路径_10046" data-name="路径 10046" d="M152.156,99.328c-.327-.268-4.043-1.346-5.748-.781a.878.878,0,0,0-.333,1.53,4.608,4.608,0,0,0,2.937,1.039" fill="none" stroke="#e6785c" stroke-linecap="round" stroke-linejoin="round" stroke-width="0.8"/>
            </g>
          </g>
          <g id="组_25759" data-name="组 25759">
            <path id="路径_10047" data-name="路径 10047" d="M146.234,88.915c.925.412,4.063,4.58,2.746,5.563-1.436,1.075-4.825-2.989-5.071-3.569C143.5,89.939,145.156,88.436,146.234,88.915Z" fill="#febf9e"/>
            <path id="路径_10048" data-name="路径 10048" d="M148.045,90.86c.948,1.368,1.708,3.041.935,3.618-1.436,1.075-4.825-2.989-5.071-3.569" fill="none" stroke="#e6785c" stroke-linecap="round" stroke-linejoin="round" stroke-width="0.8"/>
          </g>
          <path id="路径_10049" data-name="路径 10049" d="M146.785,89.339" fill="none" stroke="#e6785c" stroke-linecap="round" stroke-linejoin="round" stroke-width="0.8"/>
        </g>
      </g>
      <path id="路径_10056" data-name="路径 10056" d="M81.574,70.751c3.413,2.053,24.177,21.435,31.139,32.256,3,4.9-8.148,10.8-12.321,8.288C94.964,108.031,78.94,94.49,77.5,91.536,72.372,81.05,72.447,65.265,81.574,70.751Z" fill="#fff"/>
      <path id="路径_10057" data-name="路径 10057" d="M134.869,92.594c-2.531.636-22.235,4.413-27.929,2.88s-11.086,5.144-9.892,11.12c2.477,12.372,27.814,2.81,40.155-1.59Z" fill="#fff"/>
      <path id="路径_10088" data-name="路径 10088" d="M137.2,105l-1.318-7c-4.447,7.751-21.648,11.128-28.864,12.3-4.791.775-9.24-1.915-11-2.064.733.528,3.144,2.277,3.726,2.653l.009.007c.225.145.44.281.638.4.043.025.091.045.135.069.07.038.142.074.214.11.038.017.075.035.114.051C108.932,115.42,127.272,108.545,137.2,105Z" fill="#a0c5ec" opacity="0.35" style="isolation: isolate"/>
      <path id="路径_10089" data-name="路径 10089" d="M91.3,104.516c3.266,2.664,6.389,5.044,8.444,6.372l.009.007c.225.145.44.281.638.4.043.025.091.045.135.069.07.038.142.074.214.11.038.017.075.035.114.051,8.077,3.895,26.417-2.98,36.349-6.521l-2.335-12.41" fill="none" stroke="#a0c5ec" stroke-linecap="round" stroke-linejoin="round" stroke-width="0.8"/>
    </g>
    <g id="组_25597" data-name="组 25597">
      <g id="组_10912" data-name="组 10912">
        <path id="形状_23-2" data-name="形状 23-2" d="M74.978,230.121s.552,14.193-2.209,15.13,8.08,5.924,15.223,6.244,13.346-3.7,13.346-3.7S97.73,246.752,95,245.617a36.44,36.44,0,0,1-4.752-2.575c-1.835-.95-1.224-12.924-1.224-12.924Z" fill="#ffb693"/>
        <g id="组_10861" data-name="组 10861">
          <path id="形状_24-2" data-name="形状 24-2" d="M95.848,248.113a12.791,12.791,0,0,1-5.682,0l3.291-3.681L90.166,242.4l-4.843,4.629a32.523,32.523,0,0,1-6.583-1.764c-2.986-1.233-5.065-2.733-5.362-2.536-.954.373-2.162,2.826-2.494,6.693a45.951,45.951,0,0,0,0,7.364H81.219v-2.81l8.871,2.81h19.186s.918-4.887-2.751-7.224a38.314,38.314,0,0,0-6.97-3.031C98.842,246.392,98.548,247.368,95.848,248.113Z" fill="#44468d"/>
          <path id="形状_24-2-2" data-name="形状 24-2-2" d="M70.769,253.964c0,1.43.115,2.82.115,2.82H81.259v-2.82l8.831,2.82h19.186a11.876,11.876,0,0,0,.03-2.82S70.75,253.946,70.769,253.964Z" fill="#353284"/>
        </g>
      </g>
      <g id="组_10913" data-name="组 10913">
        <path id="形状_23-2-2" data-name="形状 23-2-2" d="M47.1,230.121s.552,14.193-2.209,15.13,8.08,5.924,15.223,6.244,13.346-3.7,13.346-3.7-3.608-1.043-6.336-2.178a36.44,36.44,0,0,1-4.752-2.575c-1.835-.95-1.224-12.924-1.224-12.924Z" fill="#ffb693"/>
        <g id="组_10861-2" data-name="组 10861-2">
          <path id="形状_24-2-3" data-name="形状 24-2-3" d="M67.967,248.113a12.791,12.791,0,0,1-5.682,0l3.291-3.681L62.285,242.4l-4.843,4.633a32.456,32.456,0,0,1-6.583-1.764c-2.986-1.233-5.065-2.733-5.362-2.535-.954.373-2.162,2.825-2.494,6.693a45.94,45.94,0,0,0,0,7.363H53.338v-2.81l8.871,2.81H81.395s.918-4.887-2.751-7.224a38.309,38.309,0,0,0-6.97-3.03C70.961,246.392,70.667,247.368,67.967,248.113Z" fill="#595e9c"/>
          <path id="形状_24-2-4" data-name="形状 24-2-4" d="M42.888,253.964c0,1.43.115,2.82.115,2.82H53.378v-2.82l8.831,2.82H81.395a11.876,11.876,0,0,0,.03-2.82S42.869,253.946,42.888,253.964Z" fill="#44468d"/>
        </g>
      </g>
      <g id="组_8952" data-name="组 8952">
        <path id="路径_78" data-name="路径 78" d="M88.819,132.889l7.2,103.859H69.607L67.326,132.289Z" fill="#548ee8"/>
        <path id="路径_79" data-name="路径 79" d="M48.8,131.532l-7.823,107.7h31.71l-.658-106.686Z" fill="#548ee8"/>
        <path id="路径_8832" data-name="路径 8832" d="M73.855,153.281,72.52,236.446" fill="none" stroke="#2d59be" stroke-linecap="round" stroke-width="0.8"/>
        <path id="路径_8946" data-name="路径 8946" d="M93.695,200.369s-.8,14.564-2.416,22.375a93.672,93.672,0,0,1-4.039,13.94h8.672Z" fill="#2d59be" opacity="0.5" style="isolation: isolate"/>
        <path id="路径_8947" data-name="路径 8947" d="M73.168,185.438s-2.818,20.435-5.492,33.5-5.7,20.277-5.7,20.277l10.693-.11Z" fill="#2d59be" opacity="0.5" style="isolation: isolate"/>
        <path id="路径_8976" data-name="路径 8976" d="M68.27,141.874l16.2,1.822-.95-6.455L68.27,137Z" fill="#2d59be" opacity="0.51" style="isolation: isolate"/>
      </g>
      <g id="组_9024" data-name="组 9024">
        <path id="路径_158" data-name="路径 158" d="M63.658,71.791s7.626,3.037,10.441-.512c0,0,5.44,12.273,6.757,32.815s2.224,33.454,2.224,33.454H70.322S71.678,110.027,69,91.08c-.967-6.833-3.57-13.486-5.347-19.289" fill="#f28167"/>
        <path id="路径_179" data-name="路径 179" d="M69.986,83.124a1.959,1.959,0,1,1-1.958,1.96h0a1.959,1.959,0,0,1,1.958-1.959" fill="#f9998a"/>
        <path id="路径_180" data-name="路径 180" d="M76.7,89.991a1.959,1.959,0,1,1-1.958,1.96h0A1.959,1.959,0,0,1,76.7,89.992" fill="#f9998a"/>
        <path id="路径_181" data-name="路径 181" d="M74.012,99.264a1.959,1.959,0,1,1-1.958,1.96h0a1.958,1.958,0,0,1,1.958-1.958" fill="#f9998a"/>
      </g>
      <g id="组_9027" data-name="组 9027">
        <g id="组_8870" data-name="组 8870">
          <path id="形状_688" data-name="形状 688" d="M97.231,143.408c5.6,24.606,11.885,50.336,11.885,50.336l-18,6.217s-5.6-36.2-8.6-68.064c-1.326-14.107-1.391-28.071-2.8-38.2-.781-5.639-4.492-17.878-4.492-17.878l-2.06-8.074a53.419,53.419,0,0,1,6.108,1.88c2.712,1,5.753,4.542,8.361,8.254.437.622.845,1.22,1.217,1.777C88.865,79.657,91.634,118.8,97.231,143.408Z" fill="#fff"/>
          <path id="形状_688-2" data-name="形状 688" d="M91.192,104.528c1.389,12.44,3.4,27.276,6.039,38.88" fill="none" stroke="#a0c5ec" stroke-linecap="round" stroke-linejoin="round" stroke-width="0.8"/>
          <path id="形状_705" data-name="形状 705" d="M93.432,108.749" fill="none" stroke="#000" stroke-linecap="round" stroke-linejoin="round" stroke-width="1.3"/>
          <path id="形状_705-2" data-name="形状 705-2" d="M103.6,134.461" fill="none" stroke="#000" stroke-linecap="round" stroke-linejoin="round" stroke-width="1.3"/>
          <path id="形状_702" data-name="形状 702" d="M88.412,77.363" fill="none" stroke="#000" stroke-linecap="round" stroke-linejoin="round" stroke-width="1.3"/>
        </g>
        <path id="路径_8423" data-name="路径 8423" d="M62.712,68.712s-11.248,1.539-15.867,8.215c-6.05,8.742,5.44-5.656,1.623,21.5S37.641,162.6,35.557,172.659s-4.632,28.429-4.632,28.429H63.112s7.62-53.1,7.519-86.2S62.712,68.712,62.712,68.712Z" fill="#fcfcfc"/>
        <path id="路径_8651" data-name="路径 8651" d="M57.853,71.9l-.792,9.821a18.916,18.916,0,0,1,2.218.515,3.949,3.949,0,0,1,1.267.634l-2.931,3.247a49.03,49.03,0,0,1,4.2,9.307C64.162,101.911,67,112.074,67,112.074a71.909,71.909,0,0,0-2.217-10.91c-1.822-6.7-5.268-16.237-5.268-16.237l5.268-5.6-6.5.911Z" fill="#a0c5ec" opacity="0.35" style="isolation: isolate"/>
        <path id="路径_8658" data-name="路径 8658" d="M52.6,100.2l-4.635,10.429a42.76,42.76,0,0,0,6.493,4.9c4.868,3.213,12.977,7.951,12.977,7.951h0s-14.94-10.429-16.2-12.22S52.6,100.2,52.6,100.2Z" fill="#a0c5ec" opacity="0.35" style="isolation: isolate"/>
        <path id="路径_8652" data-name="路径 8652" d="M82.723,73.759a8.351,8.351,0,0,1,1.861,3.089l-1.861,2.931L85.244,82.1a46.327,46.327,0,0,1,.687,12.884A87.539,87.539,0,0,1,82.723,110.3a70.123,70.123,0,0,0,2.152-15.313,75,75,0,0,0-1.32-13.57l-4.871-3.023,4.871-2.416-4.871-5.663A29.82,29.82,0,0,1,82.723,73.759Z" fill="#a0c5ec" opacity="0.35" style="isolation: isolate"/>
        <path id="路径_8666" data-name="路径 8666" d="M57.892,71.857l.356,8.435,6.732-1.109L59.48,85A114.683,114.683,0,0,1,63.4,95.975c1.79,6,3.6,16.2,3.6,16.2" fill="none" stroke="#a0c5ec" stroke-linecap="round" stroke-linejoin="round" stroke-width="0.8"/>
        <path id="路径_8668" data-name="路径 8668" d="M78.285,70.063a34.236,34.236,0,0,1,3.052,2.983,23.984,23.984,0,0,1,2.275,3.086L78.289,78.4l5.323,3.063a65.107,65.107,0,0,1,1.214,12.726,85.922,85.922,0,0,1-2.112,16.263" fill="none" stroke="#a0c5ec" stroke-linecap="round" stroke-linejoin="round" stroke-width="0.8"/>
        <path id="路径_8948" data-name="路径 8948" d="M104.091,172.844a97.15,97.15,0,0,1-.455,12.336,74.26,74.26,0,0,1-2.257,11.227l7.722-2.653Z" fill="#a0c5ec" opacity="0.35" style="isolation: isolate"/>
        <path id="路径_8949" data-name="路径 8949" d="M64.686,189.319a30.674,30.674,0,0,1-6.673,6.944,44.446,44.446,0,0,1-9.168,4.858H63.122Z" fill="#a0c5ec" opacity="0.35" style="isolation: isolate"/>
      </g>
      <path id="路径_8960" data-name="路径 8960" d="M43.4,130.351l-1.441,8.288,27.37,5.911.447-5.96-9.029-4.4-2.455,3.842Z" fill="#a0c5ec" opacity="0.35" style="isolation: isolate"/>
      <path id="路径_162" data-name="路径 162" d="M80.912,54.691c1.856-1.071,3.118-2.923,2.693-7.6s-4.931-6.241-4.931-6.241-2.386-3.8-8.342-4.055-13.687,4.562-14.7,12.419S47.721,56.205,41.986,65.2s.687,17.681.687,17.681,3.653-5.546,5.88-7.542c4.32-3.873,9.8-4.946,13.951-6.442C66.368,67.542,80.912,54.691,80.912,54.691Z" fill="#101013"/>
      <rect id="矩形_4483" data-name="矩形 4483" width="41.143" height="30.06" transform="translate(42.617 130.863) rotate(-53.004)" fill="#595e9c"/>
      <g id="组_9026" data-name="组 9026">
        <g id="组_9023" data-name="组 9023">
          <path id="路径_166" data-name="路径 166" d="M65.918,125.349s10.735-1.427,11.228,1.639c.477,2.985-5.193,1.344-4.4,2.057s9.173,1.539,9.98,3.327-.411,2.331-.411,2.331a1.952,1.952,0,0,1-.428,1.416,3.863,3.863,0,0,1-1.646.987,9.715,9.715,0,0,1-1.185,1.054,3.623,3.623,0,0,1-1.909.69,4.444,4.444,0,0,1-1.218,1.021,4.638,4.638,0,0,1-2.051.32c-3.538.378-13.714-5.488-13.714-5.488Z" fill="#febf9e"/>
          <path id="路径_8660" data-name="路径 8660" d="M82.121,134.379s-2.176.171-8.848-1.321" fill="none" stroke="#e6785c" stroke-linecap="round" stroke-linejoin="round" stroke-width="0.8"/>
          <path id="路径_8661" data-name="路径 8661" d="M76.652,138.845a15.755,15.755,0,0,1-6.441-1.251" fill="none" stroke="#e6785c" stroke-linecap="round" stroke-linejoin="round" stroke-width="0.8"/>
          <path id="路径_8662" data-name="路径 8662" d="M79.712,136.86A44.339,44.339,0,0,1,71.9,135.7" fill="none" stroke="#e6785c" stroke-linecap="round" stroke-linejoin="round" stroke-width="0.8"/>
        </g>
        <g id="组_9025" data-name="组 9025">
          <path id="路径_163" data-name="路径 163" d="M53.224,75.832c-1.35-.467-3.052-2.155-6.7,1.487-2.614,2.931-9.118,14.04-11.965,21.368-6.968,17.93-7.894,19.635.586,26.3,6.914,5.433,23.377,12.924,23.377,12.924l8.818-14.046s-19.569-12.192-19.49-13.2,16.539-30.97,5.369-34.837" fill="#fff"/>
          <path id="路径_8659" data-name="路径 8659" d="M39.321,125.322c7.818,4.525,21.465,9.029,21.465,9.029l-2.418,3.564-14.256-7.183s-12.525-6.771-14.6-11.775a12.091,12.091,0,0,1-.449-2.154S31.5,120.8,39.321,125.322Z" fill="#a0c5ec" opacity="0.35" style="isolation: isolate"/>
          <path id="路径_8667" data-name="路径 8667" d="M67.42,123.749l-8.961,14.212" fill="none" stroke="#a0c5ec" stroke-linecap="round" stroke-linejoin="round" stroke-width="0.8"/>
          <path id="路径_8667-2" data-name="路径 8667" d="M55.112,92.338a51.019,51.019,0,0,1-2.535,8.056c-1.816,4.506-4.8,10.139-4.8,10.139a87.409,87.409,0,0,0,7.966,5.974c4.911,3.3,11.677,7.242,11.677,7.242" fill="none" stroke="#a0c5ec" stroke-linecap="round" stroke-linejoin="round" stroke-width="0.8"/>
          <path id="路径_163-2" data-name="路径 163" d="M50.067,74.49c-4.7,2.873-12.661,16.869-15.508,24.2-6.968,17.93-7.894,19.635.586,26.3,6.914,5.433,23.377,12.924,23.377,12.924" fill="none" stroke="#a0c5ec" stroke-linecap="round" stroke-linejoin="round" stroke-width="0.8"/>
        </g>
      </g>
      <path id="路径_160" data-name="路径 160" d="M80.274,58.651a12.1,12.1,0,0,0,1.3,12.1s-2.143-1-4.089-1.673a33.845,33.845,0,0,0-3.673-1.029l-.851-7.8Z" fill="#101013"/>
      <path id="路径_170" data-name="路径 170" d="M76.674,40.549a10.593,10.593,0,0,0-8.121-3.242c-5.322.127-10.966,2.636-13.053,8.744s-3.275,8.491-9.823,11.765-12.25,8.871-9.4,16.9" fill="none" stroke="#000" stroke-linecap="round" stroke-linejoin="round" stroke-width="1.2"/>
      <g id="组_9314" data-name="组 9314">
        <path id="路径_161" data-name="路径 161" d="M74.412,72.479a16.551,16.551,0,0,1-.663-3.536,3.8,3.8,0,0,1,.555-2.22,6.491,6.491,0,0,0,5.272-2.766c1.265-1.978,1.7-4.117,1.649-8.033-.041-3.515-.43-5.156-1.113-6.273a12.653,12.653,0,0,0-2.276-2.421,10.548,10.548,0,0,1-4.284,3.02c-2.422.757-4.641,1.058-5.781,2.18s-.3,2.7-.887,3.158-1.171-.849-1.369-1.774a2.176,2.176,0,0,0-1.2-1.565,2.825,2.825,0,0,0-2.8.354,3.557,3.557,0,0,0-1.021,3.831c.46,1.506,1.615,3.89,2.349,4.087s.707-.123.919.049a16.376,16.376,0,0,1,.557,5.65,3.08,3.08,0,0,1-1.536,2.614s.45.858.822,1.653.663,1.525.663,1.525a16.816,16.816,0,0,0,5.743,1.067C73.726,73.232,74.412,72.479,74.412,72.479Z" fill="#febf9e"/>
        <path id="路径_172" data-name="路径 172" d="M73.538,53.891a.922.922,0,1,1-.908.936c0-.023,0-.046,0-.069v-.01a.885.885,0,0,1,.9-.857" fill="#101013"/>
        <path id="路径_173" data-name="路径 173" d="M79.456,54.21a.792.792,0,0,1,.678.875.772.772,0,0,1-.773.769h-.007a.83.83,0,0,1,.1-1.644h0" fill="#101013"/>
        <path id="路径_174" data-name="路径 174" d="M77.087,59.285s1.137.03,1.244-.816-.891-1.175-1.4-3" fill="none" stroke="#ab392c" stroke-linecap="round" stroke-linejoin="round" stroke-width="0.8"/>
        <path id="路径_175" data-name="路径 175" d="M75.312,61.815a2.248,2.248,0,0,0,1.406.514,2.045,2.045,0,0,0,1.329-.24" fill="none" stroke="#ab392c" stroke-linecap="round" stroke-width="0.8"/>
        <path id="路径_176" data-name="路径 176" d="M63.359,57.032l2.144-.781-1.217-.986" fill="none" stroke="#e6785c" stroke-linecap="round" stroke-linejoin="round" stroke-width="0.8"/>
        <path id="路径_8833" data-name="路径 8833" d="M73.762,66.963a8.9,8.9,0,0,1-4.033-1.775" fill="none" stroke="#e6785c" stroke-linecap="round" stroke-width="0.8"/>
        <path id="路径_8834" data-name="路径 8834" d="M73.832,69.765a5.394,5.394,0,0,1-.054-1.594,4.755,4.755,0,0,1,.508-1.446,12.142,12.142,0,0,1-2.145-.321,8.744,8.744,0,0,1-1.735-.659,9.085,9.085,0,0,0,1.335,2.178A12.019,12.019,0,0,0,73.832,69.765Z" fill="#e6785c" opacity="0.5" style="isolation: isolate"/>
        <path id="路径_8835" data-name="路径 8835" d="M65.034,55.173s-.773-2.762-2.3-1.958-1.871,2.074-.952,3.693,2.7,2.236,2.685.039S65.034,55.173,65.034,55.173Z" fill="#e6785c" opacity="0.5" style="isolation: isolate"/>
        <path id="路径_8980" data-name="路径 8980" d="M78.63,52.244a2.239,2.239,0,0,1,1.715-.094" fill="none" stroke="#462a2a" stroke-linecap="round" stroke-width="0.8"/>
        <path id="路径_8990" data-name="路径 8990" d="M71.8,52.173a2.954,2.954,0,0,1,2.576-.238" fill="none" stroke="#462a2a" stroke-linecap="round" stroke-width="0.8"/>
      </g>
    </g>
    <path id="路径_10092" data-name="路径 10092" d="M106.94,95.474c.266,2.067-.109,4.982-1.217,6" fill="none" stroke="#a0c5ec" stroke-linecap="round" stroke-linejoin="round" stroke-width="0.8"/>
    <g id="组_25786" data-name="组 25786" transform="translate(376.278 -255.8)">
      <path id="路径_10093" data-name="路径 10093" d="M-57.733,318.535l13.066-3.813,13.054,3.813v7.82A19.1,19.1,0,0,1-44.672,344.47a19.1,19.1,0,0,1-13.061-18.118Z" fill="none" stroke="#d9e6ed" stroke-linejoin="round" stroke-width="2"/>
      <path id="路径_10094" data-name="路径 10094" d="M-52.3,326.808l5.079,5.079,8.707-8.707" transform="translate(1.092 1.699)" fill="none" stroke="#d9e6ed" stroke-linecap="round" stroke-linejoin="round" stroke-width="2"/>
    </g>
    <path id="路径_10056-2" data-name="路径 10056" d="M81.574,70.751c2.507,1.508,14.375,12.365,23.259,22.312" transform="translate(-0.076 0.241)" fill="none" stroke="#a0c5ec" stroke-linecap="round" stroke-linejoin="round" stroke-width="0.8"/>
  </g>
</svg>
