<svg xmlns="http://www.w3.org/2000/svg" xmlns:xlink="http://www.w3.org/1999/xlink" width="380.002" height="266" viewBox="0 0 380.002 266">
  <defs>
    <clipPath id="clip-path">
      <circle id="椭圆_940" data-name="椭圆 940" cx="23.264" cy="23.264" r="23.264" transform="translate(-879.625 71.989)" fill="none"/>
    </clipPath>
    <clipPath id="clip-path-2">
      <path id="路径_9918" data-name="路径 9918" d="M-984.844,254.28c2.4,2.351,4.779,1.863,9.618,1.863s7.292.426,9.734-1.863c4.839-4.539,0-18.154,0-18.154h-19.352S-989.683,249.524-984.844,254.28Z" fill="none"/>
    </clipPath>
  </defs>
  <g id="默认登录" transform="translate(1010.002)">
    <path id="路径_8686" data-name="路径 8686" d="M-990.618,258c-38.387-41.721-19.677-133.9,55.4-153.857,85.683-22.777,58.772-72.756,119.671-93.168,28.613-9.6,119.708-14.559,150.6,20.851,35.919,41.174-10,84.72,14.361,119.906,12.393,17.9,34.735,79.963,8.058,105.519Z" fill="#f4fafe"/>
    <g id="组_25627" data-name="组 25627">
      <g id="组_9194" data-name="组 9194">
        <rect id="矩形_2818" data-name="矩形 2818" width="262.689" height="184.224" rx="7.866" transform="translate(-987.705 16.821)" fill="#fff" stroke="#abcdff" stroke-width="1"/>
        <path id="矩形_2819" data-name="矩形 2819" d="M-980.873,16.823H-732.26a6.838,6.838,0,0,1,6.832,6.843V40.172H-987.706V23.664A6.838,6.838,0,0,1-980.873,16.823Z" fill="#a3c9ff"/>
        <path id="路径_8555" data-name="路径 8555" d="M-969.321,29.547a4.266,4.266,0,0,1-4.267,4.265,4.266,4.266,0,0,1-4.265-4.267,4.266,4.266,0,0,1,4.266-4.265h0a4.266,4.266,0,0,1,4.266,4.266Z" fill="#fff"/>
        <path id="路径_8556" data-name="路径 8556" d="M-956.677,29.547a4.266,4.266,0,0,1-4.267,4.267,4.266,4.266,0,0,1-4.267-4.267,4.266,4.266,0,0,1,4.267-4.267h.018a4.249,4.249,0,0,1,4.249,4.249h0Z" fill="#fff"/>
        <path id="路径_8557" data-name="路径 8557" d="M-944.59,29.547a4.266,4.266,0,0,1-4.267,4.265,4.266,4.266,0,0,1-4.265-4.267,4.266,4.266,0,0,1,4.266-4.265h0A4.269,4.269,0,0,1-944.59,29.547Z" fill="#fff"/>
      </g>
      <g id="组_9293" data-name="组 9293">
        <g id="组_25622" data-name="组 25622">
          <path id="矩形_2839" data-name="矩形 2839" d="M-905.766,129.951h98.81a5.821,5.821,0,0,1,5.821,5.821h0a5.821,5.821,0,0,1-5.821,5.821h-98.81a5.821,5.821,0,0,1-5.821-5.821h0A5.821,5.821,0,0,1-905.766,129.951Z" fill="#e2effe"/>
          <rect id="矩形_2841" data-name="矩形 2841" width="50.924" height="2.933" rx="1.466" transform="translate(-881.823 134.305)" fill="#abcdff"/>
        </g>
        <g id="组_25624" data-name="组 25624">
          <g id="组_25623" data-name="组 25623" clip-path="url(#clip-path)">
            <g id="组_9288" data-name="组 9288">
              <circle id="椭圆_285" data-name="椭圆 285" cx="23.264" cy="23.264" r="23.264" transform="translate(-879.625 71.989)" fill="#abcdff" opacity="0.33" style="isolation: isolate"/>
              <circle id="椭圆_286" data-name="椭圆 286" cx="10.685" cy="10.685" r="10.685" transform="translate(-867.046 78.94)" fill="#abcdff"/>
              <circle id="椭圆_287" data-name="椭圆 287" cx="18.705" cy="18.705" r="18.705" transform="translate(-875.066 96.458)" fill="#abcdff"/>
            </g>
          </g>
        </g>
        <g id="组_25626" data-name="组 25626">
          <path id="矩形_2840" data-name="矩形 2840" d="M-905.766,152.352h98.81a5.821,5.821,0,0,1,5.821,5.821h0a5.821,5.821,0,0,1-5.821,5.821h-98.81a5.821,5.821,0,0,1-5.821-5.821h0A5.821,5.821,0,0,1-905.766,152.352Z" fill="#e2effe"/>
          <g id="组_25625" data-name="组 25625">
            <path id="路径_9908" data-name="路径 9908" d="M-879.424,159.96l.791-1.368-1.427-.634.288-.888,1.536.348.155-1.583h.947l.145,1.583,1.535-.348.288.888-1.44.634.8,1.368-.756.551-1.055-1.2-1.056,1.2Z" fill="#abcdff"/>
            <path id="路径_9909" data-name="路径 9909" d="M-873.352,159.96l.791-1.368-1.426-.634.288-.888,1.535.348.155-1.583h.947l.145,1.583,1.535-.348.288.888-1.439.634.8,1.368-.755.551-1.056-1.2-1.056,1.2Z" fill="#abcdff"/>
            <path id="路径_9910" data-name="路径 9910" d="M-867.28,159.96l.791-1.368-1.427-.634.288-.888,1.535.348.155-1.583h.948l.144,1.583,1.535-.348.288.888-1.439.634.8,1.368-.756.551-1.056-1.2-1.056,1.2Z" fill="#abcdff"/>
            <path id="路径_9911" data-name="路径 9911" d="M-861.208,159.96l.791-1.368-1.427-.634.288-.888,1.535.348.156-1.583h.947l.144,1.583,1.536-.348.288.888-1.44.634.8,1.368-.756.551-1.056-1.2-1.055,1.2Z" fill="#abcdff"/>
            <path id="路径_9912" data-name="路径 9912" d="M-855.136,159.96l.791-1.368-1.427-.634.288-.888,1.536.348.155-1.583h.947l.145,1.583,1.535-.348.288.888-1.44.634.8,1.368-.756.551-1.055-1.2-1.056,1.2Z" fill="#abcdff"/>
            <path id="路径_9913" data-name="路径 9913" d="M-849.065,159.96l.791-1.368-1.426-.634.288-.888,1.535.348.155-1.583h.947l.145,1.583,1.535-.348.288.888-1.439.634.8,1.368-.755.551-1.056-1.2-1.056,1.2Z" fill="#abcdff"/>
            <path id="路径_9914" data-name="路径 9914" d="M-842.992,159.96l.791-1.368-1.427-.634.288-.888,1.535.348.155-1.583h.948l.144,1.583,1.535-.348.288.888-1.439.634.8,1.368-.756.551-1.056-1.2-1.055,1.2Z" fill="#abcdff"/>
            <path id="路径_9915" data-name="路径 9915" d="M-836.92,159.96l.791-1.368-1.427-.634.288-.888,1.535.348.156-1.583h.947l.145,1.583,1.535-.348.288.888-1.44.634.8,1.368-.756.551-1.056-1.2-1.055,1.2Z" fill="#abcdff"/>
          </g>
        </g>
      </g>
    </g>
    <g id="组_9180" data-name="组 9180" transform="translate(3 -5.85)">
      <circle id="椭圆_270" data-name="椭圆 270" cx="18.563" cy="18.563" r="18.563" transform="translate(-678.358 7.82)" fill="#e2effa"/>
      <circle id="椭圆_271" data-name="椭圆 271" cx="15.807" cy="15.807" r="15.807" transform="translate(-675.595 10.583)" fill="#f9fcfe" opacity="0.8"/>
      <path id="路径_8578" data-name="路径 8578" d="M-673.205,34.746c-1.176-13.036,5.377-24.166,20.262-22.592a15.777,15.777,0,0,1,5.924,4.922A15.806,15.806,0,0,0-669.1,13.619,15.806,15.806,0,0,0-672.56,35.7q.3.405.616.791A15.688,15.688,0,0,1-673.205,34.746Z" fill="#f4f9fd" style="mix-blend-mode: multiply;isolation: isolate"/>
      <path id="联合_1" data-name="联合 1" d="M996-2771.319a1.5,1.5,0,0,1,.751-1.3v-12.2a.75.75,0,0,1,.75-.75.751.751,0,0,1,.751.75v12.016l7.156-5.675a.753.753,0,0,1,1.054.122.751.751,0,0,1-.122,1.054l-7.345,5.826a1.513,1.513,0,0,1,.008.153,1.5,1.5,0,0,1-1.5,1.5A1.5,1.5,0,0,1,996-2771.319Z" transform="translate(-1657.286 2797.708)" fill="#d7e6f4" stroke="rgba(0,0,0,0)" stroke-miterlimit="10" stroke-width="1"/>
    </g>
    <rect id="矩形_2843" data-name="矩形 2843" width="380" height="266" transform="translate(-1010)" fill="none"/>
    <line id="直线_727" data-name="直线 727" x2="365" transform="translate(-1003.5 258)" fill="none" stroke="#bcdfff" stroke-linecap="round" stroke-width="2"/>
    <g id="组_9153" data-name="组 9153">
      <g id="组_663" data-name="组 663">
        <path id="路径_4488" data-name="路径 4488" d="M-974.634,201.13a86.9,86.9,0,0,0-4.717-12.608,17.464,17.464,0,0,1-1.419-3.66,8.117,8.117,0,0,1,1.06-5.992A3.5,3.5,0,0,1-976.995,177c1.481-.008,2.54,1.421,3.144,2.778a21.03,21.03,0,0,1,1.449,10.386,54.869,54.869,0,0,1-2.214,10.35" fill="#aae4e4"/>
        <path id="路径_4489" data-name="路径 4489" d="M-975.337,204.39c2.256-.952,3.483-3.375,4.334-5.674s1.584-4.786,3.42-6.412a2.264,2.264,0,0,1,2.137-.687,2.181,2.181,0,0,1,1.216,1.666c.56,2.463-.73,5-2.43,6.867a16.235,16.235,0,0,1-7.11,4.547,1.458,1.458,0,0,1-1.4-.069" fill="#93ded1"/>
        <path id="路径_4490" data-name="路径 4490" d="M-975.206,204.313a10.31,10.31,0,0,1-5.115-2.509,8.75,8.75,0,0,1-2.386-2.656,3.7,3.7,0,0,1-.1-3.448,1.677,1.677,0,0,1,.669-.692,1.546,1.546,0,0,1,.755-.138A2.983,2.983,0,0,1-979.31,196a8.74,8.74,0,0,1,1.21,2.093l2.778,6.017" fill="#54c0b9"/>
        <path id="路径_4491" data-name="路径 4491" d="M-968.8,208.029c3.87-2.8,5.059-8.1,8.442-11.484,1.088-1.081,2.756-1.978,4.094-1.226a2.777,2.777,0,0,1,1.148,2.921,6.494,6.494,0,0,1-1.6,2.9,21.823,21.823,0,0,1-12.058,7.208" fill="#54c0b9"/>
        <path id="路径_4492" data-name="路径 4492" d="M-971.155,210.024a26.157,26.157,0,0,1,8.414-.538,7.261,7.261,0,0,1,3.216.9A3.042,3.042,0,0,1-958,213.2a3.07,3.07,0,0,1-2.877,2.382,7.343,7.343,0,0,1-3.855-1.041,27.167,27.167,0,0,1-5.028-3.327,2.417,2.417,0,0,0-1.37-.725" fill="#cbece2"/>
        <path id="路径_4493" data-name="路径 4493" d="M-971.647,223.745a10.259,10.259,0,0,1,.392-5.235,3.577,3.577,0,0,1,.7-1.273,1.55,1.55,0,0,1,1.3-.53A1.744,1.744,0,0,1-967.972,218a3.843,3.843,0,0,1-.465,3.048,8.122,8.122,0,0,1-2.185,2.283" fill="#54c0b9"/>
        <path id="路径_4494" data-name="路径 4494" d="M-970.705,223.108l4.062-1.9c1.842-.859,3.929-1.736,5.835-1.029a2.562,2.562,0,0,1,1.676,1.692,2.352,2.352,0,0,1-.97,2.321,4.343,4.343,0,0,1-2.508.75c-3.012.083-5.92-1.587-8.911-1.245" fill="#93ded1"/>
        <path id="路径_4495" data-name="路径 4495" d="M-976.162,225.258c-.051-.925-.964-1.529-1.785-1.955a44.04,44.04,0,0,0-7.16-2.93,2.667,2.667,0,0,1-1.763-1.12,1.562,1.562,0,0,1,.025-1.287,2.66,2.66,0,0,1,2.8-1.349,6.435,6.435,0,0,1,2.964,1.434,14.005,14.005,0,0,1,4.831,5.978" fill="#62bbad"/>
        <path id="路径_4496" data-name="路径 4496" d="M-980.49,210.807a2.041,2.041,0,0,0-1.668-.1c-3.135.787-6,2.552-9.2,3.039-1,.154-2.228.067-2.715-.817a2.434,2.434,0,0,1,.677-2.619,7.893,7.893,0,0,1,5.653-2.652A7.893,7.893,0,0,1-981.955,210" fill="#54c0b9"/>
        <path id="路径_4497" data-name="路径 4497" d="M-981.282,210.249a23.106,23.106,0,0,0-7.4-5.841c-1.5-.745-3.072-1.327-4.518-2.167a8.032,8.032,0,0,1-3.451-3.519,4.3,4.3,0,0,1,.649-4.675,4.534,4.534,0,0,1,5.124-.508,11.413,11.413,0,0,1,3.929,3.772,51.734,51.734,0,0,1,5.246,9.07,7,7,0,0,1,.854,4.191" fill="#aae4d0"/>
        <path id="路径_4498" data-name="路径 4498" d="M-976.136,214.652a99.081,99.081,0,0,0,7.322-6.8" fill="none" stroke="#39a19a" stroke-linecap="round" stroke-miterlimit="10.005" stroke-width="2.001"/>
        <path id="路径_4499" data-name="路径 4499" d="M-975.7,226.836a64.388,64.388,0,0,1,5.506-3.906" fill="none" stroke="#39a19a" stroke-linecap="round" stroke-miterlimit="10.005" stroke-width="2.001"/>
        <path id="路径_4500" data-name="路径 4500" d="M-976.57,215.748a32.839,32.839,0,0,0-4.682-5.714,1.436,1.436,0,0,0-.38-.3" fill="none" stroke="#2e7018" stroke-miterlimit="10.005" stroke-width="0.015"/>
        <path id="路径_4501" data-name="路径 4501" d="M-975.422,234.519c-1.064-9.054-1.1-24.569.742-33.5" fill="none" stroke="#39a19a" stroke-linecap="round" stroke-miterlimit="10.005" stroke-width="2.001"/>
        <path id="路径_9062" data-name="路径 9062" d="M-976.2,218.069s-4.192-4.7-5.032-7.67" fill="none" stroke="#39a19a" stroke-linecap="round" stroke-miterlimit="4.002" stroke-width="2.001"/>
      </g>
      <g id="组_666" data-name="组 666">
        <path id="路径_4502" data-name="路径 4502" d="M-982.846,253.535h15.757l1.6-17.411h-19.354Z" fill="#445a8c"/>
        <g id="组_665" data-name="组 665">
          <path id="路径_4503" data-name="路径 4503" d="M-984.844,254.853c2.4,2.351,4.779,2.437,9.618,2.437s7.292-.148,9.734-2.437c4.839-4.538,0-18.727,0-18.727h-19.352S-989.683,250.1-984.844,254.853Z" fill="#f49fb0"/>
          <g id="组_9296" data-name="组 9296">
            <g id="组_25629" data-name="组 25629">
              <g id="组_25628" data-name="组 25628" clip-path="url(#clip-path-2)">
                <g id="组_9295" data-name="组 9295">
                  <g id="蒙版组_7" data-name="蒙版组 7">
                    <g id="组_9155" data-name="组 9155">
                      <path id="路径_5325" data-name="路径 5325" d="M-963.317,230.925h-23.7v7.9h23.7Z" fill="#f3899f"/>
                    </g>
                  </g>
                </g>
              </g>
            </g>
          </g>
          <path id="路径_9070" data-name="路径 9070" d="M-980.865,256.969a28.989,28.989,0,0,0,5.638.318c4.839,0,7.293-.145,9.734-2.434,2.076-1.95,2.37-5.671,2.015-9.449-.218-2.322.661,2.742-6.256,7.114S-981.684,256.791-980.865,256.969Z" fill="#f3899f"/>
        </g>
        <path id="矩形_2063" data-name="矩形 2063" d="M-965.61,236.22h-19.115a2.293,2.293,0,0,1-2.293-2.293h0a2.293,2.293,0,0,1,2.293-2.293h19.115a2.293,2.293,0,0,1,2.293,2.293h0A2.293,2.293,0,0,1-965.61,236.22Z" fill="#f49fb0"/>
        <g id="组_9156" data-name="组 9156">
          <g id="组_9298" data-name="组 9298">
            <g id="组_25631" data-name="组 25631">
              <g id="组_25630" data-name="组 25630" clip-path="url(#clip-path-2)">
                <g id="组_9297" data-name="组 9297">
                  <g id="蒙版组_7-2" data-name="蒙版组 7-2">
                    <g id="组_9155-2" data-name="组 9155-2">
                      <path id="路径_5325-2" data-name="路径 5325-2" d="M-963.317,230.925h-23.7v7.9h23.7Z" fill="#f3899f"/>
                    </g>
                  </g>
                </g>
              </g>
            </g>
          </g>
          <g id="组_9159" data-name="组 9159">
            <path id="路径_9067" data-name="路径 9067" d="M-985.893,241.3h21.467" fill="none" stroke="#fcbac7" stroke-linecap="round" stroke-width="1"/>
            <path id="路径_9068" data-name="路径 9068" d="M-986.144,242.446h21.9" fill="none" stroke="#fcbac7" stroke-linecap="round" stroke-width="1"/>
            <path id="路径_9069" data-name="路径 9069" d="M-985.625,240.153h20.893" fill="none" stroke="#fcbac7" stroke-linecap="round" stroke-width="1"/>
          </g>
        </g>
      </g>
    </g>
    <g id="组_8717" data-name="组 8717">
      <g id="组_9025" data-name="组 9025">
        <path id="路径_240" data-name="路径 240" d="M-711.267,101.245s-.91,1.747-2.164,1.311c-2.834-1.651-15.632-7.5-18.683-9.694-1.313-1-2.65-4.094-5.835-5.929-4.138-1.743-6.814.14-7.769-.289-1.487-.667-3.275,6.569-3.122,8.6s4.234,2.728,6.137,2.922a12.811,12.811,0,0,1,5.4,1.687,156.577,156.577,0,0,1,13.516,8.757c6.493,4.557,12.885,7.909,16.893,6.233,2.822-1.178,7.515-7.548,7.515-7.548Z" fill="#f29b7d"/>
        <path id="路径_163" data-name="路径 163" d="M-681,83.023c-1,4.492-5.961,14.395-10.082,20.444-10.077,14.795-10.9,16.406-20.482,13.415-7.812-2.436-22.236-11.115-22.236-11.115l6.124-14.169s19.67,8.582,20.4,7.992,15.3-31.642,22.708-23.508C-683.053,77.748-680.317,79.952-681,83.023Z" fill="#fcfcfc"/>
        <path id="路径_8659" data-name="路径 8659" d="M-712.253,109.865c-7.593-3.613-18.575-10.965-18.575-10.965l-2.907,6.989,13.023,7.146s11.8,6.036,16.729,4.989a11.5,11.5,0,0,0,1.886-.79S-704.661,113.475-712.253,109.865Z" fill="#a0c5ec" opacity="0.35" style="isolation: isolate"/>
        <path id="路径_8667" data-name="路径 8667" d="M-731.927,101.459l-1.884,4.382s9.267,5.245,13.868,7.267" fill="none" stroke="#a0c5ec" stroke-linecap="round" stroke-linejoin="round" stroke-width="0.8"/>
      </g>
      <g id="组_10028" data-name="组 10028">
        <g id="组_10912" data-name="组 10912">
          <path id="形状_23-2" data-name="形状 23-2" d="M-692.46,230.545s-.55,14.249,2.218,15.188-8.112,5.946-15.281,6.268-13.4-3.71-13.4-3.71,3.622-1.048,6.363-2.187,2.927-1.63,4.771-2.583,1.231-12.978,1.231-12.978Z" fill="#ffb693"/>
          <g id="组_10861" data-name="组 10861">
            <path id="形状_24-2" data-name="形状 24-2" d="M-713.413,248.608a12.842,12.842,0,0,0,5.7,0l-3.3-3.692,3.3-2.043,4.861,4.643a32.594,32.594,0,0,0,6.61-1.772c3-1.237,5.086-2.743,5.383-2.543.958.374,2.171,2.836,2.5,6.719a46.3,46.3,0,0,1,0,7.392h-10.363v-2.821l-8.905,2.821h-19.262s-.922-4.9,2.76-7.251a38.506,38.506,0,0,1,7-3.044C-716.413,246.88-716.12,247.858-713.413,248.608Z" fill="#44468d"/>
            <path id="形状_24-2-2" data-name="形状 24-2-2" d="M-688.231,254.483c0,1.435-.116,2.828-.116,2.828h-10.415v-2.828l-8.867,2.828h-19.26a11.944,11.944,0,0,1-.031-2.828S-688.212,254.463-688.231,254.483Z" fill="#353284"/>
          </g>
        </g>
        <g id="组_10913" data-name="组 10913">
          <path id="形状_23-2-2" data-name="形状 23-2-2" d="M-664.468,230.546s-.55,14.249,2.218,15.188-8.113,5.946-15.282,6.268-13.4-3.713-13.4-3.713,3.622-1.048,6.365-2.186,2.926-1.63,4.771-2.584,1.23-12.977,1.23-12.977Z" fill="#ffb693"/>
          <g id="组_10861-2" data-name="组 10861-2">
            <path id="形状_24-2-3" data-name="形状 24-2-3" d="M-685.421,248.608a12.839,12.839,0,0,0,5.706,0l-3.3-3.692,3.3-2.043,4.861,4.643a32.584,32.584,0,0,0,6.609-1.772c3-1.237,5.085-2.743,5.384-2.543.958.374,2.169,2.836,2.5,6.719a46.07,46.07,0,0,1,0,7.392h-10.366v-2.821l-8.906,2.821H-698.9s-.921-4.9,2.761-7.251a38.4,38.4,0,0,1,7-3.044C-688.427,246.88-688.127,247.858-685.421,248.608Z" fill="#595e9c"/>
            <path id="形状_24-2-4" data-name="形状 24-2-4" d="M-660.244,254.483c0,1.435-.115,2.828-.115,2.828h-10.415v-2.828l-8.866,2.828H-698.9a11.944,11.944,0,0,1-.03-2.828S-660.227,254.463-660.244,254.483Z" fill="#44468d"/>
          </g>
        </g>
        <g id="组_8952" data-name="组 8952">
          <path id="路径_78" data-name="路径 78" d="M-706.351,132.938-713.58,237.2h26.516l2.291-104.866Z" fill="#548ee8"/>
          <path id="路径_79" data-name="路径 79" d="M-666.176,131.577l7.857,108.118h-31.837l.66-107.1Z" fill="#548ee8"/>
          <path id="路径_8832" data-name="路径 8832" d="M-691.329,153.407l1.341,83.489" fill="none" stroke="#2d59be" stroke-linecap="round" stroke-width="0.8"/>
          <path id="路径_8946" data-name="路径 8946" d="M-711.249,200.678s.806,14.62,2.424,22.463a94.211,94.211,0,0,0,4.055,13.995h-8.706Z" fill="#2d59be" opacity="0.5" style="isolation: isolate"/>
          <path id="路径_8947" data-name="路径 8947" d="M-690.639,185.689s2.828,20.515,5.514,33.635,5.724,20.356,5.724,20.356l-10.734-.11Z" fill="#2d59be" opacity="0.5" style="isolation: isolate"/>
          <path id="路径_8976" data-name="路径 8976" d="M-685.723,141.957l-16.262,1.829.955-6.483,15.307-.235Z" fill="#2d59be" opacity="0.51" style="isolation: isolate"/>
        </g>
        <g id="组_9024" data-name="组 9024">
          <path id="路径_158" data-name="路径 158" d="M-679.877,71.219s-8.883,3.4-11.886-.166c0,0-5.051,12.355-6.456,32.977s-2.371,33.586-2.371,33.586h13.606s-1.446-27.628,1.4-46.65c1.031-6.859,3.808-13.539,5.7-19.362" fill="#f28167"/>
          <path id="路径_179" data-name="路径 179" d="M-687.442,82.979a1.964,1.964,0,0,0-1.964,1.964,1.964,1.964,0,0,0,1.964,1.964,1.964,1.964,0,0,0,1.964-1.964h0a1.964,1.964,0,0,0-1.964-1.964" fill="#f9998a"/>
          <path id="路径_180" data-name="路径 180" d="M-694.189,89.872a1.963,1.963,0,0,0-1.963,1.965,1.965,1.965,0,0,0,1.965,1.963,1.965,1.965,0,0,0,1.963-1.964h0a1.964,1.964,0,0,0-1.964-1.964h0" fill="#f9998a"/>
          <path id="路径_181" data-name="路径 181" d="M-691.489,99.181a1.964,1.964,0,0,0-1.964,1.964,1.964,1.964,0,0,0,1.964,1.964,1.964,1.964,0,0,0,1.964-1.964h0a1.964,1.964,0,0,0-1.964-1.964" fill="#f9998a"/>
        </g>
        <g id="组_9027" data-name="组 9027">
          <g id="组_8870" data-name="组 8870">
            <path id="形状_688" data-name="形状 688" d="M-714.795,143.5c-5.619,24.7-11.932,50.532-11.932,50.532l18.066,6.241s5.622-36.341,8.628-68.329c1.336-14.161,1.4-28.179,2.807-38.347.785-5.663,4.51-17.947,4.51-17.947l1.816-7.12s-6.143.419-9.688,1.729C-717.367,79.731-709.177,118.792-714.795,143.5Z" fill="#fff"/>
            <path id="形状_705" data-name="形状 705" d="M-710.984,108.7" fill="none"/>
            <path id="形状_705-2" data-name="形状 705-2" d="M-721.186,134.515" fill="none"/>
            <path id="形状_702" data-name="形状 702" d="M-705.943,77.194" fill="none"/>
          </g>
          <path id="路径_8423" data-name="路径 8423" d="M-679.6,68.523s11.22,1.482,15.856,8.186c0,0-4.826.359-.995,27.625s10.071,58.893,12.165,68.992,4.651,28.539,4.651,28.539h-32.317s-7.649-53.305-7.548-86.53S-679.6,68.523-679.6,68.523Z" fill="#fff"/>
          <path id="路径_8423-2" data-name="路径 8423" d="M-663.747,76.709s-4.826.359-.995,27.625,10.071,58.893,12.165,68.992,4.651,28.539,4.651,28.539h-32.317" fill="none" stroke="#a0c5ec" stroke-linecap="round" stroke-linejoin="round" stroke-width="0.8"/>
          <path id="路径_8651" data-name="路径 8651" d="M-675.267,71.707l.8,9.86a18.649,18.649,0,0,0-2.228.518,3.869,3.869,0,0,0-1.27.636l2.937,3.259a49.094,49.094,0,0,0-4.214,9.343c-2.355,6.513-5.209,16.716-5.209,16.716a72.435,72.435,0,0,1,2.226-10.952c1.83-6.729,5.289-16.3,5.289-16.3l-5.292-5.626,6.522.915Z" fill="#a0c5ec" opacity="0.35" style="isolation: isolate"/>
          <path id="路径_8652" data-name="路径 8652" d="M-700.233,73.577a8.392,8.392,0,0,0-1.869,3.1l1.869,2.942-2.531,2.333a46.527,46.527,0,0,0-.69,12.934,87.858,87.858,0,0,0,3.222,15.373A70.253,70.253,0,0,1-702.4,94.886a75.4,75.4,0,0,1,1.325-13.623l4.89-3.035-4.89-2.424,4.89-5.686A29.83,29.83,0,0,0-700.233,73.577Z" fill="#a0c5ec" opacity="0.35" style="isolation: isolate"/>
          <path id="路径_8666" data-name="路径 8666" d="M-675.3,71.667l-.359,8.47-6.757-1.114,5.526,5.845a114.5,114.5,0,0,0-3.938,11.013c-1.8,6.018-3.618,16.261-3.618,16.261" fill="none" stroke="#a0c5ec" stroke-linecap="round" stroke-linejoin="round" stroke-width="0.8"/>
          <path id="路径_8668" data-name="路径 8668" d="M-695.777,69.865a33.9,33.9,0,0,0-3.065,3,23.915,23.915,0,0,0-2.278,3.1l5.343,2.278-5.343,3.073a65.372,65.372,0,0,0-1.22,12.776,86.105,86.105,0,0,0,2.122,16.326" fill="none" stroke="#a0c5ec" stroke-linecap="round" stroke-linejoin="round" stroke-width="0.8"/>
          <path id="路径_8948" data-name="路径 8948" d="M-721.684,173.047a97.911,97.911,0,0,0,.458,12.384A74.606,74.606,0,0,0-718.96,196.7l-7.751-2.663Z" fill="#a0c5ec" opacity="0.35" style="isolation: isolate"/>
          <path id="路径_8949" data-name="路径 8949" d="M-681.823,190.032a30.762,30.762,0,0,0,6.7,6.97,44.654,44.654,0,0,0,9.2,4.877h-14.33Z" fill="#a0c5ec" opacity="0.35" style="isolation: isolate"/>
        </g>
        <path id="路径_8523" data-name="路径 8523" d="M-670.309,113.735c1.685-2.356,3.278-7.018,5.359-10.832-.2-1.387-.4-2.759-.591-4.1-.77-5.477-1.154-9.626-1.283-12.79-7.981,2.828-19.839,21.943-20.439,22.406-.037.03-.171.012-.383-.043-.087,2.22-.141,4.53-.149,6.958-.011,3.622.071,7.48.224,11.484C-681.816,127.829-678.859,125.7-670.309,113.735Z" fill="#a0c5ec" opacity="0.35" style="isolation: isolate"/>
        <path id="路径_160" data-name="路径 160" d="M-697.774,58.409c1.782,3.99-.229,8.32-2.817,11.841,0,0,8.106-1.454,9.35-1.729l.809-8.5Z" fill="#101013"/>
        <path id="路径_162" data-name="路径 162" d="M-698.412,54.434c-1.862-1.075-3.13-2.935-2.7-7.629s4.951-6.264,4.951-6.264,2.4-3.818,8.376-4.071,13.74,4.58,14.757,12.468,7.941,7.018,13.7,16.051-3.233,18.263-3.233,18.263,1.054-4.92-2.515-8.166c-4.336-3.889-10.679-4.886-14.845-6.388C-683.815,67.336-698.412,54.434-698.412,54.434Z" fill="#101013"/>
        <path id="路径_170" data-name="路径 170" d="M-694.163,40.231a10.635,10.635,0,0,1,8.153-3.254c5.343.126,11.008,2.645,13.1,8.778s3.288,8.524,9.86,11.81,12.3,8.905,9.435,16.963" fill="none"/>
        <g id="组_9314" data-name="组 9314">
          <path id="路径_161" data-name="路径 161" d="M-691.893,72.289a16.621,16.621,0,0,0,.665-3.549,3.8,3.8,0,0,0-.557-2.228,6.517,6.517,0,0,1-5.291-2.782c-1.27-1.985-1.7-4.13-1.656-8.062.042-3.535.431-5.176,1.117-6.3a12.729,12.729,0,0,1,2.286-2.431,10.567,10.567,0,0,0,4.3,3.031c2.436.758,4.66,1.065,5.8,2.189s.3,2.713.889,3.17,1.179-.848,1.374-1.781a2.184,2.184,0,0,1,1.2-1.571,2.833,2.833,0,0,1,2.813.355,3.566,3.566,0,0,1,1.025,3.853c-.462,1.511-1.625,3.905-2.356,4.1s-.707-.124-.923.05A16.4,16.4,0,0,0-681.765,66a3.648,3.648,0,0,0,2.193,2.821,7.012,7.012,0,0,0-.944,1.45,15.147,15.147,0,0,0-.587,1.435,20.685,20.685,0,0,1-6.379,1.179C-691.2,73.044-691.893,72.289-691.893,72.289Z" fill="#febf9e"/>
          <path id="路径_172" data-name="路径 172" d="M-691.012,53.631a.924.924,0,0,0-.938.91.924.924,0,0,0,.91.937.923.923,0,0,0,.938-.908c0-.023,0-.046,0-.068v-.01a.891.891,0,0,0-.908-.864" fill="#101013"/>
          <path id="路径_173" data-name="路径 173" d="M-696.953,53.951a.793.793,0,0,0-.677.878.773.773,0,0,0,.77.775h0a.835.835,0,0,0,.661-.977.834.834,0,0,0-.761-.674h0" fill="#101013"/>
          <path id="路径_174" data-name="路径 174" d="M-694.574,59.047s-1.143.03-1.249-.82.894-1.179,1.409-3.009" fill="none" stroke="#ab392c" stroke-linecap="round" stroke-linejoin="round" stroke-width="0.8"/>
          <path id="路径_175" data-name="路径 175" d="M-691.549,60.776a2.885,2.885,0,0,1-2.963,1.087" fill="none" stroke="#ab392c" stroke-linecap="round" stroke-width="0.8"/>
          <path id="路径_176" data-name="路径 176" d="M-680.795,56.781-682.947,56l1.221-.989" fill="none" stroke="#e6785c" stroke-linecap="round" stroke-linejoin="round" stroke-width="0.8"/>
          <path id="路径_8833" data-name="路径 8833" d="M-691.234,66.753a8.942,8.942,0,0,0,4.049-1.782" fill="none" stroke="#e6785c" stroke-linecap="round" stroke-linejoin="round" stroke-width="0.8"/>
          <path id="路径_8834" data-name="路径 8834" d="M-691.307,69.566a5.433,5.433,0,0,0,.052-1.6,4.78,4.78,0,0,0-.51-1.448,12.382,12.382,0,0,0,2.158-.322,8.851,8.851,0,0,0,1.738-.665,9.181,9.181,0,0,1-1.341,2.187A12.249,12.249,0,0,1-691.307,69.566Z" fill="#e6785c" opacity="0.5" style="isolation: isolate"/>
          <path id="路径_8835" data-name="路径 8835" d="M-682.475,54.919s.775-2.772,2.306-1.965,1.881,2.081.957,3.707-2.713,2.246-2.7.037S-682.475,54.919-682.475,54.919Z" fill="#e6785c" opacity="0.5" style="isolation: isolate"/>
          <path id="路径_8980" data-name="路径 8980" d="M-696.124,51.977a2.245,2.245,0,0,0-1.721-.1" fill="none" stroke="#462a2a" stroke-linecap="round" stroke-width="0.8"/>
          <path id="路径_8990" data-name="路径 8990" d="M-689.272,51.906a2.96,2.96,0,0,0-2.585-.235" fill="none" stroke="#462a2a" stroke-linecap="round" stroke-width="0.8"/>
        </g>
      </g>
      <g id="组_10929" data-name="组 10929">
        <path id="路径_8594" data-name="路径 8594" d="M-762.146,103.786c10.3,2.606,20.694-3.347,23.209-13.3s-3.8-20.124-14.1-22.728a19.4,19.4,0,0,0-17.738,4.268l-3.315-4.8-6.941,1.246-2.335-5.586-5.087,1.338-2.162-4.794-4.729.428-2.819-5.582-7.878,2.506,1.486,8.868L-776.3,81.293C-778.66,91.166-772.366,101.2-762.146,103.786Zm9.24-13.923a4.754,4.754,0,0,1,5.774-3.444,4.754,4.754,0,0,1,3.444,5.775,4.754,4.754,0,0,1-5.774,3.443,4.754,4.754,0,0,1-3.443-5.773Z" fill="#f2a325"/>
        <path id="路径_8595" data-name="路径 8595" d="M-760.915,102.958c10.3,2.605,20.693-3.348,23.208-13.295s-3.8-20.124-14.1-22.728A19.4,19.4,0,0,0-769.545,71.2l-3.315-4.8-6.941,1.247-2.336-5.587-5.087,1.338-2.162-4.794-4.729.428-2.685-5.178-7.879,2.505,1.357,8.465,28.25,15.64C-777.425,90.338-771.135,100.374-760.915,102.958Zm9.24-13.923a4.754,4.754,0,0,1,5.775-3.443,4.753,4.753,0,0,1,3.443,5.774,4.754,4.754,0,0,1-5.774,3.444h0a4.752,4.752,0,0,1-3.443-5.772Z" fill="#ffd45c"/>
        <path id="路径_3352" data-name="路径 3352" d="M-775.018,77.267-799.654,63.3" fill="none" stroke="#edb026" stroke-linecap="round" stroke-linejoin="round" stroke-width="1.49"/>
      </g>
      <g id="组_8716" data-name="组 8716">
        <g id="组_9280" data-name="组 9280">
          <path id="路径_6618" data-name="路径 6618" d="M-729.778,91.484c-5.587-2.085-10.24-5.01-11.943-5.68s4.916,10.853,5.971,10.573c0,0,5.311,3.229,12.628,7.764s16.858,8.231,19.486,7.355c5.6-1.867,8.907-11.4,8.907-11.4s-14.349-2.278-14.93-2.3C-714.856,94.982-724.191,93.572-729.778,91.484Z" fill="#febf9e"/>
          <path id="路径_9226" data-name="路径 9226" d="M-697.889,98.9s-4.115,8.587-6.592,9.551-9.875-1.389-22.3-6.521c0,0,3.9,2.524,8.446,4.911a58.239,58.239,0,0,0,7.946,3.468c2.386.812,4.84,1.5,6.207,1.313a8.688,8.688,0,0,0,4.584-2.979,29.177,29.177,0,0,0,4.879-8.553Z" fill="#e6785c" opacity="0.5" style="isolation: isolate"/>
        </g>
        <g id="组_8715" data-name="组 8715">
          <path id="路径_8524" data-name="路径 8524" d="M-741.8,85.777c-1.091,3.6-5.529,9.507-5.108,9.774,2.954,2.083,11.2.833,11.2.833l.651-7.234A34,34,0,0,0-741.8,85.777Z" fill="#febf9e"/>
          <g id="组_9235" data-name="组 9235">
            <path id="路径_166" data-name="路径 166" d="M-740.713,87.816a1.611,1.611,0,0,0-.849-1.948,20.032,20.032,0,0,0-3.332-.984c-1.336-.315-2.241.012-2.494.655a2.528,2.528,0,0,0,.163,1.59,1.351,1.351,0,0,0-1.383.947c-.406,1.072.93,2.01.93,2.01a1.681,1.681,0,0,0-1.147,1.1c-.209.851,1,1.8,1,1.8s-2.312,1.4.786,2.7c1.424.6,1.319.832,2.1.375a2.043,2.043,0,0,0,.736-1.8,1.686,1.686,0,0,0,1.336-.977,2.671,2.671,0,0,0,.194-1.5,2.385,2.385,0,0,0,1.187-1.039,2.874,2.874,0,0,0-.119-1.674A2.431,2.431,0,0,0-740.713,87.816Z" fill="#febf9e"/>
            <path id="路径_8660" data-name="路径 8660" d="M-747.3,86.683s3.529,1.279,4.724,1.492" fill="none"/>
            <path id="路径_8661" data-name="路径 8661" d="M-747.91,92.853a8,8,0,0,0,2.32.687" fill="none"/>
            <path id="路径_8662" data-name="路径 8662" d="M-747.746,89.8a16.949,16.949,0,0,0,3.764,1.309" fill="none"/>
            <path id="路径_9222" data-name="路径 9222" d="M-747.68,95.743a4.436,4.436,0,0,0,1.492.479" fill="none"/>
          </g>
        </g>
      </g>
      <g id="组_9025-2" data-name="组 9025-2">
        <path id="路径_163-2" data-name="路径 163-2" d="M-670.026,102.675c-8.5,15.755-9.152,17.443-18.992,15.453-8.023-1.622-41.163-14.339-41.163-14.339l4.635-14.723s38.345,12.083,39.016,11.42,14.985-32.113,22.515-24.093C-659.257,81.46-666.546,96.236-670.026,102.675Z" fill="#fff"/>
        <path id="路径_8667-2" data-name="路径 8667-2" d="M-677.935,84.283a47.586,47.586,0,0,0-4.179,6.658c-2.1,4.007-4.292,9.516-4.292,9.516a81.719,81.719,0,0,1-9.039-2.042c-5.3-1.488-30.067-9.452-30.067-9.452l-4.664,14.93s27.648,9.808,32.432,11.345" fill="none" stroke="#a0c5ec" stroke-linecap="round" stroke-linejoin="round" stroke-width="0.8"/>
      </g>
    </g>
  </g>
</svg>
