<svg xmlns="http://www.w3.org/2000/svg" xmlns:xlink="http://www.w3.org/1999/xlink" width="380.002" height="266" viewBox="0 0 380.002 266">
  <defs>
    <clipPath id="clip-path">
      <path id="路径_9920" data-name="路径 9920" d="M28.773,257.242H50.79l2.234-19.185H25.985Z" fill="#f2937e"/>
    </clipPath>
    <clipPath id="clip-path-2">
      <path id="路径_8618" data-name="路径 8618" d="M82.5,52.5H297.515a6.337,6.337,0,0,1,6.178,6.483h0V197.961H76.3V58.986A6.338,6.338,0,0,1,82.481,52.5Z" fill="none"/>
    </clipPath>
    <clipPath id="clip-path-3">
      <path id="形状_688_拷贝_2-2" data-name="形状 688 拷贝 2-2" d="M236.81,162.928a41.865,41.865,0,0,0-18.194-12.891c-6.639-2.261-16.622-2.64-16.622-2.64a418.837,418.837,0,0,0-3.848,45.642c-.336,11.6-.107,62.709-.683,95.061-.455,25.57-.327,55.853-1.534,72.242l53.971-7.069s-3.779-27.073-6.711-44.488c-1.459-8.663-6.546-41.748-7.085-75.084C235.559,200.025,239.556,166.123,236.81,162.928Z" fill="none"/>
    </clipPath>
    <clipPath id="clip-path-4">
      <path id="形状_688_拷贝_2-2-2" data-name="形状 688 拷贝 2-2" d="M143.007,162.928A41.865,41.865,0,0,1,161.2,150.037c6.639-2.261,16.622-2.64,16.622-2.64a418.837,418.837,0,0,1,3.848,45.642c.336,11.6.107,62.709.683,95.061.455,25.57.327,55.853,1.534,72.242l-53.971-7.069s3.779-27.073,6.711-44.488c1.459-8.663,6.546-41.748,7.086-75.084C144.258,200.025,140.261,166.123,143.007,162.928Z" fill="none"/>
    </clipPath>
    <clipPath id="clip-path-5">
      <path id="路径_9929" data-name="路径 9929" d="M132.975,233.658c5.237-.467,36.3-9.186,39.423-9.084s6.735,9.3,7.525,10.6c-9.5,8.931-37.942,18.407-44.1,16.462s-12.772-11.645-10.1-14.744S132.975,233.658,132.975,233.658Z" fill="none"/>
    </clipPath>
    <clipPath id="clip-path-6">
      <path id="路径_9934" data-name="路径 9934" d="M157.652,225.952a69.41,69.41,0,0,0-13.276.73c2.88-20.522,5.979-48.979,4.7-61.874-.265-2.674,13.737-15.179,13.737-15.179-3.838.652-20.194,8.667-25.476,14.527-15.526,17.225-34.3,74.027-29.015,88.821,2.042,6.8,11.145,13.339,18.889,12.913,14.68-.808,35.576-13.188,37.288-16C158.827,243.144,155.29,232.433,157.652,225.952Z" fill="none"/>
    </clipPath>
    <clipPath id="clip-path-7">
      <path id="路径_9938" data-name="路径 9938" d="M247.031,233.658c-5.237-.467-36.3-9.186-39.424-9.084s-6.734,9.3-7.524,10.6c9.5,8.931,37.942,18.407,44.1,16.462s12.773-11.645,10.1-14.744S247.031,233.658,247.031,233.658Z" fill="none"/>
    </clipPath>
    <clipPath id="clip-path-8">
      <path id="路径_9944" data-name="路径 9944" d="M222.354,225.952a69.41,69.41,0,0,1,13.276.73c-2.88-20.522-5.979-48.979-4.7-61.874.265-2.674-13.737-15.179-13.737-15.179,3.838.652,20.194,8.667,25.476,14.527,15.526,17.225,34.3,74.027,29.015,88.821-2.042,6.8-11.145,13.339-18.889,12.913-14.68-.808-35.576-13.188-37.288-16C221.179,243.144,224.716,232.433,222.354,225.952Z" fill="none"/>
    </clipPath>
  </defs>
  <g id="人脸识别" transform="translate(0.001)">
    <g id="组_9180" data-name="组 9180" transform="translate(-5 -2.819)">
      <circle id="椭圆_270" data-name="椭圆 270" cx="30.531" cy="30.531" r="30.531" transform="translate(20.595 14.464)" fill="#d9e6ed"/>
      <circle id="椭圆_271" data-name="椭圆 271" cx="25.998" cy="25.998" r="25.998" transform="translate(25.139 19.009)" fill="#fbfcfe"/>
      <path id="路径_8578" data-name="路径 8578" d="M27.29,56.969c-1.934-21.441,8.844-39.747,33.326-37.158a25.949,25.949,0,0,1,9.743,8.1A26,26,0,0,0,28.351,58.544q.486.666,1.013,1.3A25.806,25.806,0,0,1,27.29,56.969Z" transform="translate(1.78 1.781)" fill="#fbfcfe"/>
      <circle id="椭圆_272" data-name="椭圆 272" cx="2.467" cy="2.467" r="2.467" transform="translate(48.671 42.54)" fill="#e4edf4"/>
      <path id="路径_9965" data-name="路径 9965" d="M39.649,43.571a1.234,1.234,0,0,1-1.234-1.234V20.021a1.234,1.234,0,1,1,2.467,0V42.338A1.234,1.234,0,0,1,39.649,43.571Z" transform="translate(11.489 2.787)" fill="#e4edf4"/>
      <path id="路径_9966" data-name="路径 9966" d="M39.65,39.1a1.234,1.234,0,0,1-.768-2.2l13.77-10.919a1.233,1.233,0,1,1,1.533,1.933L40.415,38.837A1.23,1.23,0,0,1,39.65,39.1Z" transform="translate(11.489 7.255)" fill="#e4edf4"/>
    </g>
    <g id="组_25642" data-name="组 25642">
      <path id="路径_8686" data-name="路径 8686" d="M19.383,258C-19,216.279-.294,124.1,74.781,104.143c85.683-22.777,58.772-72.756,119.671-93.168,28.613-9.6,119.708-14.559,150.6,20.851,35.919,41.174-10,84.72,14.361,119.906,12.393,17.9,34.735,79.963,8.058,105.519Z" fill="#f4fafe"/>
      <rect id="矩形_2843" data-name="矩形 2843" width="380" height="266" transform="translate(0.001)" fill="none"/>
      <line id="直线_727" data-name="直线 727" x2="365" transform="translate(6.501 258)" fill="none" stroke="#bcdfff" stroke-linecap="round" stroke-width="2"/>
    </g>
    <g id="组_9257" data-name="组 9257" transform="translate(3 -0.242)">
      <g id="组_777" data-name="组 777">
        <path id="路径_4710" data-name="路径 4710" d="M65.288,207.222,40.534,232.43s3.94,3.237,10.427-.226C59.334,227.733,65.288,217.539,65.288,207.222Z" fill="#22b5b5"/>
        <path id="路径_4711" data-name="路径 4711" d="M65.288,207.222l-24.653,25.3s-3.323-3.861,0-10.427C44.918,213.636,54.978,207.454,65.288,207.222Z" fill="#5dd4d4"/>
      </g>
      <g id="组_778" data-name="组 778">
        <path id="路径_4712" data-name="路径 4712" d="M41.155,236.185l-28.886-32.52s9.932,2.8,16.187,6.676C36.523,215.328,41.814,225.885,41.155,236.185Z" fill="#24c7c7"/>
        <path id="路径_4713" data-name="路径 4713" d="M41.155,236.181,12.373,203.569A119.18,119.18,0,0,0,17.5,219.762C21.236,228.478,30.881,235.289,41.155,236.181Z" fill="#12b0b0"/>
      </g>
      <g id="组_779" data-name="组 779">
        <path id="路径_4714" data-name="路径 4714" d="M50.921,187.242s-16,7.22-16.712,24.927c-.721,18.2,3.121,19.919,3.121,19.919Z" fill="#59d9d9"/>
        <path id="路径_4715" data-name="路径 4715" d="M50.909,187.242s6.945,16.639-2.223,31.237c-9.431,15.014-11.587,13.53-11.587,13.53Z" fill="#42c2c2"/>
      </g>
      <g id="组_782" data-name="组 782">
        <path id="路径_4717" data-name="路径 4717" d="M28.773,257.242H50.79l2.234-19.185H25.985Z" fill="#f2937e"/>
        <g id="组_25644" data-name="组 25644">
          <g id="组_25643" data-name="组 25643" clip-path="url(#clip-path)">
            <g id="组_780" data-name="组 780" transform="translate(0 1)" opacity="0.79" style="mix-blend-mode: multiply;isolation: isolate">
              <path id="路径_6177" data-name="路径 6177" d="M56.061,232.328H22.949v8.708H56.061Z" fill="#f2937e"/>
            </g>
          </g>
        </g>
        <rect id="矩形_2080" data-name="矩形 2080" width="33.112" height="8.708" transform="translate(22.949 229.45)" fill="#f2937e"/>
      </g>
    </g>
    <g id="组_25681" data-name="组 25681" transform="translate(2 0.444)">
      <g id="组_9215" data-name="组 9215">
        <path id="路径_8614" data-name="路径 8614" d="M163.614,221.249s5.54,17.142-11.65,26.018h81.483s-19.406-6.658-14.39-26.018Z" fill="#fff" stroke="#abcdff" stroke-miterlimit="10" stroke-width="1"/>
        <rect id="矩形_2822" data-name="矩形 2822" width="127.873" height="10.566" rx="1.294" transform="translate(126.064 245.806)" fill="#fff" stroke="#abcdff" stroke-miterlimit="10" stroke-width="1"/>
        <g id="组_9213" data-name="组 9213">
          <path id="路径_8616" data-name="路径 8616" d="M307.649,42.556H72.379a7.09,7.09,0,0,0-7.091,7.088h0V214.161a7.1,7.1,0,0,0,7.091,7.091h235.27a7.089,7.089,0,0,0,7.063-7.091V49.646A7.089,7.089,0,0,0,307.649,42.556Z" fill="#fff" stroke="#abcdff" stroke-width="1.528"/>
          <path id="路径_8617" data-name="路径 8617" d="M193.028,206.785a4.382,4.382,0,0,1-.657,6.162h0a4.382,4.382,0,0,1-5.5,0,1.671,1.671,0,0,1-.38-.38,4.382,4.382,0,0,1,6.163-6.161A1.48,1.48,0,0,1,193.028,206.785Z" fill="#abcdff"/>
          <path id="路径_8618-2" data-name="路径 8618" d="M82.5,52.5H297.515a6.337,6.337,0,0,1,6.178,6.483h0V197.961H76.3V58.986A6.338,6.338,0,0,1,82.481,52.5Z" fill="#eaf4ff"/>
          <path id="路径_8619" data-name="路径 8619" d="M82.155,52.5H298.908a4.79,4.79,0,0,1,4.79,4.789h0v9.649H76.308V58.332A5.831,5.831,0,0,1,82.134,52.5h.021Z" fill="#a3c9ff"/>
          <path id="路径_8620" data-name="路径 8620" d="M85.275,60.126a1.642,1.642,0,1,1-1.642-1.642h0A1.642,1.642,0,0,1,85.275,60.126Z" fill="#fff"/>
          <path id="路径_8621" data-name="路径 8621" d="M90.146,60.126A1.642,1.642,0,1,1,88.5,58.484h0A1.635,1.635,0,0,1,90.14,60.12h0Z" fill="#fff"/>
          <path id="路径_8622" data-name="路径 8622" d="M94.792,60.126a1.641,1.641,0,1,1-1.642-1.642h0A1.642,1.642,0,0,1,94.792,60.126Z" fill="#fff"/>
        </g>
      </g>
      <g id="组_25679" data-name="组 25679">
        <g id="组_25678" data-name="组 25678" clip-path="url(#clip-path-2)">
          <g id="组_25677" data-name="组 25677">
            <g id="组_25655" data-name="组 25655">
              <path id="形状_688_拷贝_3" data-name="形状 688 拷贝 3" d="M164.6,153.062c-2.5,2.062,8.182,15.22,11.724,41.28s3.039,90.734,3.039,90.734h21.394s-3.089-64.665.716-90.729,18.764-38.88,13.9-41.281c-5.245-2.592-10.807-2.485-14.616-4.315,0,0-.918,7.024-9.67,7.024-10.184,0-12.325-7.024-12.325-7.024S167.1,151,164.6,153.062Z" fill="#52c2ad"/>
              <path id="路径_9921" data-name="路径 9921" d="M199.577,237.169l-12.53-.252-8.135.164c.129,4.989.225,9.941.295,14.666l6.347,3.6a8.338,8.338,0,0,0,8.219,0l5.956-3.373C199.646,247.205,199.588,242.207,199.577,237.169Z" fill="#269a84" opacity="0.45" style="isolation: isolate"/>
              <g id="组_9008" data-name="组 9008">
                <path id="路径_8977" data-name="路径 8977" d="M179.32,290.506l22.179,1.056v-9.506H179.32Z" fill="#0c429f" opacity="0.5" style="isolation: isolate"/>
              </g>
              <g id="组_8970" data-name="组 8970">
                <g id="组_25648" data-name="组 25648">
                  <g id="组_25647" data-name="组 25647">
                    <g id="组_25646" data-name="组 25646">
                      <g id="组_25645" data-name="组 25645" clip-path="url(#clip-path-3)">
                        <path id="形状_688_拷贝_2-2-3" data-name="形状 688 拷贝 2-2" d="M236.81,162.928a41.865,41.865,0,0,0-18.194-12.891c-6.639-2.261-16.622-2.64-16.622-2.64a418.837,418.837,0,0,0-3.848,45.642c-.336,11.6-.107,62.709-.683,95.061-.455,25.57-.327,55.853-1.534,72.242l53.971-7.069s-3.779-27.073-6.711-44.488c-1.459-8.663-6.546-41.748-7.085-75.084C235.559,200.025,239.556,166.123,236.81,162.928Z" fill="#fcfcfc"/>
                        <path id="路径_8827" data-name="路径 8827" d="M246.827,332.029a51.626,51.626,0,0,1-9.286,12.516c-4.909,4.625-10.977,8.71-16.546,12.514l28.9-3.812Z" fill="#b3cfec" opacity="0.35" style="isolation: isolate"/>
                        <path id="路径_9924" data-name="路径 9924" d="M187.047,236.917l-62.548,1.26,12.009,34.071,41.164-21.37,7.882,4.464a8.338,8.338,0,0,0,8.219,0l7.882-4.464,41.164,21.37,6.775-34.071Z" fill="#b3cfec" opacity="0.35" style="isolation: isolate"/>
                      </g>
                    </g>
                    <path id="形状_716-2" data-name="形状 716-2" d="M199.593,224.722c1.006-23.537,14.736-47.225,14.736-47.225l-9.075-6.661,10.282-3.9-2.98-16.219" fill="none" stroke="#a0c5ec" stroke-linecap="round" stroke-linejoin="round" stroke-width="1.528"/>
                    <path id="路径_8720" data-name="路径 8720" d="M212.97,151.193l6.338,19.916-8.048,2.716,6.941,4.526s-6.437,10.662-10.462,18.106-4.726,17.1-5.833,21.325a50.1,50.1,0,0,1-2.012,6.337s.4-13.982,5.13-26.052,9.354-20.921,9.354-20.921l-9.354-6.036,10.763-4.426Z" fill="#a0c5ec" opacity="0.35" style="isolation: isolate"/>
                  </g>
                </g>
                <g id="组_25654" data-name="组 25654">
                  <g id="组_25652" data-name="组 25652">
                    <g id="组_25651" data-name="组 25651">
                      <g id="组_25650" data-name="组 25650" clip-path="url(#clip-path-4)">
                        <path id="形状_688_拷贝_2-2-4" data-name="形状 688 拷贝 2-2" d="M143.007,162.928A41.865,41.865,0,0,1,161.2,150.037c6.639-2.261,16.622-2.64,16.622-2.64a418.837,418.837,0,0,1,3.848,45.642c.336,11.6.107,62.709.683,95.061.455,25.57.327,55.853,1.534,72.242l-53.971-7.069s3.779-27.073,6.711-44.488c1.459-8.663,6.546-41.748,7.086-75.084C144.258,200.025,140.261,166.123,143.007,162.928Z" fill="#fcfcfc"/>
                        <path id="路径_9925" data-name="路径 9925" d="M187.047,236.917l-62.548,1.26,12.009,34.071,41.164-21.37,7.882,4.464a8.338,8.338,0,0,0,8.219,0l7.882-4.464,41.164,21.37,6.775-34.071Z" fill="#b3cfec" opacity="0.35" style="isolation: isolate"/>
                      </g>
                    </g>
                    <path id="形状_716-2-2" data-name="形状 716-2" d="M180.224,224.722c-1.006-23.537-14.736-47.225-14.736-47.225l9.075-6.661-10.282-3.9,2.981-16.219" fill="none" stroke="#a0c5ec" stroke-linecap="round" stroke-linejoin="round" stroke-width="1.528"/>
                    <path id="路径_8720-2" data-name="路径 8720" d="M166.848,151.193l-6.339,19.916,8.048,2.716-6.941,4.526s6.437,10.662,10.462,18.106,4.726,17.1,5.833,21.325a50.26,50.26,0,0,0,2.012,6.337s-.4-13.982-5.13-26.052-9.354-20.921-9.354-20.921l9.354-6.036-10.763-4.426Z" fill="#a0c5ec" opacity="0.35" style="isolation: isolate"/>
                  </g>
                </g>
                <path id="路径_8828" data-name="路径 8828" d="M148.339,355.786s12.191-1,20.921-2.515a81.882,81.882,0,0,0,14.02-3.545l.6,10.616Z" fill="#b3cfec" opacity="0.35" style="isolation: isolate"/>
              </g>
              <path id="路径_8733" data-name="路径 8733" d="M182.435,160.6a14.762,14.762,0,0,0,8.3,2.113c5.149-.113,7.393-2.113,7.393-2.113" fill="none" stroke="#269a84" stroke-linecap="round" stroke-linejoin="round" stroke-width="1.528"/>
            </g>
            <g id="组_25664" data-name="组 25664">
              <g id="组_25662" data-name="组 25662">
                <path id="路径_9926" data-name="路径 9926" d="M157.748,225.28c3.317-.132,10.468,24.3,6.786,25.545-8.764,2.962-33.93.9-31.561-3.77s14.566-17.364,17.4-18.234A46.812,46.812,0,0,0,157.748,225.28Z" fill="#9eb6cc" style="isolation: isolate"/>
                <g id="组_25659" data-name="组 25659">
                  <path id="路径_9927" data-name="路径 9927" d="M132.975,233.658c5.237-.467,36.3-9.186,39.423-9.084s6.735,9.3,7.525,10.6c-9.5,8.931-37.942,18.407-44.1,16.462s-12.772-11.645-10.1-14.744S132.975,233.658,132.975,233.658Z" fill="#febf9e"/>
                  <g id="组_25658" data-name="组 25658">
                    <g id="组_25657" data-name="组 25657" clip-path="url(#clip-path-5)">
                      <path id="路径_9928" data-name="路径 9928" d="M187.4,240.019c.975-1.817-1.141-2.288-2.7-1.843,2.423-3-.582-3.776-2.667-3.221a13,13,0,0,0-2.407,1.145c.678-1.771-.872-2.819-2.712-2.532a39.2,39.2,0,0,0-5.881,2.2,3.1,3.1,0,0,0-.747-1.381,30.114,30.114,0,0,0-3.77-3.155c-.825-.6.082-1.886.082-1.886l-3.43-5.485c-2.063,2.056-3.829,6.881-1.95,9.469a8.691,8.691,0,0,0,1.024,1.129c1.228,3.2,4.028,7.566,6.82,7.54a7.116,7.116,0,0,0,4.276,2.941,2.529,2.529,0,0,0,.779-.055,6.7,6.7,0,0,0,3.2,1.828,2.508,2.508,0,0,0,.961-.122,5.187,5.187,0,0,0,2.323,1.1c1.739.17,6.746-3.83,7.864-5.107C190.239,240.552,188.814,239.858,187.4,240.019Z" fill="#e6785c" opacity="0.35" style="isolation: isolate"/>
                    </g>
                  </g>
                </g>
                <path id="路径_9930" data-name="路径 9930" d="M108.9,246.426c11.622-20.6,44.348-20.862,48.752-20.474-2.362,6.481,1.175,17.192,6.85,23.943-1.712,2.807-22.608,15.187-37.288,16C116.923,266.456,104.225,254.714,108.9,246.426Z" fill="#fcfcfc"/>
                <path id="路径_163" data-name="路径 163" d="M162.816,149.629c-3.838.652-20.194,8.667-25.476,14.527-16.431,18.229-36.507,80.791-27.845,90.972,3.8,4.468,29.627,5.451,33.292-17.749,3.13-19.817,7.811-57.222,6.292-72.571C148.814,162.134,162.816,149.629,162.816,149.629Z" fill="#fcfcfc"/>
                <path id="路径_9931" data-name="路径 9931" d="M123.2,231.656c10.467-4.187,31.132-6,34.449-5.7-2.362,6.481,1.175,17.192,6.85,23.943-1.712,2.807-22.608,15.187-37.288,16-.129.007-.259.012-.389.015" fill="none" stroke="#a0c5ec" stroke-linecap="round" stroke-linejoin="round" stroke-width="1.528"/>
                <path id="路径_9932" data-name="路径 9932" d="M150.5,188.835c-1.273,2.544-7.053,31.443-10.053,34.721-3.7,1.148-17.218,5.092-17.927,8.046,15.773-6,20.886-4.133,20.886-4.133.99-.237,1.187-.634,1.384-2.051.585.11,1,.168,1,.168Z" fill="#b3cfec" opacity="0.35" style="isolation: isolate"/>
                <path id="路径_163-2" data-name="路径 163" d="M145.116,226.863c2.014-13.855,4.889-27.1,6.065-38.549" fill="none" stroke="#a0c5ec" stroke-linecap="round" stroke-linejoin="round" stroke-width="1.528"/>
                <g id="组_25661" data-name="组 25661">
                  <g id="组_25660" data-name="组 25660" clip-path="url(#clip-path-6)">
                    <path id="路径_9933" data-name="路径 9933" d="M117.493,200.915c-3.562,33.161-12.055,52.373,2.3,59.167,7.839,3.71,40.883-9.654,43.674-11.938s8.021,4.827,8.021,4.827l-44.845,23.307s-38.5-9.412-38.856-9.956,4.516-37.506,4.662-37.75,9.083-16.033,9.083-16.033Z" fill="#b3cfec" opacity="0.35" style="isolation: isolate"/>
                  </g>
                </g>
              </g>
            </g>
            <g id="组_8969" data-name="组 8969">
              <g id="组_34_拷贝" data-name="组 34 拷贝">
                <g id="组_209" data-name="组 209">
                  <path id="形状_72" data-name="形状 72" d="M177.479,207.988c-.18-7.344-4.538-27.382-12.8-28.077-10.671-.966-14.243,22.735-13.862,26.488" fill="none" stroke="#f38267" stroke-width="2.942"/>
                  <circle id="椭圆_23" data-name="椭圆 23" cx="2.81" cy="2.81" r="2.81" transform="translate(147.688 205.178)" fill="#f38267"/>
                  <circle id="椭圆_24" data-name="椭圆 24" cx="2.81" cy="2.81" r="2.81" transform="translate(174.403 205.178)" fill="#f38267"/>
                </g>
                <path id="路径_8993" data-name="路径 8993" d="M163.631,179.554c0-13.881-1.657-36.564,27.386-36.332s27.838,23.814,28.744,44.178" fill="none" stroke="#f38267" stroke-width="3.183"/>
              </g>
              <g id="组_210" data-name="组 210">
                <path id="矩形_13" data-name="矩形 13" d="M219.988,186.879h0a5.681,5.681,0,0,1,5.681,5.681h0a5.68,5.68,0,0,1-5.681,5.681h0a5.681,5.681,0,0,1-5.681-5.681h0A5.682,5.682,0,0,1,219.988,186.879Z" fill="#f38267"/>
                <rect id="矩形_14" data-name="矩形 14" width="6.005" height="6.005" rx="3.002" transform="translate(216.987 189.558)" fill="#ffc7b3"/>
              </g>
            </g>
            <g id="组_10908" data-name="组 10908">
              <g id="组_8967" data-name="组 8967">
                <g id="组_8957" data-name="组 8957">
                  <path id="路径_8687" data-name="路径 8687" d="M171.942,110.332c0-2.654,3.5-6.314,9.26-9.243s9.052-2.319,16.713,1.107c3.019,1.35,6.314.289,8.435,1.9,2.467,1.866,2.922,6.283,2.792,7.267a2.1,2.1,0,0,0,2.762,2.483c1.871-.514,6.147,2.227,1.871,8.821s-6.9,4.371-6.9,4.371-.868,2.609-1.627,4.8-4.626,5.653-4.626,5.653a23.977,23.977,0,0,0-.306,6.082,8.456,8.456,0,0,0,1.765,4.155l-.7,7.381a25.828,25.828,0,0,1-11.081,3.112A26.347,26.347,0,0,1,179.14,155.1l-.986-7.627a9.635,9.635,0,0,0,1.443-3.757,38.251,38.251,0,0,0,.421-6.234,31.275,31.275,0,0,1-3.653-5.024,25.6,25.6,0,0,1-2.167-5.426s-3.415,1.028-7.156-4.371-.713-8.821,2.494-8.821S171.942,112.987,171.942,110.332Z" fill="#febf9e"/>
                  <path id="路径_8688" data-name="路径 8688" d="M199.746,138.408s-4.971,2.922-8.424,2.922a18.393,18.393,0,0,1-6.83-1.593" fill="none" stroke="#e6785c" stroke-linecap="round" stroke-linejoin="round" stroke-width="1.2"/>
                  <path id="路径_8689" data-name="路径 8689" d="M200.622,137.438a14.193,14.193,0,0,1-7.109,3.726,12.746,12.746,0,0,1-6.9-.471,41.226,41.226,0,0,0,7.588,4.371,21.672,21.672,0,0,0,7.059,1.457,11,11,0,0,1-1.025-3.927A24.347,24.347,0,0,1,200.622,137.438Z" fill="#e6785c" opacity="0.5" style="isolation: isolate"/>
                </g>
                <g id="组_8956" data-name="组 8956">
                  <path id="路径_8679" data-name="路径 8679" d="M172.713,117.695a19.421,19.421,0,0,1,2.53-10.914,4.268,4.268,0,0,1,4.745-2.688,9.981,9.981,0,0,1,6.908-3.322c4.112,0,6.485,2.9,10.7,4.271s6.958,1.477,8.752.633c.121,0,.591.243,1.476,4.007a20.994,20.994,0,0,1,.589,9.472c-.6,3.168,4.4-5.254,5.915-14.112s-2.286-8.857-2.286-8.857,1.139-6.391-1.9-10.6-9.732-8.464-16.374-4.979-5.9.693-11.8,2.776-5.95,7.071-6.732,8.378c-.375.623-2.359-1.382-5.237.991s-4.153,7.333-2.73,13.5S173.049,121.975,172.713,117.695Z" fill="#101013"/>
                  <path id="路径_8686-2" data-name="路径 8686" d="M176.931,93.4c-1.736-4.588-1.043-11.451,4.176-13.665s11.442.753,14.225-3.3" fill="none" stroke="#000" stroke-linecap="round" stroke-linejoin="round" stroke-width="1.2"/>
                  <path id="路径_8950" data-name="路径 8950" d="M169.134,91.186s4.33-3.249,7.873,2.064" fill="none" stroke="#000" stroke-linecap="round" stroke-width="1.2"/>
                </g>
              </g>
              <g id="组_8960" data-name="组 8960">
                <g id="矩形_3651" data-name="矩形 3651">
                  <rect id="矩形_4822" data-name="矩形 4822" width="13.919" height="10.123" rx="3.643" transform="translate(192.599 111.656)" fill="none"/>
                  <rect id="矩形_4823" data-name="矩形 4823" width="12.947" height="9.151" rx="3.157" transform="translate(193.084 112.141)" fill="none" stroke="#462a2a" stroke-width="0.8"/>
                </g>
                <g id="矩形_3652" data-name="矩形 3652">
                  <rect id="矩形_4824" data-name="矩形 4824" width="13.919" height="10.123" rx="3.643" transform="translate(176.15 111.656)" fill="none"/>
                  <rect id="矩形_4825" data-name="矩形 4825" width="12.947" height="9.151" rx="3.157" transform="translate(176.636 112.141)" fill="none" stroke="#462a2a" stroke-width="0.8"/>
                </g>
                <path id="路径_8700" data-name="路径 8700" d="M189.673,116.672h3.361" fill="none" stroke="#462a2a" stroke-linecap="round" stroke-width="0.8"/>
                <path id="路径_8701" data-name="路径 8701" d="M176.624,115.638l-3.331-2.628" fill="none" stroke="#462a2a" stroke-linecap="round" stroke-width="0.8"/>
                <path id="路径_8702" data-name="路径 8702" d="M205.989,115.644l3.521-2.786" fill="none" stroke="#462a2a" stroke-linecap="round" stroke-width="0.8"/>
              </g>
            </g>
            <g id="组_25673" data-name="组 25673">
              <g id="组_25671" data-name="组 25671">
                <path id="路径_9935" data-name="路径 9935" d="M222.38,225.191c-3.317-.132-10.772,24.128-7.09,25.373,8.765,2.962,34.112,1.163,31.743-3.509s-14.566-17.364-17.4-18.234A41.451,41.451,0,0,1,222.38,225.191Z" fill="#9eb6cc" style="isolation: isolate"/>
                <g id="组_25668" data-name="组 25668">
                  <path id="路径_9936" data-name="路径 9936" d="M247.031,233.658c-5.237-.467-36.3-9.186-39.424-9.084s-6.734,9.3-7.524,10.6c9.5,8.931,37.942,18.407,44.1,16.462s12.773-11.645,10.1-14.744S247.031,233.658,247.031,233.658Z" fill="#febf9e"/>
                  <g id="组_25667" data-name="组 25667">
                    <g id="组_25666" data-name="组 25666" clip-path="url(#clip-path-7)">
                      <path id="路径_9937" data-name="路径 9937" d="M192.611,240.019c-.976-1.817,1.141-2.288,2.7-1.843-2.423-3,.582-3.776,2.667-3.221a13,13,0,0,1,2.407,1.145c-.678-1.771.872-2.819,2.712-2.532a39.238,39.238,0,0,1,5.881,2.2,3.1,3.1,0,0,1,.747-1.381,30.185,30.185,0,0,1,3.769-3.155c.826-.6-.081-1.886-.081-1.886l3.43-5.485c2.063,2.056,3.829,6.881,1.95,9.469a8.692,8.692,0,0,1-1.024,1.129c-1.228,3.2-4.028,7.566-6.821,7.54a7.111,7.111,0,0,1-4.275,2.941,2.529,2.529,0,0,1-.779-.055,6.7,6.7,0,0,1-3.2,1.828,2.508,2.508,0,0,1-.961-.122,5.187,5.187,0,0,1-2.323,1.1c-1.739.17-6.746-3.83-7.864-5.107C189.767,240.552,191.192,239.858,192.611,240.019Z" fill="#e6785c" opacity="0.35" style="isolation: isolate"/>
                    </g>
                  </g>
                </g>
                <path id="路径_9939" data-name="路径 9939" d="M271.105,246.426c-11.622-20.6-44.347-20.862-48.751-20.474,2.362,6.481-1.175,17.192-6.85,23.943,1.712,2.807,22.608,15.187,37.288,16C263.083,266.456,275.78,254.714,271.105,246.426Z" fill="#fcfcfc"/>
                <path id="路径_163-3" data-name="路径 163" d="M217.19,149.629c3.838.652,20.194,8.667,25.476,14.527,16.431,18.229,36.507,80.791,27.845,90.972-3.8,4.468-29.627,5.451-33.292-17.749-3.13-19.817-7.811-57.222-6.292-72.571C231.192,162.134,217.19,149.629,217.19,149.629Z" fill="#fcfcfc"/>
                <path id="路径_9940" data-name="路径 9940" d="M256.8,231.656c-10.467-4.187-31.133-6-34.449-5.7,2.362,6.481-1.175,17.192-6.85,23.943,1.712,2.807,22.608,15.187,37.288,16,.129.007.259.012.389.015" fill="none" stroke="#a0c5ec" stroke-linecap="round" stroke-linejoin="round" stroke-width="1.528"/>
                <path id="路径_9941" data-name="路径 9941" d="M231.562,205.4c-1.049,2.032-.336,16.12-1.094,18-2.986.887-9.561,1.321-8.852,2.473a102.472,102.472,0,0,0,10.441.464c.683.354,2.833-.162,2.833-.162Z" fill="#b3cfec" opacity="0.35" style="isolation: isolate"/>
                <path id="路径_163-4" data-name="路径 163" d="M234.89,226.863c-2.015-13.855-3.246-26.582-4.422-38.028" fill="none" stroke="#a0c5ec" stroke-linecap="round" stroke-linejoin="round" stroke-width="1.528"/>
                <g id="组_25670" data-name="组 25670">
                  <g id="组_25669" data-name="组 25669" clip-path="url(#clip-path-8)">
                    <path id="路径_9942" data-name="路径 9942" d="M221.563,239.575c9.687-4.923,9.607-6.327,35.686-7.3-8.511-5.716-29.568-5.906-33.872-6.3C223.083,230.379,221.563,239.575,221.563,239.575Z" fill="#b3cfec" opacity="0.35" style="isolation: isolate"/>
                    <path id="路径_9943" data-name="路径 9943" d="M230.468,259.189c4.486,1.329,17.189,3.7,26.335,1.943,10.2-1.956,18.128-15.218,18.128-15.218l-3.685,27.313-42-3.131Z" fill="#b3cfec" opacity="0.35" style="isolation: isolate"/>
                  </g>
                </g>
              </g>
            </g>
            <g id="组_25674" data-name="组 25674">
              <path id="路径_9945" data-name="路径 9945" d="M169.21,221.359c-1.9.925-5.152,5.514-3.326,7.013s5.119,9.584,7.858,10.075,7.7,4.207,13.624,4.3c1.517.023.819-19.906-.026-20.635C183.949,219.185,172.558,219.725,169.21,221.359Z" fill="#febf9e"/>
              <path id="路径_9946" data-name="路径 9946" d="M210.92,221.359c1.9.925,5.152,5.514,3.326,7.013s-5.119,9.584-7.859,10.075-7.7,4.207-13.624,4.3c-1.516.023-.819-19.906.027-20.635C196.181,219.185,207.572,219.725,210.92,221.359Z" fill="#febf9e"/>
              <path id="路径_9947" data-name="路径 9947" d="M169.21,221.359c-1.9.925-5.152,5.514-3.326,7.013s5.119,9.584,7.858,10.075,7.7,4.207,13.624,4.3c1.517.023.819-19.906-.026-20.635C183.949,219.185,172.558,219.725,169.21,221.359Z" fill="#e6785c" opacity="0.35" style="isolation: isolate"/>
              <path id="路径_9948" data-name="路径 9948" d="M210.92,221.359c1.9.925,5.152,5.514,3.326,7.013s-5.119,9.584-7.859,10.075-7.7,4.207-13.624,4.3c-1.516.023-.819-19.906.027-20.635C196.181,219.185,207.572,219.725,210.92,221.359Z" fill="#e6785c" opacity="0.35" style="isolation: isolate"/>
            </g>
            <g id="组_25675" data-name="组 25675">
              <path id="路径_9949" data-name="路径 9949" d="M190.577,237.21c.957-1.826-1.163-2.277-2.715-1.816,2.393-3.023-.62-3.77-2.7-3.194a12.975,12.975,0,0,0-2.4,1.169c.661-1.778-.9-2.81-2.737-2.505-1.54.256-5.555,2.153-6.476,2.514-1.017.4-1.732-1.313-1.732-1.313l-7.014-1.918c.663,3.009,4.1,9.285,7.455,9.22a7.115,7.115,0,0,0,4.3,2.9,2.52,2.52,0,0,0,.778-.063,6.7,6.7,0,0,0,3.22,1.8,2.509,2.509,0,0,0,.959-.132,5.178,5.178,0,0,0,2.333,1.076c1.742.153,6.708-3.9,7.814-5.185C193.426,237.714,191.995,237.034,190.577,237.21Z" fill="#febf9e"/>
              <path id="路径_9950" data-name="路径 9950" d="M165.907,220.891c-2.043,2.076-4.479,6.317-2.575,8.886a13.3,13.3,0,0,0,6.93,4.392c3.247.477,3.615-1.838,2.149-3.426a30.306,30.306,0,0,0-3.8-3.117c-.831-.588.062-1.887.062-1.887Z" fill="#febf9e"/>
              <path id="路径_9951" data-name="路径 9951" d="M163.224,229.622c.035.052.071.1.108.155a13.3,13.3,0,0,0,6.93,4.392c3.247.477,3.615-1.838,2.149-3.426a30.306,30.306,0,0,0-3.8-3.117.787.787,0,0,1-.167-.157" fill="none" stroke="#e6785c" stroke-linecap="round" stroke-linejoin="round" stroke-width="1"/>
              <path id="路径_9952" data-name="路径 9952" d="M173.742,238.447a28.712,28.712,0,0,0,7.859-4.215" fill="none" stroke="#e6785c" stroke-linecap="round" stroke-linejoin="round" stroke-width="1"/>
              <path id="路径_9953" data-name="路径 9953" d="M178.7,241.154a41.083,41.083,0,0,0,8.348-5.381" fill="none" stroke="#e6785c" stroke-linecap="round" stroke-linejoin="round" stroke-width="1"/>
              <path id="路径_9954" data-name="路径 9954" d="M182.155,243.363a50.288,50.288,0,0,0,7.508-4.9" fill="none" stroke="#e6785c" stroke-linecap="round" stroke-linejoin="round" stroke-width="1"/>
            </g>
            <g id="组_25676" data-name="组 25676">
              <path id="路径_9955" data-name="路径 9955" d="M190.747,237.21c-.957-1.826,1.163-2.277,2.715-1.816-2.393-3.023.62-3.77,2.7-3.194a12.975,12.975,0,0,1,2.4,1.169c-.661-1.778.9-2.81,2.737-2.505,1.54.256,5.555,2.153,6.476,2.514,1.017.4,1.732-1.313,1.732-1.313l7.015-1.918c-.663,3.009-4.1,9.285-7.456,9.22a7.115,7.115,0,0,1-4.305,2.9,2.52,2.52,0,0,1-.778-.063,6.7,6.7,0,0,1-3.22,1.8,2.509,2.509,0,0,1-.959-.132,5.178,5.178,0,0,1-2.333,1.076c-1.742.153-6.708-3.9-7.814-5.185C187.9,237.714,189.33,237.034,190.747,237.21Z" fill="#febf9e"/>
              <path id="路径_9956" data-name="路径 9956" d="M215.418,220.891c2.042,2.076,4.478,6.317,2.574,8.886a13.3,13.3,0,0,1-6.93,4.392c-3.247.477-3.615-1.838-2.149-3.426a30.379,30.379,0,0,1,3.8-3.117c.831-.588-.062-1.887-.062-1.887Z" fill="#febf9e"/>
              <path id="路径_9957" data-name="路径 9957" d="M218.1,229.622c-.034.052-.071.1-.108.155a13.3,13.3,0,0,1-6.93,4.392c-3.247.477-3.615-1.838-2.149-3.426a30.379,30.379,0,0,1,3.8-3.117.787.787,0,0,0,.167-.157" fill="none" stroke="#e6785c" stroke-linecap="round" stroke-linejoin="round" stroke-width="1"/>
              <path id="路径_9958" data-name="路径 9958" d="M207.582,238.447a28.712,28.712,0,0,1-7.859-4.215" fill="none" stroke="#e6785c" stroke-linecap="round" stroke-linejoin="round" stroke-width="1"/>
              <path id="路径_9959" data-name="路径 9959" d="M202.625,241.154a41.084,41.084,0,0,1-8.348-5.381" fill="none" stroke="#e6785c" stroke-linecap="round" stroke-linejoin="round" stroke-width="1"/>
              <path id="路径_9960" data-name="路径 9960" d="M199.169,243.363a50.289,50.289,0,0,1-7.508-4.9" fill="none" stroke="#e6785c" stroke-linecap="round" stroke-linejoin="round" stroke-width="1"/>
            </g>
          </g>
        </g>
      </g>
      <g id="组_7536" data-name="组 7536">
        <path id="路径_5489" data-name="路径 5489" d="M154.14,85.56V72.911h12.881" fill="none" stroke="#70b5f9" stroke-linecap="round" stroke-linejoin="round" stroke-width="2"/>
        <path id="路径_5490" data-name="路径 5490" d="M226.632,85.56V72.911H213.751" fill="none" stroke="#70b5f9" stroke-linecap="round" stroke-linejoin="round" stroke-width="2"/>
        <path id="路径_5491" data-name="路径 5491" d="M154.14,133.262v12.649h12.881" fill="none" stroke="#70b5f9" stroke-linecap="round" stroke-linejoin="round" stroke-width="2"/>
        <path id="路径_5492" data-name="路径 5492" d="M226.632,133.262v12.649H213.751" fill="none" stroke="#70b5f9" stroke-linecap="round" stroke-linejoin="round" stroke-width="2"/>
      </g>
      <g id="组_25680" data-name="组 25680">
        <path id="矩形_2442" data-name="矩形 2442" d="M160.911,100.757h58.95a1.047,1.047,0,0,1,1.025,1.068v.433a1.047,1.047,0,0,1-1.025,1.068h-58.95a1.047,1.047,0,0,1-1.025-1.068v-.433A1.047,1.047,0,0,1,160.911,100.757Z" fill="#5fa8ff"/>
        <path id="路径_9961" data-name="路径 9961" d="M160.911,109.473h58.95a1.047,1.047,0,0,1,1.025,1.068v.433a1.047,1.047,0,0,1-1.025,1.068h-58.95a1.047,1.047,0,0,1-1.025-1.068v-.433A1.047,1.047,0,0,1,160.911,109.473Z" fill="#5fa8ff" opacity="0.733"/>
        <path id="路径_9962" data-name="路径 9962" d="M160.911,118.189h58.95a1.047,1.047,0,0,1,1.025,1.068v.433a1.047,1.047,0,0,1-1.025,1.068h-58.95a1.047,1.047,0,0,1-1.025-1.068v-.433A1.047,1.047,0,0,1,160.911,118.189Z" fill="#5fa8ff" opacity="0.467"/>
        <path id="矩形_2442-2" data-name="矩形 2442" d="M160.911,126.906h58.95a1.047,1.047,0,0,1,1.025,1.068v.433a1.048,1.048,0,0,1-1.025,1.068h-58.95a1.048,1.048,0,0,1-1.025-1.068v-.433A1.047,1.047,0,0,1,160.911,126.906Z" fill="#5fa8ff" opacity="0.2"/>
      </g>
    </g>
    <g id="组_25754" data-name="组 25754" transform="translate(1.002 -0.416)">
      <path id="路径_10039" data-name="路径 10039" d="M349.679,252.256H319.44l.145-9.114a1.273,1.273,0,0,1,.82-1.17l7.723-2.946a1.023,1.023,0,0,1,1.065.212l1.783,1.681a4.806,4.806,0,0,0,6.625-.028l1.722-1.652a1.023,1.023,0,0,1,1.059-.222l8.508,3.114a1.274,1.274,0,0,1,.836,1.2Z" fill="#bbd8fc"/>
      <ellipse id="椭圆_946" data-name="椭圆 946" cx="1.293" cy="2.047" rx="1.293" ry="2.047" transform="translate(333.29 238.986)" fill="#85b2ee"/>
      <path id="路径_10040" data-name="路径 10040" d="M343.978,257.232H325.151a5.732,5.732,0,0,1-5.733-5.732l.16-8.619h0c9.888,15.822,26.033,8.688,30.148.305h0l-.016,8.314A5.732,5.732,0,0,1,343.978,257.232Z" fill="#85b2ee"/>
    </g>
    <g id="组_25755" data-name="组 25755" transform="translate(0.148 35.125)">
      <g id="组_25747" data-name="组 25747" transform="translate(330.377 22.212)">
        <path id="路径_10034" data-name="路径 10034" d="M369.883,21.637s-36.8.563-39.506-.225l.113,21.948s-.223,4.129,1.665,5.777c3.146,2.747,9.1,7.039,13.373,8.677,1.756.674,2.745.629,7.473.854s17.783-.338,17.783-.338S368.308,31.092,369.883,21.637Z" transform="translate(-330.377 -21.412)" fill="#d3e7ff"/>
        <path id="路径_10035" data-name="路径 10035" d="M342.427,46.814c-5.342,1.143-9.206-.974-10.808-1.389a3.036,3.036,0,0,0,.363.381c3.146,2.747,9.1,7.039,13.373,8.677a8.506,8.506,0,0,0,1.7.475C346.2,54.588,342.191,50.056,342.427,46.814Z" transform="translate(-330.205 -18.082)" fill="#85b2ee"/>
      </g>
      <g id="组_25749" data-name="组 25749" transform="translate(345.299 13.544)">
        <g id="组_25748" data-name="组 25748">
          <rect id="矩形_4844" data-name="矩形 4844" width="0.698" height="4.701" rx="0.095" transform="matrix(0.952, -0.306, 0.306, 0.952, 3.485, 5.962)" fill="#fff"/>
          <path id="路径_10036" data-name="路径 10036" d="M349.99,19.307a2.816,2.816,0,0,1-1.836,3.517,2.768,2.768,0,0,1-3.708-1.409c-.379-1.183.5-2.538,2.027-3.121S349.472,17.949,349.99,19.307Z" transform="translate(-343.525 -14.644)" fill="#d3e6ff" style="isolation: isolate"/>
          <path id="路径_10037" data-name="路径 10037" d="M345.107,18.238,345.395,21a1.483,1.483,0,0,0,2,.974,1.685,1.685,0,0,0,1.3-1.839l-2.027-2.549Z" transform="translate(-343.206 -14.818)" fill="#bbd5f7" style="isolation: isolate"/>
          <path id="路径_10038" data-name="路径 10038" d="M347.854,16.543a2.238,2.238,0,0,1-3.933,1.918,2.238,2.238,0,0,1,3.933-1.918Z" transform="translate(-343.773 -15.645)" fill="#d3e6ff" style="isolation: isolate"/>
        </g>
      </g>
    </g>
  </g>
</svg>
