<svg xmlns="http://www.w3.org/2000/svg" xmlns:xlink="http://www.w3.org/1999/xlink" width="380" height="266" viewBox="0 0 380 266">
  <defs>
    <clipPath id="clip-path">
      <rect id="矩形_4820" data-name="矩形 4820" width="50.931" height="19.099" fill="none"/>
    </clipPath>
    <clipPath id="clip-path-2">
      <rect id="矩形_4821" data-name="矩形 4821" width="54.114" height="35.015" fill="none"/>
    </clipPath>
  </defs>
  <g id="扫码登录" transform="translate(-0.998 -0.434)">
    <g id="组_25635" data-name="组 25635" transform="translate(0.998 0.435)">
      <path id="路径_8686" data-name="路径 8686" d="M19.376,258C-19,216.279-.294,124.1,74.753,104.143,160.4,81.366,133.5,31.387,194.38,10.975c28.6-9.6,119.664-14.559,150.543,20.851,35.906,41.174-10,84.72,14.356,119.906,12.388,17.9,34.722,79.963,8.055,105.519Z" transform="translate(0.001)" fill="#f4fafe"/>
      <line id="直线_727" data-name="直线 727" x2="364.86" transform="translate(6.502 258)" fill="none" stroke="#bcdfff" stroke-linecap="round" stroke-width="2"/>
    </g>
    <g id="组_25599" data-name="组 25599" transform="translate(16.639 15.822)">
      <rect id="矩形_4799" data-name="矩形 4799" width="106.333" height="98.634" transform="translate(10.299)" fill="#f9fcfe"/>
      <path id="路径_9904" data-name="路径 9904" d="M28.935,72.263l102.25-43.78V43.708L28.935,87.488Z" transform="translate(-16.639 -15.822)" fill="#fff"/>
      <path id="路径_9905" data-name="路径 9905" d="M28.935,92.862l102.25-43.779v4.478L28.935,97.34Z" transform="translate(-16.639 -15.822)" fill="#fff"/>
      <rect id="矩形_4808" data-name="矩形 4808" width="106.333" height="98.634" transform="translate(10.299)" fill="none" stroke="#e2effa" stroke-width="5"/>
      <line id="直线_728" data-name="直线 728" y2="98.634" transform="translate(63.139)" fill="none" stroke="#e2effa" stroke-miterlimit="10" stroke-width="5"/>
      <rect id="矩形_4809" data-name="矩形 4809" width="127.175" height="4.478" transform="translate(0 98.675)" fill="#d7e6f4"/>
    </g>
    <g id="组_25618" data-name="组 25618" transform="translate(22.734 148.902)">
      <g id="组_25613" data-name="组 25613" transform="translate(0 37.849)">
        <path id="路径_9906" data-name="路径 9906" d="M51.745,189.7c-.825.667-2.556,2.012-2.789,1.741-.217-.255.285-2.025.6-3.036-2.908-1.294-9.374-2.455-15.9-.917-.507,1.1-.683,2.711-1.108,2.189a2.884,2.884,0,0,1-.19-1.844,21.351,21.351,0,0,0-9.6,5.746,25.314,25.314,0,0,1,14.631-.494c6.728,1.811,14.473,9.275,16.316,11.155-.1-1.292,3.428-3.479,3.462-5.767S55.071,192.16,51.745,189.7Z" transform="translate(-22.734 -186.751)" fill="#6dcdbb"/>
        <path id="路径_9907" data-name="路径 9907" d="M22.813,193.522c12.406-4.817,25.117,2.4,32.726,12.19,2.038,3.011,2.849,6.656,3.372,10.172.859,5.233,1.4,10.515,1.8,15.8q.768,10.579.574,21.19a.7.7,0,0,1-1.4-.039h0a249.857,249.857,0,0,0-1.428-31.554c-.829-5.867-1.066-12.48-5.413-16.969-7.662-8.615-18.55-14.534-30.168-10.581-.128.052-.208-.17-.07-.21Z" transform="translate(-22.734 -186.751)" fill="#39a19a"/>
      </g>
      <g id="组_25614" data-name="组 25614" transform="translate(41.632 25.633)">
        <path id="路径_9908" data-name="路径 9908" d="M71.679,178.268c.8.533,2.467,1.6,2.654,1.338s-.423-1.8-.786-2.684a25.034,25.034,0,0,1,14.24-2.13c.547.946.838,2.383,1.178,1.88a2.607,2.607,0,0,0,.02-1.676,19.3,19.3,0,0,1,9.114,4.386,22.9,22.9,0,0,0-13.215.757c-5.909,2.181-12.271,9.54-13.775,11.384-.014-1.172-3.373-2.852-3.591-4.91S68.879,180.76,71.679,178.268Z" transform="translate(-64.366 -174.536)" fill="#49b9a0"/>
        <path id="路径_9909" data-name="路径 9909" d="M97.994,179.543c-10.559-2.564-19.923,3.506-26.022,11.726a29.168,29.168,0,0,0-6.236,18.688,305.012,305.012,0,0,0,1,30.563.7.7,0,0,1-1.386.194.738.738,0,0,1-.007-.081c-.512-6.817-.893-13.631-.977-20.468.074-6.82-.411-13.91,1.75-20.486,3.258-9.21,12.008-18.45,21.7-20.67a21.471,21.471,0,0,1,10.223.319.112.112,0,0,1,.067.142.11.11,0,0,1-.117.073Z" transform="translate(-64.366 -174.536)" fill="#39a19a"/>
      </g>
      <g id="组_25615" data-name="组 25615" transform="translate(12.794)">
        <path id="路径_9910" data-name="路径 9910" d="M61.324,161.3a4.612,4.612,0,0,1-2.969.889.139.139,0,0,1-.124-.151.144.144,0,0,1,.064-.1,7.292,7.292,0,0,0,1.907-2.068c-.558-.675-1.093-1.273-1.582-1.759a35.7,35.7,0,0,0-9.862-7.188,4.782,4.782,0,0,1-1.046,1.73.138.138,0,0,1-.221-.15,8.962,8.962,0,0,0,.413-1.957,19.411,19.411,0,0,0-12.242-1.139c-.591,1.131.857,5.064,2.591,8.78,1.033.155,3.425.606,3.986,1.536.475.787-1.288.465-3.019.458.544,1.081,1.086,2.091,1.574,2.943,2.057,3.587.946,9.33,2.091,13.8a19.61,19.61,0,0,1,4.174.047.207.207,0,0,1,.033.4,26.865,26.865,0,0,1-3.143.486c-.252.038-.5.081-.74.125a8.677,8.677,0,0,0,.653,1.407c1.469,2.516,6.587,6.421,9.9,6.421,5.016,0,5.171,1.241,6.825,1.367,0,0,6.309-5.711,7.072-10.8C68.248,172.418,64.654,165.766,61.324,161.3Z" transform="translate(-35.528 -148.902)" fill="#6dcdbb"/>
        <path id="路径_9911" data-name="路径 9911" d="M40.191,152.088a42.037,42.037,0,0,0-4.551-2.624c-.523,1.2.9,5.061,2.612,8.724,1.033.155,3.425.606,3.986,1.535.475.787-1.288.466-3.019.458.544,1.081,1.086,2.092,1.574,2.944,2.057,3.587.946,9.33,2.091,13.8a19.481,19.481,0,0,1,4.174.047.206.206,0,0,1,.17.238.2.2,0,0,1-.137.161,26.69,26.69,0,0,1-3.143.486c-.252.038-.5.081-.74.125a8.6,8.6,0,0,0,.653,1.408c1.469,2.516,6.587,6.42,9.9,6.42,5.016,0,5.171,1.242,6.825,1.368h0C60.74,183.138,56.877,162.5,40.191,152.088Z" transform="translate(-35.528 -148.902)" fill="#49b9a0"/>
        <path id="路径_9912" data-name="路径 9912" d="M40.285,151.942c10.885,6.45,17.988,18.053,20.185,30.387,2.009,12.309,2.271,24.767,3.1,37.176.472,8.266.8,16.534,1.118,24.808a.7.7,0,1,1-1.4.057l-1.17-24.789c-.412-8.259-.862-16.521-1.49-24.758-.613-9.2-1.879-18.52-6.312-26.724a43.458,43.458,0,0,0-14.225-15.862.171.171,0,0,1-.049-.239h0a.177.177,0,0,1,.236-.051Z" transform="translate(-35.528 -148.902)" fill="#39a19a"/>
      </g>
      <g id="组_25616" data-name="组 25616" transform="translate(41.599 43.953)">
        <path id="路径_9913" data-name="路径 9913" d="M88.33,196.524c-5.307-4.849-10.877-4.214-15.049-1.972.166,1.051.489,1.933.22,1.765a2.841,2.841,0,0,1-.673-1.511,14.71,14.71,0,0,0-5.955,6.051c-1.892,4.521-3.342,8.517-2.046,9.75,1.039.991,3.01,1.686,4.059,5.9,1.479-.966,4.111-1.01,6.776-.787,3.078.258,5.106-6.3,4.8-9.611C79.209,192.853,89.58,197.67,88.33,196.524Z" transform="translate(-64.332 -192.855)" fill="#49b9a0"/>
        <path id="路径_9914" data-name="路径 9914" d="M88.33,196.524c-5.307-4.849-10.877-4.214-15.049-1.972.166,1.051.489,1.933.22,1.765a2.841,2.841,0,0,1-.673-1.511,14.71,14.71,0,0,0-5.955,6.051c-1.892,4.521-3.342,8.517-2.046,9.75,1.038.988,3.009,1.685,4.058,5.9.735-6.106,1.978-16.954,9-20.929,1.968-1.113,7.175-.264,10.467,1.142C88.461,196.705,88.465,196.651,88.33,196.524Z" transform="translate(-64.332 -192.855)" fill="#6dcdbb"/>
        <path id="路径_9915" data-name="路径 9915" d="M83.938,195.492c-11.426-3-13.618,12.311-14.335,20.435a171.752,171.752,0,0,0-1.012,17.415c-.071,5.18-.06,10.372.031,15.548a.741.741,0,0,1-1.481.039c-.131-5.211-.149-10.409-.013-15.616.25-10.376.848-21.043,4.6-30.842,1.432-3.565,4.213-7.282,8.365-7.584a10.844,10.844,0,0,1,3.9.409.1.1,0,0,1,.073.121h0a.1.1,0,0,1-.119.075h-.009Z" transform="translate(-64.332 -192.855)" fill="#39a19a"/>
      </g>
      <g id="组_25617" data-name="组 25617" transform="translate(27.141 78.658)">
        <path id="路径_9916" data-name="路径 9916" d="M69.895,257.312H58.1a31.439,31.439,0,0,1-5.9-13.588c-.507-3.362-.584-13.587-.584-13.587h24.97s.235,10.032-.778,14.593C73.851,253.485,69.895,257.312,69.895,257.312Z" transform="translate(-49.875 -227.56)" fill="#3b9ff2"/>
        <path id="路径_9917" data-name="路径 9917" d="M76.575,230.136H74.4l.038.065c-.065.908.226,20.568-18.453,23.94a27.047,27.047,0,0,0,2.109,3.17h11.8s3.956-3.827,5.9-12.583C76.811,240.168,76.575,230.136,76.575,230.136Z" transform="translate(-49.875 -227.56)" fill="#3791dd"/>
        <path id="矩形_4810" data-name="矩形 4810" d="M51.453,227.56H76.532a1.577,1.577,0,0,1,1.578,1.578h0a1.579,1.579,0,0,1-1.578,1.578H51.453a1.578,1.578,0,0,1-1.578-1.578h0a1.576,1.576,0,0,1,1.576-1.578Z" transform="translate(-49.875 -227.56)" fill="#4aaff4"/>
        <path id="路径_9907-2" data-name="路径 9907-2" d="M78.11,229.141a1.577,1.577,0,0,0-1.578-1.578H74.418v3.155h2.114A1.578,1.578,0,0,0,78.11,229.141Z" transform="translate(-49.875 -227.56)" fill="#2c9be6"/>
      </g>
    </g>
    <g id="组_9147" data-name="组 9147" transform="translate(121.86 31.001)">
      <g id="组_8998" data-name="组 8998" transform="translate(113.558)">
        <g id="组_10921" data-name="组 10921" transform="translate(71.629 200.493)">
          <rect id="矩形_3654" data-name="矩形 3654" width="15.154" height="14.033" transform="translate(2.399)" fill="#ffb693"/>
          <g id="组_9009" data-name="组 9009" transform="translate(0 10.398)">
            <path id="路径_8709" data-name="路径 8709" d="M309.787,244.024c-1.4-.993-2.6,2.752-2.6,5.171v5.8h40.838s0-4.74-3.96-5.8-6.242-1.507-6.734-1.792-2.466-1.546-4.841-2.789a57.361,57.361,0,0,0-5.262-2.421c-.789-.264-1.263-.894-4.841,1.159S311.191,245.017,309.787,244.024Z" transform="translate(-307.187 -241.892)" fill="#3c4691"/>
            <path id="路径_8710" data-name="路径 8710" d="M307.189,254.885h40.877v3.346H307.189Z" transform="translate(-307.187 -241.892)" fill="#1a2367"/>
          </g>
        </g>
        <g id="组_10922" data-name="组 10922" transform="translate(23.644 200.493)">
          <rect id="矩形_3654-2" data-name="矩形 3654-2" width="15.154" height="14.033" transform="translate(23.325)" fill="#ffb693"/>
          <g id="组_9009-2" data-name="组 9009-2" transform="translate(0 10.398)">
            <path id="路径_8709-2" data-name="路径 8709-2" d="M297.481,244.024c1.4-.993,2.6,2.752,2.6,5.171v5.8H259.244s0-4.74,3.959-5.8,6.242-1.507,6.735-1.792,2.467-1.546,4.841-2.789a57.639,57.639,0,0,1,5.262-2.421c.79-.264,1.262-.894,4.841,1.159S296.077,245.017,297.481,244.024Z" transform="translate(-259.202 -241.892)" fill="#3c4691"/>
            <path id="路径_8710-2" data-name="路径 8710-2" d="M300.078,254.885H259.2v3.346h40.877Z" transform="translate(-259.202 -241.892)" fill="#1a2367"/>
          </g>
        </g>
        <path id="形状_688_拷贝_3" data-name="形状 688 拷贝 3" d="M318.234,70.589c1.3,1.078-4.271,7.943-6.119,21.546s-1.585,47.351-1.585,47.351H299.365s1.612-33.749-.374-47.351-9.793-20.291-7.254-21.546c2.737-1.353,5.64-1.3,7.628-2.252,0,0,.478,3.665,5.046,3.665,5.315,0,6.432-3.665,6.432-3.665S316.93,69.512,318.234,70.589Z" transform="translate(-235.558 -31.001)" fill="#52c2ad"/>
        <path id="路径_9008" data-name="路径 9008" d="M309.788,121.5v4.712l-10.04.893v-6.134Z" transform="translate(-235.558 -31.001)" fill="#269a84" opacity="0.35" style="isolation: isolate"/>
        <g id="组_9008" data-name="组 9008" transform="translate(37.881 106.91)">
          <path id="路径_8706" data-name="路径 8706" d="M327.088,138.068s5.045,62.014,5.565,69.558,1.47,22.257,1.47,22.257H302.836v-1.049H274.278s1.05-16.38,1.89-26.458,5.774-64.307,5.774-64.307Z" transform="translate(-273.439 -137.911)" fill="#2172ba"/>
          <path id="路径_8711" data-name="路径 8711" d="M335.047,229.161H303.416v7.273h31.631Z" transform="translate(-273.439 -137.911)" fill="#50a1d3"/>
          <path id="路径_8712" data-name="路径 8712" d="M303.5,228.171h-30.06v7.274H303.5Z" transform="translate(-273.439 -137.911)" fill="#50a1d3"/>
          <path id="路径_8713" data-name="路径 8713" d="M303.5,235.159V164.85" transform="translate(-273.439 -137.911)" fill="none" stroke="#0c429f" stroke-linecap="round" stroke-width="0.8"/>
          <path id="路径_8731" data-name="路径 8731" d="M303.416,170.4l7.548,58.766h1.44l1.533,7.292H303.418Z" transform="translate(-273.439 -137.911)" fill="#0c429f" opacity="0.5" style="isolation: isolate"/>
          <path id="路径_8732" data-name="路径 8732" d="M275.688,210.085l2.25,18h1.35l.9,7.379h-6.749v-7.385h.99Z" transform="translate(-273.439 -137.911)" fill="#0c429f" opacity="0.5" style="isolation: isolate"/>
          <path id="路径_8977" data-name="路径 8977" d="M310.552,142.32l-11.575.552v-4.961h11.575Z" transform="translate(-273.439 -137.911)" fill="#0c429f" opacity="0.5" style="isolation: isolate"/>
        </g>
        <g id="组_8970" data-name="组 8970" transform="translate(0 28.589)">
          <g id="组_8963" data-name="组 8963" transform="translate(37.564 8.04)">
            <path id="形状_688_拷贝_2" data-name="形状 688 拷贝 2" d="M281.233,75.686c0-1.918,5.689-5.056,9.153-6.284a45.7,45.7,0,0,1,8.465-1.772s1.359,12.935,1.674,24.293c.174,6.3-.3,29.6,0,47.178.236,13.889.44,21.458.42,39.965l-27.823-3.937s1.92-13.4,3.948-38.265S282.965,105.157,281.233,75.686Z" transform="translate(-273.122 -67.63)" fill="#fcfcfc"/>
            <path id="路径_9007" data-name="路径 9007" d="M300.408,121.279v4.4a95.86,95.86,0,0,1-9.6-1.145c-3.162-.589-9.194-1.592-12.28-2.5,0,0,.28-1.623.517-3.258s.429-3.28.429-3.28,7.613,2.147,12.126,3.533S300.408,121.279,300.408,121.279Z" transform="translate(-273.122 -67.63)" fill="#a0c5ec" opacity="0.35" style="isolation: isolate"/>
          </g>
          <path id="形状_716" data-name="形状 716" d="M299.5,107.988c-1.259-10.655-8.74-24.57-8.74-24.57L295.8,80.74l-5.039-2.283L292.71,69.6" transform="translate(-235.558 -59.59)" fill="none" stroke="#a0c5ec" stroke-linecap="round" stroke-linejoin="round" stroke-width="0.8"/>
          <path id="路径_223" data-name="路径 223" d="M284.619,97.9c-2.044,2.563-25.822,5.239-32.559-.706s-16.5-33.966-16.5-33.966L253.4,59.59s5.321,20.593,12.351,23.544c3.2,1.343,7.052.107,15.479-8.549S286.663,95.334,284.619,97.9Z" transform="translate(-235.558 -59.59)" fill="#fcfcfc"/>
          <g id="组_8965" data-name="组 8965" transform="translate(72.61 8.043)">
            <path id="形状_688_拷贝_2-2" data-name="形状 688 拷贝 2-2" d="M332.184,76.31a23.9,23.9,0,0,0-9.495-6.727c-2.733-.912-11.357-1.95-11.357-1.95a218.79,218.79,0,0,0-2.008,23.819c-.175,6.057-.056,32.728-.356,49.611-.237,13.346-.171,29.151-.8,37.7l30.882-3.8s-1.5-10.271-3.767-27.71-2.466-42.272-2.466-42.272a27.878,27.878,0,0,0,3.6-13.467C336.292,84.149,333.507,77.85,332.184,76.31Z" transform="translate(-308.168 -67.633)" fill="#fff"/>
            <path id="路径_9006" data-name="路径 9006" d="M332.825,105.686a84.346,84.346,0,0,1-11.9,9.783,67.091,67.091,0,0,1-11.8,5.988v3.7a38.884,38.884,0,0,0,13.756-5.862A28.539,28.539,0,0,0,332.825,105.686Z" transform="translate(-308.168 -67.633)" fill="#a0c5ec" opacity="0.35" style="isolation: isolate"/>
          </g>
          <path id="形状_716-2" data-name="形状 716-2" d="M310.079,107.987c.526-12.284,7.691-24.647,7.691-24.647l-4.736-3.476,5.366-2.036-1.556-8.465" transform="translate(-235.558 -59.59)" fill="none" stroke="#a0c5ec" stroke-linecap="round" stroke-linejoin="round" stroke-width="0.8"/>
          <path id="路径_8717" data-name="路径 8717" d="M282.771,87.153a86.308,86.308,0,0,1,.4,11.493" transform="translate(-235.558 -59.59)" fill="none" stroke="#a0c5ec" stroke-linecap="round" stroke-width="0.8"/>
          <path id="路径_8720" data-name="路径 8720" d="M317.061,69.614l3.308,10.394-4.2,1.417,3.622,2.363s-3.359,5.564-5.459,9.449-2.467,8.924-3.045,11.129a25.979,25.979,0,0,1-1.05,3.307,46.671,46.671,0,0,1,2.678-13.6c2.466-6.3,4.882-10.919,4.882-10.919L312.915,80l5.617-2.31Z" transform="translate(-235.558 -59.59)" fill="#a0c5ec" opacity="0.35" style="isolation: isolate"/>
          <path id="路径_8721" data-name="路径 8721" d="M292.6,69.879,289.6,80.746,292.282,82,289.6,83.371s6.72,18.636,7.662,21a8.222,8.222,0,0,0,2.258,3.359,68.191,68.191,0,0,0-3.99-13.963c-2.73-6.25-4.777-10.394-4.777-10.394l5.144-2.625-5.144-2.257Z" transform="translate(-235.558 -59.59)" fill="#a0c5ec" opacity="0.35" style="isolation: isolate"/>
          <path id="路径_8827" data-name="路径 8827" d="M274.96,164.369a24.587,24.587,0,0,0,4.62,6.247,67.417,67.417,0,0,0,8.216,6.608l-14.666-2.067Z" transform="translate(-235.558 -59.59)" fill="#b3cfec" opacity="0.35" style="isolation: isolate"/>
          <path id="路径_8828" data-name="路径 8828" d="M326.721,176.391s-6.361-.522-10.92-1.313a42.9,42.9,0,0,1-7.316-1.849l-.317,5.54Z" transform="translate(-235.558 -59.59)" fill="#b3cfec" opacity="0.35" style="isolation: isolate"/>
          <path id="路径_9009" data-name="路径 9009" d="M283.236,93.03s-14.4,3.955-23.481,2.874-12.847-7.2-12.847-7.2,2.146,5.648,5.383,8.785c1.365,1.324,5.243,2.514,9.577,2.972a63.135,63.135,0,0,0,14.1-.165c3.633-.527,7.266-1.484,7.266-1.484Z" transform="translate(-235.558 -59.59)" fill="#a0c5ec" opacity="0.35" style="isolation: isolate"/>
        </g>
        <path id="路径_8733" data-name="路径 8733" d="M308.926,74.522a7.691,7.691,0,0,1-4.333,1.1,6.2,6.2,0,0,1-3.857-1.1" transform="translate(-235.558 -31.001)" fill="none" stroke="#269a84" stroke-linecap="round" stroke-linejoin="round" stroke-width="0.8"/>
        <g id="组_8969-2" data-name="组 8969-2" transform="translate(50.957 34.36)">
          <g id="组_34_拷贝" data-name="组 34 拷贝" transform="translate(3.085)">
            <g id="组_209" data-name="组 209" transform="translate(20.209 19.137)">
              <path id="形状_72" data-name="形状 72" d="M311.137,99.166c.094-3.833,2.369-14.291,6.683-14.653,5.569-.5,7.434,11.865,7.234,13.824" transform="translate(-309.809 -84.498)" fill="none" stroke="#ea6d54" stroke-width="1.221"/>
              <circle id="椭圆_23" data-name="椭圆 23" cx="1.467" cy="1.467" r="1.467" transform="translate(13.942 13.201)" fill="#f38267"/>
              <circle id="椭圆_24" data-name="椭圆 24" cx="1.467" cy="1.467" r="1.467" transform="translate(0 13.201)" fill="#ea6d54"/>
            </g>
            <path id="路径_8993" data-name="路径 8993" d="M318.374,84.2c0-7.244,1.384-18.958-13.774-18.84s-14.528,12.429-15,23.059" transform="translate(-289.6 -65.361)" fill="none" stroke="#ea6d54" stroke-width="1.321"/>
          </g>
          <g id="组_210" data-name="组 210" transform="translate(0 22.788)">
            <path id="矩形_13" data-name="矩形 13" d="M289.48,88.149h0a2.966,2.966,0,0,1,2.965,2.965h0a2.965,2.965,0,0,1-2.965,2.965h0a2.964,2.964,0,0,1-2.965-2.965h0A2.965,2.965,0,0,1,289.48,88.149Z" transform="translate(-286.515 -88.149)" fill="#ea6d54"/>
            <path id="矩形_14" data-name="矩形 14" d="M289.48,89.547h0a1.567,1.567,0,0,1,1.567,1.567h0a1.566,1.566,0,0,1-1.567,1.567h0a1.567,1.567,0,0,1-1.567-1.567h0A1.568,1.568,0,0,1,289.48,89.547Z" transform="translate(-286.515 -88.149)" fill="#ffc7b3"/>
          </g>
        </g>
        <path id="路径_9064" data-name="路径 9064" d="M327.374,136.252s-.057-.678-1.1-.806-1.3.512-1.3.512l-.649,5.047s.537-.121,1.171-.282,1.371-.37,1.371-.37Z" transform="translate(-235.558 -31.001)" fill="#fcbac7"/>
        <path id="路径_9063" data-name="路径 9063" d="M330.111,139.486s-7.133,2.674-12.549,2.146" transform="translate(-235.558 -31.001)" fill="none" stroke="#a0c5ec" stroke-linecap="round" stroke-linejoin="round" stroke-width="0.8"/>
        <rect id="矩形_3650" data-name="矩形 3650" width="7.299" height="1.452" rx="0.528" transform="translate(89.321 113.66) rotate(-83)" fill="#f3899f"/>
        <g id="组_10908" data-name="组 10908" transform="translate(56.226)">
          <g id="组_8967" data-name="组 8967">
            <g id="组_8957" data-name="组 8957" transform="translate(0 11.806)">
              <path id="路径_8687" data-name="路径 8687" d="M314.44,48.579c0-1.378-1.814-3.276-4.8-4.8s-4.7-1.2-8.669.576c-1.566.7-3.277.149-4.376.983-1.28.968-1.516,3.259-1.45,3.77a1.091,1.091,0,0,1-1.432,1.289c-.971-.265-3.189,1.154-.971,4.576s3.581,2.266,3.581,2.266.451,1.353.846,2.488a11.108,11.108,0,0,0,2.4,2.933,12.436,12.436,0,0,1,.158,3.154,4.377,4.377,0,0,1-.915,2.155l.364,3.829a13.4,13.4,0,0,0,5.748,1.614,13.657,13.657,0,0,0,5.788-1.614l.512-3.956a5.021,5.021,0,0,1-.748-1.949,19.773,19.773,0,0,1-.217-3.234,16.274,16.274,0,0,0,1.894-2.607,13.245,13.245,0,0,0,1.125-2.814s1.771.534,3.712-2.266.37-4.577-1.294-4.577S314.44,49.959,314.44,48.579Z" transform="translate(-291.784 -42.807)" fill="#febf9e"/>
              <path id="路径_8688" data-name="路径 8688" d="M300.015,63.146a11.354,11.354,0,0,0,4.371,1.516,9.551,9.551,0,0,0,3.543-.827" transform="translate(-291.784 -42.807)" fill="none" stroke="#e6785c" stroke-linecap="round" stroke-linejoin="round" stroke-width="0.634"/>
              <path id="路径_8689" data-name="路径 8689" d="M299.562,62.643a7.353,7.353,0,0,0,3.687,1.933,6.6,6.6,0,0,0,3.577-.244A21.3,21.3,0,0,1,302.89,66.6a11.243,11.243,0,0,1-3.662.758,5.721,5.721,0,0,0,.532-2.037A12.779,12.779,0,0,0,299.562,62.643Z" transform="translate(-291.784 -42.807)" fill="#e6785c" opacity="0.5" style="isolation: isolate"/>
              <ellipse id="椭圆_16" data-name="椭圆 16" cx="0.926" cy="0.983" rx="0.926" ry="0.983" transform="translate(7.591 7.722)" fill="#101013"/>
              <ellipse id="椭圆_16-2" data-name="椭圆 16-2" cx="0.926" cy="0.983" rx="0.926" ry="0.983" transform="translate(15.69 7.722)" fill="#101013"/>
              <path id="路径_8692" data-name="路径 8692" d="M303.912,54.566a7.654,7.654,0,0,0,0,2.19c.2.641,1.026.8,1.026.8" transform="translate(-291.784 -42.807)" fill="none" stroke="#ab392c" stroke-linecap="round" stroke-width="0.8"/>
              <path id="形状_121" data-name="形状 121" d="M307.472,59.022a2.886,2.886,0,0,1-3.255.97" transform="translate(-291.784 -42.807)" fill="none" stroke="#ab392c" stroke-linecap="round" stroke-width="0.8"/>
              <path id="路径_8695" data-name="路径 8695" d="M314.393,51.66s1.732-.735,2.2.525-1.878,3.683-2.678,3.727.311-1.28.223-2.257A5.639,5.639,0,0,1,314.393,51.66Z" transform="translate(-291.784 -42.807)" fill="#e6785c" opacity="0.5" style="isolation: isolate"/>
              <path id="路径_8696" data-name="路径 8696" d="M295.009,51.611s-1.422-.311-1.644.577,1.466,3.6,2.266,3.645-.489-1.512-.4-2.488A4.027,4.027,0,0,0,295.009,51.611Z" transform="translate(-291.784 -42.807)" fill="#e6785c" opacity="0.5" style="isolation: isolate"/>
              <path id="路径_8981" data-name="路径 8981" d="M301.4,48.289a3.616,3.616,0,0,0-2.312,0" transform="translate(-291.784 -42.807)" fill="none" stroke="#462a2a" stroke-linecap="round" stroke-width="0.8"/>
              <path id="路径_8982" data-name="路径 8982" d="M307.439,48.289a2.516,2.516,0,0,1,2.312,0" transform="translate(-291.784 -42.807)" fill="none" stroke="#462a2a" stroke-linecap="round" stroke-width="0.8"/>
            </g>
            <g id="组_8956" data-name="组 8956" transform="translate(0.479)">
              <path id="路径_8679" data-name="路径 8679" d="M314.039,52.4a10.093,10.093,0,0,0-1.312-5.661,2.214,2.214,0,0,0-2.462-1.4,5.175,5.175,0,0,0-3.583-1.723c-2.134,0-3.365,1.5-5.552,2.215s-3.61.766-4.54.328c-.065,0-.307.126-.766,2.079a10.894,10.894,0,0,0-.306,4.914c.311,1.645-2.28-2.725-3.069-7.319s1.187-4.6,1.187-4.6-.591-3.315.984-5.5,5.049-4.391,8.495-2.586,3.059.36,6.119,1.44,3.086,3.668,3.492,4.347c.2.323,1.224-.717,2.717.514s2.155,3.8,1.417,7S313.862,54.623,314.039,52.4Z" transform="translate(-292.263 -31.001)" fill="#101013"/>
              <path id="路径_8686-2" data-name="路径 8686-2" d="M311.851,39.8c.9-2.378.541-5.941-2.166-7.089S303.749,33.1,302.3,31" transform="translate(-292.263 -31.001)" fill="none" stroke="#000" stroke-linecap="round" stroke-linejoin="round" stroke-width="0.634"/>
              <path id="路径_8950" data-name="路径 8950" d="M315.895,38.649s-2.246-1.685-4.084,1.074" transform="translate(-292.263 -31.001)" fill="none" stroke="#000" stroke-linecap="round" stroke-width="0.634"/>
            </g>
          </g>
          <g id="组_8960" data-name="组 8960" transform="translate(3.166 18.267)">
            <g id="矩形_3651" data-name="矩形 3651" transform="translate(1.553)">
              <rect id="矩形_4812" data-name="矩形 4812" width="7.22" height="5.251" rx="1.585" fill="none"/>
              <rect id="矩形_4813" data-name="矩形 4813" width="6.797" height="4.829" rx="1.374" transform="translate(0.212 0.211)" fill="none" stroke="#462a2a" stroke-width="0.423"/>
            </g>
            <g id="矩形_3652" data-name="矩形 3652" transform="translate(10.086)">
              <rect id="矩形_4814" data-name="矩形 4814" width="7.22" height="5.251" rx="1.585" fill="none"/>
              <rect id="矩形_4815" data-name="矩形 4815" width="6.797" height="4.829" rx="1.374" transform="translate(0.212 0.211)" fill="none" stroke="#462a2a" stroke-width="0.423"/>
            </g>
            <path id="路径_8700" data-name="路径 8700" d="M305.241,51.87H303.5" transform="translate(-294.95 -49.268)" fill="none" stroke="#462a2a" stroke-linecap="round" stroke-width="0.423"/>
            <path id="路径_8701" data-name="路径 8701" d="M312.01,51.337l1.729-1.362" transform="translate(-294.95 -49.268)" fill="none" stroke="#462a2a" stroke-linecap="round" stroke-width="0.423"/>
            <path id="路径_8702" data-name="路径 8702" d="M296.777,51.337l-1.827-1.444" transform="translate(-294.95 -49.268)" fill="none" stroke="#462a2a" stroke-linecap="round" stroke-width="0.423"/>
          </g>
        </g>
      </g>
      <g id="组_9146" data-name="组 9146" transform="translate(0 7.999)">
        <g id="组_25612" data-name="组 25612" transform="translate(0 3.218)">
          <g id="组_25600" data-name="组 25600">
            <g id="矩形_4800" data-name="矩形 4800">
              <rect id="矩形_4818" data-name="矩形 4818" width="135.775" height="215.782" rx="14.157" fill="#fff"/>
              <rect id="矩形_4819" data-name="矩形 4819" width="134.775" height="214.782" rx="13.657" transform="translate(0.5 0.5)" fill="none" stroke="#abcdff" stroke-width="1"/>
            </g>
            <rect id="矩形_4801" data-name="矩形 4801" width="114.386" height="163.834" rx="4.12" transform="translate(10.694 14.466)" fill="#eaf4ff"/>
            <circle id="椭圆_939" data-name="椭圆 939" cx="10.821" cy="10.821" r="10.821" transform="translate(57.066 185.979)" fill="#bbdaff"/>
            <circle id="椭圆_939-2" data-name="椭圆 939" cx="8.5" cy="8.5" r="8.5" transform="translate(59.387 188.3)" fill="#e2effe"/>
            <rect id="矩形_4802" data-name="矩形 4802" width="30.531" height="3.277" rx="1.638" transform="translate(52.622 6.946)" fill="#abcdff"/>
          </g>
          <g id="组_7524" data-name="组 7524" transform="translate(25.549 53.907)">
            <g id="组_7518" data-name="组 7518" transform="translate(7.524 7.392)">
              <rect id="矩形_2438" data-name="矩形 2438" width="70.624" height="70.624" fill="#abcdff" opacity="0.33" style="isolation: isolate"/>
            </g>
            <g id="组_7522" data-name="组 7522" transform="translate(11.044 18.212)">
              <g id="组_7521" data-name="组 7521" transform="translate(5.488)">
                <g id="组_25602" data-name="组 25602" transform="translate(1.592)">
                  <g id="组_25618-2" data-name="组 25618-2">
                    <g id="组_25637" data-name="组 25637">
                      <g id="组_25636" data-name="组 25636" clip-path="url(#clip-path)">
                        <g id="组_25617-2" data-name="组 25617-2" transform="translate(0.655 1.16)">
                          <g id="组_25601" data-name="组 25601">
                            <g id="蒙版组_7175" data-name="蒙版组 7175">
                              <path id="路径_5464" data-name="路径 5464" d="M172.461,155.322h3.777v3.784h-3.777Zm6.128-2.351v8.477H170.1v-8.477Zm.358-3.777h-9.193a3.419,3.419,0,0,0-3.421,3.419h0v9.2a3.42,3.42,0,0,0,3.42,3.42h9.192a3.422,3.422,0,0,0,3.421-3.419h0v-9.2a3.421,3.421,0,0,0-3.421-3.42h0Zm27.216,6.128h3.78v3.784h-3.785Zm6.128-2.351v8.477H203.8v-8.477Zm.358-3.777h-9.2a3.419,3.419,0,0,0-3.421,3.419h0v9.2a3.42,3.42,0,0,0,3.42,3.42h9.2a3.421,3.421,0,0,0,3.416-3.42v-9.2a3.422,3.422,0,0,0-3.415-3.42Zm-6.491-27.57h3.785V125.4h-3.785Zm6.128-2.349v8.477H203.8v-8.477Zm.363-3.778h-9.2a3.421,3.421,0,0,0-3.421,3.42h0v9.191a3.422,3.422,0,0,0,3.421,3.421h9.2a3.422,3.422,0,0,0,3.42-3.421h0v-9.191a3.422,3.422,0,0,0-3.42-3.417Zm-40.188,6.127h3.777V125.4h-3.777Zm-2.349,6.128v-8.477h8.477v8.477Zm-.358,3.778h9.191a3.422,3.422,0,0,0,3.421-3.42h0v-9.193a3.423,3.423,0,0,0-3.421-3.42h-9.191a3.421,3.421,0,0,0-3.421,3.42v9.191a3.422,3.422,0,0,0,3.421,3.421h0Zm-3.421,11.538h3.774v3.783h-3.779Zm22.16,3.064h-3.778v9.9h3.064v2.349h-3.064v3.778h6.129v3.064h3.779v-3.064h3.065v-3.778H193.9v3.064h-2.349v-5.412h6.132v-3.774h-9.2ZM213,133.876h-3.782v6.131H203.8v-6.126H194.61v-6.128h-3.063V125.4h3.063v-3.061h3.069v-3.78H194.61V115.5h-9.9v3.778h6.129v2.349h-3.067v6.844h3.067v5.414h-3.067v3.063h-5.411v-3.064h-3.777v3.064h-2.351v-3.064h-6.844v3.064h-3.061v3.777H170.1v-3.064h5.411v3.064h3.066v6.131h3.778v-6.128h6.128v-3.067h11.539v2.351h-9.19v3.779H193.9v6.127h6.844v-3.781h-3.064v-2.35h12.255v-3.063h2.349v3.063h3.779v-3.775h-3.07Z" transform="translate(-166.328 -115.497)" fill="#6b9aff"/>
                            </g>
                          </g>
                        </g>
                      </g>
                    </g>
                  </g>
                </g>
                <g id="组_25604" data-name="组 25604" transform="translate(0 19.099)">
                  <g id="组_25620" data-name="组 25620">
                    <g id="组_25639" data-name="组 25639">
                      <g id="组_25638" data-name="组 25638" clip-path="url(#clip-path-2)">
                        <g id="组_25619" data-name="组 25619" transform="translate(1.593 -17.939)">
                          <g id="组_25603" data-name="组 25603">
                            <g id="蒙版组_7176" data-name="蒙版组 7176">
                              <path id="路径_5465" data-name="路径 5465" d="M171.8,155.322h3.776v3.784H171.8Zm6.127-2.351v8.477h-8.477v-8.477Zm.358-3.777h-9.193a3.42,3.42,0,0,0-3.42,3.42v9.2a3.42,3.42,0,0,0,3.42,3.42h9.192a3.42,3.42,0,0,0,3.419-3.42h0v-9.2a3.42,3.42,0,0,0-3.419-3.42h0Zm27.217,6.128h3.78v3.784H205.5Zm6.127-2.351v8.477H203.15v-8.477Zm.358-3.777h-9.2a3.42,3.42,0,0,0-3.42,3.42h0v9.2a3.42,3.42,0,0,0,3.42,3.42h9.2a3.42,3.42,0,0,0,3.416-3.42v-9.2a3.421,3.421,0,0,0-3.417-3.421Zm-6.49-27.57h3.785V125.4H205.5Zm6.128-2.349v8.477H203.15v-8.477Zm.362-3.778h-9.2a3.42,3.42,0,0,0-3.42,3.42h0v9.191a3.422,3.422,0,0,0,3.42,3.421h9.2a3.423,3.423,0,0,0,3.421-3.421h0v-9.191a3.422,3.422,0,0,0-3.422-3.417ZM171.8,121.624h3.776V125.4H171.8Zm-2.35,6.128v-8.477h8.477v8.477Zm-.358,3.778h9.192a3.421,3.421,0,0,0,3.419-3.42h0v-9.193a3.42,3.42,0,0,0-3.419-3.42h-9.192a3.42,3.42,0,0,0-3.42,3.42v9.191a3.422,3.422,0,0,0,3.42,3.421h0Zm-3.42,11.538h3.778v3.783h-3.778Zm22.16,3.064h-3.779v9.9h3.064v2.349h-3.064v3.778h6.129v3.064h3.779v-3.064h3.064v-3.778h-3.782v3.064H190.9v-5.412h6.132v-3.774h-9.194Zm24.51-12.256h-3.781v6.131h-5.412v-6.126H193.96v-6.128H190.9V125.4h3.064v-3.061h3.068v-3.78H193.96V115.5h-9.905v3.778h6.129v2.349h-3.066v6.844h3.066v5.414h-3.066v3.063h-5.41v-3.064h-3.777v3.064h-2.352v-3.064h-6.843v3.064h-3.061v3.777h3.779v-3.064h5.412v3.064h3.065v6.131h3.779v-6.128h6.127v-3.067h11.539v2.351h-9.189v3.779h3.063v6.127h6.844v-3.781H197.03v-2.35h12.256v-3.063h2.349v3.063h3.778v-3.775h-3.07Z" transform="translate(-165.674 -115.497)" fill="#4d8bf7"/>
                            </g>
                          </g>
                        </g>
                      </g>
                    </g>
                  </g>
                </g>
              </g>
              <rect id="矩形_2442" data-name="矩形 2442" width="63.583" height="2.569" rx="1.068" transform="translate(0 18.074)" fill="#ea6d54"/>
            </g>
            <g id="组_7523" data-name="组 7523">
              <path id="路径_5466" data-name="路径 5466" d="M147.549,110.9V96.125H162.6" transform="translate(-147.549 -96.125)" fill="none" stroke="#8dc1ff" stroke-linecap="round" stroke-linejoin="round" stroke-width="2"/>
              <path id="路径_5467" data-name="路径 5467" d="M232.226,110.9V96.125H217.179" transform="translate(-147.549 -96.125)" fill="none" stroke="#8dc1ff" stroke-linecap="round" stroke-linejoin="round" stroke-width="2"/>
              <path id="路径_5468" data-name="路径 5468" d="M147.549,166.623V181.4H162.6" transform="translate(-147.549 -96.125)" fill="none" stroke="#8dc1ff" stroke-linecap="round" stroke-linejoin="round" stroke-width="2"/>
              <path id="路径_5469" data-name="路径 5469" d="M232.226,166.623V181.4H217.179" transform="translate(-147.549 -96.125)" fill="none" stroke="#8dc1ff" stroke-linecap="round" stroke-linejoin="round" stroke-width="2"/>
            </g>
          </g>
        </g>
        <g id="组_9091" data-name="组 9091" transform="translate(135.849 32.907)">
          <g id="组_9006" data-name="组 9006">
            <path id="路径_8705" data-name="路径 8705" d="M273.8,113.79,279,96.48s15.337,7.422,25.146,5.288,14.09-13.827,14.09-13.827l8.453-16.034s8.105,4.988,9.216,14.411c.916,7.761-.486,14.712-3.084,18.664-4,6.091-14.58,13.836-24.115,16.391S273.8,113.79,273.8,113.79Z" transform="translate(-257.849 -71.907)" fill="#fff"/>
            <path id="路径_8729" data-name="路径 8729" d="M306.038,121.715a182.693,182.693,0,0,1-18.06-5.869,69.855,69.855,0,0,1-12.606-6.567l-1.509,5.058s5.51,1.887,14.116,4.454A83.86,83.86,0,0,0,306.038,121.715Z" transform="translate(-257.849 -71.907)" fill="#a0c5ec" opacity="0.35" style="isolation: isolate"/>
            <g id="组_9092" data-name="组 9092" transform="translate(0 19.087)">
              <path id="路径_6618" data-name="路径 6618" d="M277.851,99.836s-6.144-3.357-7.254-3.989-11.17-6.011-12.356-4.626.461,2.182,3.015,3.414a12.155,12.155,0,0,1,3.732,2.609s-3.654.762-4.355,2.156a14.868,14.868,0,0,0-1.092,4.356c-.369,1.93,1.152,1.755,1.152,1.755a1.159,1.159,0,0,0,.836,1.037,1.191,1.191,0,0,0,1.269-.506,1.133,1.133,0,0,0,1.441.593c.953-.408,1.874-1.731,2.591-2s1.229-.646,3.069.587,2.146,1.752,3.983,2.245a12.235,12.235,0,0,0,1.639.226Z" transform="translate(-257.849 -90.994)" fill="#febf9e"/>
              <path id="路径_6619" data-name="路径 6619" d="M260.8,105.283s1.011-3.315,1.836-4.235a5.562,5.562,0,0,1,3.117-1.424" transform="translate(-257.849 -90.994)" fill="none" stroke="#e6785c" stroke-linecap="round" stroke-linejoin="round" stroke-width="0.793"/>
              <path id="路径_6620" data-name="路径 6620" d="M262.968,105.762a12.883,12.883,0,0,1,1.54-2.834,6.335,6.335,0,0,1,2.083-.792" transform="translate(-257.849 -90.994)" fill="none" stroke="#e6785c" stroke-linecap="round" stroke-linejoin="round" stroke-width="0.793"/>
            </g>
            <path id="路径_8705-2" data-name="路径 8705" d="M332.817,104.982c-4,6.091-14.58,13.836-24.115,16.391s-34.9-7.583-34.9-7.583L279,96.48s15.337,7.422,25.146,5.288,14.09-13.827,14.09-13.827" transform="translate(-257.849 -71.907)" fill="none" stroke="#a0c5ec" stroke-linecap="round" stroke-linejoin="round" stroke-width="0.8"/>
          </g>
        </g>
        <g id="组_9093" data-name="组 9093" transform="translate(106.334)">
          <path id="路径_6535" data-name="路径 6535" d="M240.429,40.873c-.519-2.092-2.84-1.429-2.84-1.429A3.386,3.386,0,0,0,236,39a4.807,4.807,0,0,0-1.782.443A3.432,3.432,0,0,0,232.7,39a4.433,4.433,0,0,0-1.65.442s-2.219,0-2.577,1.759a8.208,8.208,0,0,0,.792,5.285c.732.969,1.784,0,1.784,0s.26,1.916,1.352,2.246a1.779,1.779,0,0,0,1.818-.572,1.366,1.366,0,0,0,1.409,1.3,1.634,1.634,0,0,0,1.6-1.3A1.377,1.377,0,0,0,239.167,48a1.322,1.322,0,0,0,.138-.195,21.234,21.234,0,0,0,.893-3.1,23.7,23.7,0,0,0,.368-2.808h3.1s.76-1.916-.727-2.081-2.374,1.552-2.374,1.552S240.509,41.193,240.429,40.873Z" transform="translate(-228.334 -39)" fill="#febf9e"/>
          <path id="路径_6536" data-name="路径 6536" d="M231.048,46.157c-.014-.168,0-2.973,0-5.351" transform="translate(-228.334 -39)" fill="none" stroke="#e6785c" stroke-linecap="round" stroke-width="0.793"/>
          <path id="路径_6537" data-name="路径 6537" d="M234.219,47.676V40.74" transform="translate(-228.334 -39)" fill="none" stroke="#e6785c" stroke-linecap="round" stroke-width="0.793"/>
          <path id="路径_6538" data-name="路径 6538" d="M237.3,47.478a50.428,50.428,0,0,0,0-6.8" transform="translate(-228.334 -39)" fill="none" stroke="#e6785c" stroke-linecap="round" stroke-width="0.793"/>
        </g>
      </g>
    </g>
    <rect id="矩形_2843" data-name="矩形 2843" width="380" height="266" transform="translate(0.998 0.434)" fill="none"/>
  </g>
</svg>
