<svg xmlns="http://www.w3.org/2000/svg" xmlns:xlink="http://www.w3.org/1999/xlink" width="380.003" height="266" viewBox="0 0 380.003 266">
  <defs>
    <clipPath id="clip-path">
      <circle id="椭圆_951" data-name="椭圆 951" cx="8.475" cy="8.475" r="8.475" transform="translate(313.954 183.216)" fill="none"/>
    </clipPath>
    <clipPath id="clip-path-2">
      <path id="路径_406" data-name="路径 406" d="M345.756,241.626c10.442,0,18.906,6.747,18.906,15.068h-37.81C326.852,248.373,335.321,241.626,345.756,241.626Z" fill="none"/>
    </clipPath>
    <clipPath id="clip-path-3">
      <path id="路径_407" data-name="路径 407" d="M334.16,174.241l7.985,10.775-9.229,18.859-18.039-27.624Z" fill="none"/>
    </clipPath>
    <linearGradient id="linear-gradient" x1="0.481" y1="0.274" x2="0.75" y2="0.798" gradientUnits="objectBoundingBox">
      <stop offset="0" stop-color="#fbfdff" stop-opacity="0"/>
      <stop offset="1" stop-color="#81acff"/>
    </linearGradient>
  </defs>
  <g id="短信验证码" transform="translate(0.002)">
    <path id="路径_8686" data-name="路径 8686" d="M19.382,258C-19,216.279-.295,124.1,74.782,104.143c85.683-22.777,58.772-72.756,119.671-93.168,28.613-9.6,119.708-14.559,150.6,20.851,35.919,41.174-10,84.72,14.361,119.906,12.393,17.9,34.735,79.963,8.058,105.519Z" fill="#f4fafe"/>
    <rect id="矩形_2843" data-name="矩形 2843" width="380" height="266" transform="translate(0)" fill="none"/>
    <line id="直线_727" data-name="直线 727" x2="365" transform="translate(6.5 258)" fill="none" stroke="#bcdfff" stroke-linecap="round" stroke-width="2"/>
    <g id="组_25804" data-name="组 25804">
      <g id="组_25627" data-name="组 25627">
        <g id="组_9194" data-name="组 9194">
          <rect id="矩形_2818" data-name="矩形 2818" width="262.689" height="184.224" rx="7.866" transform="translate(87.81 21.262)" fill="#fff" stroke="#abcdff" stroke-width="1"/>
          <path id="矩形_2819" data-name="矩形 2819" d="M94.642,21.264H343.255a6.838,6.838,0,0,1,6.832,6.843V44.613H87.809V28.1A6.839,6.839,0,0,1,94.642,21.264Z" fill="#a3c9ff"/>
          <path id="路径_8555" data-name="路径 8555" d="M106.194,33.988a4.266,4.266,0,0,1-4.267,4.265h0a4.267,4.267,0,0,1-4.265-4.267h0a4.266,4.266,0,0,1,4.266-4.265h0a4.266,4.266,0,0,1,4.266,4.266Z" fill="#fff"/>
          <path id="路径_8556" data-name="路径 8556" d="M118.838,33.988a4.266,4.266,0,0,1-4.265,4.267h0A4.267,4.267,0,0,1,110.3,33.99v0a4.266,4.266,0,0,1,4.265-4.267h.02a4.249,4.249,0,0,1,4.249,4.249h0Z" fill="#fff"/>
          <path id="路径_8557" data-name="路径 8557" d="M130.925,33.988a4.266,4.266,0,0,1-4.267,4.265h0a4.267,4.267,0,0,1-4.265-4.267h0a4.266,4.266,0,0,1,4.266-4.265h0A4.268,4.268,0,0,1,130.925,33.988Z" fill="#fff"/>
        </g>
      </g>
      <path id="路径_8522" data-name="路径 8522" d="M235.388,86.711h-3.906V80.777a12.329,12.329,0,1,0-24.658,0v5.934h-3.9a4.5,4.5,0,0,0-4.213,4.725v20.5a4.5,4.5,0,0,0,4.213,4.725h32.468a4.5,4.5,0,0,0,4.212-4.725v-20.5A4.5,4.5,0,0,0,235.388,86.711Zm-24.2-5.934a7.973,7.973,0,0,1,15.873-1.062,7,7,0,0,1,.052,1.061v5.935h-15.93Zm9.055,23.376V106.8a1.092,1.092,0,0,1-2.174.149.934.934,0,0,1-.007-.149v-2.644a3.813,3.813,0,1,1,4.885-4.161,3.476,3.476,0,0,1,.025.518,3.808,3.808,0,0,1-2.729,3.642Z" fill="#abcdff"/>
      <g id="组_25803" data-name="组 25803">
        <g id="组_25788" data-name="组 25788">
          <g id="组_25787" data-name="组 25787">
            <rect id="矩形_4854" data-name="矩形 4854" width="24" height="26" transform="translate(284.654 139.624)" fill="#fff"/>
            <rect id="矩形_4855" data-name="矩形 4855" width="24" height="26" transform="translate(284.654 139.624)" fill="none" stroke="#abcdff" stroke-width="1"/>
          </g>
          <line id="直线_738" data-name="直线 738" x2="9.727" transform="translate(291.721 152.624)" fill="none" stroke="#4c6193" stroke-miterlimit="10" stroke-width="2"/>
        </g>
        <g id="组_25790" data-name="组 25790">
          <g id="组_25789" data-name="组 25789">
            <rect id="矩形_4856" data-name="矩形 4856" width="24" height="26" transform="translate(253.654 139.624)" fill="#fff"/>
            <rect id="矩形_4857" data-name="矩形 4857" width="24" height="26" transform="translate(253.654 139.624)" fill="none" stroke="#abcdff" stroke-width="1"/>
          </g>
          <line id="直线_739" data-name="直线 739" x2="9.727" transform="translate(260.799 152.624)" fill="none" stroke="#4c6193" stroke-miterlimit="10" stroke-width="2"/>
        </g>
        <g id="组_25793" data-name="组 25793">
          <g id="组_25791" data-name="组 25791">
            <rect id="矩形_4858" data-name="矩形 4858" width="24" height="26" transform="translate(222.654 139.624)" fill="#fff"/>
            <rect id="矩形_4859" data-name="矩形 4859" width="24" height="26" transform="translate(222.654 139.624)" fill="none" stroke="#abcdff" stroke-width="1"/>
          </g>
          <g id="组_25792" data-name="组 25792">
            <path id="路径_10095" data-name="路径 10095" d="M230.782,156.445l1.693-2.924-3.052-1.357.616-1.9,3.282.743.333-3.386h2.026l.308,3.386,3.282-.743.616,1.9-3.078,1.357,1.719,2.924-1.616,1.179-2.257-2.564-2.257,2.564Z" fill="#4c6193"/>
          </g>
        </g>
        <g id="组_25796" data-name="组 25796">
          <g id="组_25794" data-name="组 25794">
            <rect id="矩形_4860" data-name="矩形 4860" width="24" height="26" transform="translate(191.654 139.624)" fill="#fff"/>
            <rect id="矩形_4861" data-name="矩形 4861" width="24" height="26" transform="translate(191.654 139.624)" fill="none" stroke="#abcdff" stroke-width="1"/>
          </g>
          <g id="组_25795" data-name="组 25795">
            <path id="路径_10096" data-name="路径 10096" d="M199.782,156.445l1.693-2.924-3.052-1.357.616-1.9,3.282.743.333-3.386h2.026l.308,3.386,3.282-.743.616,1.9-3.078,1.357,1.719,2.924-1.616,1.179-2.257-2.564-2.257,2.564Z" fill="#4c6193"/>
          </g>
        </g>
        <g id="组_25799" data-name="组 25799">
          <g id="组_25797" data-name="组 25797">
            <rect id="矩形_4862" data-name="矩形 4862" width="24" height="26" transform="translate(160.654 139.624)" fill="#fff"/>
            <rect id="矩形_4863" data-name="矩形 4863" width="24" height="26" transform="translate(160.654 139.624)" fill="none" stroke="#abcdff" stroke-width="1"/>
          </g>
          <g id="组_25798" data-name="组 25798">
            <path id="路径_10097" data-name="路径 10097" d="M168.782,156.445l1.693-2.924-3.052-1.357.616-1.9,3.282.743.333-3.386h2.026l.308,3.386,3.282-.743.616,1.9-3.078,1.357,1.719,2.924-1.616,1.179-2.257-2.564-2.257,2.564Z" fill="#4c6193"/>
          </g>
        </g>
        <g id="组_25802" data-name="组 25802">
          <g id="组_25800" data-name="组 25800">
            <rect id="矩形_4864" data-name="矩形 4864" width="24" height="26" transform="translate(129.654 139.624)" fill="#fff"/>
            <rect id="矩形_4865" data-name="矩形 4865" width="24" height="26" transform="translate(129.654 139.624)" fill="none" stroke="#abcdff" stroke-width="1"/>
          </g>
          <g id="组_25801" data-name="组 25801">
            <path id="路径_10098" data-name="路径 10098" d="M137.782,156.445l1.693-2.924-3.052-1.357.616-1.9,3.282.743.333-3.386h2.026l.308,3.386,3.282-.743.616,1.9-3.078,1.357,1.719,2.924-1.616,1.179-2.257-2.564-2.257,2.564Z" fill="#4c6193"/>
          </g>
        </g>
      </g>
    </g>
    <g id="组_25818" data-name="组 25818">
      <g id="组_25807" data-name="组 25807">
        <path id="路径_5462" data-name="路径 5462" d="M15.755,188.888A48.164,48.164,0,1,1,73.7,236.057v20.637H48.233V234.426A48.173,48.173,0,0,1,15.755,188.888Z" fill="#febf9e"/>
        <path id="路径_10099" data-name="路径 10099" d="M63.928,140.733A47.941,47.941,0,0,0,40.523,146.8v54.367a8.671,8.671,0,0,0,8.671,8.67h58.092a48.151,48.151,0,0,0-43.358-69.1Z" fill="#e6785c" opacity="0.5" style="isolation: isolate"/>
        <g id="组_7517" data-name="组 7517">
          <path id="矩形_2435" data-name="矩形 2435" d="M131.2,119.726l-30.234,10.43a8.645,8.645,0,0,0-5.353,10.99h0A8.644,8.644,0,0,0,106.6,146.5l30.235-10.43a8.643,8.643,0,0,0,5.352-10.99h0A8.643,8.643,0,0,0,131.2,119.726Z" fill="#febf9e"/>
        </g>
        <g id="组_25612" data-name="组 25612">
          <g id="组_25600" data-name="组 25600">
            <g id="矩形_4800" data-name="矩形 4800">
              <path id="矩形_4818" data-name="矩形 4818" d="M49.194,62.822h65.812c4.789,0,8.67,4.171,8.67,9.317V195.518c0,5.146-3.881,9.317-8.67,9.317H49.194c-4.789,0-8.671-4.171-8.671-9.317V72.139C40.523,66.993,44.4,62.822,49.194,62.822Z" fill="#fff"/>
              <path id="矩形_4819" data-name="矩形 4819" d="M49.194,63.151h65.812c4.62,0,8.364,4.024,8.364,8.988V195.518c0,4.964-3.744,8.988-8.364,8.988H49.194c-4.62,0-8.364-4.024-8.364-8.988V72.139C40.83,67.175,44.574,63.151,49.194,63.151Z" fill="none" stroke="#abcdff" stroke-width="0.635"/>
            </g>
            <path id="矩形_4801" data-name="矩形 4801" d="M49.6,72.342H114.6a2.622,2.622,0,0,1,2.523,2.712v102.4a2.622,2.622,0,0,1-2.523,2.711H49.6a2.622,2.622,0,0,1-2.523-2.711V75.054A2.622,2.622,0,0,1,49.6,72.342Z" fill="#eaf4ff"/>
            <ellipse id="椭圆_939" data-name="椭圆 939" cx="6.627" cy="7.122" rx="6.627" ry="7.122" transform="translate(75.472 185.221)" fill="#bbdaff"/>
            <ellipse id="椭圆_939-2" data-name="椭圆 939-2" cx="5.206" cy="5.594" rx="5.206" ry="5.594" transform="translate(76.894 186.748)" fill="#e2effe"/>
            <path id="矩形_4802" data-name="矩形 4802" d="M73.754,67.393H90.446a1.043,1.043,0,0,1,1,1.078h0a1.043,1.043,0,0,1-1,1.078H73.754a1.043,1.043,0,0,1-1-1.078h0A1.043,1.043,0,0,1,73.754,67.393Z" fill="#abcdff"/>
          </g>
        </g>
        <path id="路径_5463" data-name="路径 5463" d="M63.837,225.242c0-1.213,1.394-3.673,2.414-7.475,0,0,2.181-8.933.309-16.969s-6.568-12.061-12.349-16-8.161-4.814-8.161-4.814a10.72,10.72,0,0,1-4.973-9.288V131.649s-1.33-22.116-18.474-17.09v31.834h0s-6.848,16.252-6.848,41.719S24.82,218.94,24.82,218.94v37.754H63.837Z" fill="#febf9e"/>
        <path id="路径_5463-2" data-name="路径 5463" d="M63.837,241.064V225.242c0-1.213,1.394-3.673,2.414-7.475,0,0,2.181-8.933.309-16.969s-6.568-12.061-12.349-16-8.161-4.814-8.161-4.814a10.72,10.72,0,0,1-4.973-9.288V143.075" fill="none" stroke="#e6785c" stroke-linecap="round" stroke-linejoin="round" stroke-width="0.8"/>
        <g id="组_7525" data-name="组 7525">
          <path id="矩形_2443" data-name="矩形 2443" d="M117.224,146.907l-22.65,7.637A8.88,8.88,0,0,0,89,165.8h0a8.879,8.879,0,0,0,11.251,5.577l22.651-7.637a8.88,8.88,0,0,0,5.577-11.252h0A8.88,8.88,0,0,0,117.224,146.907Z" fill="#febf9e"/>
          <path id="路径_5470" data-name="路径 5470" d="M96.105,158.234l2.484-.837,3.134,9.3-2.484.837a4.907,4.907,0,1,1-3.134-9.3Z" fill="#fff" opacity="0.502"/>
        </g>
        <g id="组_25805" data-name="组 25805">
          <g id="组_7526" data-name="组 7526">
            <rect id="矩形_2444" data-name="矩形 2444" width="40.881" height="17.427" rx="8.713" transform="translate(90.957 177.438) rotate(-18.633)" fill="#febf9e"/>
          </g>
          <path id="路径_5471" data-name="路径 5471" d="M101.105,178.234l2.484-.837,3.134,9.3-2.484.837a4.907,4.907,0,1,1-3.134-9.3Z" fill="#fff" opacity="0.502"/>
        </g>
        <g id="组_25806" data-name="组 25806">
          <g id="组_7527" data-name="组 7527">
            <path id="矩形_2445" data-name="矩形 2445" d="M119.754,188.647l-19.691,6.64a7.72,7.72,0,0,0-4.849,9.782h0A7.721,7.721,0,0,0,105,209.918l19.692-6.64a7.719,7.719,0,0,0,4.848-9.782h0A7.72,7.72,0,0,0,119.754,188.647Z" fill="#febf9e"/>
          </g>
          <path id="路径_5472" data-name="路径 5472" d="M101.707,198.258l2.218-.748,2.8,8.3-2.218.748a4.38,4.38,0,0,1-2.8-8.3Z" fill="#fff" opacity="0.502"/>
        </g>
      </g>
      <g id="组_25816" data-name="组 25816" opacity="0.33" style="isolation: isolate">
        <g id="组_25811" data-name="组 25811">
          <g id="组_25808" data-name="组 25808">
            <rect id="矩形_4866" data-name="矩形 4866" width="14" height="16" transform="translate(97.1 130.255)" fill="#abcdff"/>
            <rect id="矩形_4867" data-name="矩形 4867" width="14" height="16" transform="translate(97.1 130.255)" fill="#abcdff"/>
          </g>
          <g id="组_25809" data-name="组 25809">
            <rect id="矩形_4868" data-name="矩形 4868" width="14" height="16" transform="translate(75.1 130.255)" fill="#abcdff"/>
            <rect id="矩形_4869" data-name="矩形 4869" width="14" height="16" transform="translate(75.1 130.255)" fill="#abcdff"/>
          </g>
          <g id="组_25810" data-name="组 25810">
            <rect id="矩形_4870" data-name="矩形 4870" width="14" height="16" transform="translate(53.1 130.255)" fill="#abcdff"/>
            <rect id="矩形_4871" data-name="矩形 4871" width="14" height="16" transform="translate(53.1 130.255)" fill="#abcdff"/>
          </g>
        </g>
        <g id="组_25815" data-name="组 25815">
          <g id="组_25812" data-name="组 25812">
            <rect id="矩形_4872" data-name="矩形 4872" width="14" height="16" transform="translate(97.1 106.255)" fill="#abcdff"/>
            <rect id="矩形_4873" data-name="矩形 4873" width="14" height="16" transform="translate(97.1 106.255)" fill="#abcdff"/>
          </g>
          <g id="组_25813" data-name="组 25813">
            <rect id="矩形_4874" data-name="矩形 4874" width="14" height="16" transform="translate(75.1 106.255)" fill="#abcdff"/>
            <rect id="矩形_4875" data-name="矩形 4875" width="14" height="16" transform="translate(75.1 106.255)" fill="#abcdff"/>
          </g>
          <g id="组_25814" data-name="组 25814">
            <rect id="矩形_4876" data-name="矩形 4876" width="14" height="16" transform="translate(53.1 106.255)" fill="#abcdff"/>
            <rect id="矩形_4877" data-name="矩形 4877" width="14" height="16" transform="translate(53.1 106.255)" fill="#abcdff"/>
          </g>
        </g>
      </g>
      <g id="组_25817" data-name="组 25817">
        <text id="_7" data-name="7" transform="translate(56.443 119.251)" fill="#4c6193" font-size="12" font-family="SegoeUI, Segoe UI"><tspan x="0" y="0">7</tspan></text>
        <text id="_3" data-name="3" transform="translate(78.224 119.251)" fill="#4c6193" font-size="12" font-family="SegoeUI, Segoe UI"><tspan x="0" y="0">3</tspan></text>
        <text id="_1" data-name="1" transform="translate(100.338 119.251)" fill="#4c6193" font-size="12" font-family="SegoeUI, Segoe UI"><tspan x="0" y="0">1</tspan></text>
        <text id="_4" data-name="4" transform="translate(56.443 143.075)" fill="#4c6193" font-size="12" font-family="SegoeUI, Segoe UI"><tspan x="0" y="0">4</tspan></text>
        <text id="_5" data-name="5" transform="translate(78.224 143.076)" fill="#4c6193" font-size="12" font-family="SegoeUI, Segoe UI"><tspan x="0" y="0">5</tspan></text>
        <text id="_7-2" data-name="7" transform="translate(100.338 143.075)" fill="#4c6193" font-size="12" font-family="SegoeUI, Segoe UI"><tspan x="0" y="0">7</tspan></text>
      </g>
    </g>
    <g id="组_25825" data-name="组 25825">
      <g id="路径_405" data-name="路径 405">
        <path id="路径_10100" data-name="路径 10100" d="M345.489,245.276a2.078,2.078,0,0,0,1.777-.994l20.7-33.82L346.109,180.3a2.081,2.081,0,0,0-3.369,2.443l20.23,27.913L343.717,242.11a2.08,2.08,0,0,0,1.772,3.166Z" fill="#aecfed"/>
      </g>
      <circle id="椭圆_2" data-name="椭圆 2" cx="4.855" cy="4.855" r="4.855" transform="translate(359.807 206.043)" fill="#76abe5"/>
      <circle id="椭圆_2-2" data-name="椭圆 2" cx="2.774" cy="2.774" r="2.774" transform="translate(361.888 208.124)" fill="#aecfed"/>
      <g id="组_25820" data-name="组 25820">
        <g id="组_25819" data-name="组 25819" clip-path="url(#clip-path)">
          <circle id="椭圆_950" data-name="椭圆 950" cx="8.475" cy="8.475" r="8.475" transform="translate(313.954 183.216)" fill="#ffd45c"/>
          <path id="路径_10101" data-name="路径 10101" d="M319.715,183.661c-.029,1.672,8.427,9.283,3.234,16.49-4.209,5.841,9.895-3.5,10.068-3.728s-.98-12.915-.98-12.915Z" fill="#ffd45c" opacity="0.5" style="mix-blend-mode: multiply;isolation: isolate"/>
        </g>
      </g>
      <g id="组_25822" data-name="组 25822">
        <g id="组_25821" data-name="组 25821" clip-path="url(#clip-path-2)">
          <path id="路径_406-2" data-name="路径 406" d="M345.756,241.626c10.442,0,18.906,6.747,18.906,15.068h-37.81C326.852,248.373,335.321,241.626,345.756,241.626Z" fill="#76abe5"/>
          <rect id="矩形_4878" data-name="矩形 4878" width="42.594" height="3.633" transform="translate(367.968 258.285) rotate(180)" fill="#76abe5" opacity="0.53" style="mix-blend-mode: multiply;isolation: isolate"/>
        </g>
      </g>
      <path id="矩形_77" data-name="矩形 77" d="M342.846,167.786l-8.794,6.544h0l8.016,10.773h0l8.794-6.544a5.874,5.874,0,0,0,1.206-8.22l-1-1.347A5.875,5.875,0,0,0,342.846,167.786Z" fill="#b3d3f4"/>
      <g id="组_25824" data-name="组 25824">
        <g id="组_25823" data-name="组 25823" clip-path="url(#clip-path-3)">
          <path id="路径_407-2" data-name="路径 407" d="M334.16,174.241l7.985,10.775-9.229,18.859-18.039-27.624Z" fill="#76abe5"/>
        </g>
      </g>
      <path id="路径_10102" data-name="路径 10102" d="M317.34,187.591a4.308,4.308,0,0,0-1.384,3.629" fill="none" stroke="#fff" stroke-linecap="round" stroke-linejoin="round" stroke-width="0.8"/>
    </g>
    <g id="组_26634" data-name="组 26634" transform="translate(-31.118 -31.111)">
      <g id="组_26632" data-name="组 26632" transform="translate(53.327 43.698)">
        <path id="联合_6" data-name="联合 6" d="M0,40.656V16.189H0L20.048.628a2.991,2.991,0,0,1,3.668,0l20.047,15.56h0V40.656Z" transform="translate(0 0)" fill="#dbe9f7"/>
      </g>
      <g id="组_26633" data-name="组 26633" transform="translate(58.051 45.992)">
        <path id="路径_20167" data-name="路径 20167" d="M98.42,75.995,66.7,81.588,62,54.963a2.685,2.685,0,0,1,2.178-3.11l22.465-3.962,7.777,5.446Z" transform="translate(-61.964 -47.891)" fill="#fff"/>
        <path id="路径_20172" data-name="路径 20172" d="M98.42,75.995,66.7,81.588,62,54.963a2.685,2.685,0,0,1,2.178-3.11l22.465-3.962,7.777,5.446Z" transform="translate(-61.964 -47.891)" fill="url(#linear-gradient)"/>
        <path id="路径_20173" data-name="路径 20173" d="M98.42,75.995,66.7,81.588,62,54.963a2.685,2.685,0,0,1,2.178-3.11l22.465-3.962,7.777,5.446Z" transform="translate(-61.964 -47.891)" fill="#f7fafd"/>
        <rect id="矩形_4237" data-name="矩形 4237" width="11.206" height="1.398" rx="0.699" transform="matrix(0.985, -0.174, 0.174, 0.985, 5.489, 8.27)" fill="#e2edf7"/>
        <rect id="矩形_4238" data-name="矩形 4238" width="21.927" height="1.398" rx="0.699" transform="matrix(0.985, -0.174, 0.174, 0.985, 6.434, 13.719)" fill="#e2edf7"/>
        <rect id="矩形_4239" data-name="矩形 4239" width="21.927" height="1.398" rx="0.699" transform="matrix(0.985, -0.174, 0.174, 0.985, 7.327, 18.783)" fill="#e2edf7"/>
        <rect id="矩形_4240" data-name="矩形 4240" width="21.927" height="1.398" rx="0.699" transform="matrix(0.985, -0.174, 0.174, 0.985, 8.22, 23.847)" fill="#e2edf7"/>
        <path id="路径_20168" data-name="路径 20168" d="M114.865,53.337l-4.848.854a1.79,1.79,0,0,1-2.074-1.452l-.854-4.848Z" transform="translate(-82.403 -47.891)" fill="#dbe9f7"/>
      </g>
      <path id="路径_20169" data-name="路径 20169" d="M75.209,85.525,53.327,73.291V97.759Z" transform="translate(0 -13.405)" fill="#e2edf7"/>
      <path id="路径_20170" data-name="路径 20170" d="M93.327,85.525l21.882-12.234V97.759Z" transform="translate(-18.119 -13.405)" fill="#e2edf7"/>
      <path id="路径_20171" data-name="路径 20171" d="M73.375,89.053,53.327,104.614H97.09L77.043,89.053A2.991,2.991,0,0,0,73.375,89.053Z" transform="translate(0 -20.259)" fill="#eaf3fb"/>
    </g>
  </g>
</svg>
