<svg xmlns="http://www.w3.org/2000/svg" xmlns:xlink="http://www.w3.org/1999/xlink" width="380" height="266" viewBox="0 0 380 266">
  <defs>
    <clipPath id="clip-path">
      <rect id="矩形_4888" data-name="矩形 4888" width="41.892" height="81.689" rx="20.946" transform="translate(169.054 61.855)" fill="none"/>
    </clipPath>
    <clipPath id="clip-path-2">
      <ellipse id="椭圆_952" data-name="椭圆 952" cx="14.457" cy="4.931" rx="14.457" ry="4.931" transform="translate(242.236 51.301) rotate(-61.584)" fill="none"/>
    </clipPath>
  </defs>
  <g id="声纹登录" transform="translate(0)">
    <g id="组_25694" data-name="组 25694">
      <path id="路径_8686" data-name="路径 8686" d="M19.382,258C-19,216.279-.295,124.1,74.78,104.143c85.683-22.777,58.772-72.756,119.671-93.168,28.613-9.6,119.708-14.559,150.6,20.851,35.919,41.174-10,84.72,14.361,119.906,12.393,17.9,34.735,79.963,8.058,105.519Z" fill="#f4fafe"/>
      <rect id="矩形_2843" data-name="矩形 2843" width="380" height="266" transform="translate(0)" fill="none"/>
      <line id="直线_727" data-name="直线 727" x2="365" transform="translate(6.5 258)" fill="none" stroke="#bcdfff" stroke-linecap="round" stroke-width="2"/>
    </g>
    <rect id="矩形_4839" data-name="矩形 4839" width="380" height="266" transform="translate(0)" fill="none"/>
    <g id="组_25769" data-name="组 25769" opacity="0.3">
      <g id="组_25768" data-name="组 25768">
        <path id="路径_10064" data-name="路径 10064" d="M256.93,227.281a.543.543,0,0,1-.3-.365,2.693,2.693,0,0,1-.042-1,2.645,2.645,0,0,0-.383-1.813,3.816,3.816,0,0,0-1.668-1.154,5.405,5.405,0,0,1-2.068-1.539,17.306,17.306,0,0,1-1.347-1.839q-.505-.739-.886-.64a.659.659,0,0,0-.481.562l-.84,3.949q-.343,1.614-.757,3.485t-.769,3.542l-.975,4.585a4.974,4.974,0,0,1-.544,1.5,4.14,4.14,0,0,1-1.262,1.4,5.772,5.772,0,0,1-2.075.9,7.592,7.592,0,0,1-2.928.026,6.149,6.149,0,0,1-2.942-1.259,5.784,5.784,0,0,1-1.748-2.194,3.9,3.9,0,0,1-.245-2.464,3.461,3.461,0,0,1,1.581-2.117,6.111,6.111,0,0,1,2.629-1.038,8.408,8.408,0,0,1,2.494.033,8.308,8.308,0,0,1,2.028.6,9.5,9.5,0,0,1,1.26.66l1.736-8.159q.723-3.4,1.66-7.662a2.15,2.15,0,0,1,.724-1.277,1.722,1.722,0,0,1,1.285-.375,1.225,1.225,0,0,1,.943.456,4.777,4.777,0,0,1,.6,1.091q.279.678.709,1.552a7.966,7.966,0,0,0,1.288,1.807,8.068,8.068,0,0,0,1.312,1.274q.588.426,1.1.79a8.573,8.573,0,0,1,.985.829,5.8,5.8,0,0,1,.972,1.382,3.277,3.277,0,0,1,.476,1.728,4.052,4.052,0,0,1-.3,1.47,2.928,2.928,0,0,1-.648.993c-.255.236-.442.332-.572.287Z" fill="#abcdff"/>
      </g>
    </g>
    <g id="组_25773" data-name="组 25773" opacity="0.25">
      <g id="组_25770" data-name="组 25770">
        <path id="路径_10065" data-name="路径 10065" d="M358.761,11.1,347.036,18a.587.587,0,0,0-.1.077l-.451.173a.59.59,0,0,0-.345.76v0l5.5,14.321a3.553,3.553,0,1,0,2.766,2.236,3.726,3.726,0,0,0-.175-.387.611.611,0,0,0-.038-.168l-4.471-11.647,10.852-6.522,3.1,8.062A3.566,3.566,0,0,0,359.78,29.7h0a3.563,3.563,0,0,0,6.652-2.554,3.633,3.633,0,0,0-.175-.387.646.646,0,0,0-.038-.169L360.274,11.1a.592.592,0,0,0-.664-.368.5.5,0,0,0-.352.069l-.273.163-.031.012a.623.623,0,0,0-.194.118Z" fill="#abcdff"/>
      </g>
    </g>
    <path id="路径_10079" data-name="路径 10079" d="M49.87,54.341c.037-.419.063-.837.063-1.267a14.158,14.158,0,0,0-28.272-1.109c-.314-.031-.633-.049-.954-.049a9.664,9.664,0,0,0-9.665,9.662h0a9.662,9.662,0,0,0,8.646,9.61v.056H49.931v-.053a8.472,8.472,0,0,0-.061-16.851Zm-8.031,4.42a1.615,1.615,0,0,1-2.287.009l-2.54-2.521v8.8a1.619,1.619,0,0,1-1.618,1.618h0a1.618,1.618,0,0,1-1.618-1.618h0V56.279l-2.387,2.4a1.618,1.618,0,0,1-2.287,0h0a1.617,1.617,0,0,1,0-2.287h0l5.15-5.169h0a1.648,1.648,0,0,1,.528-.353l.023-.006a1.61,1.61,0,0,1,.586-.116H35.4a1.609,1.609,0,0,1,.578.111c.012.005.023.007.034.011a1.635,1.635,0,0,1,.524.345h0l5.3,5.257a1.618,1.618,0,0,1,.01,2.288l0,0Z" fill="#edf5fc"/>
    <path id="路径_10062" data-name="路径 10062" d="M175.766,119.015" fill="#eaf4ff" stroke="#abcdff" stroke-width="1"/>
    <path id="路径_10063" data-name="路径 10063" d="M198,170.179" fill="#eaf4ff" stroke="#abcdff" stroke-width="1"/>
    <g id="组_26650" data-name="组 26650">
      <g id="组_25627" data-name="组 25627">
        <g id="组_9194" data-name="组 9194">
          <rect id="矩形_2818" data-name="矩形 2818" width="262.689" height="184.224" rx="7.866" transform="translate(58.656 15.02)" fill="#fff" stroke="#abcdff" stroke-width="1"/>
          <path id="矩形_2819" data-name="矩形 2819" d="M65.488,15.022H314.1a6.838,6.838,0,0,1,6.832,6.843V38.371H58.655V21.863A6.838,6.838,0,0,1,65.488,15.022Z" fill="#a3c9ff"/>
          <path id="路径_8555" data-name="路径 8555" d="M77.04,27.746a4.267,4.267,0,0,1-4.267,4.265h0a4.266,4.266,0,0,1-4.265-4.267h0a4.266,4.266,0,0,1,4.266-4.265h0a4.266,4.266,0,0,1,4.266,4.266Z" fill="#fff"/>
          <path id="路径_8556" data-name="路径 8556" d="M89.684,27.746a4.266,4.266,0,0,1-4.265,4.267h0a4.266,4.266,0,0,1-4.267-4.265v0a4.265,4.265,0,0,1,4.265-4.267h.02a4.249,4.249,0,0,1,4.249,4.249h0Z" fill="#fff"/>
          <path id="路径_8557" data-name="路径 8557" d="M101.771,27.746A4.267,4.267,0,0,1,97.5,32.011h0a4.266,4.266,0,0,1-4.265-4.267h0A4.265,4.265,0,0,1,97.5,23.479h0A4.269,4.269,0,0,1,101.771,27.746Z" fill="#fff"/>
        </g>
      </g>
      <g id="组_26636" data-name="组 26636">
        <g id="组_7550" data-name="组 7550">
          <path id="矩形_2458" data-name="矩形 2458" d="M150.7,81.836h0a1.641,1.641,0,0,1,1.642,1.64h0v22.514a1.642,1.642,0,0,1-1.642,1.641h0a1.641,1.641,0,0,1-1.641-1.641h0V83.477a1.641,1.641,0,0,1,1.641-1.641Z" fill="#abcdff" opacity="0.8" style="isolation: isolate"/>
          <path id="矩形_2459" data-name="矩形 2459" d="M143.253,85.322h0a1.642,1.642,0,0,1,1.642,1.641h0v15.543a1.641,1.641,0,0,1-1.641,1.641h0a1.641,1.641,0,0,1-1.641-1.641h0V86.963a1.641,1.641,0,0,1,1.641-1.641Z" fill="#abcdff" opacity="0.6" style="isolation: isolate"/>
          <path id="矩形_2460" data-name="矩形 2460" d="M135.807,89.118h0a1.642,1.642,0,0,1,1.642,1.642h0v9.987a1.641,1.641,0,0,1-1.641,1.641h0a1.641,1.641,0,0,1-1.641-1.641h0V90.759A1.642,1.642,0,0,1,135.807,89.118Z" fill="#abcdff" opacity="0.4" style="isolation: isolate"/>
          <rect id="矩形_2461" data-name="矩形 2461" width="3.283" height="7.568" rx="1.368" transform="translate(126.721 92.405)" fill="#abcdff" opacity="0.2" style="isolation: isolate"/>
        </g>
        <g id="组_26635" data-name="组 26635">
          <path id="矩形_2462" data-name="矩形 2462" d="M229.3,107.632h0a1.64,1.64,0,0,1-1.642-1.64h0V83.477a1.641,1.641,0,0,1,1.641-1.641h0a1.641,1.641,0,0,1,1.641,1.641v22.514A1.641,1.641,0,0,1,229.3,107.632Z" fill="#abcdff" opacity="0.8" style="isolation: isolate"/>
          <path id="矩形_2463" data-name="矩形 2463" d="M236.746,104.146h0A1.641,1.641,0,0,1,235.1,102.5h0V86.963a1.641,1.641,0,0,1,1.641-1.642h0a1.641,1.641,0,0,1,1.641,1.642h0V102.5a1.641,1.641,0,0,1-1.641,1.641Z" fill="#abcdff" opacity="0.6" style="isolation: isolate"/>
          <path id="矩形_2464" data-name="矩形 2464" d="M244.192,102.387h0a1.641,1.641,0,0,1-1.642-1.64h0V90.759a1.642,1.642,0,0,1,1.642-1.642h0a1.641,1.641,0,0,1,1.641,1.641h0v9.988A1.641,1.641,0,0,1,244.192,102.387Z" fill="#abcdff" opacity="0.4" style="isolation: isolate"/>
          <rect id="矩形_2465" data-name="矩形 2465" width="3.283" height="7.568" rx="1.368" transform="translate(249.997 92.405)" fill="#abcdff" opacity="0.2" style="isolation: isolate"/>
        </g>
      </g>
      <g id="组_26649" data-name="组 26649">
        <rect id="矩形_4879" data-name="矩形 4879" width="41.892" height="81.689" rx="20.946" transform="translate(169.054 61.855)" fill="#abcdff"/>
        <path id="路径_20683" data-name="路径 20683" d="M221,122.6a31,31,0,0,1-31,31h0a31,31,0,0,1-31-31" fill="none" stroke="#abcdff" stroke-linecap="round" stroke-linejoin="round" stroke-width="4"/>
        <line id="直线_740" data-name="直线 740" y2="26.476" transform="translate(190 153.598)" fill="none" stroke="#abcdff" stroke-linecap="round" stroke-linejoin="round" stroke-width="4"/>
        <line id="直线_741" data-name="直线 741" x2="38.541" transform="translate(170.73 180.074)" fill="none" stroke="#abcdff" stroke-linecap="round" stroke-linejoin="round" stroke-width="4"/>
        <g id="组_26648" data-name="组 26648">
          <g id="组_26647" data-name="组 26647" clip-path="url(#clip-path)">
            <g id="组_26641" data-name="组 26641">
              <g id="组_26637" data-name="组 26637">
                <rect id="矩形_4880" data-name="矩形 4880" width="25.973" height="3.869" transform="translate(153.068 117.538)" fill="#fff"/>
              </g>
              <g id="组_26638" data-name="组 26638">
                <rect id="矩形_4881" data-name="矩形 4881" width="25.973" height="3.869" transform="translate(153.068 106.538)" fill="#fff"/>
              </g>
              <g id="组_26639" data-name="组 26639">
                <rect id="矩形_4882" data-name="矩形 4882" width="25.973" height="3.869" transform="translate(153.068 95.538)" fill="#fff"/>
              </g>
              <g id="组_26640" data-name="组 26640">
                <rect id="矩形_4883" data-name="矩形 4883" width="25.973" height="3.869" transform="translate(153.068 84.538)" fill="#fff"/>
              </g>
            </g>
            <g id="组_26646" data-name="组 26646">
              <g id="组_26642" data-name="组 26642">
                <rect id="矩形_4884" data-name="矩形 4884" width="25.973" height="3.869" transform="translate(200.959 117.538)" fill="#fff"/>
              </g>
              <g id="组_26643" data-name="组 26643">
                <rect id="矩形_4885" data-name="矩形 4885" width="25.973" height="3.869" transform="translate(200.959 106.538)" fill="#fff"/>
              </g>
              <g id="组_26644" data-name="组 26644">
                <rect id="矩形_4886" data-name="矩形 4886" width="25.973" height="3.869" transform="translate(200.959 95.538)" fill="#fff"/>
              </g>
              <g id="组_26645" data-name="组 26645">
                <rect id="矩形_4887" data-name="矩形 4887" width="25.973" height="3.869" transform="translate(200.959 84.538)" fill="#fff"/>
              </g>
            </g>
          </g>
        </g>
      </g>
    </g>
    <g id="组_25705" data-name="组 25705">
      <path id="路径_9976" data-name="路径 9976" d="M302.022,75.688c-4.023,1.738-24.25,26.025-26.652,28.976-3.993,4.909,1.914,17.617,6.84,15.506s26.4-19.527,27.922-22.81S312.78,71.041,302.022,75.688Z" fill="#fff"/>
      <g id="组_25762" data-name="组 25762">
        <path id="路径_10055" data-name="路径 10055" d="M266.642,61.68c1.617,1.685,3.5,3.432,4.474,4.316,1.7,1.537,1.828,1.937,2.33,8.612a59.47,59.47,0,0,0,1.779,9.419l-9.55,2.927-2.073-9.9c-2.672-2.026-5.877-7.7-5.589-10.357.127-1.175,3.2-.448,4.635-1.239C264.917,64.213,264.892,62.37,266.642,61.68Z" fill="#febf9e"/>
        <path id="路径_10056" data-name="路径 10056" d="M302.42,75.277c-4.023,1.739-24.25,26.025-26.652,28.977-3.993,4.908,1.914,17.615,6.839,15.5s26.4-19.527,27.922-22.81S313.178,70.63,302.42,75.277Z" fill="#fff"/>
        <path id="路径_10057" data-name="路径 10057" d="M276.771,77.234c.569,2.815,3.149,19.7,7.371,24.628s3.686,16.763-2.814,18.412c-13.459,3.417-18.368-27-19.856-41.343Z" fill="#fff"/>
        <path id="路径_10059" data-name="路径 10059" d="M278.758,116.682c-5.32.062-11.168-13.775-13.733-16.809,3,11.852,8.04,22.5,16.3,20.4a5.7,5.7,0,0,0,1.324-.535c1.843-.8,5.918-3.675,10.4-7.141C293.018,112.61,282.408,116.64,278.758,116.682Z" fill="#a0c5ec" opacity="0.35" style="isolation: isolate"/>
        <path id="路径_10060" data-name="路径 10060" d="M281.632,97.249c1.319.893,2.18,4,1.558,6.309-.277-3.308-1.42-4.035-1.849-6.026" fill="#a0c5ec" opacity="0.35" style="isolation: isolate"/>
        <path id="路径_10060-2" data-name="路径 10060" d="M281.632,97.249c1.319.893,2.594,4,1.972,6.309" fill="none" stroke="#a0c5ec" stroke-linecap="round" stroke-linejoin="round" stroke-width="0.8"/>
        <path id="路径_10058" data-name="路径 10058" d="M276.771,77.235l-15.3,1.7c1.488,14.341,6.4,44.758,19.856,41.343a5.7,5.7,0,0,0,1.324-.535c2.087-.911,4.844-2.763,10.008-6.837" fill="none" stroke="#a0c5ec" stroke-linecap="round" stroke-linejoin="round" stroke-width="0.8"/>
      </g>
      <g id="组_10921" data-name="组 10921">
        <rect id="矩形_3654" data-name="矩形 3654" width="15.165" height="14.043" transform="translate(295.027 230.439)" fill="#ffb693"/>
        <g id="组_9009" data-name="组 9009">
          <path id="路径_8709" data-name="路径 8709" d="M309.991,242.978c1.4-.994,2.6,2.754,2.6,5.175v5.8H271.726s0-4.744,3.963-5.8,6.246-1.51,6.739-1.794,2.467-1.547,4.844-2.792a57.837,57.837,0,0,1,5.266-2.422c.79-.264,1.264-.9,4.845,1.159S308.585,243.971,309.991,242.978Z" fill="#3c4691"/>
          <path id="路径_8710" data-name="路径 8710" d="M312.591,253.847H271.684V257.2h40.907Z" fill="#1a2367"/>
        </g>
      </g>
      <g id="组_10922" data-name="组 10922">
        <rect id="矩形_3654-2" data-name="矩形 3654-2" width="15.165" height="14.043" transform="translate(321.534 230.439)" fill="#ffb693"/>
        <g id="组_9009-2" data-name="组 9009-2">
          <path id="路径_8709-2" data-name="路径 8709-2" d="M336.5,242.978c1.4-.994,2.6,2.754,2.6,5.175v5.8H298.235s0-4.744,3.961-5.8,6.246-1.51,6.74-1.794,2.468-1.547,4.844-2.792a57.819,57.819,0,0,1,5.265-2.422c.79-.264,1.263-.9,4.844,1.159S335.093,243.971,336.5,242.978Z" fill="#4a5896"/>
          <path id="路径_8710-2" data-name="路径 8710-2" d="M339.1,253.847H298.192V257.2H339.1Z" fill="#222d6d"/>
        </g>
      </g>
      <g id="组_8952" data-name="组 8952">
        <path id="路径_78" data-name="路径 78" d="M297.053,131.638l-7.234,104.333h26.535l2.292-104.942Z" fill="#2172ba"/>
        <path id="路径_79" data-name="路径 79" d="M337.257,130.275l7.862,108.2H313.26l.66-107.177Z" fill="#2172ba"/>
        <path id="路径_8832" data-name="路径 8832" d="M312.086,152.121l1.341,83.549" fill="none" stroke="#0c429f" stroke-linecap="round" stroke-width="0.8"/>
        <path id="路径_8946" data-name="路径 8946" d="M292.151,199.426s.807,14.631,2.425,22.479a94.211,94.211,0,0,0,4.058,14h-8.713Z" fill="#0c429f" opacity="0.5" style="isolation: isolate"/>
        <path id="路径_8947" data-name="路径 8947" d="M312.776,184.426s2.83,20.529,5.519,33.659,5.728,20.371,5.728,20.371l-10.741-.11Z" fill="#0c429f" opacity="0.5" style="isolation: isolate"/>
        <path id="路径_8976" data-name="路径 8976" d="M319.083,140.662l-16.273,1.83.955-6.488,15.318-.234Z" fill="#0c429f" opacity="0.5" style="isolation: isolate"/>
      </g>
      <g id="组_8967" data-name="组 8967">
        <g id="组_8957" data-name="组 8957">
          <path id="路径_8687" data-name="路径 8687" d="M327.61,53.154c.12-.777.906-1.756-1.714-3.8s-4.339-2.057-8.537-1.079c-1.655.384-3.215-.474-4.441.13-1.428.7-2.1-.561-2.947,2.831A40.944,40.944,0,0,0,308.7,59.13a12.255,12.255,0,0,0,1.62,7.021A5.339,5.339,0,0,0,313.83,68.6s.228.107,0,1.423-.91,1.577-.91,1.577l-2.282,4.1a15.426,15.426,0,0,0,4.861,1.845c2.834.55,7.686-1.845,7.686-1.845l1.8-4.365s-.73.408-1.081-1.305-.611-4.155-.325-4.43a23.1,23.1,0,0,0,1.768-2.108c.26-.276,1.333.31,3.772-2.156s1.88-3.964.822-4.863S327.489,53.932,327.61,53.154Z" fill="#febf9e"/>
          <path id="路径_8688" data-name="路径 8688" d="M320.151,68a11.327,11.327,0,0,1-2.869.911,11.924,11.924,0,0,1-3.055,0" fill="none" stroke="#e6785c" stroke-linecap="round" stroke-linejoin="round" stroke-width="0.8"/>
          <path id="路径_8689" data-name="路径 8689" d="M313.825,68.612a10.129,10.129,0,0,0,2.352.143,14.778,14.778,0,0,0,3.269-.684,17.554,17.554,0,0,1-3.038,2.144,11.812,11.812,0,0,1-3.116,1.063s.293-.168.535-1.3S313.825,68.612,313.825,68.612Z" fill="#e6785c" opacity="0.5" style="isolation: isolate"/>
          <path id="路径_8692" data-name="路径 8692" d="M314.06,57.718s-1.358,1.345-1.432,2.232,1.291,1.317,1.291,1.317" fill="none" stroke="#ab392c" stroke-linecap="round" stroke-width="0.8"/>
          <path id="形状_121" data-name="形状 121" d="M311.875,62.042a3.313,3.313,0,0,0,1.744.732,14.99,14.99,0,0,0,2.8.151,3.085,3.085,0,0,1-2.672,1.21C312.233,63.84,311.875,62.042,311.875,62.042Z" fill="none" stroke="#ab392c" stroke-linecap="round" stroke-linejoin="round" stroke-width="0.8"/>
          <path id="路径_8695" data-name="路径 8695" d="M326.891,57.462s2.082-.626,2.281.65-.734,2.113-1.694,2.869a2.854,2.854,0,0,1-2.13.755c-.579-.078.385-1.414.463-2.386A3.563,3.563,0,0,1,326.891,57.462Z" fill="#e6785c" opacity="0.5" style="isolation: isolate"/>
          <path id="路径_9120" data-name="路径 9120" d="M326.663,58.8s-.972.509-1.055.734.722.7.565,1.171" fill="none" stroke="#e6785c" stroke-linecap="round" stroke-linejoin="round" stroke-width="0.8"/>
          <g id="组_10931" data-name="组 10931">
            <ellipse id="椭圆_16" data-name="椭圆 16" cx="1.001" cy="0.943" rx="1.001" ry="0.943" transform="translate(309.843 54.977) rotate(-79.974)" fill="#101013"/>
            <ellipse id="椭圆_16-2" data-name="椭圆 16-2" cx="1.001" cy="0.943" rx="1.001" ry="0.943" transform="translate(317.424 56.412) rotate(-79.974)" fill="#101013"/>
            <path id="路径_8981" data-name="路径 8981" d="M313.162,51.329a3.684,3.684,0,0,0-2.316-.41" fill="none" stroke="#462a2a" stroke-linecap="round" stroke-width="0.8"/>
            <path id="路径_8982" data-name="路径 8982" d="M318.135,52.19a2.56,2.56,0,0,1,2.316.409" fill="none" stroke="#462a2a" stroke-linecap="round" stroke-width="0.8"/>
            <g id="组_8960" data-name="组 8960">
              <g id="矩形_3651" data-name="矩形 3651">
                <rect id="矩形_4835" data-name="矩形 4835" width="5.347" height="6.582" rx="1.472" transform="translate(306.596 56.592) rotate(-79.974)" fill="none"/>
                <rect id="矩形_4836" data-name="矩形 4836" width="4.915" height="6.15" rx="1.276" transform="translate(306.846 56.417) rotate(-79.974)" fill="none" stroke="#462a2a" stroke-miterlimit="4.001" stroke-width="0.42"/>
              </g>
              <g id="矩形_3652" data-name="矩形 3652">
                <rect id="矩形_4837" data-name="矩形 4837" width="5.347" height="7.352" rx="1.472" transform="translate(314.62 58.011) rotate(-79.974)" fill="none"/>
                <rect id="矩形_4838" data-name="矩形 4838" width="4.915" height="6.919" rx="1.276" transform="translate(314.87 57.836) rotate(-79.974)" fill="none" stroke="#462a2a" stroke-miterlimit="4.001" stroke-width="0.42"/>
              </g>
              <path id="路径_8700" data-name="路径 8700" d="M315.3,55.391l-1.749-.313" fill="none" stroke="#462a2a" stroke-linecap="round" stroke-miterlimit="4.001" stroke-width="0.42"/>
              <path id="路径_8701" data-name="路径 8701" d="M322.174,56.056l4.052.464" fill="none" stroke="#462a2a" stroke-linecap="round" stroke-miterlimit="4.001" stroke-width="0.42"/>
            </g>
          </g>
        </g>
        <g id="组_8956" data-name="组 8956">
          <path id="路径_8679" data-name="路径 8679" d="M324.353,59.377c-.55-1.052,1.177-5.58.646-7.5a2.133,2.133,0,0,0-2.262-1.7s-.421-1.079-2.5-1.482-3.362.741-4.61.891a7.748,7.748,0,0,1-4.25-.688,5.428,5.428,0,0,0-.958,1.4,12.712,12.712,0,0,0-.638,2.042,18.189,18.189,0,0,1-1.308-5.653,3.057,3.057,0,0,1,2.343-2.825,10.486,10.486,0,0,1,2.527-5.055c1.944-1.824,5.739-3.316,8.748-.909s2.377.825,5.149,2.454,2.306,4.15,2.574,4.885c.128.351,1.325-.465,2.544,1.013s2.191,3,1.258,6.3a12.326,12.326,0,0,1-2.768,5.367c-.188.2-.1-1.417-1.856-1.721a2.583,2.583,0,0,0-2.879,1.188C325.536,58.061,324.728,60.1,324.353,59.377Z" fill="#101013"/>
          <path id="路径_8686-2" data-name="路径 8686-2" d="M328.8,45.894c1.325-2.145,1.648-5.677-.768-7.3s-5.844-.743-6.851-3.057" fill="none" stroke="#000" stroke-linecap="round" stroke-linejoin="round" stroke-width="1.2"/>
          <path id="路径_8950" data-name="路径 8950" d="M332.953,45.54s-1.866-2.062-4.174.272" fill="none" stroke="#000" stroke-linecap="round" stroke-width="1.2"/>
        </g>
      </g>
      <g id="组_9024" data-name="组 9024">
        <path id="路径_158" data-name="路径 158" d="M324.474,73s-10.562,5.839-11.746-.981c0,0-7.221,9.247-7.221,25.248s-3.485,38.633-3.485,38.633h17.647s-2.115-23.629-.278-39.805S324.474,73,324.474,73Z" fill="#52c2ad"/>
        <path id="路径_9105" data-name="路径 9105" d="M321.672,76.38a15.4,15.4,0,0,1-5.587,1.2,5.428,5.428,0,0,1-3.628-1.891" fill="none" stroke="#269a84" stroke-linecap="round" stroke-width="0.8"/>
      </g>
      <g id="组_9027" data-name="组 9027">
        <g id="组_8870" data-name="组 8870">
          <path id="形状_688" data-name="形状 688" d="M289.251,146.426c-5.623,24.717-11.941,50.568-11.941,50.568l18.079,6.245s5.626-36.366,8.634-68.377c1.337-14.172,1.4-28.2,2.809-38.375.786-5.667,4.514-17.961,4.514-17.961l1.817-7.125a20.486,20.486,0,0,0-11.141,4.287C289.7,84.845,294.873,121.7,289.251,146.426Z" fill="#fff"/>
          <path id="形状_688-2" data-name="形状 688" d="M292.659,112.906c-.594,11.071-1.193,23.78-3.408,33.52-5.623,24.717-11.941,50.568-11.941,50.568l18.079,6.245" fill="none" stroke="#a0c5ec" stroke-linecap="round" stroke-linejoin="round" stroke-width="0.8"/>
          <path id="形状_705" data-name="形状 705" d="M293.065,111.606" fill="none"/>
          <path id="形状_705-2" data-name="形状 705-2" d="M282.855,137.438" fill="none"/>
          <path id="形状_702" data-name="形状 702" d="M298.109,80.076" fill="none"/>
        </g>
        <path id="路径_8423" data-name="路径 8423" d="M324.977,71.4s11.228,1.482,15.867,8.191c0,0-4.829.36-.995,27.646s10.078,58.935,12.173,69.041,4.655,28.56,4.655,28.56h-32.34s-7.654-53.344-7.554-86.593S324.977,71.4,324.977,71.4Z" fill="#fff"/>
        <path id="路径_8423-2" data-name="路径 8423-2" d="M341.048,115.417c3.827,25.142,9.086,51.751,10.974,60.861,2.1,10.106,4.655,28.56,4.655,28.56h-32.34" fill="none" stroke="#a0c5ec" stroke-linecap="round" stroke-linejoin="round" stroke-width="0.8"/>
        <path id="路径_8651" data-name="路径 8651" d="M329.316,74.585l.8,9.867a18.708,18.708,0,0,0-2.229.518,3.893,3.893,0,0,0-1.271.636l2.939,3.262a49.228,49.228,0,0,0-4.217,9.35c-2.357,6.518-5.213,16.727-5.213,16.727a72.41,72.41,0,0,1,2.227-10.959c1.831-6.735,5.293-16.313,5.293-16.313l-5.3-5.63,6.528.916Z" fill="#a0c5ec" opacity="0.35" style="isolation: isolate"/>
        <path id="路径_8652" data-name="路径 8652" d="M303.878,77.792a13.461,13.461,0,0,0-2.863,3.577l3.179,1.706-3.242,2.309a53.842,53.842,0,0,0-.914,13.913,88.082,88.082,0,0,0,2.621,15.5A70.364,70.364,0,0,1,301.1,99.341a75.53,75.53,0,0,1,1.857-13.571l5.008-2.843-4.795-2.615L308.4,74.4A33.709,33.709,0,0,0,303.878,77.792Z" fill="#a0c5ec" opacity="0.35" style="isolation: isolate"/>
        <path id="路径_8666" data-name="路径 8666" d="M329.277,74.545l-.359,8.476-6.762-1.115,5.53,5.849a115.02,115.02,0,0,0-3.941,11.021c-1.8,6.023-3.62,16.273-3.62,16.273" fill="none" stroke="#a0c5ec" stroke-linecap="round" stroke-linejoin="round" stroke-width="0.8"/>
        <path id="路径_8668" data-name="路径 8668" d="M308.691,74.577a34.451,34.451,0,0,0-3.182,2.88,24.157,24.157,0,0,0-2.4,3.011l5.254,2.487L302.9,85.819a65.413,65.413,0,0,0-1.719,12.727,86.175,86.175,0,0,0,1.483,16.408" fill="none" stroke="#a0c5ec" stroke-linecap="round" stroke-linejoin="round" stroke-width="0.8"/>
        <path id="路径_8948" data-name="路径 8948" d="M282.865,176a98.075,98.075,0,0,0,.458,12.394,74.95,74.95,0,0,0,2.268,11.279l-7.757-2.664Z" fill="#a0c5ec" opacity="0.35" style="isolation: isolate"/>
        <path id="路径_8949" data-name="路径 8949" d="M322.755,193a30.781,30.781,0,0,0,6.7,6.974,44.6,44.6,0,0,0,9.212,4.88H324.331Z" fill="#a0c5ec" opacity="0.35" style="isolation: isolate"/>
      </g>
      <path id="路径_20685" data-name="路径 20685" d="M302.42,75.277c-2.842,1.229-13.766,13.705-20.785,21.967-2.737-6.962-4.418-17.8-4.864-20.01" fill="none" stroke="#a0c5ec" stroke-linecap="round" stroke-linejoin="round" stroke-width="0.8"/>
      <g id="组_9026" data-name="组 9026">
        <g id="组_9023" data-name="组 9023">
          <path id="路径_166" data-name="路径 166" d="M315.249,124.412s-10.455-2.851-11.354.123c-.873,2.9,4.969,2.028,4.088,2.629s-9.3.3-10.343,1.964.1,2.366.1,2.366a1.949,1.949,0,0,0,.234,1.461,3.86,3.86,0,0,0,1.5,1.2,9.609,9.609,0,0,0,1.034,1.2,3.635,3.635,0,0,0,1.8.941,4.448,4.448,0,0,0,1.072,1.175,4.655,4.655,0,0,0,1.991.592c3.459.848,14.335-3.608,14.335-3.608Z" fill="#febf9e"/>
          <path id="路径_8660" data-name="路径 8660" d="M297.971,131.2s2.135.461,8.952-.125" fill="none" stroke="#e6785c" stroke-linecap="round" stroke-linejoin="round" stroke-width="0.8"/>
          <path id="路径_8661" data-name="路径 8661" d="M302.8,136.36a15.767,15.767,0,0,0,6.555-.379" fill="none" stroke="#e6785c" stroke-linecap="round" stroke-linejoin="round" stroke-width="0.8"/>
          <path id="路径_8662" data-name="路径 8662" d="M300.029,133.983a44.329,44.329,0,0,0,7.906-.107" fill="none" stroke="#e6785c" stroke-linecap="round" stroke-linejoin="round" stroke-width="0.8"/>
        </g>
        <g id="组_9025" data-name="组 9025">
          <path id="路径_163" data-name="路径 163" d="M334.464,77c1.4-.283,3.316-1.73,6.446,2.371,2.2,3.256,7.164,15.144,9.006,22.793,4.512,18.714,5.2,20.528-4.1,26-7.584,4.462-24.913,9.688-24.913,9.688l-6.865-15.11s21.039-9.472,21.1-10.483S322.875,79.336,334.471,77" fill="#fff"/>
          <path id="路径_8659" data-name="路径 8659" d="M341.629,127.946c-8.359,3.441-22.5,6.081-22.5,6.081l1.921,3.859,15.1-5.216s13.327-5.039,16.055-9.723a12.121,12.121,0,0,0,.733-2.078S349.989,124.5,341.629,127.946Z" fill="#a0c5ec" opacity="0.35" style="isolation: isolate"/>
          <path id="路径_8667" data-name="路径 8667" d="M313.973,122.625l6.985,15.294" fill="none" stroke="#a0c5ec" stroke-linecap="round" stroke-linejoin="round" stroke-width="0.8"/>
          <path id="路径_8667-2" data-name="路径 8667-2" d="M330.382,93.121a51.323,51.323,0,0,0,1.436,8.329c1.2,4.712,3.4,10.7,3.4,10.7a87.556,87.556,0,0,1-8.7,4.858c-5.312,2.616-12.549,5.62-12.549,5.62" fill="none" stroke="#a0c5ec" stroke-linecap="round" stroke-linejoin="round" stroke-width="0.8"/>
          <path id="路径_163-2" data-name="路径 163-2" d="M337.434,76.177c5.3,3.5,10.642,18.343,12.484,25.992,4.512,18.714,5.2,20.528-4.1,26-7.584,4.462-24.913,9.688-24.913,9.688" fill="none" stroke="#a0c5ec" stroke-linecap="round" stroke-linejoin="round" stroke-width="0.8"/>
        </g>
      </g>
      <g id="组_25702" data-name="组 25702">
        <path id="路径_9978" data-name="路径 9978" d="M258.065,68.251l4.8,3.592h0a29.265,29.265,0,0,0,11.264-15.061h0l-4.8-3.594h0A29.258,29.258,0,0,1,258.065,68.251Z" fill="#6ba6eb"/>
        <path id="路径_9979" data-name="路径 9979" d="M258.065,68.251l4.8,3.592h0a29.265,29.265,0,0,0,11.264-15.061h0l-4.8-3.594h0A29.258,29.258,0,0,1,258.065,68.251Z" fill="#ffe9ac"/>
        <path id="路径_9980" data-name="路径 9980" d="M246.576,53.649h0a35.115,35.115,0,0,1,20.765,3.274c1.259.611,5.084,2.349,5.084,2.349a6.7,6.7,0,0,0,9.078-2.7h0a6.7,6.7,0,0,0-2.7-9.08h0s-3.535-2.558-4.75-3.356A36.019,36.019,0,0,1,260.464,28.49l-.122-.284Z" fill="#ffb94a"/>
        <path id="路径_9981" data-name="路径 9981" d="M246.576,53.649h0a35.115,35.115,0,0,1,20.765,3.274c1.259.611,5.084,2.349,5.084,2.349a6.7,6.7,0,0,0,9.078-2.7h0a6.7,6.7,0,0,0-2.7-9.08h0s-3.535-2.558-4.75-3.356A36.019,36.019,0,0,1,260.464,28.49l-.122-.284Z" fill="none"/>
        <g id="组_25701" data-name="组 25701">
          <g id="组_26652" data-name="组 26652">
            <g id="组_26651" data-name="组 26651" clip-path="url(#clip-path-2)">
              <g id="组_25700" data-name="组 25700">
                <ellipse id="椭圆_941" data-name="椭圆 941" cx="14.457" cy="4.931" rx="14.457" ry="4.931" transform="translate(242.236 51.301) rotate(-61.584)" fill="#ffe9ac"/>
                <ellipse id="椭圆_942" data-name="椭圆 942" cx="14.457" cy="4.931" rx="14.457" ry="4.931" transform="translate(243.934 52.273) rotate(-61.584)" fill="#ffd45c" opacity="0.656" style="isolation: isolate"/>
              </g>
            </g>
          </g>
        </g>
        <path id="路径_9982" data-name="路径 9982" d="M254.985,38.85l4.551,1.691-3.07,5.687-3.949-2.815Z" fill="#ffb94a"/>
        <ellipse id="椭圆_944" data-name="椭圆 944" cx="14.457" cy="4.931" rx="14.457" ry="4.931" transform="translate(242.236 51.301) rotate(-61.584)" fill="none" stroke="#fffdd1" stroke-miterlimit="9.995" stroke-width="1"/>
        <ellipse id="椭圆_945" data-name="椭圆 945" cx="2.593" cy="0.885" rx="2.593" ry="0.885" transform="translate(251.758 42.956) rotate(-61.584)" fill="#fefdd0"/>
        <path id="路径_9983" data-name="路径 9983" d="M255.731,53.5a35.106,35.106,0,0,1,7.494,1.734,36.272,36.272,0,0,1,4.112,1.7c.54.26,1.523.716,2.495,1.156a20.533,20.533,0,0,0,4.539-5.835,21.265,21.265,0,0,0,2.29-6.285c-.985-.7-2.056-1.447-2.617-1.827a42.023,42.023,0,0,1-3.571-2.627,37.468,37.468,0,0,1-5.3-5.3,34.007,34.007,0,0,1-3.5,9.17A33.378,33.378,0,0,1,255.731,53.5Z" fill="#ffde81"/>
      </g>
      <g id="组_25760" data-name="组 25760">
        <g id="组_25758" data-name="组 25758">
          <path id="路径_10042" data-name="路径 10042" d="M266.8,64.668c1.6,1.274,2.261-.353,1.971-1.094-.664-1.69-3.495-4.43-3.859-4.8-.771-.774-2.628-.42-2.371,1.068-1.143-.761-2.7.7-1.813,1.548-1.142-.559-2.847.235-1.915,1.833a1.269,1.269,0,0,0-1.655,1.847c.7,1.16,3.417,5.442,5.024,4.92,1.262-.409.4-2.035.4-2.035,1.632,1.631,3.057.385,1.979-1.4C265.556,67.587,268.47,67.4,266.8,64.668Z" fill="#febf9e"/>
          <g id="组_25757" data-name="组 25757">
            <path id="路径_10043" data-name="路径 10043" d="M262.386,59.88a20.425,20.425,0,0,1,4.227,4.809,2.187,2.187,0,0,1,.35,1.492c-.088.315-.3.885-1.39.975" fill="none" stroke="#e6785c" stroke-linecap="round" stroke-linejoin="round" stroke-width="0.8"/>
            <path id="路径_10044" data-name="路径 10044" d="M264.264,58.642c.552.171,4.007,2.906,4.261,4.591.079.529,0,1.219-1.543,1.425" fill="none" stroke="#e6785c" stroke-linecap="round" stroke-linejoin="round" stroke-width="0.8"/>
            <path id="路径_10045" data-name="路径 10045" d="M260.689,61.509a19.684,19.684,0,0,1,4.573,5.781c.508,1.273-1.053,2.736-2.478,1.18" fill="none" stroke="#e6785c" stroke-linecap="round" stroke-linejoin="round" stroke-width="0.8"/>
            <path id="路径_10046" data-name="路径 10046" d="M258.91,63.4c.434.166,3.487,3.134,3.875,5.073a.967.967,0,0,1-1.283,1.151,5.075,5.075,0,0,1-2.591-2.245" fill="none" stroke="#e6785c" stroke-linecap="round" stroke-linejoin="round" stroke-width="0.8"/>
          </g>
        </g>
        <g id="组_25759" data-name="组 25759">
          <path id="路径_10047" data-name="路径 10047" d="M272.093,63.394c-.9-.662-6.591-1.394-6.816.4-.246,1.959,5.484,2.989,6.173,2.908C272.6,66.569,273.139,64.166,272.093,63.394Z" fill="#febf9e"/>
          <path id="路径_10048" data-name="路径 10048" d="M269.247,62.721c-1.824-.163-3.838.021-3.97,1.074-.246,1.959,5.484,2.989,6.173,2.908" fill="none" stroke="#e6785c" stroke-linecap="round" stroke-linejoin="round" stroke-width="0.8"/>
        </g>
        <path id="路径_10049" data-name="路径 10049" d="M271.387,63.1" fill="none" stroke="#e6785c" stroke-linecap="round" stroke-linejoin="round" stroke-width="0.8"/>
      </g>
    </g>
    <g id="组_25776" data-name="组 25776">
      <path id="路径_10080" data-name="路径 10080" d="M39.906,116.594c-2.108,1.409-8.7,11.262-7.035,14.836s7.791,7.813,5.891,7.813-7.3-2.66-7.968-6.068c-4.488,2.411-3.84,13.673-2.876,15.024s7.119,5.008,9.527,4.924c-.824,2.618-7.15,1.074-9.893-1.125C25,171.7,44.642,173.132,49.875,166.587c15.7,5.362,19.193-12.218,16.533-18.534-5.86,1.081-8.2,3.434-9.869,1.455-1-1.185,6.524-3.837,7.179-7.508s-4.664-12.814-5.911-14.559c-1.5,2.411-4.86,9.123-6.192,8.79-1.246-.312.624-6.379.374-8.79S42.866,118.331,39.906,116.594Z" fill="#49b9a0"/>
      <path id="路径_10081" data-name="路径 10081" d="M85.794,163.014c-6.367-2.067-12.29-4.351-18.3,2.084-1.487,1.591-.465,5.212-1.168,4.662a7.71,7.71,0,0,1-1.763-4.866c-2.507-.221-4.091,4.9-4.207,5.783s3.339,4.86,3.069,6.571c-1.223.934-5.183-4.935-5.429-6.715-8.509,13.354,2.5,17.321,5.337,16.861-.42,6.85,11.913,9.532,18.112-1.852-3.366-.7-9.046-2.281-8.546-3.558.586-1.5,7.838,2.457,9.367,1a9.8,9.8,0,0,0,2.481-5.108c-3.855-.1-9.094.113-8.5-1.584.278-.788,5.308,1.131,8.268-2.833C86.734,170.484,82.748,168.93,85.794,163.014Z" fill="#49b9a0"/>
      <path id="路径_10082" data-name="路径 10082" d="M53.82,225.408c.9-14.273-6.6-90.239-11.063-97.843" fill="none" stroke="#39a19a" stroke-miterlimit="10" stroke-width="1.035"/>
      <path id="路径_10083" data-name="路径 10083" d="M78.511,165.674c-3.614,3.262-22.037,18.551-24.693,61.843" fill="none" stroke="#39a19a" stroke-miterlimit="10" stroke-width="1.035"/>
      <path id="路径_10084" data-name="路径 10084" d="M26.8,179.23c-.414,1.111.049,8.592,1.639,9.848s6.805,2.56,6.09,2.984-4.92.289-6.09-1.114c-1.039,2.1.812,6.644,1.54,7.044s6.908.326,7.792-.249c.4,1.377-5.293,2.945-6.919,2.556,5.3,8.166,14.462,3.491,15.024.873,5.8,2.68,10.186-8.276,7.48-10.559-1.915,1.8-5.508,5.1-6.67,4.574-.695-.316,5.42-4.416,4.675-6.233s-2.862-5.53-3.8-6.047c.087,1.432-2.93,5.486-3.678,4.925-1.137-.853,2.432-3.117,1.371-6.109C44.823,180.516,37.4,176.112,26.8,179.23Z" fill="#49b9a0"/>
      <path id="路径_10085" data-name="路径 10085" d="M34.262,183.615c2.369,3.366,16.911,18,16.911,42.692" fill="none" stroke="#39a19a" stroke-miterlimit="10" stroke-width="1.035"/>
      <g id="组_25593" data-name="组 25593">
        <path id="路径_9128" data-name="路径 9128" d="M40.143,220.025H65.865a1.126,1.126,0,0,1,1.228.984l-1.842,35.2a1.127,1.127,0,0,1-1.228.984H41.983a1.126,1.126,0,0,1-1.228-.984l-1.842-35.2A1.127,1.127,0,0,1,40.143,220.025Z" fill="#3b9ff1"/>
        <path id="交叉_1" data-name="交叉 1" d="M56.473,257.186c2.658-.929,6.833-3.977,6.915-13.959.12-14.661-3.065-20.911-3.065-20.911h6.708L65.608,256.2a.985.985,0,0,1-.984.981Z" fill="#3791dd" style="isolation: isolate"/>
        <rect id="矩形_4795" data-name="矩形 4795" width="32.545" height="3.112" rx="1" transform="translate(36.729 220.025)" fill="#4aaff4"/>
        <path id="路径_9243" data-name="路径 9243" d="M57.333,220.025H69.275v3.112H58.7Z" fill="#3791dd" style="isolation: isolate"/>
      </g>
    </g>
  </g>
</svg>
