<svg xmlns="http://www.w3.org/2000/svg" width="380.002" height="266" viewBox="0 0 380.002 266">
  <g id="Ukey登录" transform="translate(505.001)">
    <g id="组_25633" data-name="组 25633">
      <path id="路径_8686" data-name="路径 8686" d="M-485.617,258c-38.387-41.721-19.677-133.9,55.4-153.857,85.683-22.777,58.772-72.756,119.671-93.168,28.613-9.6,119.708-14.559,150.6,20.851,35.919,41.174-10,84.72,14.361,119.906,12.393,17.9,34.735,79.963,8.058,105.519Z" fill="#f4fafe"/>
      <rect id="矩形_2843" data-name="矩形 2843" width="380" height="266" transform="translate(-504.999)" fill="none"/>
      <line id="直线_727" data-name="直线 727" x2="365" transform="translate(-498.499 258)" fill="none" stroke="#bcdfff" stroke-linecap="round" stroke-width="2"/>
    </g>
    <g id="组_10925" data-name="组 10925">
      <g id="组_9231" data-name="组 9231">
        <g id="组_9227" data-name="组 9227">
          <rect id="矩形_2826" data-name="矩形 2826" width="12.711" height="46.164" transform="translate(-483.712 10.881)" fill="#e3effa" style="isolation: isolate"/>
          <rect id="矩形_2827" data-name="矩形 2827" width="8.625" height="19.158" transform="translate(-481.669 13.112)" fill="#fff" opacity="0.8" style="isolation: isolate"/>
        </g>
        <g id="组_9228" data-name="组 9228">
          <rect id="矩形_2828" data-name="矩形 2828" width="12.711" height="46.164" transform="translate(-470.038 10.881)" fill="#e3effa" style="isolation: isolate"/>
          <rect id="矩形_2829" data-name="矩形 2829" width="8.625" height="19.158" transform="translate(-467.995 13.112)" fill="#fff" opacity="0.8" style="isolation: isolate"/>
        </g>
        <g id="组_9229" data-name="组 9229">
          <rect id="矩形_2830" data-name="矩形 2830" width="12.711" height="46.164" transform="translate(-456.364 10.881)" fill="#e3effa" style="isolation: isolate"/>
          <rect id="矩形_2831" data-name="矩形 2831" width="8.625" height="19.158" transform="translate(-454.321 13.112)" fill="#fff" opacity="0.8" style="isolation: isolate"/>
        </g>
        <g id="组_9230" data-name="组 9230">
          <rect id="矩形_2832" data-name="矩形 2832" width="12.711" height="46.164" transform="translate(-442.69 10.881)" fill="#e3effa" style="isolation: isolate"/>
          <rect id="矩形_2833" data-name="矩形 2833" width="8.625" height="19.158" transform="translate(-440.647 13.112)" fill="#fff" opacity="0.8" style="isolation: isolate"/>
        </g>
      </g>
      <line id="直线_724" data-name="直线 724" x2="66.146" transform="translate(-489.919 57.045)" fill="none" stroke="#d6e7f5" stroke-miterlimit="10" stroke-width="1"/>
    </g>
    <g id="组_10926" data-name="组 10926">
      <path id="路径_8504" data-name="路径 8504" d="M-477.472,257.312h-1.774a1.558,1.558,0,0,1-1.557-1.557h0l19.135-78.728h9.85l-24.1,78.728a1.558,1.558,0,0,1-1.557,1.557h0Z" fill="#d9eaff"/>
      <path id="路径_8505" data-name="路径 8505" d="M-162.356,257.312h1.773a1.557,1.557,0,0,0,1.559-1.554v0h0l-19.135-78.728h-9.85l24.1,78.728A1.56,1.56,0,0,0-162.356,257.312Z" fill="#d9eaff"/>
      <rect id="矩形_2707" data-name="矩形 2707" width="314.23" height="5.944" transform="translate(-476.561 174.407)" fill="#d9eaff"/>
      <path id="矩形_2708" data-name="矩形 2708" d="M-483.2,170.865h325.759a3.117,3.117,0,0,1,3.117,3.117h0a3.115,3.115,0,0,1-3.115,3.117H-483.2a3.117,3.117,0,0,1-3.117-3.117h0A3.118,3.118,0,0,1-483.2,170.865Z" fill="#cee1ff"/>
    </g>
    <g id="组_10927" data-name="组 10927">
      <g id="组_9215" data-name="组 9215">
        <path id="路径_8614" data-name="路径 8614" d="M-307,147.953s3.793,11.736-7.976,17.813h55.787s-13.286-4.558-9.852-17.813Z" fill="#fff" stroke="#abcdff" stroke-miterlimit="10" stroke-width="1"/>
        <rect id="矩形_2822" data-name="矩形 2822" width="87.548" height="7.234" rx="0.886" transform="translate(-332.709 164.766)" fill="#fff" stroke="#abcdff" stroke-miterlimit="10" stroke-width="1"/>
        <g id="组_9213" data-name="组 9213">
          <path id="路径_8616" data-name="路径 8616" d="M-208.387,25.611H-369.464a4.854,4.854,0,0,0-4.855,4.853h0V143.1a4.86,4.86,0,0,0,4.855,4.855h161.077a4.854,4.854,0,0,0,4.836-4.855V30.465A4.854,4.854,0,0,0-208.387,25.611Z" fill="#fff" stroke="#abcdff" stroke-width="1"/>
          <path id="路径_8617" data-name="路径 8617" d="M-286.862,138.05a3,3,0,0,1-.45,4.219,3,3,0,0,1-3.768,0,1.145,1.145,0,0,1-.26-.26,3,3,0,0,1,.454-4.218,3,3,0,0,1,3.765,0A1.008,1.008,0,0,1-286.862,138.05Z" fill="#abcdff"/>
          <path id="路径_8618" data-name="路径 8618" d="M-362.535,32.421h147.21a4.339,4.339,0,0,1,4.23,4.439h0v95.149H-366.778V36.86a4.339,4.339,0,0,1,4.23-4.439Z" fill="#eaf4ff"/>
          <path id="路径_8619" data-name="路径 8619" d="M-362.771,32.421h148.4a3.279,3.279,0,0,1,3.279,3.279h0v6.606H-366.774V36.412a3.992,3.992,0,0,1,3.989-3.992h.014Z" fill="#a3c9ff"/>
          <path id="路径_8620" data-name="路径 8620" d="M-360.635,37.64a1.124,1.124,0,0,1-1.124,1.124,1.124,1.124,0,0,1-1.124-1.124,1.124,1.124,0,0,1,1.124-1.124h0a1.124,1.124,0,0,1,1.124,1.124Z" fill="#fff"/>
          <path id="路径_8621" data-name="路径 8621" d="M-357.3,37.64a1.124,1.124,0,0,1-1.124,1.124,1.124,1.124,0,0,1-1.124-1.124,1.124,1.124,0,0,1,1.124-1.124h0a1.12,1.12,0,0,1,1.12,1.12h0Z" fill="#fff"/>
          <path id="路径_8622" data-name="路径 8622" d="M-354.119,37.64a1.124,1.124,0,0,1-1.124,1.124,1.124,1.124,0,0,1-1.124-1.124,1.124,1.124,0,0,1,1.124-1.124h0a1.124,1.124,0,0,1,1.124,1.124Z" fill="#fff"/>
        </g>
      </g>
      <g id="组_25595" data-name="组 25595">
        <rect id="矩形_4796" data-name="矩形 4796" width="40" height="7" transform="translate(-309 111)" fill="#abcdff"/>
        <rect id="矩形_4797" data-name="矩形 4797" width="2" height="7" transform="translate(-271 111)" fill="#abcdff" opacity="0.583" style="isolation: isolate"/>
        <rect id="矩形_4798" data-name="矩形 4798" width="38" height="2" transform="translate(-309 111)" fill="#abcdff" opacity="0.583" style="isolation: isolate"/>
      </g>
    </g>
    <g id="组_7171" data-name="组 7171">
      <path id="Fill_1" data-name="Fill 1" d="M-312.375,58.685V72.306c0,13.872,8.3,24.72,22.652,29.764,14.346-5.044,22.653-15.891,22.653-29.764V58.685l-22.653-6.811Z" fill="#8db6fa"/>
      <path id="Fill_1-2" data-name="Fill 1-2" d="M-314.023,57.856V71.477c0,13.872,8.3,24.72,22.652,29.764,14.346-5.044,22.653-15.891,22.653-29.764V57.856l-22.653-6.811Z" fill="#c4dcff"/>
      <path id="Fill_1-2-2" data-name="Fill 1-2-2" d="M-311.14,59.805V71.89c0,12.308,7.369,21.932,20.1,26.407,12.724-4.477,20.1-14.1,20.1-26.408V59.805l-20.1-6.043Z" fill="none" stroke="#a8cafe" stroke-miterlimit="10" stroke-width="1.6"/>
      <g id="组_25594" data-name="组 25594">
        <path id="路径_9881" data-name="路径 9881" d="M-283.8,72.921h-.7V69.032a5.114,5.114,0,0,0-.533-2.208,5.754,5.754,0,0,0-1.4-1.8,6.955,6.955,0,0,0-4.576-1.656,7.232,7.232,0,0,0-2.538.451,6.642,6.642,0,0,0-2.07,1.229,5.766,5.766,0,0,0-1.4,1.828,5.12,5.12,0,0,0-.512,2.225h.008V72.92h-.708a1.421,1.421,0,0,0-1.443,1.384v9.684a1.417,1.417,0,0,0,1.443,1.384H-283.8a1.414,1.414,0,0,0,1.443-1.38V74.3h0a1.413,1.413,0,0,0-1.443-1.383h0Zm-2.864,0h-8.692V69.1a3.589,3.589,0,0,1,1.275-2.708,4.779,4.779,0,0,1,6.137,0,3.584,3.584,0,0,1,1.278,2.7Z" fill="#6b9aff"/>
        <path id="路径_9882" data-name="路径 9882" d="M-291.094,82.811h.015a1.062,1.062,0,0,0,.741-.3,1.01,1.01,0,0,0,.314-.718V79.938a2.1,2.1,0,0,0,.774-.693,1.78,1.78,0,0,0,.3-.979,2.148,2.148,0,0,0-2.341-1.938,2.149,2.149,0,0,0-1.938,1.938,1.779,1.779,0,0,0,.3.981,2.074,2.074,0,0,0,.774.693v1.855a1.01,1.01,0,0,0,.314.718,1.062,1.062,0,0,0,.741.3Z" fill="#fff" opacity="0.876" style="isolation: isolate"/>
      </g>
    </g>
    <g id="组_25590" data-name="组 25590">
      <g id="组_25592" data-name="组 25592">
        <path id="路径_9871" data-name="路径 9871" d="M-164.931,193.944a104.155,104.155,0,0,0-2.378-19.765c3.69-8.3.821-19.892-4.449-26.675-2.707-3.483-6.216-6.323-8.619-10.023-.273,3.864-2.336,7.516-2.117,11.384a19.6,19.6,0,0,0,1.376,5.425c2.158,6.024,4.422,12.227,8.768,16.922,1.145,1.237,2.62,3.473,4.053,4.242a104.286,104.286,0,0,1,2.146,18.522v26.636h1.22Z" fill="#abe4e4"/>
        <path id="路径_9872" data-name="路径 9872" d="M-141.036,148.009l-15.678,25.28c-2.029,3.271-4.08,6.591-5.17,10.283-1.534,6.075-1.335,13.211-.491,19.719a95.332,95.332,0,0,0-.4,18.563l1.217-.089a97.2,97.2,0,0,1-.023-14.072c2.756-2.166,4.776-8.263,6.5-11.441l6.84-12.618a91.128,91.128,0,0,0,4.945-10.092A45.876,45.876,0,0,0-141.036,148.009Z" fill="#54c0b9"/>
        <path id="路径_9873" data-name="路径 9873" d="M-168.009,220.613A134.391,134.391,0,0,0-170.1,206.9c-.486-5.054-2.6-12.685-2.942-14.628-1.435-8.106-3.109-16.4-7.544-23.337A33.154,33.154,0,0,0-195,156.561a60.5,60.5,0,0,0,4.475,18.484c5.272,12.622,13.943,23.828,19.636,36.287,1.156,3.787,2.027,7.319,1.992,9.282Z" fill="#54c0b9"/>
        <path id="路径_9874" data-name="路径 9874" d="M-158.96,219.027a69.363,69.363,0,0,1,3.443-14.61c-2.548-6.517.726-14.966,5.7-19.616,2.556-2.389,5.749-4.23,8.061-6.8-.045,2.917,1.451,5.82.987,8.7a13.346,13.346,0,0,1-1.561,3.952c-2.271,4.336-4.643,8.8-8.682,11.96-1.064.834-2.48,2.387-3.757,2.846a69.6,69.6,0,0,0-3.156,13.7l-1.91,19.95-1.039-.1,1.91-19.959Z" fill="#abe4e4"/>
        <path id="路径_9877" data-name="路径 9877" d="M-190.748,163.955s8,7.388,9.85,12.929,5.541,17.854,5.541,17.854A146.989,146.989,0,0,0-190.748,163.955Z" fill="#54c0b9" opacity="0.3" style="isolation: isolate"/>
        <path id="路径_9878" data-name="路径 9878" d="M-143.959,158.414s-9.85,15.391-13.544,23.4a28.941,28.941,0,0,0-2.463,15.391C-159.966,187.965-143.959,158.414-143.959,158.414Z" fill="#54c0b9" opacity="0.3" style="isolation: isolate"/>
        <path id="路径_9879" data-name="路径 9879" d="M-177.82,145.485s5.541,8.619,6.772,12.929,2.463,12.313,2.463,12.313A169.158,169.158,0,0,0-177.82,145.485Z" fill="#abe4e4" opacity="0.3" style="isolation: isolate"/>
        <path id="路径_9880" data-name="路径 9880" d="M-144.5,185.269s-5.832,3.251-7.408,7.434a71.308,71.308,0,0,0-2.594,9.041A53.221,53.221,0,0,1-144.5,185.269Z" fill="#abe4e4" opacity="0.3" style="isolation: isolate"/>
      </g>
      <g id="组_25593" data-name="组 25593">
        <path id="路径_9128" data-name="路径 9128" d="M-178.34,216.271h28.4a1.243,1.243,0,0,1,1.356,1.087l-2.034,38.861a1.244,1.244,0,0,1-1.356,1.087h-24.335a1.244,1.244,0,0,1-1.356-1.087l-2.034-38.861A1.244,1.244,0,0,1-178.34,216.271Z" fill="#fbe39b"/>
        <path id="交叉_1" data-name="交叉 1" d="M-160.309,257.3c2.935-1.026,7.545-4.391,7.635-15.412.133-16.188-3.384-23.088-3.384-23.088h7.406l-1.571,37.417a1.086,1.086,0,0,1-1.086,1.083Z" fill="#f0ce6a" opacity="0.54" style="isolation: isolate"/>
        <rect id="矩形_4795" data-name="矩形 4795" width="35.934" height="3.436" rx="1" transform="translate(-182.109 216.271)" fill="#fefefe"/>
        <path id="路径_9243" data-name="路径 9243" d="M-159.36,216.271h13.185v3.436h-11.678Z" fill="#faecc3"/>
      </g>
    </g>
    <g id="组_25597" data-name="组 25597">
      <g id="组_10912" data-name="组 10912">
        <path id="形状_23-2" data-name="形状 23-2" d="M-428.043,230.643s.552,14.193-2.209,15.13,8.08,5.924,15.223,6.244,13.346-3.7,13.346-3.7-3.608-1.043-6.336-2.178a36.434,36.434,0,0,1-4.752-2.574c-1.835-.951-1.224-12.925-1.224-12.925Z" fill="#ffb693"/>
        <g id="组_10861" data-name="组 10861">
          <path id="形状_24-2" data-name="形状 24-2" d="M-407.173,248.635a12.762,12.762,0,0,1-5.682,0l3.291-3.681-3.291-2.033-4.843,4.629a32.456,32.456,0,0,1-6.583-1.764c-2.986-1.233-5.065-2.733-5.362-2.535-.954.373-2.162,2.825-2.494,6.693a45.935,45.935,0,0,0,0,7.363H-421.8V254.5l8.871,2.81h19.186s.918-4.887-2.751-7.224a38.314,38.314,0,0,0-6.97-3.031C-404.179,246.914-404.473,247.89-407.173,248.635Z" fill="#44468d"/>
          <path id="形状_24-2-2" data-name="形状 24-2-2" d="M-432.252,254.487c0,1.43.115,2.819.115,2.819h10.375v-2.819l8.831,2.819h19.186a11.868,11.868,0,0,0,.03-2.819S-432.271,254.468-432.252,254.487Z" fill="#353284"/>
        </g>
      </g>
      <g id="组_10913" data-name="组 10913">
        <path id="形状_23-2-2" data-name="形状 23-2-2" d="M-455.924,230.643s.552,14.193-2.209,15.13,8.08,5.924,15.223,6.244,13.346-3.7,13.346-3.7-3.608-1.043-6.336-2.178a36.434,36.434,0,0,1-4.752-2.574c-1.835-.951-1.224-12.925-1.224-12.925Z" fill="#ffb693"/>
        <g id="组_10861-2" data-name="组 10861-2">
          <path id="形状_24-2-3" data-name="形状 24-2-3" d="M-435.054,248.635a12.762,12.762,0,0,1-5.682,0l3.291-3.681-3.291-2.033-4.843,4.633a32.39,32.39,0,0,1-6.583-1.764c-2.986-1.233-5.065-2.733-5.362-2.535-.954.373-2.162,2.825-2.494,6.693a45.955,45.955,0,0,0,0,7.364h10.335V254.5l8.871,2.81h19.186s.918-4.888-2.751-7.224a38.312,38.312,0,0,0-6.97-3.031C-432.06,246.914-432.354,247.89-435.054,248.635Z" fill="#595e9c"/>
          <path id="形状_24-2-4" data-name="形状 24-2-4" d="M-460.133,254.487c0,1.43.115,2.819.115,2.819h10.375v-2.819l8.831,2.819h19.186a11.867,11.867,0,0,0,.03-2.819S-460.152,254.468-460.133,254.487Z" fill="#44468d"/>
        </g>
      </g>
      <g id="组_8952" data-name="组 8952">
        <path id="路径_78" data-name="路径 78" d="M-414.2,133.411-407,237.27h-26.412L-435.7,132.811Z" fill="#548ee8"/>
        <path id="路径_79" data-name="路径 79" d="M-454.222,132.054l-7.823,107.7h31.71l-.658-106.686Z" fill="#548ee8"/>
        <path id="路径_8832" data-name="路径 8832" d="M-429.166,153.8l-1.335,83.165" fill="none" stroke="#2d59be" stroke-linecap="round" stroke-width="0.8"/>
        <path id="路径_8946" data-name="路径 8946" d="M-409.326,200.891s-.8,14.564-2.416,22.375a93.671,93.671,0,0,1-4.039,13.94h8.672Z" fill="#2d59be" opacity="0.5" style="isolation: isolate"/>
        <path id="路径_8947" data-name="路径 8947" d="M-429.853,185.961s-2.818,20.435-5.492,33.5-5.7,20.276-5.7,20.276l10.693-.109Z" fill="#2d59be" opacity="0.5" style="isolation: isolate"/>
        <path id="路径_8976" data-name="路径 8976" d="M-434.751,142.4l16.2,1.821-.95-6.455-15.25-.236Z" fill="#2d59be" opacity="0.51" style="isolation: isolate"/>
      </g>
      <g id="组_9024" data-name="组 9024">
        <path id="路径_158" data-name="路径 158" d="M-439.363,72.314s7.626,3.036,10.441-.513c0,0,5.44,12.273,6.757,32.815s2.224,33.454,2.224,33.454H-432.7s1.356-27.521-1.317-46.467c-.967-6.833-3.57-13.487-5.347-19.289" fill="#f28167"/>
        <path id="路径_179" data-name="路径 179" d="M-433.035,83.647a1.959,1.959,0,0,1,1.96,1.958,1.959,1.959,0,0,1-1.958,1.96,1.96,1.96,0,0,1-1.96-1.958h0a1.958,1.958,0,0,1,1.958-1.959" fill="#f9998a"/>
        <path id="路径_180" data-name="路径 180" d="M-426.318,90.513a1.96,1.96,0,0,1,1.96,1.958,1.958,1.958,0,0,1-1.958,1.96,1.959,1.959,0,0,1-1.96-1.958h0a1.959,1.959,0,0,1,1.958-1.959" fill="#f9998a"/>
        <path id="路径_181" data-name="路径 181" d="M-429.009,99.786a1.96,1.96,0,0,1,1.96,1.958,1.958,1.958,0,0,1-1.958,1.96,1.959,1.959,0,0,1-1.96-1.958h0a1.96,1.96,0,0,1,1.958-1.958" fill="#f9998a"/>
      </g>
      <g id="组_9027" data-name="组 9027">
        <g id="组_8870" data-name="组 8870">
          <path id="路径_9883" data-name="路径 9883" d="M-422.676,70.9c13.041,3.093,15.263,23.436,16.483,27.619,1.635,5.61,2,17.96,2,17.96l-6.411-1.253Z" fill="#fff"/>
          <path id="形状_688" data-name="形状 688" d="M-405.79,143.93c5.6,24.606,11.885,50.336,11.885,50.336l-18,6.217s-5.6-36.2-8.6-68.064c-1.326-14.107-1.391-28.071-2.8-38.2-.781-5.638-4.492-17.878-4.492-17.878l-2.06-8.073s2.6.847,6.128,2.148c2.712,1,5.733,4.274,8.341,7.986.437.622.845,1.22,1.217,1.776C-414.156,80.179-411.387,119.322-405.79,143.93Z" fill="#fff"/>
          <path id="形状_705" data-name="形状 705" d="M-409.589,109.272" fill="none" stroke="#000" stroke-linecap="round" stroke-linejoin="round" stroke-width="1.3"/>
          <path id="形状_705-2" data-name="形状 705-2" d="M-399.426,134.984" fill="none" stroke="#000" stroke-linecap="round" stroke-linejoin="round" stroke-width="1.3"/>
          <path id="形状_702" data-name="形状 702" d="M-414.609,77.885" fill="none" stroke="#000" stroke-linecap="round" stroke-linejoin="round" stroke-width="1.3"/>
        </g>
        <path id="路径_8423" data-name="路径 8423" d="M-440.309,69.235s-11.248,1.539-15.867,8.214c-6.05,8.743,5.44-5.655,1.623,21.5s-10.827,64.173-12.911,74.232-4.632,28.43-4.632,28.43h32.187s7.62-53.1,7.519-86.2S-440.309,69.235-440.309,69.235Z" fill="#fcfcfc"/>
        <path id="路径_8651" data-name="路径 8651" d="M-445.168,72.42l-.792,9.82a18.722,18.722,0,0,1,2.218.516,3.926,3.926,0,0,1,1.267.633l-2.931,3.247a49.012,49.012,0,0,1,4.2,9.308c2.347,6.49,5.188,16.652,5.188,16.652a71.909,71.909,0,0,0-2.217-10.91c-1.822-6.7-5.268-16.237-5.268-16.237l5.268-5.6-6.5.911Z" fill="#a0c5ec" opacity="0.35" style="isolation: isolate"/>
        <path id="路径_8658" data-name="路径 8658" d="M-450.42,100.719l-4.635,10.43a42.891,42.891,0,0,0,6.493,4.9c4.868,3.212,12.977,7.951,12.977,7.951h0s-14.94-10.43-16.2-12.221S-450.42,100.719-450.42,100.719Z" fill="#a0c5ec" opacity="0.35" style="isolation: isolate"/>
        <path id="路径_8652" data-name="路径 8652" d="M-420.3,74.281a8.351,8.351,0,0,1,1.861,3.089L-420.3,80.3l2.521,2.324a46.318,46.318,0,0,1,.687,12.883,87.539,87.539,0,0,1-3.208,15.313,70.123,70.123,0,0,0,2.152-15.313,74.98,74.98,0,0,0-1.32-13.569l-4.871-3.023,4.871-2.416-4.871-5.663A29.741,29.741,0,0,1-420.3,74.281Z" fill="#a0c5ec" opacity="0.35" style="isolation: isolate"/>
        <path id="路径_8666" data-name="路径 8666" d="M-445.129,72.38l.356,8.435,6.732-1.109-5.5,5.822A114.492,114.492,0,0,1-439.62,96.5c1.79,5.994,3.6,16.2,3.6,16.2" fill="none" stroke="#a0c5ec" stroke-linecap="round" stroke-linejoin="round" stroke-width="0.8"/>
        <path id="路径_8668" data-name="路径 8668" d="M-424.736,70.586a33.965,33.965,0,0,1,3.052,2.983,23.977,23.977,0,0,1,2.275,3.085l-5.323,2.271,5.323,3.063A65.11,65.11,0,0,1-418.2,94.715a85.932,85.932,0,0,1-2.112,16.263" fill="none" stroke="#a0c5ec" stroke-linecap="round" stroke-linejoin="round" stroke-width="0.8"/>
        <path id="路径_8669" data-name="路径 8669" d="M-413.2,89.631s.739,7.076,1.056,11.088" fill="none" stroke="#a0c5ec" stroke-linecap="round" stroke-width="0.8"/>
        <path id="路径_8948" data-name="路径 8948" d="M-398.93,173.366a97.147,97.147,0,0,1-.455,12.336,74.231,74.231,0,0,1-2.257,11.227l7.722-2.652Z" fill="#a0c5ec" opacity="0.35" style="isolation: isolate"/>
        <path id="路径_8949" data-name="路径 8949" d="M-438.335,189.841a30.654,30.654,0,0,1-6.673,6.944,44.448,44.448,0,0,1-9.168,4.858H-439.9Z" fill="#a0c5ec" opacity="0.35" style="isolation: isolate"/>
      </g>
      <path id="路径_8960" data-name="路径 8960" d="M-459.621,130.874l-1.441,8.287,27.37,5.911.447-5.96-9.029-4.4-2.455,3.842Z" fill="#a0c5ec" opacity="0.35" style="isolation: isolate"/>
      <path id="路径_9884" data-name="路径 9884" d="M-407.559,114.326c1.05-.153,5.21,1.371,6.749,3.494.658.909-.279,3.783-.521,4.219-.168.3-2.737-.021-3.82-1.3s-2.024-1.06-2.253-2.106S-408.109,114.407-407.559,114.326Z" fill="#febf9e"/>
      <g id="组_10924" data-name="组 10924">
        <rect id="矩形_80" data-name="矩形 80" width="23.109" height="11.42" transform="translate(-410.691 96.678) rotate(-53.989)" fill="#bed5f5"/>
        <path id="路径_462" data-name="路径 462" d="M-410.69,96.678l-9.238-6.713,13.586-18.692,9.238,6.714Z" fill="#bed5f5"/>
        <path id="路径_462-2" data-name="路径 462-2" d="M-419.263,90.447l-.665-.482,13.586-18.692.664.483Z" fill="#d9eaff"/>
        <path id="路径_462-3" data-name="路径 462-3" d="M-401.452,103.393l-.664-.483,13.586-18.692.664.483Z" fill="#afcbf3" opacity="0.48" style="isolation: isolate"/>
        <rect id="矩形_82" data-name="矩形 82" width="5.538" height="28.889" transform="translate(-421.936 87.584) rotate(-53.989)" fill="#3596f4"/>
        <path id="矩形_83" data-name="矩形 83" d="M-438.855,149.439l-13.328-9.684a8.75,8.75,0,0,1-1.8-12.239h0l30.114-41.432,27.334,19.867-30.116,41.435a8.749,8.749,0,0,1-12.2,2.061h0Z" fill="#46acff"/>
        <rect id="矩形_85" data-name="矩形 85" width="3.014" height="5.104" transform="translate(-409.144 80.5) rotate(-53.989)" fill="#3496f4"/>
        <rect id="矩形_86" data-name="矩形 86" width="3.014" height="5.104" transform="translate(-399.906 87.214) rotate(-53.989)" fill="#3496f4"/>
        <rect id="矩形_85-2" data-name="矩形 85-2" width="0.643" height="5.104" transform="translate(-407.75 78.581) rotate(-53.989)" fill="#fff"/>
        <rect id="矩形_86-2" data-name="矩形 86-2" width="0.643" height="5.104" transform="translate(-398.512 85.296) rotate(-53.989)" fill="#fff"/>
        <path id="路径_8655" data-name="路径 8655" d="M-397.1,77.987l-2.438,3.354-.958-.7-.918,1.264.957.7-2.719,3.741-.957-.7-.919,1.264.958.7L-407,91.6" fill="none" stroke="#3496f4" stroke-linejoin="round" stroke-width="0.806"/>
        <path id="路径_8656" data-name="路径 8656" d="M-454.453,137.279a8.473,8.473,0,0,0,2.27,2.474l13.33,9.688a8.75,8.75,0,0,0,12.2-2.06l30.113-41.433s-20.746,22.956-37.149,32.085C-442.867,143.141-451.6,138.363-454.453,137.279Z" fill="#60aff7" opacity="0.276" style="isolation: isolate"/>
        <ellipse id="椭圆_283" data-name="椭圆 283" cx="2.53" cy="2.478" rx="2.53" ry="2.478" transform="translate(-445.576 140.461) rotate(-53.989)" fill="#fff"/>
      </g>
      <path id="路径_162" data-name="路径 162" d="M-422.109,55.214c1.856-1.072,3.118-2.923,2.693-7.6s-4.931-6.241-4.931-6.241-2.386-3.8-8.342-4.055-13.687,4.562-14.7,12.419-7.911,6.991-13.646,15.989.687,17.681.687,17.681,3.653-5.546,5.88-7.542c4.32-3.873,9.8-4.946,13.951-6.442C-436.653,68.065-422.109,55.214-422.109,55.214Z" fill="#101013"/>
      <g id="组_9026" data-name="组 9026">
        <g id="组_9023" data-name="组 9023">
          <path id="路径_166" data-name="路径 166" d="M-437.1,125.871s10.735-1.426,11.228,1.639c.477,2.985-5.193,1.345-4.4,2.058s9.173,1.539,9.98,3.327-.411,2.33-.411,2.33a1.951,1.951,0,0,1-.428,1.416,3.849,3.849,0,0,1-1.646.988,9.715,9.715,0,0,1-1.185,1.053,3.633,3.633,0,0,1-1.909.691,4.479,4.479,0,0,1-1.218,1.021,4.652,4.652,0,0,1-2.051.32c-3.538.377-13.714-5.489-13.714-5.489Z" fill="#febf9e"/>
          <path id="路径_8660" data-name="路径 8660" d="M-420.9,134.9s-2.176.17-8.848-1.321" fill="none" stroke="#e6785c" stroke-linecap="round" stroke-linejoin="round" stroke-width="0.8"/>
          <path id="路径_8661" data-name="路径 8661" d="M-426.369,139.367a15.741,15.741,0,0,1-6.441-1.251" fill="none" stroke="#e6785c" stroke-linecap="round" stroke-linejoin="round" stroke-width="0.8"/>
          <path id="路径_8662" data-name="路径 8662" d="M-423.309,137.383a44.447,44.447,0,0,1-7.815-1.163" fill="none" stroke="#e6785c" stroke-linecap="round" stroke-linejoin="round" stroke-width="0.8"/>
        </g>
        <g id="组_9025" data-name="组 9025">
          <path id="路径_163" data-name="路径 163" d="M-449.8,76.355c-1.35-.468-3.052-2.156-6.7,1.486-2.614,2.932-9.118,14.041-11.965,21.369-6.968,17.929-7.894,19.634.586,26.3,6.914,5.434,23.377,12.924,23.377,12.924l8.818-14.046s-19.569-12.192-19.49-13.2,16.539-30.97,5.369-34.837" fill="#fff"/>
          <path id="路径_8659" data-name="路径 8659" d="M-463.7,125.844c7.818,4.525,21.465,9.029,21.465,9.029l-2.418,3.564-14.256-7.182s-12.525-6.771-14.6-11.775a12.1,12.1,0,0,1-.449-2.155S-471.518,121.319-463.7,125.844Z" fill="#a0c5ec" opacity="0.35" style="isolation: isolate"/>
          <path id="路径_8667" data-name="路径 8667" d="M-435.6,124.271l-8.961,14.212" fill="none" stroke="#a0c5ec" stroke-linecap="round" stroke-linejoin="round" stroke-width="0.8"/>
          <path id="路径_8667-2" data-name="路径 8667" d="M-447.909,92.861a51.051,51.051,0,0,1-2.535,8.056c-1.816,4.506-4.8,10.138-4.8,10.138a87.359,87.359,0,0,0,7.966,5.974c4.911,3.3,11.677,7.242,11.677,7.242" fill="none" stroke="#a0c5ec" stroke-linecap="round" stroke-linejoin="round" stroke-width="0.8"/>
          <path id="路径_163-2" data-name="路径 163" d="M-452.954,75.013c-4.7,2.872-12.661,16.869-15.508,24.2-6.968,17.929-7.894,19.634.586,26.3,6.914,5.434,23.377,12.924,23.377,12.924" fill="none" stroke="#a0c5ec" stroke-linecap="round" stroke-linejoin="round" stroke-width="0.8"/>
        </g>
      </g>
      <path id="路径_160" data-name="路径 160" d="M-422.747,59.174a12.1,12.1,0,0,0,1.3,12.1s-2.143-1-4.089-1.673a33.851,33.851,0,0,0-3.673-1.03l-.851-7.795Z" fill="#101013"/>
      <path id="路径_170" data-name="路径 170" d="M-426.347,41.071a10.6,10.6,0,0,0-8.121-3.242c-5.322.127-10.966,2.637-13.053,8.744s-3.275,8.492-9.823,11.766-12.25,8.871-9.4,16.9" fill="none" stroke="#000" stroke-linecap="round" stroke-linejoin="round" stroke-width="1.2"/>
      <g id="组_9314" data-name="组 9314">
        <path id="路径_161" data-name="路径 161" d="M-428.609,73a16.563,16.563,0,0,1-.663-3.536,3.8,3.8,0,0,1,.555-2.221,6.491,6.491,0,0,0,5.272-2.766c1.265-1.978,1.7-4.117,1.649-8.033-.041-3.515-.43-5.156-1.113-6.273a12.682,12.682,0,0,0-2.276-2.421,10.548,10.548,0,0,1-4.284,3.02c-2.422.757-4.641,1.058-5.781,2.18s-.3,2.7-.887,3.159-1.171-.85-1.369-1.774a2.17,2.17,0,0,0-1.2-1.565,2.821,2.821,0,0,0-2.8.354,3.557,3.557,0,0,0-1.021,3.831c.46,1.506,1.615,3.889,2.349,4.087s.707-.123.919.048a16.376,16.376,0,0,1,.557,5.65,3.079,3.079,0,0,1-1.536,2.614s.45.858.822,1.653.663,1.525.663,1.525A16.844,16.844,0,0,0-433.01,73.6C-429.3,73.755-428.609,73-428.609,73Z" fill="#febf9e"/>
        <path id="路径_172" data-name="路径 172" d="M-429.483,54.413a.922.922,0,0,1,.936.908.922.922,0,0,1-.907.936.923.923,0,0,1-.937-.908c0-.023,0-.046,0-.069v-.009a.884.884,0,0,1,.9-.857" fill="#101013"/>
        <path id="路径_173" data-name="路径 173" d="M-423.565,54.733a.792.792,0,0,1,.678.875.773.773,0,0,1-.773.769h-.007a.831.831,0,0,1-.663-.969.829.829,0,0,1,.763-.675h0" fill="#101013"/>
        <path id="路径_174" data-name="路径 174" d="M-425.934,59.807s1.137.03,1.244-.816-.891-1.174-1.4-3" fill="none" stroke="#ab392c" stroke-linecap="round" stroke-linejoin="round" stroke-width="0.8"/>
        <path id="路径_175" data-name="路径 175" d="M-427.709,62.338a2.26,2.26,0,0,0,1.406.514,2.052,2.052,0,0,0,1.329-.24" fill="none" stroke="#ab392c" stroke-linecap="round" stroke-width="0.8"/>
        <path id="路径_176" data-name="路径 176" d="M-439.662,57.554l2.144-.78-1.217-.986" fill="none" stroke="#e6785c" stroke-linecap="round" stroke-linejoin="round" stroke-width="0.8"/>
        <path id="路径_8833" data-name="路径 8833" d="M-429.259,67.486a8.914,8.914,0,0,1-4.033-1.775" fill="none" stroke="#e6785c" stroke-linecap="round" stroke-width="0.8"/>
        <path id="路径_8834" data-name="路径 8834" d="M-429.189,70.287a5.394,5.394,0,0,1-.054-1.594,4.764,4.764,0,0,1,.508-1.446,12.142,12.142,0,0,1-2.145-.321,8.683,8.683,0,0,1-1.735-.659,9.085,9.085,0,0,0,1.335,2.178A11.978,11.978,0,0,0-429.189,70.287Z" fill="#e6785c" opacity="0.5" style="isolation: isolate"/>
        <path id="路径_8835" data-name="路径 8835" d="M-437.987,55.695s-.773-2.762-2.3-1.958-1.871,2.075-.952,3.693,2.7,2.236,2.685.039S-437.987,55.695-437.987,55.695Z" fill="#e6785c" opacity="0.5" style="isolation: isolate"/>
        <path id="路径_8980" data-name="路径 8980" d="M-424.391,52.766a2.239,2.239,0,0,1,1.715-.094" fill="none" stroke="#462a2a" stroke-linecap="round" stroke-width="0.8"/>
        <path id="路径_8990" data-name="路径 8990" d="M-431.218,52.695a2.95,2.95,0,0,1,2.576-.237" fill="none" stroke="#462a2a" stroke-linecap="round" stroke-width="0.8"/>
      </g>
      <g id="组_8953" data-name="组 8953">
        <path id="路径_9885" data-name="路径 9885" d="M-400.919,120.089c.18,3.192-5.014,8.5-8.567,8.187a9.764,9.764,0,0,1-5.966-2.171,11.068,11.068,0,0,1-2.576-2.259,2.155,2.155,0,0,1-.014-2.263,2.69,2.69,0,0,1-.017-1.73c.342-.7,1.386-.685,1.386-.685a2.514,2.514,0,0,1-.009-1.911c.458-.757,1.706-.372,1.706-.372s-.448-.838.721-1.475a2.119,2.119,0,0,1,1.356.106,51.6,51.6,0,0,1,6.854,3.3C-404.025,119.819-402.05,118.346-400.919,120.089Z" fill="#febf9e"/>
        <path id="路径_8673" data-name="路径 8673" d="M-414.782,117.1s1.644,1.191,3.127,2.041a30.943,30.943,0,0,0,2.946,1.409" fill="none" stroke="#e6785c" stroke-linecap="round" stroke-linejoin="round" stroke-width="0.8"/>
        <path id="路径_8674" data-name="路径 8674" d="M-416.372,119.371s1.851,1.2,3.483,2.134c1.113.637,2.59,1.316,2.59,1.316" fill="none" stroke="#e6785c" stroke-linecap="round" stroke-linejoin="round" stroke-width="0.8"/>
        <path id="路径_8675" data-name="路径 8675" d="M-417.784,121.7s1.966,1.408,3.485,2.27a13.752,13.752,0,0,0,2.59,1.18" fill="none" stroke="#e6785c" stroke-linecap="round" stroke-linejoin="round" stroke-width="0.8"/>
        <path id="路径_9886" data-name="路径 9886" d="M-405.072,117.937s1.227.436.835,1.013c-.722,1.065-7.25-2.7-7.25-2.7" fill="none" stroke="#e6785c" stroke-linecap="round" stroke-linejoin="round" stroke-width="0.8"/>
      </g>
    </g>
  </g>
</svg>
