<svg xmlns="http://www.w3.org/2000/svg" xmlns:xlink="http://www.w3.org/1999/xlink" width="352" height="352" viewBox="0 0 352 352">
  <defs>
    <clipPath id="clip-门诊">
      <rect width="352" height="352"/>
    </clipPath>
  </defs>
  <g id="门诊" clip-path="url(#clip-门诊)">
    <rect width="352" height="352" fill="#fff"/>
    <g id="组_199" data-name="组 199" transform="translate(0 -1165)">
      <path id="路径_9990" data-name="路径 9990" d="M0,0H352V352H0Z" transform="translate(0 1165)" fill="#d5f1fc"/>
      <g id="组_198" data-name="组 198">
        <path id="路径_207" data-name="路径 207" d="M253.244,1397.374l33.731-35.894a9.944,9.944,0,0,0,1.593-11.937l-2.534-4.447a5.974,5.974,0,0,1,0-5.915l2.533-4.447a9.944,9.944,0,0,0-1.593-11.937l-33.731-35.9a10.913,10.913,0,0,0-15.855.408l-30.878,29.939h43.9a4.48,4.48,0,0,1,4.479,4.48v40.818a4.48,4.48,0,0,1-4.479,4.48h-43.9l30.878,29.939A10.913,10.913,0,0,0,253.244,1397.374Z" fill="#fc494f"/>
        <path id="路径_208" data-name="路径 208" d="M98.756,1286.9l-33.731,35.9a9.944,9.944,0,0,0-1.593,11.937l2.534,4.447a5.974,5.974,0,0,1,0,5.915l-2.533,4.447a9.942,9.942,0,0,0,1.593,11.936l33.731,35.9a10.914,10.914,0,0,0,15.855-.407l30.878-29.94h-43.9a4.479,4.479,0,0,1-4.479-4.479v-40.819a4.479,4.479,0,0,1,4.479-4.479h43.9l-30.878-29.94A10.913,10.913,0,0,0,98.756,1286.9Z" fill="#fc494f"/>
        <path id="路径_209" data-name="路径 209" d="M231.236,1265.893l-35.895-33.731a9.942,9.942,0,0,0-11.936-1.593l-4.448,2.534a5.977,5.977,0,0,1-5.915,0l-4.446-2.534a9.944,9.944,0,0,0-11.937,1.593l-35.895,33.731a10.913,10.913,0,0,0,.408,15.855l29.939,29.879v-42.9a4.48,4.48,0,0,1,4.48-4.48h40.818a4.48,4.48,0,0,1,4.48,4.48v42.9l29.939-29.879A10.913,10.913,0,0,0,231.236,1265.893Z" fill="#fc494f"/>
        <path id="路径_210" data-name="路径 210" d="M120.764,1418.384l35.895,33.731a9.942,9.942,0,0,0,11.936,1.592l4.448-2.533a5.977,5.977,0,0,1,5.915,0l4.446,2.533a9.943,9.943,0,0,0,11.937-1.592l35.895-33.731a10.913,10.913,0,0,0-.408-15.855l-29.939-29.88v42.9a4.479,4.479,0,0,1-4.48,4.479H155.591a4.479,4.479,0,0,1-4.48-4.479v-42.9l-29.939,29.88A10.913,10.913,0,0,0,120.764,1418.384Z" fill="#fc494f"/>
      </g>
    </g>
  </g>
</svg>
