<svg xmlns="http://www.w3.org/2000/svg" xmlns:xlink="http://www.w3.org/1999/xlink" width="120" height="100" viewBox="0 0 120 100">
  <defs>
    <clipPath id="clip-path">
      <rect id="矩形_48" data-name="矩形 48" width="120" height="100" fill="none"/>
    </clipPath>
    <clipPath id="clip-无数据提示-小">
      <rect width="120" height="100"/>
    </clipPath>
  </defs>
  <g id="无数据提示-小" clip-path="url(#clip-无数据提示-小)">
    <rect width="120" height="100" fill="#fff"/>
    <g id="组_54" data-name="组 54">
      <g id="组_53" data-name="组 53" clip-path="url(#clip-path)">
        <path id="路径_187" data-name="路径 187" d="M105.59,100H21.2a2.69,2.69,0,0,1-2.589-3.275L30.553,40.267A5.324,5.324,0,0,1,35.731,36H114.7a5.379,5.379,0,0,1,5.177,6.55l-11.7,55.317A2.663,2.663,0,0,1,105.59,100" fill="#efefef"/>
        <path id="路径_188" data-name="路径 188" d="M101.969,93.714H26.455A2.236,2.236,0,0,1,24.3,90.991L34.6,42.285a2.212,2.212,0,0,1,2.152-1.773h75.514a2.236,2.236,0,0,1,2.152,2.722l-10.3,48.707a2.213,2.213,0,0,1-2.152,1.773" fill="#fff"/>
        <path id="路径_189" data-name="路径 189" d="M100.949,86.058H29.581a.449.449,0,0,1-.432-.546l8.689-41.08a.443.443,0,0,1,.431-.355h71.369a.448.448,0,0,1,.431.546L101.38,85.7a.442.442,0,0,1-.431.356" fill="#f8f8f8"/>
        <path id="路径_190" data-name="路径 190" d="M105.569,100H21.2a2.643,2.643,0,0,1-2.349-1.455L.3,62.19a2.7,2.7,0,0,1,2.348-3.954H87.02a2.642,2.642,0,0,1,2.349,1.455l18.549,36.355A2.7,2.7,0,0,1,105.569,100" fill="#e2e2e2"/>
        <path id="路径_191" data-name="路径 191" d="M8.6,52.54c-2.893,0-4.628-.139-4.646-.141a.4.4,0,0,1,.065-.8c.018,0,1.878.151,4.963.137a.4.4,0,0,1,0,.8Zm5.383-.15a.4.4,0,0,1-.021-.8c1.648-.09,3.32-.22,4.968-.388a.4.4,0,1,1,.081.8c-1.661.169-3.345.3-5.006.391Zm9.949-1.015a.4.4,0,0,1-.059-.8c1.65-.248,3.3-.539,4.907-.864a.4.4,0,0,1,.159.784c-1.619.327-3.283.62-4.946.871A.4.4,0,0,1,23.927,51.375Zm9.8-1.987a.4.4,0,0,1-.1-.787c1.62-.418,3.23-.883,4.783-1.38a.4.4,0,0,1,.244.762c-1.568.5-3.193.971-4.827,1.393A.4.4,0,0,1,33.728,49.387Zm9.52-3.057a.4.4,0,0,1-.3-.665l-.537.08a.4.4,0,1,1-.115-.792c1.248-.181,2.559-.411,3.909-.686q.756-.335,1.468-.672a.4.4,0,0,1,.343.723l-.344.162a.4.4,0,0,1-.314.363q-.456.1-.908.191c-.614.271-1.248.54-1.9.805-.382.156-.773.312-1.16.463A.4.4,0,0,1,43.248,46.331Zm-7.191-.075a22.72,22.72,0,0,1-3.736-.277.4.4,0,1,1,.133-.789,24.312,24.312,0,0,0,4.906.24.4.4,0,1,1,.031.8Q36.705,46.255,36.057,46.255Zm-8.2-2.231a.4.4,0,0,1-.254-.091,7.453,7.453,0,0,1-2.7-4.41.4.4,0,1,1,.787-.144,6.577,6.577,0,0,0,2.423,3.936.4.4,0,0,1-.254.709Zm24.273-.369a.4.4,0,0,1-.106-.786c1.571-.432,3.177-.915,4.771-1.436a.4.4,0,1,1,.248.76c-1.607.525-3.225,1.012-4.808,1.447A.4.4,0,0,1,52.129,43.656ZM52.254,42a.4.4,0,0,1-.209-.741,27.243,27.243,0,0,0,3.977-2.9.4.4,0,1,1,.534.6,28.037,28.037,0,0,1-4.094,2.986A.4.4,0,0,1,52.254,42Zm9.383-1.446a.4.4,0,0,1-.141-.774c1.565-.591,3.119-1.22,4.619-1.869a.4.4,0,1,1,.318.734c-1.511.654-3.077,1.288-4.654,1.883A.4.4,0,0,1,61.637,40.554Zm9.175-3.98a.4.4,0,0,1-.178-.758c1.538-.764,3.014-1.553,4.387-2.348a.4.4,0,1,1,.4.692c-1.388.8-2.879,1.6-4.432,2.372A.4.4,0,0,1,70.812,36.574Zm-11.423-1.4a.4.4,0,0,1-.359-.575,5.336,5.336,0,0,0,.35-4.5.4.4,0,0,1,.734-.319,6.13,6.13,0,0,1-.365,5.172A.4.4,0,0,1,59.389,35.171Zm-33.326-.178a.4.4,0,0,1-.361-.572,14.146,14.146,0,0,1,3.065-4.1.4.4,0,0,1,.552.579,13.353,13.353,0,0,0-2.895,3.866A.4.4,0,0,1,26.063,34.992Zm53.385-3.454a.4.4,0,0,1-.229-.728c.508-.355,1-.715,1.47-1.07.88-.669,1.726-1.315,2.515-1.92a.4.4,0,1,1,.487.635c-.789.606-1.636,1.253-2.518,1.923-.476.362-.979.728-1.5,1.089A.4.4,0,0,1,79.447,31.539Zm-46.4-3.5a.4.4,0,0,1-.2-.746,29.806,29.806,0,0,1,4.584-2.153.4.4,0,0,1,.28.749,29,29,0,0,0-4.461,2.094A.4.4,0,0,1,33.052,28.036Zm23.715-1.648a.4.4,0,0,1-.247-.086,11.332,11.332,0,0,0-4.333-2.055.4.4,0,1,1,.192-.777,12.125,12.125,0,0,1,4.636,2.2.4.4,0,0,1-.248.714ZM87.4,25.473a.4.4,0,0,1-.247-.715c1.649-1.3,2.954-2.35,3.88-3.133a.4.4,0,1,1,.517.611c-.934.79-2.247,1.85-3.9,3.152A.4.4,0,0,1,87.4,25.473ZM42.369,24.5a.4.4,0,0,1-.087-.79,28.626,28.626,0,0,1,5.019-.691.4.4,0,0,1,.033.8,27.827,27.827,0,0,0-4.878.673A.4.4,0,0,1,42.369,24.5Z" fill="#cfcfcf"/>
        <path id="路径_192" data-name="路径 192" d="M85.047,13.736,106.2,17.678,119.188,0Z" fill="#cfcfcf"/>
        <path id="路径_193" data-name="路径 193" d="M96.249,22.37l-3.614-7.22,18.345-9.7-14.626,10.4,4.422.824Z" fill="#efefef"/>
        <path id="路径_194" data-name="路径 194" d="M96.527,20.2a.37.37,0,0,1-.047,0,.387.387,0,0,1-.378-.4l.075-3.4a.387.387,0,1,1,.774.017l-.076,3.4a.387.387,0,0,1-.348.377" fill="#cfcfcf"/>
      </g>
    </g>
  </g>
</svg>
