<svg id="图层_2" data-name="图层 2" xmlns="http://www.w3.org/2000/svg" xmlns:xlink="http://www.w3.org/1999/xlink" width="640" height="425" viewBox="0 0 640 425">
  <defs>
    <clipPath id="clip-path">
      <path id="路径_20140" data-name="路径 20140" d="M159.18,226.8c-7.76-6.05-25.77-3.13-25.77-3.13a29.63,29.63,0,0,1,19-4.68c-5.23-4.78-12.66-9.5-21.5-10.56a26.46,26.46,0,0,0-22.78,8c-25-2.64-22.89,18.6-22.89,18.6,8.8-8.48,13-7.37,13-7.37C94.23,229.56,84,242,84,242c.55,15.3,16.73,20.91,16.73,20.91,1-11,10.24-19.09,10.24-19.09-2.64,3.58-1.54,21.51-1.54,21.51,1.58,1.3,5.09,2.76,9.19,4l4-12.14a22.8,22.8,0,0,1,.93,7.51,13.88,13.88,0,0,0,1.16,6.19,50.519,50.519,0,0,0,10,1.27,7.42,7.42,0,0,1,7.92,7.26c.11-3.19,9.58-14.86,13.76-20.47a12.41,12.41,0,0,0,1.27-2.27c-.38-2.52-2.43-7.88-12.35-13.32,0,0,4.34-2.76,14.27,7.29,1.93-8.25,2.42-19.33.11-23.17A6.328,6.328,0,0,1,159.18,226.8Z" fill="none"/>
    </clipPath>
    <clipPath id="clip-path-2">
      <path id="路径_20144" data-name="路径 20144" d="M146.6,289.05l-9.16,2.06,5.61-5.22c-2.34-1.36-5.16-1.88-8.83-2-12.33-.29-22.9,10-22.9,10-23.47,7.92-24.79,22.16-20.1,24.65s15.12-6.41,15.12-6.41c3.08,10.9,12.76,0,12.76,0,4.9,2.46,11.76,3.4,18.25,3.64l-.49-5.3,2.88,5.36a123.933,123.933,0,0,0,16.49-1C152.54,301.23,150,293.42,146.6,289.05Z" fill="none"/>
    </clipPath>
    <clipPath id="clip-path-3">
      <path id="路径_20149" data-name="路径 20149" d="M50.72,237.41c-12.76-11.74-21.27-4.55-21.27-4.55s7-5.58,13.35,5.28c2.2,3.79,2.64,10.53,3,18.14l5.93,2.4L46,260.13c.62,11.66,1.77,24.53,9.11,31.87l11.07-3.82-7.41,6.68c17.65,10.69,25.2-4.3,25.2-4.3C73.39,265.9,58.12,244.21,50.72,237.41Z" fill="none"/>
    </clipPath>
  </defs>
  <g id="无数据">
    <rect id="矩形_4568" data-name="矩形 4568" width="423.68" height="279.52" rx="22.3" transform="translate(109.68 43.29)" fill="#c0e0f9"/>
    <rect id="矩形_4569" data-name="矩形 4569" width="404.15" height="260.77" rx="15.86" transform="translate(119.45 52.66)" fill="#b0d4f7" stroke="#f8fcff" stroke-miterlimit="10" stroke-width="2"/>
    <path id="路径_20087" data-name="路径 20087" d="M523.6,82.56V69.06a16.4,16.4,0,0,0-16.4-16.4H135.84a16.39,16.39,0,0,0-16.39,16.4v13.5Z" fill="#f8fcff"/>
    <path id="路径_52" data-name="路径 52" d="M140.63,62.57a4.638,4.638,0,1,0,.02,0h0" fill="#f78989"/>
    <path id="路径_53" data-name="路径 53" d="M160.74,62.57a4.64,4.64,0,1,1-3.287,1.355,4.64,4.64,0,0,1,3.287-1.355h0" fill="#f7cd59"/>
    <path id="路径_54" data-name="路径 54" d="M180.85,62.57a4.64,4.64,0,1,1-3.287,1.355,4.64,4.64,0,0,1,3.287-1.355h0" fill="#73ccb4"/>
    <rect id="矩形_4570" data-name="矩形 4570" width="371.08" height="35.14" rx="9.89" transform="translate(135.98 93.42)" fill="#f8fcff"/>
    <rect id="矩形_4571" data-name="矩形 4571" width="163.31" height="144.85" rx="9.9" transform="translate(135.98 144.96)" fill="#e9f5ff" opacity="0.8"/>
    <g id="组_24385" data-name="组 24385" opacity="0.42">
      <path id="路径_20088" data-name="路径 20088" d="M286.33,277.11H149V160.25H286.33Zm-136.09-1.32H285V161.57H150.24Z" fill="#9eceef"/>
    </g>
    <rect id="矩形_4572" data-name="矩形 4572" width="299.24" height="15.5" rx="7.5" transform="translate(148.22 103.24)" fill="#5cb1f7"/>
    <path id="路径_20089" data-name="路径 20089" d="M414.92,214.65h82.16c5.51,0,10-4.79,10-10.7V156.36c0-5.9-4.47-10.69-10-10.69H414.92c-5.51,0-10,4.79-10,10.69V204C404.94,209.86,409.41,214.65,414.92,214.65Z" fill="#e9f5ff" opacity="0.8"/>
    <g id="组_24386" data-name="组 24386" opacity="0.42">
      <path id="路径_20090" data-name="路径 20090" d="M419.3,164.1H450a3.57,3.57,0,1,1,0,7.14H419.3a3.57,3.57,0,0,1,0-7.14Z" fill="#9eceef"/>
      <path id="路径_20091" data-name="路径 20091" d="M419.3,178.9h26.6a3.56,3.56,0,0,1,0,7.12H419.3a3.56,3.56,0,1,1,0-7.12Z" fill="#9eceef"/>
      <path id="路径_20092" data-name="路径 20092" d="M419.3,193.69h19.47a3.56,3.56,0,0,1,0,7.12H419.3a3.56,3.56,0,1,1,0-7.12Z" fill="#9eceef"/>
    </g>
    <g id="组_24387" data-name="组 24387" opacity="0.8">
      <rect id="矩形_4573" data-name="矩形 4573" width="102.12" height="64.38" rx="9.94" transform="translate(404.94 225.35)" fill="#e9f5ff"/>
    </g>
    <path id="路径_20093" data-name="路径 20093" d="M162.73,223.86h28.5l4.87-14.75,6.95,15.3,5.56-30.05,16.68,51.35,5.56-21.85h10.42l4.17-8.74,6.26,8.74h20.85" fill="none" stroke="#9eceef" stroke-linecap="round" stroke-linejoin="round" stroke-width="1.29"/>
    <rect id="矩形_4574" data-name="矩形 4574" width="77" height="139" rx="6.23" transform="translate(313.62 150.59)" fill="#e9f5ff" opacity="0.8"/>
    <path id="路径_20094" data-name="路径 20094" d="M423.17,246a16.24,16.24,0,0,1,15.42-4.34,2.95,2.95,0,0,1-1.38,5.73,10.47,10.47,0,1,0,7.88,11.74,2.95,2.95,0,1,1,5.83.88A16.361,16.361,0,1,1,423.17,246Z" fill="#9eceef" opacity="0.42"/>
    <path id="路径_20095" data-name="路径 20095" d="M161.48,110l.13,193.37c0,16.14,3.13,38.73,10.35,53.16,8.27,16.54,17.11,23,25.95,28.11h47.4l-59-264.11Z" fill="#5cb1f7" opacity="0.6"/>
    <path id="路径_20096" data-name="路径 20096" d="M162.82,110c10,0,260.55.61,265,0a.13.13,0,0,1,.12,0c30.23,32.68,28.94,112.6,28.94,151.57,0,70.72,6.23,109.39,42,122.32a.15.15,0,0,1-.07.29c-2.95,0-8.95.39-20.94.39h0l-234.47-.13h0c-.83.24-49.12,13.26-50.55-121.77-.41-38.84-2.52-119.32-30.14-152.5a.14.14,0,0,1,.11-.17Z" fill="#d4ebff"/>
    <path id="路径_20097" data-name="路径 20097" d="M252.91,366.33H506.82s5.06,18.57-12.64,18.57H236.29S255.91,385.59,252.91,366.33Z" fill="#5cb1f7"/>
    <path id="路径_20098" data-name="路径 20098" d="M427,298.59H226.24a12.8,12.8,0,0,1-12.81-13c.29-20.14.57-58.22-1.17-73.73-3.92-34.84-9-57.27-12.85-70.6a12.79,12.79,0,0,1,12.3-16.34H409.08a15.69,15.69,0,0,1,15,11c3.77,12.06,9.54,35.31,14.58,75.91,1.94,15.61,1.57,54.12,1.21,74.16A12.78,12.78,0,0,1,427,298.59Z" fill="#fff"/>
    <path id="路径_20099" data-name="路径 20099" d="M440.78,349.24H347.6a4.64,4.64,0,0,1-4.25-2.76h0a4.65,4.65,0,0,1,4.25-6.54h93.18A4.64,4.64,0,0,1,445,342.7h0a4.65,4.65,0,0,1-4.22,6.54Z" fill="#fff" opacity="0.5"/>
    <path id="路径_20100" data-name="路径 20100" d="M434.08,324.43H222.88a4.64,4.64,0,0,1-4.58-3.86h0a4.65,4.65,0,0,1,4.58-5.44h211.2a4.66,4.66,0,0,1,4.59,3.87h0a4.64,4.64,0,0,1-4.59,5.43Z" fill="#fff" opacity="0.5"/>
    <path id="路径_20101" data-name="路径 20101" d="M481.76,198.7s-6.38,5.1-9.63.16c-2.5-3.79,1.49-9,1.49-9l24.22-25.38s6.31-5.29,11.71,1.16c5.93,7.09-.39,12.38-.39,12.38Z" fill="#febf9e"/>
    <path id="路径_20102" data-name="路径 20102" d="M497.77,150.47l-1,18.69s1.15,8.72,8.38,9.16c8.12.49,10.4-7.24,10.4-7.24l1.17-19.23s.54-9-9.39-9.65C498.31,141.65,497.77,150.47,497.77,150.47Z" fill="#febf9e"/>
    <g id="组_10874" data-name="组 10874">
      <path id="形状_23-2" data-name="形状 23-2" d="M592.68,345.69s3.49,17.89,5.72,22.71-3.59,7.05-14,6.52-17.31-9.62-12.11-9.4,0-19.8,0-19.8Z" fill="#ffb693"/>
      <g id="组_10860" data-name="组 10860">
        <path id="形状_24-2" data-name="形状 24-2" d="M574.52,360.14c1.38,0,4.76,5.23,10.84,6.28s12.25-1.61,13.46-1.14,2.19,3,2.92,8.47a44.22,44.22,0,0,1,0,10.6l-56.19.07s-1.29-9.84,3.82-13.23c2.52-1.68,6.72-2.8,12.24-4.95S572.78,360,574.52,360.14Z" fill="#595e9c"/>
        <path id="形状_24-2-2" data-name="形状 24-2-2" d="M601.9,380.26c0,2.07-.15,4.09-.15,4.09l-56.18.07a18,18,0,0,1-.05-4.09S601.93,380.23,601.9,380.26Z" fill="#44468d"/>
      </g>
    </g>
    <path id="形状_673" data-name="形状 673" d="M575.26,208.72,600,358.62H551.38l-11.62-149.9Z" fill="#1ea18f"/>
    <g id="组_10874-2" data-name="组 10874">
      <path id="形状_23-2-2" data-name="形状 23-2" d="M540.56,345.2s-.5,17.89,1.72,22.71-3.59,7-14,6.53S511,364.81,516.17,365s4-19.81,4-19.81Z" fill="#ffb693"/>
      <g id="组_10860-2" data-name="组 10860">
        <path id="形状_24-2-2-2" data-name="形状 24-2" d="M518.41,359.65c1.38,0,4.76,5.23,10.83,6.29s12.26-1.61,13.47-1.15,2.19,3,2.92,8.48a43.63,43.63,0,0,1,0,10.59l-56.18.08s-1.3-9.84,3.82-13.24c2.52-1.68,6.72-2.79,12.24-4.94S516.66,359.54,518.41,359.65Z" fill="#45558f"/>
        <path id="形状_24-2-2-3" data-name="形状 24-2-2" d="M545.79,379.77c0,2.08-.15,4.09-.15,4.09l-56.18.08a18,18,0,0,1,0-4.09S545.82,379.75,545.79,379.77Z" fill="#353284"/>
      </g>
    </g>
    <path id="形状_672" data-name="形状 672" d="M510.12,201.53l-4.83,157,42.24.29.8-159.36Z" fill="#1ea18f"/>
    <path id="路径_20103" data-name="路径 20103" d="M547.64,337.71l.12-25-.12.28v-2.61l-5.3-65.51c-.16-2.32-7,2.74-.72,76.3a28.39,28.39,0,0,0,.59,3.71l-15.42,33.76,20.74.15.11-21.06Z" fill="#0c7171" opacity="0.5"/>
    <path id="路径_8975" data-name="路径 8975" d="M509.54,218.3l68.56,7.64-1.79-10.88-66.6-.45Z" fill="#0c7171" opacity="0.5"/>
    <path id="路径_20104" data-name="路径 20104" d="M492.7,163.4l21.4.67-1.37-45.61s-10.24,3.34-13,12.75C497.27,139.62,492.7,163.4,492.7,163.4Z" fill="#52c2ad"/>
    <path id="路径_20105" data-name="路径 20105" d="M505.65,147.27l-12.95,16.1,14.2.55Z" fill="#269a84" opacity="0.45"/>
    <path id="形状_671" data-name="形状 671" d="M515,117.75c-5.21,1.81-8.57,4.75-10.16,5.7,0,3.15,2.17,91.17,2.17,91.17l74.49.19s-8.06-40.13-10.81-61.74c0-1.73-14.41-35.11-14.41-35.11-11.07-2.6-21.54-3.75-27.92-3.06A68.12,68.12,0,0,0,515,117.75Z" fill="#52c2ad"/>
    <path id="路径_8759" data-name="路径 8759" d="M512.64,120.53a35,35,0,0,0,3.54,9.58,68.62,68.62,0,0,0,7.88,10.76s3.85-6.53,8.13-12.73,9.19-11.94,9.19-11.94" fill="none" stroke="#269a84" stroke-linecap="round" stroke-width="1.2"/>
    <path id="路径_8765" data-name="路径 8765" d="M575.42,182.92l-41.85,31.92s47.22.09,47.88,0Z" fill="#269a84" opacity="0.45"/>
    <path id="路径_169" data-name="路径 169" d="M536.34,143.36l15-2.13,1.24,8.75a7.6,7.6,0,0,1-15,2.41v-.27Z" fill="none"/>
    <g id="组_8980" data-name="组 8980">
      <g id="矩形_3658" data-name="矩形 3658">
        <path id="路径_20106" data-name="路径 20106" d="M539.74,146.76l16.09-1.7h0l.56,5.31a8.1,8.1,0,0,1-7.2,8.9h0a8.1,8.1,0,0,1-8.89-7.2h0Z" fill="none"/>
        <path id="路径_20107" data-name="路径 20107" d="M540.34,147.25l15-1.58h0l.5,4.76a7.54,7.54,0,0,1-6.71,8.29h0a7.54,7.54,0,0,1-8.28-6.71Z" fill="none" stroke="#269a84" stroke-width="1.2"/>
      </g>
      <g id="矩形_3670" data-name="矩形 3670">
        <rect id="矩形_4575" data-name="矩形 4575" width="16.17" height="4.41" transform="matrix(0.994, -0.105, 0.105, 0.994, 539.374, 143.316)" fill="none"/>
        <rect id="矩形_4576" data-name="矩形 4576" width="15.07" height="3.3" transform="matrix(0.994, -0.105, 0.105, 0.994, 539.979, 143.805)" fill="none" stroke="#269a84" stroke-linecap="round" stroke-linejoin="round" stroke-width="1.2"/>
      </g>
    </g>
    <g id="组_10905" data-name="组 10905">
      <g id="组_8976" data-name="组 8976">
        <path id="路径_8738" data-name="路径 8738" d="M534.91,99.14a22.822,22.822,0,0,0-2.72,4.26,22.453,22.453,0,0,0-1.78,6.33l-2-5.62,2.31-6Z" fill="#111114"/>
        <path id="路径_8743" data-name="路径 8743" d="M533.66,74.16c1.23-3.15.5-7.84-5.58-10.17" fill="none" stroke="#000" stroke-linecap="round" stroke-linejoin="round" stroke-width="1.2"/>
        <path id="路径_8744" data-name="路径 8744" d="M534.19,73.14s3.82-2.34,6.09,1.5" fill="none" stroke="#000" stroke-linecap="round" stroke-width="1.2"/>
        <g id="组_8971" data-name="组 8971">
          <path id="路径_8742" data-name="路径 8742" d="M504.47,88.41s.66,15.83,4.6,19.84,7.88,3.41,7.88,3.41.32,5.34-1.43,5.9c-.76.25.23,5,2.08,8.78a29.609,29.609,0,0,0,5.3,7.12s3.11-4.61,5.92-9.32,6.94-9.34,6.09-9.41c-1.21-1.39-3.21-3.54-3.73-5.52s-1.41-5.51-1.13-6.17c.06-.14.28-.68.45-1.21.35-1,.68-2.1.68-2.1s2.2,2.26,5-1.62,4-9.32,1-10.94-6.21,1.71-6.54,3.79.11-3.4-3.52-6.52-10.68-3.8-16.33-2.81S504.47,88.41,504.47,88.41Z" fill="#febf9e"/>
          <path id="路径_6083" data-name="路径 6083" d="M523.93,82.59a23.39,23.39,0,0,1-9.87,2.48c-6,.27-6.45-.79-8.13.36s-1.28,5.25-1.28,5.25-3.52-4-3.69-7.6a8.38,8.38,0,0,1,3.05-7c1.38-1.24.64-4.76,6.13-8.29a19.55,19.55,0,0,1,17.8-1.57c5.75,2.24,4.95,6,6.15,7,.81.88,2.66-.42,4.69,2.17s2.18,4.63,1.75,8.43a52.155,52.155,0,0,1-1.64,7.89s.17-5-4.71-3.93c-3.2.62-2.07,5.35-4,5.23s.67-2.21-2.72-4.23S523.93,82.59,523.93,82.59Z" fill="#111114"/>
        </g>
        <path id="形状_128" data-name="形状 128" d="M512.72,94.34s-1.67,4-1.33,5.62,2.68,1.06,2.68,1.06" fill="none" stroke="#ab392c" stroke-linecap="round" stroke-linejoin="round" stroke-width="1.2"/>
        <path id="形状_110_拷贝" data-name="形状 110 拷贝" d="M511.94,104.68a3.07,3.07,0,0,0,2.17.46A4.39,4.39,0,0,0,516.5,104" fill="none" stroke="#ab392c" stroke-linecap="round" stroke-linejoin="round" stroke-width="1.2"/>
        <path id="路径_8747" data-name="路径 8747" d="M517.5,112a15,15,0,0,0,7-3.23" fill="none" stroke="#e6785c" stroke-linecap="round" stroke-width="1.2"/>
        <path id="路径_8748" data-name="路径 8748" d="M535.27,89.7c2.41,0,2.73,2.31,1.36,4.89s-3.43,4.07-4.34,3.8.59-2.33.89-3.86S532.86,89.7,535.27,89.7Z" fill="#e5785c" opacity="0.5"/>
        <path id="路径_8749" data-name="路径 8749" d="M534,93.12a20.266,20.266,0,0,0-1.5,1.45c0,.08,1.55.46,1.6,1" fill="none" stroke="#e6785c" stroke-linecap="round" stroke-linejoin="round" stroke-width="1.2"/>
        <circle id="椭圆_937" data-name="椭圆 937" cx="1.19" cy="1.19" r="1.19" transform="translate(507.26 92.15)" fill="#101013"/>
        <circle id="椭圆_938" data-name="椭圆 938" cx="1.27" cy="1.27" r="1.27" transform="translate(516.57 91.49)" fill="#101013"/>
        <path id="路径_8750" data-name="路径 8750" d="M524.33,108.89a15.07,15.07,0,0,1-3.48,2,14.311,14.311,0,0,1-3.88.78s0,1.47-.08,2.78a7.371,7.371,0,0,1-.46,2.14,12,12,0,0,0,7.9-7.66Z" fill="#e6785c" opacity="0.5"/>
        <path id="路径_8985" data-name="路径 8985" d="M506.85,90.64a2.1,2.1,0,0,1,2.16-.1" fill="none" stroke="#462a2a" stroke-linecap="round" stroke-width="1"/>
        <path id="路径_8986" data-name="路径 8986" d="M516.4,89.69a2.88,2.88,0,0,1,3.46-.15" fill="none" stroke="#462a2a" stroke-linecap="round" stroke-width="1"/>
      </g>
      <g id="组_8972" data-name="组 8972">
        <ellipse id="椭圆_16" data-name="椭圆 16" cx="4.44" cy="4.97" rx="4.44" ry="4.97" transform="translate(501.993 88.506) rotate(-2.54)" fill="none" stroke="#462a2a" stroke-width="0.8"/>
        <ellipse id="椭圆_18" data-name="椭圆 18" cx="4.77" cy="4.97" rx="4.77" ry="4.97" transform="translate(514.076 87.511) rotate(-2.54)" fill="none" stroke="#462a2a" stroke-width="0.8"/>
        <path id="路径_8745" data-name="路径 8745" d="M511.06,93.11l3.51-.34" fill="none" stroke="#462a2a" stroke-width="0.8"/>
        <path id="路径_8746" data-name="路径 8746" d="M523.83,91.72l7.83-2.29" fill="none" stroke="#462a2a" stroke-linecap="round" stroke-width="0.8"/>
      </g>
    </g>
    <path id="路径_8766" data-name="路径 8766" d="M540.9,227l8.7,108.69" fill="none" stroke="#0c7171" stroke-linecap="round" stroke-width="1.2"/>
    <path id="路径_20108" data-name="路径 20108" d="M506.75,310.92l-1.46,47.56,42.24.29" fill="none" stroke="#0c7171" stroke-linecap="round" stroke-width="1.2"/>
    <path id="路径_20109" data-name="路径 20109" d="M586.63,283.67l-8.91,74.95H600Z" fill="#0c7171" opacity="0.5"/>
    <ellipse id="椭圆_298" data-name="椭圆 298" cx="45.81" cy="46.69" rx="45.81" ry="46.69" transform="translate(373.447 115.771) rotate(-14.27)" fill="#d0f2f7" opacity="0.75"/>
    <ellipse id="椭圆_299" data-name="椭圆 299" cx="45.81" cy="46.69" rx="45.81" ry="46.69" transform="translate(373.447 115.771) rotate(-14.27)" fill="none" stroke="#008fff" stroke-miterlimit="10" stroke-width="5"/>
    <path id="路径_20110" data-name="路径 20110" d="M409,124.06s-15,8.5-13.49,33.42" fill="none" stroke="#fff" stroke-linecap="round" stroke-miterlimit="10" stroke-width="7.27"/>
    <path id="路径_20111" data-name="路径 20111" d="M509.66,210.61h0a3.66,3.66,0,0,1-5.19.61L466.91,181.1a3.82,3.82,0,0,1-.65-5.28h0a3.66,3.66,0,0,1,5.19-.61L509,205.33A3.82,3.82,0,0,1,509.66,210.61Z" fill="#008fff"/>
    <path id="路径_20112" data-name="路径 20112" d="M470.38,184.89a10.8,10.8,0,0,0-1,14.47c3.1,4.14,6.2,4.14,8.27,4.14s5.37-1.48,7.48-6.41-1.41-2.82-1.41-2.82,1.41-4.23-.7-4.93c-.67-.23-1.41.7-1.41.7s.7-2.82-.71-3.52c-.89-.45-1.29.8-1.41.7-.48-.38-.37-2.47-1.41-2.81a2,2,0,0,0-2.11.7c-1.49,1.21-1.79,2.82-2.82,2.82C473.12,187.93,471,184.26,470.38,184.89Z" fill="#febf9e"/>
    <path id="路径_20113" data-name="路径 20113" d="M471.94,189a40,40,0,0,0,4.63-4.34,1.81,1.81,0,0,1,1.42-.71c1,0,1.67,1.09.47,3.36-1.82,3.45-6,6.66-6.4,6.62" fill="none" stroke="#e6785c" stroke-linecap="round" stroke-linejoin="round" stroke-width="1.2"/>
    <path id="路径_20114" data-name="路径 20114" d="M478.41,187.58s2.11-2.12,2.81-.71-.35,6.41-6.34,9.87" fill="none" stroke="#e6785c" stroke-linecap="round" stroke-linejoin="round" stroke-width="1.2"/>
    <path id="路径_20115" data-name="路径 20115" d="M481.22,189.69a1.54,1.54,0,0,1,2.39,0c1.14,1.37.43,6.3-5.2,9.12" fill="none" stroke="#e6785c" stroke-linecap="round" stroke-linejoin="round" stroke-width="1.2"/>
    <path id="路径_20116" data-name="路径 20116" d="M483.34,194.62s1.41-1.41,2.43-.6c.56.44-.4,6.89-5.57,9" fill="none" stroke="#e6785c" stroke-linecap="round" stroke-linejoin="round" stroke-width="1.2"/>
    <path id="路径_20117" data-name="路径 20117" d="M516.73,189.9a26.55,26.55,0,0,0-16.84,2.65c-.78.41-2.17,1-1.94,2.91s6.73-1.2,8.33-.63c1.28.46-.51,1.83-4.62,2.86a19.89,19.89,0,0,1-7.25.11c-1.63-.16-.29,1.12-.34,3.48,0,.84-1.13,1.46-.86,2.4s1.54,1.82,2.63,2.74-.86,2.4,3.49,2.84c1.22.12,1.89,1.87,3,2a28.791,28.791,0,0,0,4.25.26,19.42,19.42,0,0,0,9.53-2.78c3.1-1.91,6.71-6.31,7-6.52,1.42-1,7.9-4,10-5.4,4.23-2.75,4.89-6.47,2.86-9.6-2.86-4.4-11.33-1.82-11.33-1.82Z" fill="#febf9e"/>
    <path id="路径_20118" data-name="路径 20118" d="M505,196.46s-8.78,2.45-10.29,1.22c0,0-1.34.17-1.4,2.07s4,5,11.93,2" fill="none" stroke="#e6785c" stroke-linecap="round" stroke-linejoin="round" stroke-width="1.2"/>
    <path id="路径_20119" data-name="路径 20119" d="M506,205.82c-4.06.75-10.73.86-12.25-1a2.57,2.57,0,0,1,0-3.08" fill="none" stroke="#e6785c" stroke-linecap="round" stroke-linejoin="round" stroke-width="1.2"/>
    <path id="路径_20120" data-name="路径 20120" d="M507.61,208.68s-6.93,2.33-10.9-.32c-1.6-1.06-.69-2.29-.69-2.29" fill="none" stroke="#e6785c" stroke-linecap="round" stroke-linejoin="round" stroke-width="1.2"/>
    <path id="路径_20121" data-name="路径 20121" d="M510.21,211.35s-10.17,1.88-10.31-1.66" fill="none" stroke="#e6785c" stroke-linecap="round" stroke-linejoin="round" stroke-width="1.2"/>
    <path id="路径_20122" data-name="路径 20122" d="M553.37,147.88l.13,20.68s1.61,9.54,8.56,9.54c7.83,0,9.57-8.68,9.57-8.68l1.76-21.77s0-10-9.57-10C555.13,137.65,553.37,147.88,553.37,147.88Z" fill="#febf9e"/>
    <path id="路径_20123" data-name="路径 20123" d="M531,198.08s-8.59,4.68-12.16-1c-3.13-5,4-10.48,4-10.48l34.24-24.46s8.47-5.31,12.93,1.8c4.91,7.82-3.56,13.14-3.56,13.14Z" fill="#febf9e"/>
    <line id="直线_66" data-name="直线 66" x2="0.61" y2="22.36" transform="translate(505.04 145.67)" fill="none" stroke="#269a84" stroke-linecap="round" stroke-width="1.2"/>
    <path id="路径_20124" data-name="路径 20124" d="M545.81,126.06l1,34.48,30.74-2.37s-.23-12.75-8.24-30.58c-1.47-3.28-11.16-10.62-16-9.83C544.72,119.18,545.81,126.06,545.81,126.06Z" fill="#52c2ad"/>
    <path id="路径_20125" data-name="路径 20125" d="M563.67,159.24l13.94-1.33a61.148,61.148,0,0,0-1.78-11.73,123,123,0,0,0-5-15.3s1,13.26-.72,20.69C569,156.61,563.67,159.24,563.67,159.24Z" fill="#269a84" opacity="0.45"/>
    <path id="路径_20126" data-name="路径 20126" d="M546.05,134.01l.8,26.53,30.75-2.37" fill="none" stroke="#269a84" stroke-linecap="round" stroke-width="1.2"/>
    <path id="路径_20127" data-name="路径 20127" d="M49.76,238.37c14.32,12.1,49,67.86,44.17,107" fill="none" stroke="#6fbb83" stroke-miterlimit="10" stroke-width="2"/>
    <path id="路径_20128" data-name="路径 20128" d="M46.1,250.47s-.59-13.72-16.65-17.61c0,0,3.22-2.1,5.72-2.12s8.39.83,9.92,2.46S46.1,250.47,46.1,250.47Z" fill="#548f64"/>
    <path id="路径_20129" data-name="路径 20129" d="M50.72,237.41c-12.76-11.74-21.27-4.55-21.27-4.55s7-5.58,13.35,5.28c2.2,3.79,2.64,10.53,3,18.14l5.93,2.4L46,260.13c.62,11.66,1.77,24.53,9.11,31.87l11.07-3.82-7.41,6.68c17.65,10.69,25.2-4.3,25.2-4.3C73.39,265.9,58.12,244.21,50.72,237.41Z" fill="#8dcd9e"/>
    <path id="路径_20130" data-name="路径 20130" d="M82.56,346s-5.72-83.64,32.58-108.51" fill="none" stroke="#6fbb83" stroke-miterlimit="10" stroke-width="2"/>
    <path id="路径_20131" data-name="路径 20131" d="M159.18,226.8c-7.76-6.05-25.77-3.13-25.77-3.13a29.63,29.63,0,0,1,19-4.68c-5.23-4.78-12.66-9.5-21.5-10.56a26.46,26.46,0,0,0-22.78,8c-25-2.64-22.89,18.6-22.89,18.6,8.8-8.48,13-7.37,13-7.37C94.23,229.56,84,242,84,242c.55,15.3,16.73,20.91,16.73,20.91,1-11,10.24-19.09,10.24-19.09-2.64,3.58-1.54,21.51-1.54,21.51,1.58,1.3,5.09,2.76,9.19,4l4-12.14a22.8,22.8,0,0,1,.93,7.51,13.88,13.88,0,0,0,1.16,6.19,50.519,50.519,0,0,0,10,1.27,7.42,7.42,0,0,1,7.92,7.26c.11-3.19,9.58-14.86,13.76-20.47a12.41,12.41,0,0,0,1.27-2.27c-.38-2.52-2.43-7.88-12.35-13.32,0,0,4.34-2.76,14.27,7.29,1.93-8.25,2.42-19.33.11-23.17A6.328,6.328,0,0,1,159.18,226.8Z" fill="#8dcd9e"/>
    <path id="路径_20132" data-name="路径 20132" d="M148.17,269.71c2.84-3.91,6.1-8,8.13-10.77a12.411,12.411,0,0,0,1.27-2.27c-.38-2.52-2.43-7.88-12.35-13.32,0,0,4.34-2.76,14.27,7.29,1.93-8.25,2.42-19.33.11-23.17-.13-.22-.27-.44-.42-.67-7.76-6.05-25.77-3.13-25.77-3.13a29.63,29.63,0,0,1,19-4.68c-5.23-4.78-12.66-9.5-21.5-10.56a26.46,26.46,0,0,0-22.78,8C93,214.86,87.76,222,86,227.94c2.67,0,5.64.07,8.78.33a6.22,6.22,0,0,1,3.39-.58,7.409,7.409,0,0,0-1.27.79c10.3,1.11,21.79,4.26,29.11,12.12A167.491,167.491,0,0,1,148.17,269.71Z" fill="#80c492"/>
    <path id="路径_20133" data-name="路径 20133" d="M146.6,289.05l-9.16,2.06,5.61-5.22c-2.34-1.36-5.16-1.88-8.83-2-12.33-.29-22.9,10-22.9,10-23.47,7.92-24.79,22.16-20.1,24.65s15.12-6.41,15.12-6.41c3.08,10.9,12.76,0,12.76,0,4.9,2.46,11.76,3.4,18.25,3.64l-.49-5.3,2.88,5.36a123.933,123.933,0,0,0,16.49-1C152.54,301.23,150,293.42,146.6,289.05Z" fill="#6fba83"/>
    <g id="组_24388" data-name="组 24388" clip-path="url(#clip-path)">
      <path id="路径_20134" data-name="路径 20134" d="M106.23,214.92s39.5,22,36.31,64.49" fill="none" stroke="#538f62" stroke-linecap="round" stroke-miterlimit="10" stroke-width="1"/>
      <path id="路径_20135" data-name="路径 20135" d="M93.9,269.06s-2.22-25.14,22.66-46.68" fill="none" stroke="#538f62" stroke-linecap="round" stroke-miterlimit="10" stroke-width="1"/>
      <path id="路径_20136" data-name="路径 20136" d="M114.37,274.57s-3.77-18.91,11.1-43.46" fill="none" stroke="#538f62" stroke-linecap="round" stroke-miterlimit="10" stroke-width="1"/>
      <path id="路径_20137" data-name="路径 20137" d="M151.68,213.49s-20.19-4.49-38.27,6.34" fill="none" stroke="#538f62" stroke-linecap="round" stroke-miterlimit="10" stroke-width="1"/>
      <path id="路径_20138" data-name="路径 20138" d="M169.72,243.81s-14.43-12.26-40.86-8.58" fill="none" stroke="#538f62" stroke-linecap="round" stroke-miterlimit="10" stroke-width="1"/>
      <path id="路径_20139" data-name="路径 20139" d="M157.18,269.06A57.67,57.67,0,0,0,135,244.61" fill="none" stroke="#538f62" stroke-linecap="round" stroke-miterlimit="10" stroke-width="1"/>
    </g>
    <path id="路径_20141" data-name="路径 20141" d="M109.86,308.32S98.7,321.05,96.21,346" fill="none" stroke="#538f62" stroke-miterlimit="10" stroke-width="2"/>
    <path id="路径_20142" data-name="路径 20142" d="M91.22,318.55c4.7,2.49,15.12-6.41,15.12-6.41,2.88,10.2,11.54,1.32,12.64.13-4.13-2.18-6.52-5.67-15.14-8.25a15.6,15.6,0,0,0-10.21.27C87.7,310.7,88.25,317,91.22,318.55Z" fill="#538f62"/>
    <g id="组_24389" data-name="组 24389" clip-path="url(#clip-path-2)">
      <path id="路径_20143" data-name="路径 20143" d="M102.23,293.46s36.09-4.7,61.63,30.67" fill="none" stroke="#538f62" stroke-linecap="round" stroke-miterlimit="10" stroke-width="1"/>
      <line id="直线_67" data-name="直线 67" y1="19.04" x2="1.17" transform="translate(127.17 297.02)" fill="none" stroke="#538f62" stroke-linecap="round" stroke-miterlimit="10" stroke-width="1"/>
      <line id="直线_68" data-name="直线 68" x1="0.32" y1="18.67" transform="translate(132.72 298.71)" fill="none" stroke="#538f62" stroke-linecap="round" stroke-miterlimit="10" stroke-width="1"/>
      <line id="直线_69" data-name="直线 69" x1="17.55" y2="11.92" transform="translate(124.59 283.92)" fill="none" stroke="#538f62" stroke-linecap="round" stroke-miterlimit="10" stroke-width="1"/>
      <line id="直线_70" data-name="直线 70" x1="12.92" transform="translate(143.31 303.88)" fill="none" stroke="#538f62" stroke-linecap="round" stroke-miterlimit="10" stroke-width="1"/>
    </g>
    <path id="路径_20145" data-name="路径 20145" d="M84,290.56c-10.6-24.66-25.87-46.35-33.27-53.15-12.76-11.74-21.27-4.55-21.27-4.55s7-5.58,13.35,5.28c2.2,3.79,2.64,10.53,3,18.14l5.93,2.4L46,260.13c.07,1.38.15,2.77.25,4.17,10.72,12,23.42,23.54,36,28.77A14.731,14.731,0,0,0,84,290.56Z" fill="#7fc592"/>
    <g id="组_24390" data-name="组 24390" clip-path="url(#clip-path-3)">
      <path id="路径_20146" data-name="路径 20146" d="M43.17,245.84s13.2,1.82,30.26,18.85" fill="none" stroke="#538f62" stroke-linecap="round" stroke-miterlimit="10" stroke-width="1"/>
      <path id="路径_20147" data-name="路径 20147" d="M43.94,268.73s16.61-3,34.44,7.38" fill="none" stroke="#538f62" stroke-linecap="round" stroke-miterlimit="10" stroke-width="1"/>
      <path id="路径_20148" data-name="路径 20148" d="M46.18,279.08s21.86-3.74,37.16,6.71" fill="none" stroke="#538f62" stroke-linecap="round" stroke-miterlimit="10" stroke-width="1"/>
    </g>
    <path id="Fill_17" data-name="Fill 17" d="M113.18,327.21c1.73-.28,3.37.63,3.37,1.87l-7.13,46.33v7.81H74.11v-8.79l-8.33-45.35c0-1.24,1.65-2.15,3.37-1.87,4.39.69,12.61.52,22,.52S108.79,327.9,113.18,327.21Z" fill="#fae39a"/>
    <path id="路径_20150" data-name="路径 20150" d="M113.18,327.21c-4.39.69-12.6.52-22,.52s-17.63.17-22-.52c-1.72-.28-3.37.63-3.37,1.87l1.67,9.13h47.7l1.4-9.13C116.55,327.84,114.91,326.93,113.18,327.21Z" fill="#fff3d2"/>
    <path id="路径_20151" data-name="路径 20151" d="M67.45,338.21l46.49,7.83,1.21-7.83Z" fill="#fad773"/>
    <path id="路径_20152" data-name="路径 20152" d="M99.2,335.45c1.41,7.46,7.3,36.76-3.41,40.69-7,2.58-16.21,3.47-21.68,3.77v3.31h35.31v-7.81l7.13-46.33c0-1.24-1.64-2.15-3.37-1.87-4.39.69-12.6.52-22,.52-5.65,0-10.87.06-15.09,0C78.56,327.75,97.89,328.47,99.2,335.45Z" fill="#fad773"/>
    <path id="路径_20153" data-name="路径 20153" d="M75.82,327.68Z" fill="#9abbfe"/>
    <path id="路径_20154" data-name="路径 20154" d="M75.82,327.68Z" fill="#d3e4fe"/>
    <path id="路径_20155" data-name="路径 20155" d="M116.55,329.08c0-1.24-1.64-2.15-3.37-1.87-4.39.69-12.6.52-22,.52-5.65,0-10.87.06-15.09,0,2.48.06,21.81.78,23.12,7.76.14.72.32,1.66.52,2.76h15.43Z" fill="#f2e9d1"/>
    <path id="路径_20156" data-name="路径 20156" d="M113.94,346l1.21-7.83H99.72c.29,1.57.63,3.48,1,5.59Z" fill="#edc670"/>
    <line id="直线_71" data-name="直线 71" x2="587.72" y2="0.65" transform="translate(32.14 383.9)" fill="none" stroke="#9cceff" stroke-linecap="round" stroke-miterlimit="10" stroke-width="2"/>
    <rect id="矩形_4577" data-name="矩形 4577" width="640" height="425" fill="none"/>
  </g>
</svg>
