<svg xmlns="http://www.w3.org/2000/svg" xmlns:xlink="http://www.w3.org/1999/xlink" width="130" height="130" viewBox="0 0 130 130">
  <defs>
    <linearGradient id="linear-gradient" x1="0.5" x2="0.5" y2="1" gradientUnits="objectBoundingBox">
      <stop offset="0" stop-color="#e8f1fa"/>
      <stop offset="1" stop-color="#f5f8fa"/>
    </linearGradient>
    <clipPath id="clip-path">
      <circle id="椭圆_164" data-name="椭圆 164" cx="65" cy="65" r="65" transform="translate(-0.427 -0.427)" fill="none"/>
    </clipPath>
  </defs>
  <g id="组_24795" data-name="组 24795" transform="translate(0.427 0.427)">
    <g id="组_24790" data-name="组 24790" transform="translate(0 0)">
      <circle id="椭圆_165" data-name="椭圆 165" cx="65" cy="65" r="65" transform="translate(-0.427 -0.427)" fill="url(#linear-gradient)"/>
      <path id="矩形_4114" data-name="矩形 4114" d="M28.834,32.846h78.339a2.834,2.834,0,0,1,2.834,2.834h0a2.834,2.834,0,0,1-2.834,2.833H28.834A2.834,2.834,0,0,1,26,35.68h0A2.834,2.834,0,0,1,28.834,32.846Z" transform="translate(-3.615 -4.566)" fill="#c5d2eb"/>
      <g id="组_24772" data-name="组 24772" transform="translate(0 31.114)">
        <path id="联合_15" data-name="联合 15" d="M13.488,125.679H67.848a11.152,11.152,0,0,0,4.368,9.007c3.156,2.6,3.979,4.53,8.069,4.481h-66.8A13.487,13.487,0,0,1,0,125.68H13.488Z" transform="translate(0 -48.586)" fill="#dde6f0"/>
        <path id="联合_18" data-name="联合 18" d="M107.894,36.138a9.713,9.713,0,0,0-7.588,3.951,15.3,15.3,0,0,0-3.146,9.535h0v63.606h0a13.7,13.7,0,0,1-3.788,9.537,12.536,12.536,0,0,1-17.72.549q-.283-.266-.549-.549a13.705,13.705,0,0,1-3.775-9.536H29.664V49.626h0a13.708,13.708,0,0,1,3.783-9.536,12.572,12.572,0,0,1,9.135-3.95Z" transform="translate(-4.124 -36.138)" fill="#fff"/>
      </g>
      <rect id="矩形_4123" data-name="矩形 4123" width="44.636" height="3.543" rx="1.771" transform="translate(36.013 46.658)" fill="#b6c3dd"/>
      <rect id="矩形_4124" data-name="矩形 4124" width="20.901" height="3.543" rx="1.771" transform="translate(36.013 57.286)" fill="#b6c3dd"/>
      <rect id="矩形_4128" data-name="矩形 4128" width="12.754" height="3.543" rx="1.771" transform="translate(36.013 67.914)" fill="#b6c3dd"/>
      <g id="组_24793" data-name="组 24793">
        <g id="组_24792" data-name="组 24792" clip-path="url(#clip-path)">
          <g id="蒙版组_1088" data-name="蒙版组 1088" transform="translate(56.501 57.06)">
            <g id="组_24773" data-name="组 24773">
              <path id="矩形_4125" data-name="矩形 4125" d="M109.734,110.375h0a1.831,1.831,0,0,1,2.59,0l5.18,5.18a1.832,1.832,0,0,1,0,2.59h0a1.832,1.832,0,0,1-2.59,0l-5.18-5.18A1.832,1.832,0,0,1,109.734,110.375Z" transform="translate(-71.682 -72.33)" fill="#b6c3dd"/>
              <path id="矩形_4126" data-name="矩形 4126" d="M115.665,116.3h0a3.661,3.661,0,0,1,5.18,0L131.2,126.664a3.663,3.663,0,0,1,0,5.18h0a3.663,3.663,0,0,1-5.18,0l-10.359-10.359A3.661,3.661,0,0,1,115.665,116.3Z" transform="translate(-72.431 -73.079)" fill="#b6c3dd"/>
              <g id="路径_20091" data-name="路径 20091">
                <path id="路径_20092" data-name="路径 20092" d="M105.079,105.729a21.569,21.569,0,1,1,4.756-7.161A21.509,21.509,0,0,1,105.079,105.729Z" transform="translate(-65.971 -66.621)" fill="#edf3f9"/>
                <path id="路径_20093" data-name="路径 20093" d="M75.639,76.288a19.425,19.425,0,1,0,6.447-4.282,19.365,19.365,0,0,0-6.447,4.282m-3.044-3.044a23.8,23.8,0,1,1,0,33.658A23.8,23.8,0,0,1,72.594,73.244Z" transform="translate(-65.624 -66.273)" fill="#b6c3dd"/>
              </g>
            </g>
          </g>
        </g>
      </g>
    </g>
  </g>
</svg>
